<svg width="400" height="85" viewBox="0 0 400 85" fill="none" xmlns="http://www.w3.org/2000/svg">
<path d="M20.2518 66.4602C20.43 51.6958 24.7186 37.1986 32.7422 24.7115C34.0212 22.7077 29.6435 18.7892 28.4536 20.5195C20.1564 33.5536 15.6005 48.5025 15.3269 63.9984C15.3269 66.0976 20.1564 69.38 20.2518 66.4602ZM65.6576 7.75888C59.3647 1.46763 49.1522 3.47141 41.4976 5.29708C32.1059 7.5744 22.9879 11.3148 14.7797 16.3274C8.94493 19.7879 0.832212 25.0805 0.0113962 32.5549C-0.26221 34.5587 4.47816 37.9301 4.84085 34.9213C5.38806 29.9086 11.3119 25.7166 15.1424 23.0703C21.6199 18.5157 29.0008 15.0488 36.4773 12.498C43.591 10.0362 52.4355 7.12276 59.9119 8.66853C70.7606 10.9458 58.1812 23.8019 54.3507 27.0843C46.6007 33.649 37.209 37.8411 27.181 39.4823C24.8077 39.8449 28.5491 44.2214 30.1907 44.2214C33.8367 44.2214 38.577 44.126 41.7712 46.3142C46.0534 49.234 42.4075 55.7034 39.6714 58.3497C36.2037 61.8102 31.4633 64.5455 26.9965 66.6447C22.2561 68.833 16.695 70.4741 11.7701 67.8279C10.7647 67.2808 9.58122 67.3762 9.40306 68.7375C9.30761 70.0161 10.8602 71.4729 11.8591 72.0199C18.063 75.3023 24.8077 74.0301 30.9161 71.1103C36.5727 68.3749 43.591 64.5455 46.7852 58.8077C49.7948 53.4261 48.3314 47.0458 43.4128 43.3054C42.4966 42.5802 41.5867 42.0331 40.6768 41.5751C47.1479 39.2978 53.2563 35.8309 58.5439 31.2763C65.1104 25.7166 73.7703 15.8694 65.6576 7.75888Z" fill="white"/>
<path d="M69.0189 43.9479C68.9234 43.5789 68.8343 43.3054 68.7453 42.9428C70.0178 41.4861 66.6455 37.6566 64.8193 38.5663C59.08 41.4861 48.7721 51.5113 54.9759 58.4387C58.2592 62.0837 62.5414 60.5379 65.2775 57.071C68.1981 53.337 69.4706 48.687 69.0189 43.9479ZM62.7259 50.0546C62.0897 51.4223 61.2688 52.6945 60.1744 53.7887C59.5318 54.5202 58.8955 54.7937 58.1637 55.4299C58.2592 54.9782 58.3483 54.4311 58.4373 54.2467C58.6219 53.6105 58.8955 53.0635 59.1691 52.421C59.8054 51.1488 60.6262 49.8701 61.5424 48.776C62.2678 47.7773 63.0886 46.9567 63.9985 46.1361C63.7249 47.5038 63.3622 48.776 62.7259 50.0546Z" fill="white"/>
<path d="M111.595 44.126C105.391 47.0458 98.4622 49.9656 92.1693 53.0635C93.4482 50.4172 94.8163 47.7773 96.3688 45.2201C97.5523 43.3054 94.5427 40.1184 92.5383 40.7545C87.798 42.2176 83.3248 44.4949 79.2271 47.2303C79.2271 47.1348 79.3162 47.0458 79.4053 46.9567C80.4106 45.131 75.9439 41.2125 74.6649 43.4899C72.2915 47.6819 70.1091 52.1475 68.9192 56.7975C68.4674 58.4387 71.8398 62.4526 73.386 60.627C77.2164 55.9769 81.8677 52.1475 87.0662 49.3231C86.1563 51.0597 85.4246 52.879 85.151 54.7047C84.6929 57.8026 87.6134 60.8115 90.8013 60.0799C93.9955 59.3547 97.0942 56.8929 99.8302 55.2517C104.208 52.421 108.675 49.692 113.415 47.5038C115.693 46.4097 113.6 43.2163 111.595 44.126Z" fill="white"/>
<path d="M237.495 45.4937C237.311 44.126 235.764 42.8537 234.575 42.4912C230.655 41.3016 226.646 40.7545 222.631 40.5764C223.363 38.8398 224.184 37.1096 224.909 35.4684C227.556 29.8196 230.292 24.349 232.844 18.7893C235.122 13.8657 239.041 7.94338 236.763 2.47273C236.305 1.3786 234.396 -0.447073 232.933 0.0999928C224.636 3.47144 217.433 9.57821 210.688 15.5069C204.211 21.251 198.013 27.4469 192.363 34.0117C189.627 37.1096 187.069 40.3029 184.613 43.5789C172.663 45.8626 160.905 49.4185 149.687 54.1576C147.32 55.1563 151.144 59.7173 153.155 58.8967C161.815 55.2518 170.748 52.2429 179.866 50.0547C173.758 58.8967 168.381 68.2859 163.819 78.1267C162.909 80.0414 167.376 83.8709 168.47 81.5045C174.031 69.7426 180.687 58.6232 188.532 48.229C190.174 47.8664 191.816 47.5929 193.546 47.3193C200.387 46.2252 207.405 45.5891 214.334 45.4046C212.508 50.1437 210.777 54.9782 209.594 59.9018C208.41 64.73 208.226 69.9271 213.787 71.9309C215.066 72.3889 215.613 71.2948 215.429 70.2006C215.244 69.1956 214.423 68.375 213.602 67.8279C213.602 67.6498 213.513 67.5544 213.513 67.3763C213.698 66.9182 213.602 66.1867 213.698 65.7351C213.971 64.272 214.423 62.9043 214.792 61.5366C215.613 58.5342 216.523 55.6144 217.528 52.79C218.438 50.2391 219.437 47.7773 220.532 45.2201C225.73 45.2201 230.929 45.5891 235.853 47.1349C237.126 47.5929 237.769 46.5878 237.495 45.4937ZM216.434 40.392C215.429 40.481 214.423 40.481 213.513 40.481C206.769 40.6655 200.018 41.2126 193.273 42.1222C194.367 40.85 195.462 39.4823 196.556 38.2037C202.022 31.8234 207.952 25.9011 214.245 20.335C219.711 15.5069 225.367 10.5833 231.749 7.02736C231.565 7.48537 231.387 7.84796 231.291 8.21691C230.566 9.85174 229.834 11.4929 229.102 13.0451C227.83 16.0539 226.462 18.9674 225.094 21.8872C222.084 28.083 219.074 34.1961 216.434 40.392Z" fill="white"/>
<path d="M261.085 38.3881C257.801 35.2838 254.518 37.1986 251.604 39.6604C249.141 41.8486 246.863 44.2214 244.853 46.8613C245.495 45.042 246.132 43.2163 246.768 41.3016C247.5 39.2978 242.848 35.5574 242.028 37.9301C237.287 51.9693 232.458 66.0976 227.711 80.1368C226.986 82.2296 231.637 85.97 232.362 83.5973C235.557 74.4817 239.661 65.277 244.948 57.071C245.584 58.2606 247.042 59.6282 248.136 59.6282C254.518 59.7173 260.448 52.5164 262.453 47.0457C263.636 44.1259 263.458 40.6654 261.085 38.3881ZM257.528 44.2214C255.797 48.2289 251.33 54.2466 246.494 54.7937C247.589 53.1525 248.683 51.6067 249.962 50.1437C251.693 47.8663 253.697 45.7671 255.886 43.9478C256.344 43.4898 256.891 43.0382 257.439 42.6692C257.623 42.4911 257.801 42.3957 257.986 42.2176C257.897 42.9428 257.801 43.5789 257.528 44.2214Z" fill="white"/>
<path d="M289.252 38.3881C285.969 35.2838 282.685 37.1986 279.771 39.6604C277.309 41.8486 275.031 44.2214 273.02 46.8613C273.663 45.042 274.299 43.2163 274.935 41.3016C275.667 39.2978 271.016 35.5574 270.195 37.9301C265.455 51.9693 260.625 66.0976 255.879 80.1368C255.153 82.2296 259.804 85.97 260.53 83.5973C263.724 74.4817 267.828 65.277 273.116 57.071C273.752 58.2606 275.209 59.6282 276.303 59.6282C282.685 59.7173 288.616 52.5164 290.62 47.0457C291.804 44.1259 291.625 40.6654 289.252 38.3881ZM285.695 44.2214C283.964 48.2289 279.498 54.2466 274.662 54.7937C275.756 53.1525 276.851 51.6067 278.13 50.1437C279.86 47.8663 281.865 45.7671 284.054 43.9478C284.512 43.4898 285.059 43.0382 285.606 42.6692C285.791 42.4911 285.969 42.3957 286.153 42.2176C286.064 42.9428 285.969 43.5789 285.695 44.2214Z" fill="white"/>
<path d="M320.614 44.4949C315.231 48.687 302.009 55.1563 296.632 55.8879C296.816 55.1563 297.09 54.4311 297.364 53.7887C300.647 52.2429 312.768 47.5038 307.576 42.1222C304.019 38.3881 299.183 41.7596 296.543 44.673C293.533 47.9554 289.245 54.4311 292.528 58.8077C294.717 61.7211 297.815 61.4476 300.825 60.4425C308.944 57.5291 316.51 52.0584 323.712 47.4084C325.539 46.2252 322.529 43.0382 320.614 44.4949ZM304.293 38.1146C305.839 36.747 306.933 35.0103 307.754 33.102C308.301 31.6389 305.114 29.088 304.471 30.6402C303.746 32.3704 302.74 33.9226 301.372 35.1948C300.278 36.2889 303.198 39.2978 304.293 38.1146Z" fill="white"/>
<path d="M366.287 20.9775C357.717 16.512 347.046 16.4166 337.381 16.512C338.749 13.5031 340.212 10.4943 341.669 7.57446C342.579 5.65973 338.023 1.74122 336.929 4.11396C334.918 8.21694 332.914 12.409 330.999 16.601C320.423 16.9636 309.753 18.1468 299.273 20.157C297.084 20.6086 300.546 25.2586 302.735 24.8961C311.394 23.1658 320.061 22.1607 328.81 21.7027C321.429 38.4773 315.594 55.977 315.868 74.5772C315.957 76.67 320.786 79.9524 320.697 77.039C320.423 57.4401 327.079 39.0243 335.103 21.4292C335.192 21.4292 335.287 21.4292 335.376 21.4292C340.575 21.3401 345.773 21.4292 350.965 21.7981C356.259 22.1607 361.636 22.6187 366.376 25.1696C367.382 25.7167 368.565 25.6276 368.75 24.2599C368.839 22.9813 367.293 21.5246 366.287 20.9775Z" fill="white"/>
<path d="M350.692 44.6731C346.403 48.229 337.654 52.9681 334.008 53.6106C334.097 53.2416 334.282 52.79 334.46 52.421C335.554 49.5076 336.833 46.8613 338.475 44.2214C339.474 42.3957 335.007 38.4772 333.735 40.7545C331.724 44.126 328.721 48.776 328.81 52.79C328.899 56.3459 332.271 59.6283 335.828 58.8967C338.927 58.2606 341.936 56.1614 344.494 54.4312C347.682 52.2429 350.781 49.8702 353.791 47.3193C355.432 45.9517 352.518 43.1273 350.692 44.6731ZM342.484 35.1058C343.852 32.4595 344.036 31.9124 344.036 31.9124C345.131 30.0931 340.664 26.2637 339.385 28.541C339.385 28.541 338.838 29.4507 337.832 31.6389C336.923 33.6491 341.389 37.294 342.484 35.1058Z" fill="white"/>
<path d="M396.734 20.9775C388.163 16.512 377.492 16.4166 367.827 16.512C369.195 13.5031 370.658 10.4943 372.116 7.57446C373.025 5.65973 368.47 1.74122 367.375 4.11396C365.364 8.21694 363.36 12.409 361.445 16.601C350.87 16.9636 340.199 18.1468 329.719 20.157C327.531 20.6086 330.992 25.2586 333.181 24.8961C341.841 23.1658 350.507 22.1607 359.256 21.7027C351.875 38.4773 346.04 55.977 346.314 74.5772C346.403 76.67 351.232 79.9524 351.143 77.039C350.87 57.4401 357.525 39.0243 365.549 21.4292C365.638 21.4292 365.734 21.4292 365.823 21.4292C371.021 21.3401 376.22 21.4292 381.412 21.7981C386.706 22.1607 392.082 22.6187 396.823 25.1696C397.828 25.7167 399.012 25.6276 399.196 24.2599C399.285 22.9813 397.739 21.5246 396.734 20.9775Z" fill="white"/>
</svg>
