<svg width="62" height="62" viewBox="0 0 62 62" fill="none" xmlns="http://www.w3.org/2000/svg">
<path d="M27.8712 2.7401C28.8284 2.25471 29.9052 2 31 2C32.0948 2 33.1716 2.25471 34.1288 2.7401L58.3438 15.0218C58.8458 15.2768 59.2641 15.6496 59.5553 16.1018C59.8465 16.554 60 17.069 60 17.5935V41.8245C59.9997 42.8739 59.6922 43.9042 59.1092 44.8086C58.5262 45.7129 57.689 46.4584 56.6843 46.9679L34.1288 58.414C33.1716 58.8994 32.0948 59.1541 31 59.1541C29.9052 59.1541 28.8284 58.8994 27.8712 58.414L5.31567 46.9679C4.31148 46.4587 3.47459 45.7136 2.89164 44.8098C2.30868 43.906 2.00085 42.8764 2 41.8275V17.5935C1.99998 17.069 2.15351 16.554 2.44472 16.1018C2.73592 15.6496 3.15419 15.2768 3.65622 15.0218L27.8744 2.7401H27.8712Z" stroke="#00796B" stroke-width="4" stroke-linecap="round" stroke-linejoin="round"/>
<path d="M2 15.8633L31 30.5755M31 30.5755L60 15.8633M31 30.5755V59.9999" stroke="#00796B" stroke-width="4" stroke-linejoin="round"/>
<path d="M16.5001 23.2195L45.5001 8.50732M11.6667 31.5407L21.3334 36.4605" stroke="#00796B" stroke-width="4" stroke-linecap="round" stroke-linejoin="round"/>
</svg>
