<svg width="58" height="58" viewBox="0 0 58 58" fill="none" xmlns="http://www.w3.org/2000/svg">
<path d="M31.175 25.375C29.725 25.0125 28.275 24.2875 27.1875 23.2C26.1 22.8375 25.7375 21.75 25.7375 21.025C25.7375 20.3 26.1 19.2125 26.825 18.85C27.9125 18.125 29 17.4 30.0875 17.7625C32.2625 17.7625 34.075 18.85 35.1625 20.3L38.425 15.95C37.3375 14.8625 36.25 14.1375 35.1625 13.4125C34.075 12.6875 32.625 12.325 31.175 12.325V7.25H26.825V12.325C25.0125 12.6875 23.2 13.775 21.75 15.225C20.3 17.0375 19.2125 19.2125 19.575 21.3875C19.575 23.5625 20.3 25.7375 21.75 27.1875C23.5625 29 26.1 30.0875 28.275 31.175C29.3625 31.5375 30.8125 32.2625 31.9 32.9875C32.625 33.7125 32.9875 34.8 32.9875 35.8875C32.9875 36.975 32.625 38.0625 31.9 39.15C30.8125 40.2375 29.3625 40.6 28.275 40.6C26.825 40.6 25.0125 40.2375 23.925 39.15C22.8375 38.425 21.75 37.3375 21.025 36.25L17.4 40.2375C18.4875 41.6875 19.575 42.775 21.025 43.8625C22.8375 44.95 25.0125 46.0375 27.1875 46.0375V50.75H31.175V45.3125C33.35 44.95 35.1625 43.8625 36.6125 42.4125C38.425 40.6 39.5125 37.7 39.5125 35.1625C39.5125 32.9875 38.7875 30.45 36.975 29C35.1625 27.1875 33.35 26.1 31.175 25.375V25.375ZM29 0C13.05 0 0 13.05 0 29C0 44.95 13.05 58 29 58C44.95 58 58 44.95 58 29C58 13.05 44.95 0 29 0ZM29 54.0125C15.225 54.0125 3.9875 42.775 3.9875 29C3.9875 15.225 15.225 3.9875 29 3.9875C42.775 3.9875 54.0125 15.225 54.0125 29C54.0125 42.775 42.775 54.0125 29 54.0125V54.0125Z" fill="#00796B"/>
</svg>
