<?xml version="1.0" encoding="UTF-8"?>
<!DOCTYPE svg PUBLIC "-//W3C//DTD SVG 1.1//EN" "http://www.w3.org/Graphics/SVG/1.1/DTD/svg11.dtd">
<!-- Creator: CorelDRAW 2021 (64 Bit) -->
<svg xmlns="http://www.w3.org/2000/svg" xml:space="preserve" width="210mm" height="297mm" version="1.1" style="shape-rendering:geometricPrecision; text-rendering:geometricPrecision; image-rendering:optimizeQuality; fill-rule:evenodd; clip-rule:evenodd"
viewBox="0 0 21000 29700"
 xmlns:xlink="http://www.w3.org/1999/xlink"
 xmlns:xodm="http://www.corel.com/coreldraw/odm/2003">
 <defs>
  <style type="text/css">
   <![CDATA[
    .fil4 {fill:#161D36}
    .fil2 {fill:#2E3D59}
    .fil1 {fill:#62868D}
    .fil0 {fill:#86CDDA}
    .fil5 {fill:#B68410}
    .fil3 {fill:#F9B20B}
    .fil6 {fill:#FCDA85}
   ]]>
  </style>
 </defs>
 <g id="Camada_x0020_1">
  <metadata id="CorelCorpID_0Corel-Layer"/>
  <g id="_1815934977456">
   <path class="fil0" d="M9628.4 18647c-56.45,-82.61 -57.01,-58.33 -130.4,-118.36 -59.47,-48.55 -50.06,-58.52 -99.17,-108.58 -70.57,-71.69 -190.44,-123.07 -253.66,-190.81 -61.54,-65.86 -19.01,-53.07 -113.29,-122.13 -41.02,-29.92 -88.44,-55.89 -120.43,-88.82 -234.47,-241.62 -106.88,-92.39 -238.23,-206.8l-340.23 -337.59c-238.42,-168.61 -78.28,-26.35 -237.1,-206.43 -43.09,-48.55 -70.57,-56.46 -120.81,-90.7 -105.76,-72.26 -40.46,-33.31 -114.41,-118.37l-80.73 -78.47c-2.63,-2.82 -10.73,-5.64 -12.61,-14.11 -2.07,-8.28 -8.84,-9.22 -12.6,-14.3 -51,17.87 -37.64,26.34 -37.64,-28.23 -114.41,-101.43 -164.84,-75.65 -264.01,-217.53 -74.9,-106.89 -124.76,-216.41 -123.45,-384.82 2.07,-330.44 188.56,-478.16 398,-598.03 -46.67,-169.74 -342.11,-619.67 -34.82,-703.59 -5.26,-51.75 -23.71,-16.38 62.48,-86.19 178.2,-144.14 495.09,-470.44 659.18,-579.02 70.38,-59.28 120.06,-128.53 192.13,-191 81.48,-70.75 122.88,-72.45 192.88,-180.09 -109.51,-141.5 -423.21,-387.83 -583.53,-548.91 -44.41,-44.6 -55.89,-54.38 -96.35,-86.75l-101.43 -84.11c-220.16,-148.85 -528.21,-525.58 -681.39,-831.18 -139.25,-277.94 -311.43,-919.06 -37.44,-1155.41 9.03,-43.47 -4.9,-36.88 34.62,-30.48 -9.6,-47.61 -21.45,-41.78 23.9,-29.92 -12.61,-47.99 -23.52,-39.33 24.27,-33.31 -13.73,-42.72 -22.58,-35.19 21.08,-27.47 -7.71,-44.23 -15.05,-34.82 28.6,-20.52 -4.51,-45.16 -12.6,-33.3 34.63,-23.14 -8.28,-41.97 -15.06,-31.05 28.98,-23.9 139.81,-217.16 665.2,-191.19 951.23,-103.31 329.12,101.05 532.17,230.33 764.19,409.85l173.87 151.86c149.04,134.36 983.04,926.02 1021.05,1007.5 42.53,-24.28 210.39,-169.17 253.85,-207.37 46.86,-41.21 72.26,-79.79 116.86,-117.42 43.66,-36.89 74.33,-50.62 119.5,-86.57 4.32,-4.89 10.53,-11.29 13.36,-14.11l421.7 -389.9c95.41,-80.73 139.44,-132.85 310.68,-84.87 94.65,26.53 210.01,87.69 270.41,143.58 53.44,22.96 56.64,29.17 107.64,53.25 86.18,-70.37 165.41,-162.77 315.95,-206.99 141.13,-41.4 306.54,-42.34 432.05,19.95 265.71,112.53 196.27,146.77 348.69,305.97 181.41,82.99 316.52,314.63 486.07,482.11l1165.75 1147.69c82.05,75.84 146.59,153.37 230.9,215.84 0,-1609.85 -917.37,-3040.75 -2168.93,-3871.36 -1410.95,-936.37 -3187.53,-1013.34 -4774.24,-226.38 -374.1,185.54 -725.05,444.47 -1034.41,716.95 -172.56,151.86 -283.4,302.78 -418.32,443.91 -132.29,138.5 -254.79,334.2 -364.69,497.92 -988.3,1472.48 -998.84,3463.59 -58.33,5034.68 239.17,399.12 538.75,770.58 892.33,1067.9 49.49,41.78 70.38,73.2 119.87,115.35 249.34,212.08 488.7,351.33 765.32,515.23 402.89,239.18 1219.57,537.81 1670.63,537.81z"/>
   <path class="fil1" d="M12886.31 12809.37l3.2 26.35c58.15,86.75 118.74,226.75 139.07,360.92 39.32,260.06 -159.39,320.09 -410.61,559.83 -69.43,66.43 -169.73,159.01 -276.05,235.6l-465.55 433.37c-61.72,48.36 -98.61,82.8 -175.01,135.86l-91.26 -92.2 416.06 381.81c77.9,76.96 139.81,120.62 220.92,197.77l1018.6 1009.95c58.9,46.48 72.07,167.85 66.05,263.07 -6.02,97.66 -29.36,156.56 -84.68,232.77 -105.76,145.84 -276.81,189.87 -453.13,163.72 -178.58,-26.35 -608.75,-442.03 -722.22,-569.8 -114.23,-64.92 -417.57,-364.69 -533.11,-470.82 -179.52,-164.66 -331.76,-316.89 -516.55,-476.09 -82.42,28.04 -51.74,35.57 -125.13,100.11 -61.35,54.01 -55.14,38.95 -125.14,111.59 -77.15,80.16 -158.82,140 -246.33,197.4l-26.15 26.15c0.37,36.7 8.65,28.04 -28.79,20.89l-36.51 33.31c-39.52,71.51 -330.81,307.1 -404.77,361.49 -108.2,132.1 -641.87,580.9 -800.5,726.55 -83.37,254.41 -599.16,10.54 -697.39,-153.93 -75.27,126.46 -137.37,207.94 -291.3,281.14 -162.2,76.77 -302.21,46.1 -485.3,45.35l8.27 -35.19 -45.91 6.96c0,54.57 -13.36,46.1 37.64,28.23 3.76,5.08 10.53,6.02 12.6,14.3 1.88,8.47 9.98,11.29 12.61,14.11l80.73 78.47c73.95,85.06 8.65,46.11 114.41,118.37 50.24,34.24 77.72,42.15 120.81,90.7 158.82,180.08 -1.32,37.82 237.1,206.43l340.23 337.59c131.35,114.41 3.76,-34.82 238.23,206.8 31.99,32.93 79.41,58.9 120.43,88.82 94.28,69.06 51.75,56.27 113.29,122.13 63.22,67.74 183.09,119.12 253.66,190.81 49.11,50.06 39.7,60.03 99.17,108.58 73.39,60.03 73.95,35.75 130.4,118.36 126.84,85.06 981.54,43.47 1182.13,19.01 513.91,-62.85 818.38,-157.32 1261.35,-332.7 81.86,-32.36 135.49,-54 218.29,-95.59 325.73,-164.28 519.18,-271.35 812.74,-493.97 1264.55,-959.51 1896.26,-2314.39 1896.26,-3928.76 -84.31,-62.47 -148.85,-140 -230.9,-215.84l-1165.75 -1147.69c-169.55,-167.48 -304.66,-399.12 -486.07,-482.11 46.11,191.57 96.35,309.55 12.24,519.93 -26.91,67.18 -68.12,131.92 -107.45,180.84 -72.64,90.33 -100.49,60.03 -134.93,139.25z"/>
   <path class="fil2" d="M7495.42 11087.93c-44.04,-7.15 -37.26,-18.07 -28.98,23.9 -47.23,-10.16 -39.14,-22.02 -34.63,23.14 -43.65,-14.3 -36.31,-23.71 -28.6,20.52 -43.66,-7.72 -34.81,-15.25 -21.08,27.47 -47.79,-6.02 -36.88,-14.68 -24.27,33.31 -45.35,-11.86 -33.5,-17.69 -23.9,29.92 -39.52,-6.4 -25.59,-12.99 -34.62,30.48 51.56,0 45.91,15.06 34.62,-30.48 45.73,5.83 36.7,14.86 23.9,-29.92 50.43,11.66 37.64,18.63 24.27,-33.31 38.2,6.02 28.04,12.42 21.08,-27.47 39.71,6.96 33.12,17.12 28.6,-20.52 50.43,13.74 42.91,26.35 34.63,-23.14 41.96,10.54 32.74,19 28.98,-23.9 58.14,-20.51 38.76,-15.05 45.54,-20.32 -35.95,334.58 110.83,675.36 232.77,925.26 170.3,348.32 290.17,424.34 515.23,636.79 520.12,490.77 1141.11,506.2 1682.68,643.19 -65.11,130.79 -165.78,205.68 -293.18,290.17 -124.95,82.8 -279.63,97.1 -404.39,167.48l-78.85 -2.26c17.5,8.28 8.66,10.35 48.55,13.74 2.45,0.19 13.36,0.94 15.24,-4.33 2.07,-5.46 9.98,-4.89 15.06,-7.15 255.16,41.59 111.96,-57.58 317.08,106.32 97.09,77.53 103.68,123.44 192.31,197.96 70,58.9 173.69,127.59 229.01,190.06l623.81 579.21c99.92,76.78 101.8,121.75 192.51,197.78 77.15,64.54 162.96,99.54 193.25,199.65 184.79,159.2 337.03,311.43 516.55,476.09 115.54,106.13 418.88,405.9 533.11,470.82 207.74,39.7 353.02,178.2 653.35,186.11 182.72,4.89 347.75,-55.71 450.3,-192.89 82.05,-109.89 13.55,-81.67 90.33,-82.98l-1018.6 -1009.95c-81.11,-77.15 -143.02,-120.81 -220.92,-197.77l-416.06 -381.81 -588.24 -522.38c-74.9,-64.17 -875.03,-846.42 -943.15,-866.75 1.32,-237.48 -8.65,-209.81 120.06,-332.32 83.17,-79.22 138.87,-117.23 206.99,-193.82 -38.01,-81.48 -872.01,-873.14 -1021.05,-1007.5l-173.87 -151.86c-232.02,-179.52 -435.07,-308.8 -764.19,-409.85 -286.03,-87.88 -811.42,-113.85 -951.23,103.31z"/>
   <path class="fil3" d="M11912.12 11797.17c-240.11,-1.69 -336.46,-25.03 -560.95,64.36 -197.97,78.65 -302.03,188.93 -455.2,280.94 -45.17,35.95 -75.84,49.68 -119.5,86.57 -44.6,37.63 -70,76.21 -116.86,117.42 -43.46,38.2 -211.32,183.09 -253.85,207.37 -68.12,76.59 -123.82,114.6 -206.99,193.82 -128.71,122.51 -118.74,94.84 -120.06,332.32 68.12,20.33 868.25,802.58 943.15,866.75l588.24 522.38 91.26 92.2c76.4,-53.06 113.29,-87.5 175.01,-135.86l465.55 -433.37c3.76,-6.21 9.97,-13.55 13.17,-17.5 3.2,-3.77 9.41,-12.42 13.36,-16.94 126.83,-145.27 202.1,-140.57 364.69,-427.16 136.99,-242 161.83,-396.3 156.37,-694.75l-3.2 -26.35c-51.56,-67.18 -104.25,-177.64 -162.2,-249.33 -142.08,-176.13 -456.15,-509.96 -635.85,-619.86 22.2,-13.73 18.81,-29.35 111.77,-8.28 83.93,18.82 170.68,69.44 319.15,28.04 159.2,-44.41 212.26,-136.43 248.58,-296.56 -125.51,-62.29 -290.92,-61.35 -432.05,-19.95 -150.54,44.22 -229.77,136.62 -315.95,206.99 -51,-24.08 -54.2,-30.29 -107.64,-53.25z"/>
   <path class="fil3" d="M8799.48 13983.03c-70,107.64 -111.4,109.34 -192.88,180.09 -72.07,62.47 -121.75,131.72 -192.13,191 -300.33,524.07 -156.18,644.13 -77.53,956.69l426.04 424.53c202.66,219.6 276.81,408.91 362.43,515.6 125.7,167.86 288.1,162.78 491.52,73.02 89,-39.14 132.85,-67.93 222.42,-117.99 210.38,-117.42 45.73,-80.92 189.87,-153.55 73.96,-54.39 365.25,-289.98 404.77,-361.49 0,-51.18 -12.98,-41.02 36.51,-33.31l28.79 -20.89 26.15 -26.15c53.45,-434.69 -297.5,-915.11 -490.95,-1145.06 -142.83,-169.74 -263.26,-280.76 -409.47,-427.91 -247.27,-248.77 -146.03,-136.62 -538,-271.54l-287.54 216.96z"/>
   <path class="fil4" d="M7495.42 11087.93c3.76,42.9 12.98,34.44 -28.98,23.9 8.28,49.49 15.8,36.88 -34.63,23.14 4.52,37.64 11.11,27.48 -28.6,20.52 6.96,39.89 17.12,33.49 -21.08,27.47 13.37,51.94 26.16,44.97 -24.27,33.31 12.8,44.78 21.83,35.75 -23.9,29.92 11.29,45.54 16.94,30.48 -34.62,30.48 -273.99,236.35 -101.81,877.47 37.44,1155.41 153.18,305.6 461.23,682.33 681.39,831.18 126.46,41.77 116.86,68.49 242.38,146.96 73.38,45.92 165.59,101.24 247.07,140.76 205.3,99.55 328.37,114.41 579.4,170.68l108.2 6.58 78.85 2.26c124.76,-70.38 279.44,-84.68 404.39,-167.48 127.4,-84.49 228.07,-159.38 293.18,-290.17 -541.57,-136.99 -1162.56,-152.42 -1682.68,-643.19 -225.06,-212.45 -344.93,-288.47 -515.23,-636.79 -121.94,-249.9 -268.72,-590.68 -232.77,-925.26 -6.78,5.27 12.6,-0.19 -45.54,20.32z"/>
   <path class="fil2" d="M7727.63 15722.92c150.35,-30.67 361.11,-76.78 485.31,24.46 140.38,42.91 283.96,191 343.42,325.93 87.13,197.02 41.4,369.58 -25.03,551.73 98.23,164.47 614.02,408.34 697.39,153.93 33.49,-229.2 -44.04,-353.59 -103.31,-528.03 -85.62,-106.69 -159.77,-296 -362.43,-515.6l-426.04 -424.53c-160.13,-105.57 -391.78,-292.61 -644.13,-291.48 -307.29,83.92 -11.85,533.85 34.82,703.59z"/>
   <path class="fil3" d="M7727.63 15722.92c-209.44,119.87 -395.93,267.59 -398,598.03 -1.31,168.41 48.55,277.93 123.45,384.82 99.17,141.88 149.6,116.1 264.01,217.53l45.91 -6.96c191.38,17.5 391.23,-256.49 464.43,-416.06 108.01,-234.85 69.81,-502.25 -14.49,-752.9 -124.2,-101.24 -334.96,-55.13 -485.31,-24.46z"/>
   <path class="fil5" d="M12886.31 12809.37c34.44,-79.22 62.29,-48.92 134.93,-139.25 39.33,-48.92 80.54,-113.66 107.45,-180.84 84.11,-210.38 33.87,-328.36 -12.24,-519.93 -152.42,-159.2 -82.98,-193.44 -348.69,-305.97 -36.32,160.13 -89.38,252.15 -248.58,296.56 -148.47,41.4 -235.22,-9.22 -319.15,-28.04 -92.96,-21.07 -89.57,-5.45 -111.77,8.28 179.7,109.9 493.77,443.73 635.85,619.86 57.95,71.69 110.64,182.15 162.2,249.33z"/>
   <path class="fil5" d="M10525.44 15610.58l-26.15 26.15 -28.79 20.89c-49.49,-7.71 -36.51,-17.87 -36.51,33.31l36.51 -33.31c37.44,7.15 29.16,15.81 28.79,-20.89l26.15 -26.15c87.51,-57.4 169.18,-117.24 246.33,-197.4 70,-72.64 63.79,-57.58 125.14,-111.59 73.39,-64.54 42.71,-72.07 125.13,-100.11 -30.29,-100.11 -116.1,-135.11 -193.25,-199.65 -90.71,-76.03 -92.59,-121 -192.51,-197.78l-623.81 -579.21c-55.32,-62.47 -159.01,-131.16 -229.01,-190.06 -88.63,-74.52 -95.22,-120.43 -192.31,-197.96 -205.12,-163.9 -61.92,-64.73 -317.08,-106.32 -5.08,2.26 -12.99,1.69 -15.06,7.15 -1.88,5.27 -12.79,4.52 -15.24,4.33 -39.89,-3.39 -31.05,-5.46 -48.55,-13.74l-108.2 -6.58 0 44.41c391.97,134.92 290.73,22.77 538,271.54 146.21,147.15 266.64,258.17 409.47,427.91 193.45,229.95 544.4,710.37 490.95,1145.06z"/>
   <path class="fil4" d="M12071.7 16148.39c113.47,127.77 543.64,543.45 722.22,569.8 176.32,26.15 347.37,-17.88 453.13,-163.72 55.32,-76.21 78.66,-135.11 84.68,-232.77 6.02,-95.22 -7.15,-216.59 -66.05,-263.07 -76.78,1.31 -8.28,-26.91 -90.33,82.98 -102.55,137.18 -267.58,197.78 -450.3,192.89 -300.33,-7.91 -445.61,-146.41 -653.35,-186.11z"/>
   <path class="fil5" d="M7763 16916.34l-8.27 35.19c183.09,0.75 323.1,31.42 485.3,-45.35 153.93,-73.2 216.03,-154.68 291.3,-281.14 66.43,-182.15 112.16,-354.71 25.03,-551.73 -59.46,-134.93 -203.04,-283.02 -343.42,-325.93 84.3,250.65 122.5,518.05 14.49,752.9 -73.2,159.57 -273.05,433.56 -464.43,416.06z"/>
   <path class="fil6" d="M7692.81 15019.33c252.35,-1.13 484,185.91 644.13,291.48 -78.65,-312.56 -222.8,-432.62 77.53,-956.69 -164.09,108.58 -480.98,434.88 -659.18,579.02 -86.19,69.81 -67.74,34.44 -62.48,86.19z"/>
   <path class="fil2" d="M8799.48 13983.03l287.54 -216.96 0 -44.41c-251.03,-56.27 -374.1,-71.13 -579.4,-170.68 -81.48,-39.52 -173.69,-94.84 -247.07,-140.76 -125.52,-78.47 -115.92,-105.19 -242.38,-146.96l101.43 84.11c40.46,32.37 51.94,42.15 96.35,86.75 160.32,161.08 474.02,407.41 583.53,548.91z"/>
   <path class="fil5" d="M12341.92 13992.07c106.32,-76.59 206.62,-169.17 276.05,-235.6 251.22,-239.74 449.93,-299.77 410.61,-559.83 -20.33,-134.17 -80.92,-274.17 -139.07,-360.92 5.46,298.45 -19.38,452.75 -156.37,694.75 -162.59,286.59 -237.86,281.89 -364.69,427.16 -3.95,4.52 -10.16,13.17 -13.36,16.94 -3.2,3.95 -9.41,11.29 -13.17,17.5z"/>
   <path class="fil5" d="M9125.41 16250.94c59.27,174.44 136.8,298.83 103.31,528.03 158.63,-145.65 692.3,-594.45 800.5,-726.55 -144.14,72.63 20.51,36.13 -189.87,153.55 -89.57,50.06 -133.42,78.85 -222.42,117.99 -203.42,89.76 -365.82,94.84 -491.52,-73.02z"/>
   <path class="fil6" d="M10895.97 12142.47c153.17,-92.01 257.23,-202.29 455.2,-280.94 224.49,-89.39 320.84,-66.05 560.95,-64.36 -60.4,-55.89 -175.76,-117.05 -270.41,-143.58 -171.24,-47.98 -215.27,4.14 -310.68,84.87l-421.7 389.9c-2.83,2.82 -9.04,9.22 -13.36,14.11z"/>
  </g>
 </g>
</svg>
