<svg width="219" height="60" viewBox="0 0 219 60" fill="none" xmlns="http://www.w3.org/2000/svg">
<path d="M45.4415 59.2635H44.6883C42.1908 59.0347 39.5217 58.0052 36.6715 56.1654C35.6802 55.4886 34.6411 54.5736 33.5544 53.4105C32.4677 52.2476 31.5049 51.037 30.6661 49.7692C30.1227 48.9112 29.3982 47.5671 28.4831 45.7273C27.5775 43.8971 26.834 42.3243 26.2811 41.0278C25.814 39.8554 25.5376 39.2167 25.4422 39.1309C25.3279 39.0736 24.8989 39.026 24.1553 38.9879C22.5348 38.8735 21.1336 38.4826 19.9515 37.7964C18.7694 37.1195 18.1784 36.3759 18.1784 35.5561C18.1784 35.1082 18.3882 34.6411 18.7981 34.1549C19.4463 33.3923 20.3424 33.011 21.4767 33.011C22.573 33.011 23.8217 33.3065 25.223 33.907C25.5947 34.0692 25.8521 34.1549 26.0047 34.1549C26.1095 34.1549 26.386 33.9356 26.815 33.4876C27.5775 32.7059 28.1876 31.9815 28.6547 31.3047C29.5698 29.8939 30.3896 28.2257 31.1141 26.3097C32.3056 23.1068 32.8966 19.0745 32.8966 14.2129C32.8966 10.0282 32.277 6.74895 31.0283 4.38489C30.7899 3.87973 30.5517 3.51741 30.3325 3.29821C30.0083 3.00266 29.5221 2.85014 28.8454 2.85014C28.1399 2.85014 27.3487 3.1076 26.4622 3.61276C25.5757 4.12752 24.7464 4.95682 23.9647 6.09126C22.8304 7.79754 21.7436 10.3236 20.7046 13.66C19.6751 16.9869 18.8553 20.5807 18.2357 24.4413C17.2729 30.5802 16.6533 36.7382 16.3959 42.8962C16.148 48.4441 15.8526 51.628 15.4998 52.4478C15.4046 52.6384 15.2234 52.8767 14.9374 53.1722C14.2511 53.9158 13.6791 54.4019 13.212 54.6307C12.1444 55.0692 10.9814 55.298 9.72312 55.298C8.00733 55.298 6.49166 54.9739 5.16661 54.3162C4.58509 54.0587 4.14661 53.6965 3.82256 53.2485C3.508 52.7909 3.16478 52.0093 2.79305 50.913C2.14477 49.0161 1.70628 47.2812 1.47758 45.7083C1.25829 44.1354 1.08668 43.0487 0.981829 42.4482C0.324138 38.4636 0 33.5257 0 27.6252C0 26.4335 0.0190928 25.242 0.0571813 24.0505C0.276469 16.7295 0.743542 12.0491 1.44891 9.99957C1.75396 8.82704 2.75487 8.23603 4.47074 8.23603C5.99591 8.23603 7.43532 8.56017 8.79846 9.21786C10.0663 9.82796 10.9528 10.5715 11.4772 11.4485C11.5534 11.601 11.6106 11.744 11.6487 11.8966C11.7059 12.1253 11.7249 12.8116 11.7249 13.9651C11.7249 15.3091 11.6678 16.8439 11.5343 18.5692C11.2579 22.3918 11.1149 25.9284 11.1149 29.1885C11.1149 31.8289 11.2102 34.2883 11.3913 36.5571C11.582 38.7496 11.868 41.1041 12.2588 43.5921C12.4495 44.6978 12.5638 45.2412 12.621 45.2412C12.6592 45.2412 12.6878 44.9361 12.7069 44.3165C12.8593 40.6179 13.0118 37.7868 13.1834 35.8326C14.0032 26.9674 15.1472 20.0754 16.6152 15.1662C18.1213 9.9519 19.6369 6.18652 21.1431 3.87972C22.3918 2.078 23.8122 0.857889 25.4136 0.2287C25.8807 0.0762604 26.5099 0 27.3106 0C28.1304 0.0190015 28.8835 0.114352 29.5793 0.276378C31.8862 0.915067 33.8404 2.03992 35.4418 3.66044C38.3397 6.54875 40.2462 10.8575 41.1327 16.5865C41.2853 17.5779 41.3615 18.8362 41.3615 20.3614L41.3329 22.0391C41.2948 25.404 40.4273 28.4068 38.7401 31.0282C37.2625 33.316 35.6325 35.0414 33.8499 36.1948C33.4781 36.4332 33.0015 36.7096 32.4201 37.0051C30.933 37.8249 30.1037 38.2348 29.9416 38.2348C29.8463 38.2348 29.7986 38.2634 29.7986 38.3206C29.7986 38.4255 30.4945 39.8268 31.8957 42.5054C33.421 45.3937 34.4123 47.243 34.8794 48.0628C37.2434 52.0283 39.9221 54.8213 42.8962 56.4419C43.9925 57.0234 44.9267 57.3093 45.6892 57.3093C46.7664 57.3093 47.939 56.6992 49.2068 55.4886C49.8073 54.9739 50.1028 54.6116 50.1028 54.4019V54.2589C50.1028 54.0587 50.2553 53.8967 50.5604 53.7918C50.8654 53.6775 51.2277 53.6202 51.6376 53.6202H52.0856C52.3429 53.6202 52.6099 53.6965 52.8673 53.8586C53.1247 54.0206 53.2581 54.2208 53.2581 54.4591C53.2581 54.9453 52.791 55.6412 51.8568 56.5563C50.3507 58.1387 48.549 59.0061 46.4424 59.1777L45.4415 59.2635ZM22.8208 36.1377L23.2593 35.9946C23.4118 35.947 23.4881 35.8803 23.4881 35.804C23.4881 35.7278 23.4118 35.642 23.2593 35.5561C23.2116 35.5181 23.164 35.499 23.1258 35.499C23.0305 35.499 22.9256 35.5752 22.8017 35.7373C22.6779 35.8898 22.6206 36.0042 22.6206 36.0805C22.6206 36.1186 22.6588 36.1377 22.735 36.1377H22.8208Z" fill="#F69110"/>
<path d="M56.3084 48.4249C54.0682 48.4249 51.8567 47.6147 49.6547 45.9942C48.4631 45.1362 47.3383 43.6491 46.2611 41.5329C45.1935 39.4072 44.6597 37.0241 44.6597 34.374C44.6597 27.2628 46.2516 21.9818 49.4355 18.5119C50.4364 17.511 51.5612 16.615 52.7909 15.8333C54.0301 15.2423 55.2788 14.9373 56.5276 14.9373C58.0528 14.9373 59.5781 15.3852 61.1127 16.2813C62.9335 17.4729 64.0869 18.7788 64.5731 20.1896C64.7351 20.733 64.8209 21.3145 64.8209 21.9532C64.8209 22.7348 64.7256 23.4498 64.5159 24.0979C63.1337 27.7871 60.3597 31.0949 56.194 34.0118C56.0033 34.1452 55.8794 34.2691 55.8032 34.3836C55.7269 34.4884 55.6887 35.3559 55.6887 36.9764C55.6887 37.9487 55.8318 39.1021 56.1082 40.4367C56.499 42.305 56.8231 43.6682 57.0901 44.5452C57.1663 45.0695 57.3093 45.3269 57.5381 45.3269C59.416 45.3269 62.2567 41.7045 66.0506 34.4598C66.8894 32.8583 67.4424 31.9051 67.6997 31.5905C67.8523 31.3999 67.9857 31.2951 68.1191 31.276C69.2535 31.3331 69.8254 31.6096 69.8254 32.1148C69.8254 32.191 69.5585 32.8297 69.0438 34.0403C68.0334 36.3377 67.2708 38.0059 66.7465 39.0735C64.4777 43.5348 62.371 46.3468 60.436 47.5002C59.3016 48.1198 57.9289 48.4249 56.3084 48.4249ZM56.1654 30.7993L56.9184 30.1893C59.1205 28.216 60.7219 25.871 61.7228 23.1543C61.9325 22.5728 62.0279 21.9627 62.0279 21.305C62.0279 20.1325 61.8182 19.3317 61.3892 18.9027C61.2938 18.817 61.1986 18.7693 61.1127 18.7693C60.9984 18.7884 60.8268 18.9409 60.6076 19.246C60.1977 19.6559 59.864 20.1134 59.5971 20.6377C59.1586 21.4956 58.6057 22.8016 57.9575 24.546C57.2998 26.3 56.8231 27.768 56.5276 28.9596C56.4323 29.4838 56.356 29.8461 56.2893 30.0463C56.2226 30.256 56.194 30.4085 56.194 30.4943C56.194 30.5896 56.1749 30.6754 56.1368 30.7516C56.1368 30.7898 56.1463 30.7993 56.1654 30.7993Z" fill="#F69110"/>
<path d="M78.8149 50.2935C75.183 49.6453 72.3423 48.0057 70.2928 45.3652C68.2434 42.7342 67.2234 39.1404 67.2234 34.5744C67.2234 33.2112 67.3092 31.7527 67.4713 30.1895C67.9193 26.243 68.7391 23.04 69.9306 20.5807C70.9792 18.1976 72.3709 16.6342 74.125 15.8907C74.6397 15.5952 75.1259 15.4045 75.5739 15.3282C76.0218 15.2616 76.7654 15.2234 77.8045 15.2234C78.9293 15.2234 79.8063 15.2901 80.464 15.414C81.1123 15.5475 81.9416 15.8144 82.9425 16.2243C86.5172 17.6828 88.3093 19.5988 88.3093 21.9819C88.3093 23.4308 88.0138 24.7941 87.4132 26.0524C87.0987 26.7482 86.7555 27.0914 86.3837 27.0914C85.745 27.0914 85.1826 26.834 84.6774 26.3383C84.5821 22.5349 84.4391 20.6379 84.2294 20.6379C84.1149 20.6379 83.7718 20.8667 83.1999 21.3051C80.8739 23.0972 79.3487 26.7863 78.6433 32.3723C78.5003 33.7069 78.4241 35.2321 78.4241 36.948C78.4241 39.3883 78.5957 41.19 78.9483 42.3624C79.7872 45.1935 80.2734 46.6139 80.4068 46.6139C80.5498 46.6139 81.3124 46.1659 82.666 45.2698C86.1264 42.4387 88.8621 38.5303 90.8545 33.5448C91.2071 32.6679 91.4359 32.1912 91.5313 32.1149C91.6361 32.0387 91.7981 32.0006 92.0269 32.0006C92.4368 32.0006 92.799 32.0674 93.1137 32.2008C93.3329 32.42 93.4473 32.6107 93.4473 32.7632C93.3329 33.3732 92.761 34.9271 91.7124 37.4246C90.8449 39.4932 89.9393 41.2566 89.0052 42.7246C86.479 46.6902 84.0674 49.1209 81.77 50.017C81.4363 50.1695 81.0264 50.2553 80.5403 50.2744L78.8149 50.2935Z" fill="#F69110"/>
<path d="M102.388 48.4249C100.148 48.4249 97.9363 47.6147 95.7343 45.9942C94.5427 45.1362 93.4179 43.6491 92.3407 41.5329C91.2731 39.4072 90.7393 37.0241 90.7393 34.374C90.7393 27.2628 92.3312 21.9818 95.515 18.5119C96.516 17.511 97.6408 16.615 98.8704 15.8333C100.11 15.2423 101.358 14.9373 102.607 14.9373C104.132 14.9373 105.658 15.3852 107.192 16.2813C109.013 17.4729 110.166 18.7788 110.653 20.1896C110.815 20.733 110.901 21.3145 110.901 21.9532C110.901 22.7348 110.805 23.4498 110.595 24.0979C109.213 27.7871 106.439 31.0949 102.274 34.0118C102.083 34.1452 101.959 34.2691 101.883 34.3836C101.807 34.4884 101.768 35.3559 101.768 36.9764C101.768 37.9487 101.911 39.1021 102.188 40.4367C102.579 42.305 102.903 43.6682 103.17 44.5452C103.246 45.0695 103.389 45.3269 103.618 45.3269C105.496 45.3269 108.336 41.7045 112.13 34.4598C112.969 32.8583 113.522 31.9051 113.779 31.5905C113.932 31.3999 114.065 31.2951 114.199 31.276C115.333 31.3331 115.905 31.6096 115.905 32.1148C115.905 32.191 115.638 32.8297 115.123 34.0403C114.113 36.3377 113.35 38.0059 112.826 39.0735C110.557 43.5348 108.451 46.3468 106.516 47.5002C105.381 48.1198 104.008 48.4249 102.388 48.4249ZM102.245 30.7993L102.998 30.1893C105.2 28.216 106.802 25.871 107.802 23.1543C108.012 22.5728 108.107 21.9627 108.107 21.305C108.107 20.1325 107.898 19.3317 107.469 18.9027C107.373 18.817 107.278 18.7693 107.192 18.7693C107.078 18.7884 106.906 18.9409 106.687 19.246C106.277 19.6559 105.944 20.1134 105.677 20.6377C105.238 21.4956 104.685 22.8016 104.037 24.546C103.379 26.3 102.903 27.768 102.607 28.9596C102.512 29.4838 102.436 29.8461 102.369 30.0463C102.302 30.256 102.274 30.4085 102.274 30.4943C102.274 30.5896 102.255 30.6754 102.216 30.7516C102.216 30.7898 102.226 30.7993 102.245 30.7993Z" fill="#F69110"/>
<path d="M124.113 52.3047C122.139 52.3047 120.128 51.7137 118.079 50.5221C116.477 49.5498 115.228 48.3392 114.332 46.8903C113.312 45.1362 112.798 42.4195 112.798 38.7399C112.798 35.0318 113.427 30.8947 114.676 26.3382C115.19 24.3268 115.743 23.059 116.334 22.5347C116.916 22.02 117.983 21.753 119.528 21.753C120.576 21.753 121.377 21.8484 121.93 22.039C124.704 22.8207 126.095 24.098 126.095 25.8901C126.095 26.891 125.829 28.5115 125.285 30.7517C124.408 34.7362 123.97 38.1394 123.97 40.9705C123.97 41.7523 124.036 42.9247 124.17 44.488C124.313 46.3659 124.484 47.5766 124.666 48.1199C124.704 48.1199 125.009 47.9293 125.562 47.5575C128.278 45.5461 130.957 40.1793 133.578 31.4475C133.674 31.114 133.836 30.9424 134.084 30.9424C134.303 30.9424 134.741 31.0186 135.39 31.1712C135.971 31.3141 136.257 31.5143 136.257 31.7526C135.666 35.0127 134.389 39.0546 132.435 43.8779C131.634 45.7177 130.89 47.1476 130.194 48.1771C128.336 50.9129 126.305 52.2856 124.113 52.3047ZM125.171 19.6654C123.646 19.6654 122.282 19.2364 121.091 18.388C119.899 17.5396 119.308 16.7294 119.308 15.9477C119.308 15.8334 119.375 15.6999 119.499 15.5283C119.632 15.3567 119.88 15.2042 120.252 15.0516C120.633 14.9087 121.043 14.8134 121.482 14.7753C123.922 14.7753 125.676 15.7189 126.734 17.6255C126.925 17.9972 127.02 18.3214 127.02 18.5977C127.02 19.3032 126.401 19.6654 125.171 19.6654Z" fill="#F69110"/>
<path d="M144.188 54.7355C143.731 54.7355 143.311 54.7069 142.94 54.6593C140.147 54.0587 137.849 52.5526 136.067 50.1313C134.275 47.8054 133.388 42.8961 133.388 35.4132C133.388 31.1902 133.474 28.1399 133.665 26.281C133.884 23.8979 134.217 20.9332 134.665 17.3967C135.285 13.6981 135.819 10.9242 136.286 9.07487L136.343 8.68405C136.343 8.60779 136.086 8.54103 135.562 8.46476L128.612 7.54011C124.923 7.07303 122.493 6.84424 121.32 6.84424C117.373 7.10162 114.647 8.14062 113.141 9.94234C112.779 10.295 112.34 10.4761 111.797 10.4761C110.863 10.4761 110.396 10.0567 110.396 9.21781C110.529 7.67355 111.654 6.39625 113.78 5.39534C115.734 4.49927 118.317 4.04169 121.511 4.02261C123.751 4.06078 127.325 4.40392 132.235 5.05211L137.354 5.77656C138.316 3.97493 139.394 2.87876 140.585 2.48786C140.814 2.44977 141.224 2.43068 141.815 2.43068C144.503 2.43068 146.305 3.53644 147.239 5.75756L147.401 6.81566C148.707 6.89192 149.784 6.93001 150.642 6.93001C152.987 6.93001 155.408 6.75848 157.906 6.42484C163.883 5.52878 167.028 4.19423 167.343 2.43068C167.715 2.00169 168.115 1.79199 168.544 1.79199C169.268 1.79199 169.631 2.19239 169.631 2.99311C169.631 4.40393 168.868 5.60504 167.343 6.59637C166.342 7.26365 165.198 7.78799 163.94 8.15972C160.213 9.19881 155.503 9.72305 149.803 9.72305L147.687 9.66588C147.592 10.5905 147.124 12.8974 146.286 16.5579C145.351 22.7826 144.837 27.4917 144.722 30.6945L144.665 33.5448C144.665 38.5303 145.046 43.43 145.809 48.2344C145.961 49.6833 146.066 50.4077 146.124 50.4077L146.343 50.2934L146.734 49.8549C148.592 47.3574 150.27 44.0019 151.757 39.7981C152.062 38.9211 152.853 36.824 154.131 33.5162C154.436 32.8394 154.655 32.439 154.808 32.3151C154.951 32.1816 155.237 32.1149 155.647 32.1149C156.199 32.1149 156.628 32.2674 156.924 32.5629C157 32.6392 157.038 32.6964 157.038 32.7345C157.038 33.0491 156.523 34.8221 155.503 38.0632C154.665 40.7609 153.549 43.7827 152.148 47.1095C150.642 50.6175 149.374 52.7909 148.354 53.6488C147.592 54.3542 146.457 54.7069 144.941 54.7069L144.188 54.7355Z" fill="#F69110"/>
<path d="M181.108 58.9012C180.25 58.9012 179.325 58.7296 178.315 58.396C173.51 56.9089 170.517 52.4381 169.325 44.9933C169.192 44.2878 169.097 42.7913 169.039 40.5226L168.544 41.3042C167.085 43.6492 165.751 45.0314 164.521 45.4413C164.073 45.5843 163.558 45.6606 162.986 45.6606C161.833 45.6606 160.651 45.3841 159.44 44.8217C155.618 42.9819 153.711 39.636 153.711 34.7935C153.711 31.9719 154.207 29.3885 155.189 27.0627C156.771 23.2783 158.859 20.9714 161.452 20.1325C162.062 19.9133 162.719 19.7989 163.434 19.7989C165.388 19.7989 167.505 20.5233 169.802 21.9818C170.26 22.2774 170.736 22.6396 171.222 23.0685C171.709 23.4975 171.985 23.7072 172.061 23.7072L172.509 22.5347C172.576 22.2011 172.881 21.3813 173.396 20.0753C174.664 16.9106 176.379 15.3281 178.534 15.3281C179.153 15.3281 179.802 15.4616 180.498 15.7189C183.043 16.5769 184.32 18.2355 184.32 20.6949C184.32 21.6101 184.158 22.63 183.843 23.7644C182.318 29.1312 181.308 33.3445 180.812 36.4045C180.326 39.4645 180.078 42.9247 180.078 46.7759C180.078 48.7682 180.088 50.1885 180.116 51.0274C180.145 51.8662 180.326 52.972 180.66 54.3447C180.774 54.8118 180.869 55.0406 180.936 55.0406C181.089 55.0406 181.556 54.7164 182.337 54.0682C185.388 51.1798 188.333 44.612 191.164 34.355C191.612 32.601 191.898 31.6954 192.041 31.6382C192.184 31.5906 192.518 31.562 193.061 31.562C194.329 31.562 194.958 31.705 194.958 32.0005C194.958 32.601 194.425 34.7839 193.366 38.5684C191.45 46.0323 189.096 51.7328 186.303 55.6602C184.797 57.824 183.062 58.9012 181.108 58.9012ZM163.482 42.0859C164.826 41.1422 166.523 39.207 168.572 36.3092C169.202 35.4512 169.535 34.8125 169.573 34.4027C169.802 32.8203 170.355 30.1893 171.251 26.5002C170.898 25.7186 170.631 25.2229 170.469 24.9941C169.926 24.3078 169.24 23.7072 168.401 23.2115C167.972 22.9446 167.648 22.8207 167.428 22.8207C166.999 22.8207 166.561 23.65 166.113 25.2991C165.608 27.2056 165.141 29.1884 164.712 31.2474C164.397 32.744 164.111 34.5266 163.863 36.6142C163.615 38.7018 163.482 40.5226 163.482 42.0859Z" fill="#F69110"/>
<path d="M212.413 50.9702C211.965 50.9702 211.593 50.9512 211.298 50.913C210.383 50.7987 209.363 50.4078 208.228 49.7405C206.102 48.6443 205.044 47.3002 205.044 45.7178C205.044 45.2317 205.187 44.9934 205.483 44.9934C206.16 44.9934 206.732 45.0982 207.218 45.327C208.152 45.775 208.619 46.366 208.619 47.1096C208.619 47.3383 208.762 47.6148 209.058 47.9484C209.363 48.2821 209.677 48.4536 210.011 48.4536C210.201 48.4536 210.573 48.3964 211.126 48.2916C211.946 47.9865 212.747 47.1858 213.528 45.8894C214.424 44.3547 214.872 42.7723 214.872 41.1422C214.872 40.208 214.853 39.5884 214.815 39.2929C214.739 38.8068 214.577 38.4349 214.31 38.1776C214.234 38.1013 214.148 38.0632 214.034 38.0632C213.061 38.0632 210.716 39.0927 206.999 41.1422C204.682 42.4768 203.071 43.2775 202.137 43.5349C201.689 43.6112 201.146 43.6492 200.516 43.6492C197.943 43.43 195.693 42.3243 193.758 40.351C192.156 38.5685 191.356 36.519 191.356 34.2121C191.956 29.4077 193.72 25.2515 196.665 21.7531C198.6 19.4462 201.374 17.902 204.987 17.1203C205.788 16.9296 206.922 16.8439 208.39 16.8439C210.497 16.8439 212.175 17.1203 213.423 17.6828C214.758 18.35 215.768 19.0173 216.436 19.6941C217.141 20.247 217.723 21.1049 218.171 22.2584C218.581 23.2307 218.781 24.4031 218.781 25.7759C218.743 27.1962 218.523 28.5688 218.113 29.913C217.475 31.7718 216.808 32.7059 216.102 32.7059C215.873 32.7059 215.597 32.6202 215.263 32.4485C214.93 32.2865 214.625 32.0863 214.367 31.8671C214.11 31.6383 213.976 31.4381 213.976 31.2475C213.976 31.0473 214.148 30.4849 214.482 29.5793C215.034 27.6728 215.32 26.0046 215.32 24.5461C215.32 23.4308 215.149 22.449 214.815 21.5911C214.682 21.2384 214.558 21.0287 214.424 20.9715C212.899 20.9715 211.374 21.715 209.849 23.2116C209.363 23.6882 208.295 24.956 206.655 27.0056C204.091 30.38 202.547 33.8975 202.023 37.5676C201.965 37.987 201.937 38.3015 201.937 38.4826L201.965 38.6257L206.884 37.0051C209.286 36.1091 211.002 35.661 212.022 35.661C212.728 35.661 213.29 35.7183 213.7 35.8326C214.11 35.947 214.625 36.1282 215.263 36.3855C217.761 37.7105 219 39.9316 219 43.0392C219 44.7837 218.542 46.3469 217.608 47.7292C216.226 49.8835 214.501 50.9702 212.413 50.9702Z" fill="#F69110"/>
</svg>
