<svg width="40" height="30" viewBox="0 0 40 30" fill="none" xmlns="http://www.w3.org/2000/svg">
<path d="M21.875 6.35156V3.75H23.125C24.1641 3.75 25 2.91406 25 1.875C25 0.835937 24.1641 0 23.125 0H16.8047C15.8359 0 15 0.839844 15 1.80469C15 2.76953 15.8359 3.75 16.8047 3.75H18.125V6.35313C9.34375 7.28906 2.5 14.7188 2.5 23.75H37.5C37.5 14.7188 30.6563 7.28906 21.875 6.35156ZM38.125 26.25H1.875C0.839844 26.25 0 27.0859 0 28.0547C0 29.1641 0.839844 30 1.80469 30H38.0547C39.0898 30 39.9297 29.1602 39.9297 28.1953C40 27.0859 39.1641 26.25 38.125 26.25Z" fill="#750000"/>
</svg>
