<svg width="122" height="122" viewBox="0 0 122 122" fill="none" xmlns="http://www.w3.org/2000/svg">
<path d="M60.5 26C56.2477 26 52.0909 27.261 48.5552 29.6234C45.0196 31.9859 42.2639 35.3437 40.6366 39.2723C39.0093 43.2009 38.5835 47.5238 39.4131 51.6944C40.2427 55.865 42.2904 59.696 45.2972 62.7028C48.304 65.7096 52.135 67.7573 56.3056 68.5869C60.4762 69.4165 64.7991 68.9907 68.7277 67.3634C72.6563 65.7361 76.0142 62.9804 78.3766 59.4448C80.739 55.9091 82 51.7523 82 47.5C82 41.7978 79.7348 36.3292 75.7028 32.2972C71.6708 28.2652 66.2022 26 60.5 26Z" fill="#750000"/>
<path d="M61 0C48.9354 0 37.1416 3.57759 27.1102 10.2804C17.0788 16.9831 9.26032 26.51 4.64337 37.6563C0.0264303 48.8026 -1.18157 61.0677 1.17213 72.9005C3.52582 84.7333 9.33551 95.6025 17.8665 104.133C26.3975 112.664 37.2667 118.474 49.0995 120.828C60.9323 123.182 73.1974 121.974 84.3437 117.357C95.49 112.74 105.017 104.921 111.72 94.8898C118.422 84.8584 122 73.0646 122 61C121.982 44.8274 115.549 29.3226 104.113 17.8869C92.6774 6.45114 77.1726 0.0184513 61 0V0ZM95.8223 99.8918C95.7355 94.1767 93.4069 88.7244 89.3385 84.7097C85.27 80.6951 79.7872 78.4393 74.0714 78.4286H47.9286C42.2128 78.4393 36.73 80.6951 32.6616 84.7097C28.5931 88.7244 26.2646 94.1767 26.1777 99.8918C18.2763 92.8365 12.7043 83.5476 10.1994 73.2552C7.69447 62.9627 8.37489 52.1521 12.1505 42.2549C15.9262 32.3578 22.6189 23.8408 31.3426 17.8319C40.0662 11.823 50.4093 8.60547 61.0022 8.60547C71.5951 8.60547 81.9382 11.823 90.6618 17.8319C99.3855 23.8408 106.078 32.3578 109.854 42.2549C113.63 52.1521 114.31 62.9627 111.805 73.2552C109.3 83.5476 103.728 92.8365 95.8266 99.8918H95.8223Z" fill="#750000"/>
</svg>
