<svg width="130" height="129" viewBox="0 0 130 129" fill="none" xmlns="http://www.w3.org/2000/svg">
<path d="M58.4188 5.55677C60.4321 4.53577 62.6971 4 65 4C67.3029 4 69.5679 4.53577 71.5812 5.55677L122.516 31.3908C123.572 31.927 124.452 32.7113 125.065 33.6624C125.677 34.6135 126 35.6968 126 36.8002V87.7689C125.999 89.9762 125.352 92.1433 124.126 94.0456C122.9 95.9478 121.139 97.516 119.026 98.5877L71.5812 122.664C69.5679 123.685 67.3029 124.221 65 124.221C62.6971 124.221 60.4321 123.685 58.4188 122.664L10.9743 98.5877C8.86208 97.5165 7.10173 95.9493 5.87551 94.0482C4.64929 92.1472 4.00178 89.9814 4 87.7751V36.8002C3.99995 35.6968 4.32291 34.6135 4.93544 33.6624C5.54796 32.7113 6.42778 31.927 7.48378 31.3908L58.4256 5.55677H58.4188Z" stroke="#750000" stroke-width="8" stroke-linecap="round" stroke-linejoin="round"/>
<path d="M4 33.1609L65 64.1073M65 64.1073L126 33.1609M65 64.1073V126" stroke="#750000" stroke-width="8" stroke-linejoin="round"/>
<path d="M34.5 48.6341L95.5 17.6877M24.3334 66.1373L44.6667 76.4858" stroke="#750000" stroke-width="8" stroke-linecap="round" stroke-linejoin="round"/>
</svg>
