<svg width="122" height="122" viewBox="0 0 122 122" fill="none" xmlns="http://www.w3.org/2000/svg">
<path d="M65.575 53.375C62.525 52.6125 59.475 51.0875 57.1875 48.8C54.9 48.0375 54.1375 45.75 54.1375 44.225C54.1375 42.7 54.9 40.4125 56.425 39.65C58.7125 38.125 61 36.6 63.2875 37.3625C67.8625 37.3625 71.675 39.65 73.9625 42.7L80.825 33.55C78.5375 31.2625 76.25 29.7375 73.9625 28.2125C71.675 26.6875 68.625 25.925 65.575 25.925V15.25H56.425V25.925C52.6125 26.6875 48.8 28.975 45.75 32.025C42.7 35.8375 40.4125 40.4125 41.175 44.9875C41.175 49.5625 42.7 54.1375 45.75 57.1875C49.5625 61 54.9 63.2875 59.475 65.575C61.7625 66.3375 64.8125 67.8625 67.1 69.3875C68.625 70.9125 69.3875 73.2 69.3875 75.4875C69.3875 77.775 68.625 80.0625 67.1 82.35C64.8125 84.6375 61.7625 85.4 59.475 85.4C56.425 85.4 52.6125 84.6375 50.325 82.35C48.0375 80.825 45.75 78.5375 44.225 76.25L36.6 84.6375C38.8875 87.6875 41.175 89.975 44.225 92.2625C48.0375 94.55 52.6125 96.8375 57.1875 96.8375V106.75H65.575V95.3125C70.15 94.55 73.9625 92.2625 77.0125 89.2125C80.825 85.4 83.1125 79.3 83.1125 73.9625C83.1125 69.3875 81.5875 64.05 77.775 61C73.9625 57.1875 70.15 54.9 65.575 53.375ZM61 0C27.45 0 0 27.45 0 61C0 94.55 27.45 122 61 122C94.55 122 122 94.55 122 61C122 27.45 94.55 0 61 0ZM61 113.612C32.025 113.612 8.3875 89.975 8.3875 61C8.3875 32.025 32.025 8.3875 61 8.3875C89.975 8.3875 113.612 32.025 113.612 61C113.612 89.975 89.975 113.612 61 113.612Z" fill="#750000"/>
</svg>
