<svg width="122" height="122" viewBox="0 0 122 122" fill="none" xmlns="http://www.w3.org/2000/svg">
<path d="M34.2893 19.0625C32.0033 19.0625 30.4794 21.35 30.4794 22.875V41.9375H22.8595V22.875C22.8595 20.5875 21.3356 19.0625 19.0496 19.0625C16.7637 19.0625 15.2397 21.35 15.2397 22.875V41.9375H7.61984V22.875C7.61984 20.5875 6.09588 19.0625 3.80992 19.0625C1.52397 19.0625 0 21.35 0 22.875V48.0375C0 54.9 5.33389 60.2375 11.4298 61V114.375C11.4298 118.95 14.4777 122 19.0496 122C23.6215 122 26.6695 118.95 26.6695 114.375V61C32.7653 60.2375 38.0992 54.9 38.0992 48.0375V22.875C38.0992 21.35 36.5753 19.0625 34.2893 19.0625ZM49.529 22.875V68.625H57.1488V114.375C57.1488 118.95 60.1968 122 64.7687 122C69.3406 122 72.3885 118.95 72.3885 114.375V0C59.4348 0 49.529 9.9125 49.529 22.875ZM102.868 15.25C92.2001 15.25 83.8183 26.6875 83.8183 40.4125C83.0563 49.5625 87.6282 57.95 95.248 63.2875V114.375C95.248 118.95 98.296 122 102.868 122C107.44 122 110.488 118.95 110.488 114.375V63.2875C118.108 57.95 122.679 49.5625 121.918 40.4125C121.918 26.6875 113.536 15.25 102.868 15.25Z" fill="#750000"/>
</svg>
