<svg width="139" height="122" viewBox="0 0 139 122" fill="none" xmlns="http://www.w3.org/2000/svg">
<path d="M130.312 52.2857C132.711 52.2857 134.758 53.1367 136.455 54.8387C138.152 56.5407 139 58.5945 139 61C139 63.4055 138.152 65.4593 136.455 67.1613C134.758 68.8633 132.711 69.7143 130.312 69.7143H129.294L121.489 114.783C121.127 116.871 120.132 118.596 118.503 119.958C116.874 121.319 115.019 122 112.938 122H26.0625C23.9811 122 22.126 121.319 20.4971 119.958C18.8682 118.596 17.8727 116.871 17.5107 114.783L9.70557 69.7143H8.6875C6.28939 69.7143 4.24194 68.8633 2.54517 67.1613C0.848389 65.4593 0 63.4055 0 61C0 58.5945 0.848389 56.5407 2.54517 54.8387C4.24194 53.1367 6.28939 52.2857 8.6875 52.2857H130.312ZM32.9175 106.75C34.0939 106.659 35.078 106.149 35.8699 105.218C36.6617 104.288 37.0124 103.233 36.9219 102.052L34.75 73.731C34.6595 72.551 34.1505 71.5638 33.2229 70.7695C32.2953 69.9753 31.2433 69.6235 30.0669 69.7143C28.8905 69.8051 27.9063 70.3157 27.1145 71.2461C26.3227 72.1765 25.972 73.2318 26.0625 74.4118L28.2344 102.733C28.3249 103.868 28.7887 104.821 29.6257 105.593C30.4628 106.364 31.4469 106.75 32.5781 106.75H32.9175ZM60.8125 102.393V74.0714C60.8125 72.8914 60.3826 71.8702 59.5229 71.0078C58.6632 70.1455 57.6452 69.7143 56.4688 69.7143C55.2923 69.7143 54.2743 70.1455 53.4146 71.0078C52.5549 71.8702 52.125 72.8914 52.125 74.0714V102.393C52.125 103.573 52.5549 104.594 53.4146 105.456C54.2743 106.319 55.2923 106.75 56.4688 106.75C57.6452 106.75 58.6632 106.319 59.5229 105.456C60.3826 104.594 60.8125 103.573 60.8125 102.393ZM86.875 102.393V74.0714C86.875 72.8914 86.4452 71.8702 85.5854 71.0078C84.7257 70.1455 83.7077 69.7143 82.5312 69.7143C81.3548 69.7143 80.3368 70.1455 79.4771 71.0078C78.6173 71.8702 78.1875 72.8914 78.1875 74.0714V102.393C78.1875 103.573 78.6173 104.594 79.4771 105.456C80.3368 106.319 81.3548 106.75 82.5312 106.75C83.7077 106.75 84.7257 106.319 85.5854 105.456C86.4452 104.594 86.875 103.573 86.875 102.393ZM110.766 102.733L112.938 74.4118C113.028 73.2318 112.677 72.1765 111.885 71.2461C111.094 70.3157 110.11 69.8051 108.933 69.7143C107.757 69.6235 106.705 69.9753 105.777 70.7695C104.85 71.5638 104.34 72.551 104.25 73.731L102.078 102.052C101.988 103.233 102.338 104.288 103.13 105.218C103.922 106.149 104.906 106.659 106.083 106.75H106.422C107.553 106.75 108.537 106.364 109.374 105.593C110.211 104.821 110.675 103.868 110.766 102.733ZM32.3066 19.8795L25.9946 47.9286H17.0356L23.8906 17.9051C24.7503 13.9111 26.7638 10.6546 29.9312 8.1356C33.0985 5.61663 36.7183 4.35714 40.7905 4.35714H52.125C52.125 3.17708 52.5549 2.15588 53.4146 1.29353C54.2743 0.431176 55.2923 0 56.4688 0H82.5312C83.7077 0 84.7257 0.431176 85.5854 1.29353C86.4452 2.15588 86.875 3.17708 86.875 4.35714H98.2095C102.282 4.35714 105.902 5.61663 109.069 8.1356C112.236 10.6546 114.25 13.9111 115.109 17.9051L121.964 47.9286H113.005L106.693 19.8795C106.196 17.8824 105.166 16.2485 103.605 14.9777C102.044 13.7068 100.246 13.0714 98.2095 13.0714H86.875C86.875 14.2515 86.4452 15.2727 85.5854 16.135C84.7257 16.9974 83.7077 17.4286 82.5312 17.4286H56.4688C55.2923 17.4286 54.2743 16.9974 53.4146 16.135C52.5549 15.2727 52.125 14.2515 52.125 13.0714H40.7905C38.7544 13.0714 36.9558 13.7068 35.3948 14.9777C33.8337 16.2485 32.8044 17.8824 32.3066 19.8795Z" fill="#750000"/>
</svg>
