<svg width="57" height="42" viewBox="0 0 57 42" fill="none" xmlns="http://www.w3.org/2000/svg">
<path d="M15.5657 37.1614L40.6184 0.893574C40.7616 0.672124 40.9473 0.482077 41.1644 0.334699C41.3815 0.18732 41.6256 0.085611 41.8822 0.0356003C42.1388 -0.0144105 42.4027 -0.0117052 42.6582 0.0435567C42.9138 0.0988186 43.1558 0.205512 43.3699 0.357312C43.584 0.509111 43.7658 0.702927 43.9047 0.92727C44.0435 1.15161 44.1364 1.40191 44.178 1.66334C44.2196 1.92476 44.209 2.19199 44.1468 2.44917C44.0845 2.70636 43.972 2.94827 43.8158 3.16056L17.6075 41.1019C17.4577 41.3196 17.2661 41.5046 17.0442 41.6457C16.8223 41.7868 16.5746 41.8812 16.316 41.9233C16.0573 41.9654 15.793 41.9543 15.5386 41.8907C15.2843 41.827 15.0452 41.7122 14.8356 41.5529L0.78083 30.8708C0.575752 30.7149 0.402977 30.5197 0.272369 30.2961C0.141762 30.0726 0.0558801 29.8252 0.0196271 29.568C-0.0535891 29.0486 0.0797887 28.5211 0.390419 28.1014C0.701049 27.6816 1.16349 27.4042 1.676 27.33C2.18851 27.2558 2.70912 27.3909 3.1233 27.7057L15.5657 37.1614ZM43.3356 18.2619C42.8179 18.2619 42.3214 18.0535 41.9553 17.6825C41.5892 17.3116 41.3836 16.8084 41.3836 16.2838C41.3836 15.7591 41.5892 15.256 41.9553 14.885C42.3214 14.514 42.8179 14.3056 43.3356 14.3056H55.0479C55.5657 14.3056 56.0622 14.514 56.4283 14.885C56.7943 15.256 57 15.7591 57 16.2838C57 16.8084 56.7943 17.3116 56.4283 17.6825C56.0622 18.0535 55.5657 18.2619 55.0479 18.2619H43.3356ZM35.5274 30.131C35.0097 30.131 34.5132 29.9226 34.1471 29.5516C33.781 29.1806 33.5753 28.6774 33.5753 28.1528C33.5753 27.6281 33.781 27.125 34.1471 26.754C34.5132 26.383 35.0097 26.1746 35.5274 26.1746H55.044C55.5618 26.1746 56.0583 26.383 56.4244 26.754C56.7904 27.125 56.9961 27.6281 56.9961 28.1528C56.9961 28.6774 56.7904 29.1806 56.4244 29.5516C56.0583 29.9226 55.5618 30.131 55.044 30.131H35.5274ZM27.7192 42C27.2015 42 26.705 41.7916 26.3389 41.4206C25.9728 41.0496 25.7671 40.5465 25.7671 40.0218C25.7671 39.4972 25.9728 38.994 26.3389 38.623C26.705 38.2521 27.2015 38.0437 27.7192 38.0437H55.044C55.5618 38.0437 56.0583 38.2521 56.4244 38.623C56.7904 38.994 56.9961 39.4972 56.9961 40.0218C56.9961 40.5465 56.7904 41.0496 56.4244 41.4206C56.0583 41.7916 55.5618 42 55.044 42H27.7192Z" fill="#00796B"/>
</svg>
