<svg width="42" height="48" viewBox="0 0 42 48" fill="none" xmlns="http://www.w3.org/2000/svg">
<path d="M30.8286 12.9908V10.3486C30.8286 10.1064 30.6276 9.90826 30.3819 9.90826H8.93584C8.6901 9.90826 8.48905 10.1064 8.48905 10.3486V12.9908C8.48905 13.233 8.6901 13.4312 8.93584 13.4312H30.3819C30.6276 13.4312 30.8286 13.233 30.8286 12.9908ZM8.93584 17.8349C8.6901 17.8349 8.48905 18.033 8.48905 18.2752V20.9174C8.48905 21.1596 8.6901 21.3578 8.93584 21.3578H19.2121C19.4578 21.3578 19.6588 21.1596 19.6588 20.9174V18.2752C19.6588 18.033 19.4578 17.8349 19.2121 17.8349H8.93584ZM16.9781 42.7156H4.02113V3.9633H35.2966V22.8991C35.2966 23.1413 35.4976 23.3395 35.7434 23.3395H38.8709C39.1166 23.3395 39.3177 23.1413 39.3177 22.8991V1.76147C39.3177 0.787156 38.5191 0 37.5305 0H1.78717C0.798641 0 0 0.787156 0 1.76147V44.9174C0 45.8917 0.798641 46.6789 1.78717 46.6789H16.9781C17.2238 46.6789 17.4249 46.4807 17.4249 46.2385V43.156C17.4249 42.9138 17.2238 42.7156 16.9781 42.7156ZM41.87 45.5505L36.6593 40.4147C37.9047 38.7908 38.6475 36.7651 38.6475 34.5688C38.6475 29.2183 34.2466 24.8807 28.8181 24.8807C23.3896 24.8807 18.9887 29.2183 18.9887 34.5688C18.9887 39.9193 23.3896 44.2569 28.8181 44.2569C30.8175 44.2569 32.6717 43.6679 34.2243 42.6606L39.5132 47.8734C39.6025 47.9615 39.7142 48 39.8259 48C39.9376 48 40.0549 47.956 40.1387 47.8734L41.87 46.167C41.9112 46.1266 41.9439 46.0785 41.9662 46.0256C41.9885 45.9727 42 45.916 42 45.8587C42 45.8014 41.9885 45.7447 41.9662 45.6918C41.9439 45.6389 41.9112 45.5909 41.87 45.5505V45.5505ZM28.8181 40.7339C25.361 40.7339 22.563 37.9761 22.563 34.5688C22.563 31.1615 25.361 28.4037 28.8181 28.4037C32.2751 28.4037 35.0732 31.1615 35.0732 34.5688C35.0732 37.9761 32.2751 40.7339 28.8181 40.7339Z" fill="#750000"/>
</svg>
