<svg width="44" height="44" viewBox="0 0 44 44" fill="none" xmlns="http://www.w3.org/2000/svg">
<path d="M39.391 33.2558H35.868C35.6274 33.2558 35.4019 33.3633 35.2516 33.5526C34.9008 33.9875 34.5249 34.407 34.129 34.8061C32.5098 36.4608 30.5918 37.7795 28.4811 38.6893C26.2944 39.6322 23.9441 40.116 21.5703 40.1116C19.1699 40.1116 16.8446 39.6307 14.6596 38.6893C12.5489 37.7795 10.6309 36.4608 9.01168 34.8061C7.38955 33.1569 6.09611 31.2022 5.20299 29.0503C4.27587 26.8196 3.80981 24.4507 3.80981 22C3.80981 19.5493 4.28088 17.1805 5.20299 14.9498C6.09502 12.7959 7.37795 10.8568 9.01168 9.19402C10.6454 7.53123 12.5447 6.22146 14.6596 5.31077C16.8446 4.36937 19.1699 3.88844 21.5703 3.88844C23.9708 3.88844 26.2961 4.36426 28.4811 5.31077C30.5959 6.22146 32.4953 7.53123 34.129 9.19402C34.5249 9.5982 34.8957 10.0177 35.2516 10.4475C35.4019 10.6368 35.6324 10.7442 35.868 10.7442H39.391C39.7067 10.7442 39.9022 10.3861 39.7268 10.1149C35.883 4.01635 29.1577 -0.0203876 21.5152 7.74535e-05C9.50781 0.0307751 -0.11916 9.98192 0.00111482 22.2252C0.121389 34.274 9.73333 44 21.5703 44C29.1927 44 35.888 39.9684 39.7268 33.8851C39.8972 33.614 39.7067 33.2558 39.391 33.2558ZM43.8462 21.6777L36.7349 15.9475C36.4693 15.7326 36.0835 15.927 36.0835 16.2698V20.1582H20.3475C20.127 20.1582 19.9466 20.3424 19.9466 20.5675V23.4326C19.9466 23.6577 20.127 23.8419 20.3475 23.8419H36.0835V27.7303C36.0835 28.0731 36.4743 28.2675 36.7349 28.0526L43.8462 22.3224C43.8941 22.2841 43.9328 22.2352 43.9595 22.1793C43.9861 22.1235 44 22.0622 44 22C44 21.9379 43.9861 21.8766 43.9595 21.8208C43.9328 21.7649 43.8941 21.716 43.8462 21.6777V21.6777Z" fill="#750000"/>
</svg>
