<svg width="73" height="50" viewBox="0 0 73 50" fill="none" xmlns="http://www.w3.org/2000/svg">
<path d="M26.7884 25C26.7884 27.2779 27.7763 29.4626 29.5348 31.0733C31.2932 32.6841 33.6782 33.589 36.1651 33.589C38.6519 33.589 41.0369 32.6841 42.7954 31.0733C44.5539 29.4626 45.5418 27.2779 45.5418 25C45.5418 22.7221 44.5539 20.5374 42.7954 18.9267C41.0369 17.3159 38.6519 16.411 36.1651 16.411C33.6782 16.411 31.2932 17.3159 29.5348 18.9267C27.7763 20.5374 26.7884 22.7221 26.7884 25ZM72.5165 23.0215C64.5798 7.70706 52.5827 0 36.5 0C20.4089 0 8.42014 7.70705 0.483446 23.0291C0.165102 23.6466 0 24.321 0 25.0038C0 25.6867 0.165102 26.3611 0.483446 26.9785C8.42014 42.2929 20.4173 50 36.5 50C52.591 50 64.5798 42.2929 72.5165 26.9709C73.1612 25.7285 73.1612 24.2868 72.5165 23.0215ZM36.1651 38.4969C28.0275 38.4969 21.4303 32.454 21.4303 25C21.4303 17.546 28.0275 11.5031 36.1651 11.5031C44.3027 11.5031 50.8999 17.546 50.8999 25C50.8999 32.454 44.3027 38.4969 36.1651 38.4969Z" fill="white"/>
</svg>
