<svg width="36" height="27" viewBox="0 0 36 27" fill="none" xmlns="http://www.w3.org/2000/svg">
<path d="M13.2107 13.5C13.2107 14.7301 13.6979 15.9098 14.5651 16.7796C15.4323 17.6494 16.6084 18.138 17.8348 18.138C19.0612 18.138 20.2374 17.6494 21.1046 16.7796C21.9718 15.9098 22.459 14.7301 22.459 13.5C22.459 12.2699 21.9718 11.0902 21.1046 10.2204C20.2374 9.35061 19.0612 8.86196 17.8348 8.86196C16.6084 8.86196 15.4323 9.35061 14.5651 10.2204C13.6979 11.0902 13.2107 12.2699 13.2107 13.5ZM35.7616 12.4316C31.8476 4.16181 25.9312 0 18 0C10.0647 0 4.1524 4.16181 0.238412 12.4357C0.0814203 12.7692 0 13.1333 0 13.5021C0 13.8708 0.0814203 14.235 0.238412 14.5684C4.1524 22.8382 10.0688 27 18 27C25.9353 27 31.8476 22.8382 35.7616 14.5643C36.0795 13.8934 36.0795 13.1149 35.7616 12.4316ZM17.8348 20.7883C13.8218 20.7883 10.5684 17.5252 10.5684 13.5C10.5684 9.47485 13.8218 6.21166 17.8348 6.21166C21.8479 6.21166 25.1013 9.47485 25.1013 13.5C25.1013 17.5252 21.8479 20.7883 17.8348 20.7883Z" fill="white"/>
</svg>
