<svg width="400" height="313" viewBox="0 0 400 313" fill="none" xmlns="http://www.w3.org/2000/svg">
<path d="M20.2518 294.327C20.43 279.562 24.7186 265.065 32.7422 252.578C34.0212 250.574 29.6435 246.656 28.4536 248.386C20.1564 261.42 15.6005 276.369 15.3269 291.865C15.3269 293.964 20.1564 297.247 20.2518 294.327ZM65.6576 235.625C59.3647 229.334 49.1522 231.338 41.4976 233.164C32.1059 235.441 22.9879 239.181 14.7797 244.194C8.94493 247.655 0.832212 252.947 0.0113962 260.421C-0.26221 262.425 4.47816 265.797 4.84085 262.788C5.38806 257.775 11.3119 253.583 15.1424 250.937C21.6199 246.382 29.0008 242.915 36.4773 240.365C43.591 237.903 52.4355 234.989 59.9119 236.535C70.7606 238.812 58.1812 251.668 54.3507 254.951C46.6007 261.516 37.209 265.708 27.181 267.349C24.8077 267.711 28.5491 272.088 30.1907 272.088C33.8367 272.088 38.577 271.993 41.7712 274.181C46.0534 277.101 42.4075 283.57 39.6714 286.216C36.2037 289.677 31.4633 292.412 26.9965 294.511C22.2561 296.7 16.695 298.341 11.7701 295.694C10.7647 295.147 9.58122 295.243 9.40306 296.604C9.30761 297.883 10.8602 299.339 11.8591 299.886C18.063 303.169 24.8077 301.897 30.9161 298.977C36.5727 296.242 43.591 292.412 46.7852 286.674C49.7948 281.293 48.3314 274.912 43.4128 271.172C42.4966 270.447 41.5867 269.9 40.6768 269.442C47.1479 267.164 53.2563 263.698 58.5439 259.143C65.1104 253.583 73.7703 243.736 65.6576 235.625Z" fill="#00796B"/>
<path d="M69.0189 271.814C68.9234 271.445 68.8343 271.172 68.7453 270.809C70.0178 269.353 66.6455 265.523 64.8193 266.433C59.08 269.353 48.7721 279.378 54.9759 286.305C58.2592 289.95 62.5414 288.404 65.2775 284.938C68.1981 281.204 69.4706 276.554 69.0189 271.814ZM62.7259 277.921C62.0897 279.289 61.2688 280.561 60.1744 281.655C59.5318 282.387 58.8955 282.66 58.1637 283.296C58.2592 282.845 58.3483 282.298 58.4373 282.113C58.6219 281.477 58.8955 280.93 59.1691 280.288C59.8054 279.015 60.6262 277.737 61.5424 276.643C62.2678 275.644 63.0886 274.823 63.9985 274.003C63.7249 275.37 63.3622 276.643 62.7259 277.921Z" fill="#00796B"/>
<path d="M111.595 271.993C105.392 274.912 98.4623 277.832 92.1694 280.93C93.4484 278.284 94.8164 275.644 96.3689 273.087C97.5524 271.172 94.5428 267.985 92.5385 268.621C87.7981 270.084 83.325 272.362 79.2273 275.097C79.2273 275.001 79.3163 274.912 79.4054 274.823C80.4108 272.998 75.944 269.079 74.665 271.356C72.2917 275.548 70.1092 280.014 68.9193 284.664C68.4676 286.305 71.8399 290.319 73.3861 288.494C77.2166 283.844 81.8679 280.014 87.0664 277.19C86.1565 278.926 85.4247 280.746 85.1511 282.571C84.693 285.669 87.6136 288.678 90.8014 287.946C93.9956 287.221 97.0943 284.76 99.8304 283.118C104.208 280.288 108.675 277.559 113.415 275.37C115.693 274.276 113.6 271.083 111.595 271.993Z" fill="#00796B"/>
<path d="M237.495 273.36C237.311 271.993 235.764 270.72 234.575 270.358C230.655 269.168 226.646 268.621 222.631 268.443C223.363 266.706 224.184 264.976 224.909 263.335C227.556 257.686 230.292 252.216 232.844 246.656C235.122 241.732 239.041 235.81 236.763 230.339C236.305 229.245 234.396 227.42 232.933 227.967C224.636 231.338 217.433 237.445 210.688 243.373C204.211 249.118 198.013 255.313 192.363 261.878C189.627 264.976 187.069 268.169 184.613 271.446C172.663 273.729 160.905 277.285 149.687 282.024C147.32 283.023 151.144 287.584 153.155 286.763C161.815 283.118 170.748 280.109 179.866 277.921C173.758 286.763 168.381 296.152 163.819 305.993C162.909 307.908 167.376 311.737 168.47 309.371C174.031 297.609 180.687 286.49 188.532 276.096C190.174 275.733 191.816 275.459 193.546 275.186C200.387 274.092 207.405 273.456 214.334 273.271C212.508 278.01 210.777 282.845 209.594 287.768C208.41 292.597 208.226 297.794 213.787 299.797C215.066 300.255 215.613 299.161 215.429 298.067C215.244 297.062 214.423 296.242 213.602 295.694C213.602 295.516 213.513 295.421 213.513 295.243C213.698 294.785 213.602 294.053 213.698 293.602C213.971 292.139 214.423 290.771 214.792 289.403C215.613 286.401 216.523 283.481 217.528 280.657C218.438 278.106 219.437 275.644 220.532 273.087C225.73 273.087 230.929 273.456 235.853 275.001C237.126 275.459 237.769 274.454 237.495 273.36ZM216.434 268.259C215.429 268.348 214.423 268.348 213.513 268.348C206.769 268.532 200.018 269.079 193.273 269.989C194.367 268.717 195.462 267.349 196.556 266.07C202.022 259.69 207.952 253.768 214.245 248.202C219.711 243.373 225.367 238.45 231.749 234.894C231.565 235.352 231.387 235.715 231.291 236.083C230.566 237.718 229.834 239.36 229.102 240.912C227.83 243.921 226.462 246.834 225.094 249.754C222.084 255.95 219.074 262.063 216.434 268.259Z" fill="#00796B"/>
<path d="M261.085 266.255C257.801 263.15 254.518 265.065 251.604 267.527C249.141 269.715 246.863 272.088 244.853 274.728C245.495 272.909 246.132 271.083 246.768 269.168C247.5 267.164 242.848 263.424 242.028 265.797C237.287 279.836 232.458 293.964 227.711 308.003C226.986 310.096 231.637 313.837 232.362 311.464C235.557 302.348 239.661 293.144 244.948 284.938C245.584 286.127 247.042 287.495 248.136 287.495C254.518 287.584 260.448 280.383 262.453 274.912C263.636 271.993 263.458 268.532 261.085 266.255ZM257.528 272.088C255.797 276.096 251.33 282.113 246.494 282.66C247.589 281.019 248.683 279.473 249.962 278.01C251.693 275.733 253.697 273.634 255.886 271.814C256.344 271.356 256.891 270.905 257.439 270.536C257.623 270.358 257.801 270.262 257.986 270.084C257.897 270.809 257.801 271.445 257.528 272.088Z" fill="#00796B"/>
<path d="M289.252 266.255C285.969 263.15 282.685 265.065 279.771 267.527C277.309 269.715 275.031 272.088 273.02 274.728C273.663 272.909 274.299 271.083 274.935 269.168C275.667 267.164 271.016 263.424 270.195 265.797C265.455 279.836 260.625 293.964 255.879 308.003C255.153 310.096 259.804 313.837 260.53 311.464C263.724 302.348 267.828 293.144 273.116 284.938C273.752 286.127 275.209 287.495 276.303 287.495C282.685 287.584 288.616 280.383 290.62 274.912C291.804 271.993 291.625 268.532 289.252 266.255ZM285.695 272.088C283.964 276.096 279.498 282.113 274.662 282.66C275.756 281.019 276.851 279.473 278.13 278.01C279.86 275.733 281.865 273.634 284.054 271.814C284.512 271.356 285.059 270.905 285.606 270.536C285.791 270.358 285.969 270.262 286.153 270.084C286.064 270.809 285.969 271.445 285.695 272.088Z" fill="#00796B"/>
<path d="M320.614 272.361C315.231 276.554 302.009 283.023 296.632 283.754C296.816 283.023 297.09 282.298 297.364 281.655C300.647 280.109 312.768 275.37 307.576 269.989C304.019 266.255 299.183 269.626 296.543 272.54C293.533 275.822 289.245 282.298 292.528 286.674C294.717 289.588 297.815 289.314 300.825 288.309C308.944 285.396 316.51 279.925 323.712 275.275C325.539 274.092 322.529 270.905 320.614 272.361ZM304.293 265.981C305.839 264.614 306.933 262.877 307.754 260.969C308.301 259.505 305.114 256.955 304.471 258.507C303.746 260.237 302.74 261.789 301.372 263.061C300.278 264.156 303.198 267.164 304.293 265.981Z" fill="#00796B"/>
<path d="M366.287 248.844C357.717 244.379 347.046 244.283 337.381 244.379C338.749 241.37 340.212 238.361 341.669 235.441C342.579 233.526 338.023 229.608 336.929 231.981C334.918 236.084 332.914 240.276 330.999 244.468C320.423 244.83 309.753 246.013 299.273 248.024C297.084 248.475 300.546 253.125 302.735 252.763C311.394 251.032 320.061 250.027 328.81 249.569C321.429 266.344 315.594 283.844 315.868 302.444C315.957 304.537 320.786 307.819 320.697 304.906C320.423 285.307 327.079 266.891 335.103 249.296C335.192 249.296 335.287 249.296 335.376 249.296C340.575 249.207 345.773 249.296 350.965 249.665C356.259 250.027 361.636 250.485 366.376 253.036C367.382 253.583 368.565 253.494 368.75 252.127C368.839 250.848 367.293 249.391 366.287 248.844Z" fill="#00796B"/>
<path d="M350.692 272.54C346.403 276.096 337.654 280.835 334.008 281.477C334.097 281.108 334.282 280.657 334.46 280.288C335.554 277.374 336.833 274.728 338.475 272.088C339.474 270.262 335.007 266.344 333.735 268.621C331.724 271.993 328.721 276.643 328.81 280.657C328.899 284.212 332.271 287.495 335.828 286.763C338.927 286.127 341.936 284.028 344.494 282.298C347.682 280.109 350.781 277.737 353.791 275.186C355.432 273.818 352.518 270.994 350.692 272.54ZM342.484 262.972C343.852 260.326 344.036 259.779 344.036 259.779C345.131 257.96 340.664 254.13 339.385 256.408C339.385 256.408 338.838 257.317 337.832 259.505C336.923 261.516 341.389 265.161 342.484 262.972Z" fill="#00796B"/>
<path d="M396.734 248.844C388.163 244.379 377.492 244.283 367.827 244.379C369.195 241.37 370.658 238.361 372.116 235.441C373.025 233.526 368.47 229.608 367.375 231.981C365.364 236.084 363.36 240.276 361.445 244.468C350.87 244.83 340.199 246.013 329.719 248.024C327.531 248.475 330.992 253.125 333.181 252.763C341.841 251.032 350.507 250.027 359.256 249.569C351.875 266.344 346.04 283.844 346.314 302.444C346.403 304.537 351.232 307.819 351.143 304.906C350.87 285.307 357.525 266.891 365.549 249.296C365.638 249.296 365.734 249.296 365.823 249.296C371.021 249.207 376.22 249.296 381.412 249.665C386.706 250.027 392.082 250.485 396.823 253.036C397.828 253.583 399.012 253.494 399.196 252.127C399.285 250.848 397.739 249.391 396.734 248.844Z" fill="#00796B"/>
<path fill-rule="evenodd" clip-rule="evenodd" d="M139.883 29.0065C130.124 30.1529 124.851 29.7806 116.288 33.3231C64.6303 54.7009 70.7274 135.395 138.76 139.381C139.112 152.221 137.143 192.153 139.647 201.321C176.669 201.653 159.03 207.149 175.466 213.874C188.607 219.251 207.168 210.983 210.121 202.29C214.69 188.838 195.46 181.466 182.781 181.737C164.427 182.127 173.486 196.734 147.223 194.936L147.19 137.974C158.969 130.869 176.585 122.866 181.462 106.29L175.058 102.886C170.999 106.804 170.281 112.081 160.916 119.533C156.179 123.303 148.442 129.59 140.854 130.666C122.373 133.285 105.112 120.527 98.7159 111.004C76.7898 78.3551 99.9167 39.4532 135.786 37.7834C134.392 49.5226 136.28 56.8851 143.509 61.6378C146.107 59.3701 146.662 59.4007 148.315 56.0899C146.107 50.5377 141.691 48.3335 144.323 38.9561C145.702 34.0405 149.849 28.1289 152.612 24.8022C177.147 -4.73707 228.892 8.18852 235.145 45.9902C230.149 50.3665 219.939 52.6399 221.55 62.241L228.686 62.526C241.412 34.8928 306.449 67.5332 275.971 111.171C273.168 115.185 266.46 119.929 260.163 122.214C250.654 125.664 236.549 124.324 226.642 121.078C222.501 119.721 220.779 117.993 217.542 116.859L212.254 123.328C223.791 128.936 228.205 131.419 243.75 132.471L243.85 162.049C219.418 161.699 235.432 153.999 214.216 154.058C205.513 154.084 186.819 153.192 180.365 156.973C188.223 157.459 208.034 155.218 212.662 158.58C205.508 163.846 188.443 156.952 180.697 162.55C188.525 162.929 207.778 161.495 212.702 164.182C210.245 169.174 195.097 165.69 180.648 167.249C188.239 172.577 205.734 165.45 212.525 170.944C207.872 174.654 188.634 171.811 180.55 172.899C186.223 175.978 210.697 176.068 218.77 175.568C229.523 174.902 222.952 169.1 252.276 167.147L252.241 132.466C307.936 125.85 303.765 42.3426 243.515 44.7562C235.897 5.9087 192.497 -10.118 162.407 6.54214C154.469 10.9374 143.668 20.8632 139.883 29.0065V29.0065Z" fill="#00796B"/>
</svg>
