<svg width="50" height="47" viewBox="0 0 50 47" fill="none" xmlns="http://www.w3.org/2000/svg">
<path d="M0 0H45C47.7614 0 50 2.23858 50 5V42C50 44.7614 47.7614 47 45 47H0V0Z" fill="#FF5722"/>
<path d="M42.1875 10.1066H34.5996V7.38945C34.5996 7.20265 34.437 7.0498 34.2383 7.0498H31.709C31.5103 7.0498 31.3477 7.20265 31.3477 7.38945V10.1066H19.7852V7.38945C19.7852 7.20265 19.6226 7.0498 19.4238 7.0498H16.8945C16.6958 7.0498 16.5332 7.20265 16.5332 7.38945V10.1066H8.94531C8.14587 10.1066 7.5 10.7138 7.5 11.4652V39.6561C7.5 40.4075 8.14587 41.0146 8.94531 41.0146H42.1875C42.9869 41.0146 43.6328 40.4075 43.6328 39.6561V11.4652C43.6328 10.7138 42.9869 10.1066 42.1875 10.1066ZM40.3809 37.9578H10.752V21.8245H40.3809V37.9578ZM40.3809 18.9375H10.752V13.1635H16.5332V15.2014C16.5332 15.3882 16.6958 15.541 16.8945 15.541H19.4238C19.6226 15.541 19.7852 15.3882 19.7852 15.2014V13.1635H31.3477V15.2014C31.3477 15.3882 31.5103 15.541 31.709 15.541H34.2383C34.437 15.541 34.5996 15.3882 34.5996 15.2014V13.1635H40.3809V18.9375Z" fill="white"/>
</svg>
