<svg width="71" height="84" viewBox="0 0 71 84" fill="none" xmlns="http://www.w3.org/2000/svg">
<path d="M9.26861 0C6.81146 0 4.45495 0.995622 2.71748 2.76784C0.980007 4.54006 0.00390625 6.9437 0.00390625 9.45V74.55C0.00390625 77.0563 0.980007 79.4599 2.71748 81.2322C4.45495 83.0044 6.81146 84 9.26861 84H40.151C42.5932 84.0001 44.9367 83.0166 46.6717 81.2634C48.4067 79.5102 49.3929 77.1292 49.4157 74.6382V68.2542C49.4157 67.4188 49.0903 66.6176 48.5111 66.0268C47.932 65.4361 47.1465 65.1042 46.3274 65.1042C44.458 65.1042 43.2804 64.5876 42.4692 63.9198C41.6127 63.2184 40.9045 62.1348 40.3692 60.606C39.2451 57.435 39.1216 53.256 39.1216 49.35C39.1215 48.5516 38.8242 47.783 38.2898 47.1996L37.6145 46.4562C37.3924 46.203 37.1588 45.9605 36.9145 45.7296C36.6098 45.4356 35.6792 44.5326 32.0392 40.824C30.1121 38.8542 29.0416 37.191 28.6916 35.9184C28.5512 35.4773 28.5299 35.0058 28.6298 34.5534C28.7834 34.0316 29.0739 33.5625 29.4698 33.1968C29.8269 32.7933 30.2854 32.497 30.7957 32.34C31.2382 32.2396 31.6991 32.2628 32.1298 32.4072C33.3774 32.7642 35.008 33.8604 36.9392 35.8302C39.1627 38.0982 41.271 40.2234 43.161 42.1302C46.2904 45.2886 48.8186 47.8422 50.2433 49.3962C50.8019 50.0077 51.5758 50.3679 52.3947 50.3974C53.2136 50.427 54.0105 50.1235 54.6101 49.5537C55.2096 48.9839 55.5627 48.1946 55.5917 47.3593C55.6206 46.524 55.3231 45.7111 54.7645 45.0996C53.0105 43.2297 51.2259 41.3898 49.4116 39.5808V25.452L61.1139 37.3884C62.8516 39.1608 63.8274 41.5632 63.8274 44.0664V80.85C63.8274 81.6854 64.1528 82.4866 64.732 83.0774C65.3111 83.6681 66.0966 84 66.9157 84C67.7347 84 68.5202 83.6681 69.0994 83.0774C69.6785 82.4866 70.0039 81.6854 70.0039 80.85V44.0706C70.0043 42.0021 69.6052 39.9538 68.8295 38.0427C68.0537 36.1316 66.9165 34.395 65.4827 32.9322L49.4157 16.5438V9.4458C49.4146 6.94023 48.438 4.53767 46.7006 2.76636C44.9633 0.995045 42.6074 -2.47463e-07 40.151 0H9.26861ZM38.5986 68.8296C39.9535 69.935 41.5424 70.7029 43.2392 71.0724V71.4H40.151C39.3319 71.4 38.5464 71.7319 37.9673 72.3226C37.3881 72.9133 37.0627 73.7146 37.0627 74.55V77.7H30.8863V74.55C30.8863 70.7994 33.0274 67.557 36.1363 66.0324C36.7951 67.0572 37.6063 68.0148 38.5986 68.8296ZM32.9492 50.5932C32.9574 51.6558 32.9821 52.8024 33.0439 53.9952C31.1266 55.3804 28.9063 56.2665 26.5764 56.5762C24.2465 56.886 21.8777 56.61 19.6764 55.7723C17.475 54.9346 15.5078 53.5606 13.9461 51.77C12.3845 49.9795 11.2757 47.8266 10.7163 45.4989C10.157 43.1712 10.1641 40.7394 10.737 38.4151C11.31 36.0909 12.4313 33.9448 14.0034 32.1637C15.5755 30.3827 17.5507 29.0207 19.7569 28.1964C21.9632 27.3721 24.3335 27.1105 26.6616 27.4344C26.1098 27.8082 25.591 28.245 25.101 28.7448C23.8986 29.9712 23.0463 31.3908 22.6468 32.9868C22.2433 34.5828 22.3421 36.1536 22.7457 37.6236C23.528 40.4502 25.4839 43.0458 27.6745 45.2802C29.3505 47.0093 31.0485 48.716 32.768 50.4L32.7845 50.4126L32.9327 50.5764L32.9492 50.5932ZM12.3568 6.3H18.5333V9.45C18.5333 11.9563 17.5572 14.3599 15.8197 16.1322C14.0823 17.9044 11.7258 18.9 9.26861 18.9H6.18038V12.6H9.26861C10.0877 12.6 10.8732 12.2681 11.4523 11.6774C12.0315 11.0866 12.3568 10.2854 12.3568 9.45V6.3ZM30.8863 6.3H37.0627V9.45C37.0627 11.1888 38.4463 12.6 40.151 12.6H43.2392V18.9H40.151C37.6938 18.9 35.3373 17.9044 33.5998 16.1322C31.8624 14.3599 30.8863 11.9563 30.8863 9.45V6.3ZM18.5333 77.7H12.3568V74.55C12.3568 73.7146 12.0315 72.9133 11.4523 72.3226C10.8732 71.7319 10.0877 71.4 9.26861 71.4H6.18038V65.1H9.26861C11.7258 65.1 14.0823 66.0956 15.8197 67.8678C17.5572 69.6401 18.5333 72.0437 18.5333 74.55V77.7Z" fill="#00796B"/>
</svg>
