<svg width="84" height="78" viewBox="0 0 84 78" fill="none" xmlns="http://www.w3.org/2000/svg">
<path d="M76.3088 1.43828C76.7951 1.90277 77.168 2.4375 77.4273 3.00879C77.6705 3.58008 77.6705 4.20469 77.8164 4.85977V19.5C77.8164 22.1965 75.4982 24.375 72.6289 24.375C69.7596 24.375 67.4414 22.1965 67.4414 19.5V16.6512L50.3551 32.693C48.4422 34.5059 45.3783 34.6125 43.3195 32.952L28.3893 21.0387L13.754 32.952C11.5801 34.7039 8.30391 34.4602 6.43965 32.4188C4.57539 30.3773 4.82828 27.3 7.00217 25.548L25.1633 10.923C27.1086 9.35848 29.9617 9.35848 31.907 10.923L46.4158 22.6078L60.0979 9.75H57.0664C54.1971 9.75 51.8789 7.56691 51.8789 4.875C51.8789 2.18309 54.1971 0 57.0664 0H72.483C74.0555 0 75.3523 0.54143 76.2926 1.41756L76.3088 1.43828ZM0.00390625 46.3125C0.00390625 42.2754 3.48764 39 7.78516 39H75.2227C79.5186 39 83.0039 42.2754 83.0039 46.3125V70.6875C83.0039 74.7246 79.5186 78 75.2227 78H7.78516C3.48764 78 0.00390625 74.7246 0.00390625 70.6875V46.3125ZM7.78516 70.6875H15.5664C15.5664 66.6504 12.0827 63.375 7.78516 63.375V70.6875ZM7.78516 46.3125V53.625C12.0827 53.625 15.5664 50.3496 15.5664 46.3125H7.78516ZM75.2227 63.375C70.9268 63.375 67.4414 66.6504 67.4414 70.6875H75.2227V63.375ZM67.4414 46.3125C67.4414 50.3496 70.9268 53.625 75.2227 53.625V46.3125H67.4414ZM41.5039 48.75C35.7814 48.75 31.1289 53.1223 31.1289 58.5C31.1289 63.8777 35.7814 68.25 41.5039 68.25C47.2264 68.25 51.8789 63.8777 51.8789 58.5C51.8789 53.1223 47.2264 48.75 41.5039 48.75Z" fill="#00796B"/>
</svg>
