<svg width="64" height="64" viewBox="0 0 64 64" fill="none" xmlns="http://www.w3.org/2000/svg">
<g clip-path="url(#clip0_203_22)">
<path d="M28.9674 30.2583C33.4778 30.2583 37.1341 26.4527 37.1341 21.7583C37.1341 17.0639 33.4778 13.2583 28.9674 13.2583C24.4571 13.2583 20.8008 17.0639 20.8008 21.7583C20.8008 26.4527 24.4571 30.2583 28.9674 30.2583Z" fill="#00796B"/>
<path d="M31.3766 55.0783C30.9268 54.6152 30.6333 54.013 30.54 53.3617C30.4468 52.7104 30.5588 52.0452 30.8594 51.4658L31.5808 50.0491L30.0972 49.5816C29.4922 49.3845 28.9655 48.9874 28.597 48.4505C28.2285 47.9136 28.0384 47.2662 28.0555 46.6066V43.7025C28.0544 43.0458 28.2562 42.4062 28.6312 41.8781C29.0062 41.35 29.5345 40.9615 30.138 40.77L31.6216 40.3025L30.9138 38.8858C30.6221 38.3143 30.5111 37.6615 30.5966 37.0205C30.6822 36.3795 30.9599 35.7829 31.3902 35.3158C30.3431 35.1729 29.2885 35.0972 28.2324 35.0891C25.1132 35.0127 22.0162 35.6536 19.1623 36.9662C16.3084 38.2787 13.768 40.2305 11.7222 42.6825V53.6616C11.7222 54.0373 11.8656 54.3977 12.1208 54.6634C12.3761 54.929 12.7223 55.0783 13.0833 55.0783H31.3766V55.0783Z" fill="#00796B"/>
<path d="M54.8694 43.235L52.1472 42.385C51.9586 41.6853 51.6937 41.0104 51.3578 40.3733L52.7189 37.7383C52.7715 37.6405 52.7907 37.5271 52.7734 37.4164C52.7561 37.3058 52.7033 37.2046 52.6236 37.1292L50.65 35.0608C50.574 34.9838 50.477 34.933 50.3723 34.9153C50.2677 34.8975 50.1603 34.9137 50.0647 34.9617L47.5466 36.3783C46.9268 36.0279 46.2748 35.7431 45.6003 35.5283L44.77 32.695C44.7334 32.5905 44.6667 32.5004 44.579 32.437C44.4912 32.3736 44.3868 32.34 44.28 32.3408H41.4489C41.3427 32.3439 41.2401 32.3809 41.1549 32.4468C41.0696 32.5127 41.006 32.6043 40.9725 32.7092L40.1558 35.5425C39.4682 35.7507 38.806 36.0407 38.1822 36.4067L35.7186 34.99C35.6228 34.937 35.5134 34.9167 35.406 34.932C35.2985 34.9472 35.1984 34.9973 35.1197 35.075L33.1189 37.115C33.0401 37.194 32.9882 37.2976 32.971 37.4101C32.9538 37.5225 32.9723 37.6378 33.0236 37.7383L34.3847 40.3167C34.0201 40.9566 33.7234 41.6358 33.5 42.3425L30.7778 43.2067C30.6748 43.2377 30.5844 43.3029 30.5205 43.3925C30.4566 43.482 30.4226 43.5909 30.4239 43.7025V46.6067C30.4226 46.7182 30.4566 46.8271 30.5205 46.9167C30.5844 47.0062 30.6748 47.0715 30.7778 47.1025L33.5 47.9667C33.704 48.6605 33.9778 49.33 34.3166 49.9642L32.9555 52.6558C32.9042 52.7564 32.8857 52.8716 32.9029 52.9841C32.9201 53.0966 32.972 53.2001 33.0508 53.2792L35.0789 55.3333C35.1575 55.4111 35.2577 55.4611 35.3651 55.4764C35.4726 55.4916 35.582 55.4713 35.6778 55.4183L38.223 54.0017C38.8288 54.3407 39.4676 54.6114 40.1286 54.8092L40.9453 57.7133C40.9795 57.8205 41.0452 57.9137 41.1332 57.9797C41.2211 58.0458 41.3268 58.0815 41.4353 58.0817H44.2255C44.3317 58.0786 44.4343 58.0416 44.5195 57.9757C44.6048 57.9098 44.6684 57.8182 44.7019 57.7133L45.5186 54.8092C46.1717 54.6139 46.8018 54.343 47.3969 54.0017L49.9694 55.4183C50.0652 55.4713 50.1746 55.4916 50.282 55.4764C50.3895 55.4611 50.4897 55.4111 50.5683 55.3333L52.5555 53.2792C52.6302 53.1973 52.6783 53.0931 52.6929 52.9812C52.7076 52.8693 52.6881 52.7555 52.6372 52.6558L51.2761 49.9925C51.6017 49.3719 51.8618 48.7164 52.0519 48.0375L54.7741 47.1733C54.8764 47.1391 54.9663 47.0734 55.0319 46.9848C55.0975 46.8963 55.1358 46.7891 55.1416 46.6775V43.745C55.145 43.6423 55.1214 43.5406 55.0734 43.4507C55.0255 43.3609 54.955 43.2863 54.8694 43.235V43.235ZM42.8508 49.9217C41.9511 49.9245 41.0708 49.6494 40.3214 49.1311C39.572 48.6129 38.9872 47.8749 38.6411 47.0106C38.2949 46.1462 38.2029 45.1944 38.3768 44.2756C38.5507 43.3568 38.9826 42.5124 39.6178 41.8492C40.253 41.1861 41.063 40.734 41.9453 40.5503C42.8275 40.3666 43.7423 40.4595 44.5738 40.8172C45.4052 41.1749 46.1161 41.7813 46.6162 42.5598C47.1163 43.3382 47.3833 44.2536 47.3833 45.19C47.3833 46.4425 46.9062 47.6438 46.0566 48.5308C45.207 49.4178 44.0542 49.9179 42.8508 49.9217Z" fill="#00796B"/>
</g>
<path d="M32 61C48.0163 61 61 48.0163 61 32C61 15.9837 48.0163 3 32 3C15.9837 3 3 15.9837 3 32C3 48.0163 15.9837 61 32 61Z" stroke="#00796B" stroke-width="5"/>
<defs>
<clipPath id="clip0_203_22">
<rect width="49" height="51" fill="white" transform="translate(9 10)"/>
</clipPath>
</defs>
</svg>
