<svg width="55" height="48" viewBox="0 0 55 48" fill="none" xmlns="http://www.w3.org/2000/svg">
<path d="M51.5625 20.5714C52.5114 20.5714 53.3215 20.9063 53.9929 21.5759C54.6643 22.2455 55 23.0536 55 24C55 24.9464 54.6643 25.7545 53.9929 26.4241C53.3215 27.0938 52.5114 27.4286 51.5625 27.4286H51.1597L48.0713 45.1607C47.9281 45.9821 47.5342 46.6607 46.8896 47.1964C46.2451 47.7321 45.5111 48 44.6875 48H10.3125C9.48893 48 8.75488 47.7321 8.11035 47.1964C7.46582 46.6607 7.07194 45.9821 6.92871 45.1607L3.84033 27.4286H3.4375C2.48861 27.4286 1.67847 27.0938 1.00708 26.4241C0.335693 25.7545 0 24.9464 0 24C0 23.0536 0.335693 22.2455 1.00708 21.5759C1.67847 20.9063 2.48861 20.5714 3.4375 20.5714H51.5625ZM13.0249 42C13.4904 41.9643 13.8798 41.7634 14.1931 41.3973C14.5064 41.0313 14.6452 40.6161 14.6094 40.1518L13.75 29.0089C13.7142 28.5446 13.5128 28.1563 13.1458 27.8438C12.7787 27.5313 12.3625 27.3929 11.897 27.4286C11.4315 27.4643 11.0421 27.6652 10.7288 28.0313C10.4154 28.3973 10.2767 28.8125 10.3125 29.2768L11.1719 40.4196C11.2077 40.8661 11.3912 41.2411 11.7224 41.5446C12.0536 41.8482 12.443 42 12.8906 42H13.0249ZM24.0625 40.2857V29.1429C24.0625 28.6786 23.8924 28.2768 23.5522 27.9375C23.2121 27.5982 22.8092 27.4286 22.3438 27.4286C21.8783 27.4286 21.4754 27.5982 21.1353 27.9375C20.7951 28.2768 20.625 28.6786 20.625 29.1429V40.2857C20.625 40.75 20.7951 41.1518 21.1353 41.4911C21.4754 41.8304 21.8783 42 22.3438 42C22.8092 42 23.2121 41.8304 23.5522 41.4911C23.8924 41.1518 24.0625 40.75 24.0625 40.2857ZM34.375 40.2857V29.1429C34.375 28.6786 34.2049 28.2768 33.8647 27.9375C33.5246 27.5982 33.1217 27.4286 32.6562 27.4286C32.1908 27.4286 31.7879 27.5982 31.4478 27.9375C31.1076 28.2768 30.9375 28.6786 30.9375 29.1429V40.2857C30.9375 40.75 31.1076 41.1518 31.4478 41.4911C31.7879 41.8304 32.1908 42 32.6562 42C33.1217 42 33.5246 41.8304 33.8647 41.4911C34.2049 41.1518 34.375 40.75 34.375 40.2857ZM43.8281 40.4196L44.6875 29.2768C44.7233 28.8125 44.5846 28.3973 44.2712 28.0313C43.9579 27.6652 43.5685 27.4643 43.103 27.4286C42.6375 27.3929 42.2213 27.5313 41.8542 27.8438C41.4872 28.1563 41.2858 28.5446 41.25 29.0089L40.3906 40.1518C40.3548 40.6161 40.4936 41.0313 40.8069 41.3973C41.1202 41.7634 41.5096 41.9643 41.9751 42H42.1094C42.557 42 42.9464 41.8482 43.2776 41.5446C43.6088 41.2411 43.7923 40.8661 43.8281 40.4196ZM12.7832 7.82143L10.2856 18.8571H6.74072L9.45312 7.04464C9.79329 5.47321 10.59 4.19196 11.8433 3.20089C13.0965 2.20982 14.5288 1.71429 16.1401 1.71429H20.625C20.625 1.25 20.7951 0.848214 21.1353 0.508929C21.4754 0.169643 21.8783 0 22.3438 0H32.6562C33.1217 0 33.5246 0.169643 33.8647 0.508929C34.2049 0.848214 34.375 1.25 34.375 1.71429H38.8599C40.4712 1.71429 41.9035 2.20982 43.1567 3.20089C44.41 4.19196 45.2067 5.47321 45.5469 7.04464L48.2593 18.8571H44.7144L42.2168 7.82143C42.0199 7.03571 41.6125 6.39286 40.9949 5.89286C40.3772 5.39286 39.6655 5.14286 38.8599 5.14286H34.375C34.375 5.60714 34.2049 6.00893 33.8647 6.34821C33.5246 6.6875 33.1217 6.85714 32.6562 6.85714H22.3438C21.8783 6.85714 21.4754 6.6875 21.1353 6.34821C20.7951 6.00893 20.625 5.60714 20.625 5.14286H16.1401C15.3345 5.14286 14.6228 5.39286 14.0051 5.89286C13.3875 6.39286 12.9801 7.03571 12.7832 7.82143Z" fill="#00796B"/>
</svg>
