<svg width="52" height="52" viewBox="0 0 52 52" fill="none" xmlns="http://www.w3.org/2000/svg">
<path d="M14.6151 8.125C13.6408 8.125 12.9912 9.1 12.9912 9.75V17.875H9.74341V9.75C9.74341 8.775 9.09385 8.125 8.11951 8.125C7.14517 8.125 6.4956 9.1 6.4956 9.75V17.875H3.2478V9.75C3.2478 8.775 2.59824 8.125 1.6239 8.125C0.64956 8.125 0 9.1 0 9.75V20.475C0 23.4 2.27346 25.675 4.8717 26V48.75C4.8717 50.7 6.17082 52 8.11951 52C10.0682 52 11.3673 50.7 11.3673 48.75V26C13.9656 25.675 16.239 23.4 16.239 20.475V9.75C16.239 9.1 15.5895 8.125 14.6151 8.125ZM21.1107 9.75V29.25H24.3585V48.75C24.3585 50.7 25.6576 52 27.6063 52C29.555 52 30.8541 50.7 30.8541 48.75V0C25.3329 0 21.1107 4.225 21.1107 9.75ZM43.8453 6.5C39.2984 6.5 35.7258 11.375 35.7258 17.225C35.401 21.125 37.3497 24.7 40.5975 26.975V48.75C40.5975 50.7 41.8967 52 43.8453 52C45.794 52 47.0931 50.7 47.0931 48.75V26.975C50.3409 24.7 52.2896 21.125 51.9648 17.225C51.9648 11.375 48.3923 6.5 43.8453 6.5Z" fill="#00796B"/>
</svg>
