<svg width="58" height="58" viewBox="0 0 58 58" fill="none" xmlns="http://www.w3.org/2000/svg">
<path d="M28.7623 12.3606C26.7407 12.3606 24.7646 12.9601 23.0837 14.0832C21.4028 15.2063 20.0927 16.8027 19.3191 18.6704C18.5454 20.5381 18.343 22.5932 18.7374 24.576C19.1318 26.5587 20.1053 28.38 21.5348 29.8095C22.9642 31.2389 24.7855 32.2124 26.7683 32.6068C28.751 33.0012 30.8062 32.7988 32.6739 32.0252C34.5416 31.2515 36.1379 29.9414 37.261 28.2606C38.3842 26.5797 38.9836 24.6035 38.9836 22.5819C38.9836 19.871 37.9068 17.2712 35.9899 15.3543C34.073 13.4375 31.4732 12.3606 28.7623 12.3606Z" fill="#00796B"/>
<path d="M29 0C23.2643 0 17.6575 1.70082 12.8885 4.88738C8.11945 8.07394 4.40245 12.6031 2.20751 17.9022C0.0125652 23.2012 -0.561731 29.0322 0.55724 34.6576C1.67621 40.2831 4.43819 45.4504 8.49391 49.5061C12.5496 53.5618 17.7169 56.3238 23.3424 57.4428C28.9678 58.5617 34.7988 57.9874 40.0978 55.7925C45.3969 53.5976 49.9261 49.8805 53.1126 45.1115C56.2992 40.3425 58 34.7356 58 29C57.9912 21.3114 54.9331 13.9402 49.4964 8.50359C44.0598 3.06694 36.6886 0.00877192 29 0V0ZM45.5549 47.4896C45.5136 44.7725 44.4066 42.1805 42.4724 40.2718C40.5382 38.3632 37.9316 37.2908 35.2143 37.2857H22.7857C20.0684 37.2908 17.4618 38.3632 15.5276 40.2718C13.5934 42.1805 12.4864 44.7725 12.4452 47.4896C8.68875 44.1354 6.03974 39.7194 4.84888 34.8262C3.65803 29.9331 3.9815 24.7936 5.77648 20.0884C7.57145 15.3832 10.7533 11.3342 14.9006 8.47746C19.0479 5.62075 23.9651 4.09112 29.001 4.09112C34.037 4.09112 38.9542 5.62075 43.1015 8.47746C47.2488 11.3342 50.4306 15.3832 52.2256 20.0884C54.0206 24.7936 54.3441 29.9331 53.1532 34.8262C51.9623 39.7194 49.3133 44.1354 45.5569 47.4896H45.5549Z" fill="#00796B"/>
</svg>
