<svg width="40" height="40" viewBox="0 0 40 40" fill="none" xmlns="http://www.w3.org/2000/svg">
<path d="M35.6099 29.3953C34.3584 28.1428 32.8961 27.1206 31.2899 26.3754C33.5549 24.5405 34.9999 21.7405 34.9999 18.6006C34.9999 13.0608 30.3799 8.51592 24.84 8.60092C19.385 8.68592 14.99 13.1308 14.99 18.6006C14.99 21.7405 16.44 24.5405 18.7 26.3754C17.0935 27.12 15.6311 28.1424 14.38 29.3953C11.6501 32.1302 10.1001 35.7401 10.0001 39.59C9.99873 39.6434 10.0081 39.6965 10.0276 39.7462C10.0471 39.7958 10.0763 39.8411 10.1136 39.8793C10.1509 39.9175 10.1954 39.9479 10.2446 39.9686C10.2938 39.9893 10.3467 40 10.4001 40H13.2C13.415 40 13.595 39.83 13.6 39.615C13.695 36.7151 14.87 34.0002 16.935 31.9402C17.9917 30.878 19.2486 30.0358 20.633 29.4625C22.0173 28.8892 23.5016 28.5962 25 28.6003C28.045 28.6003 30.9099 29.7853 33.0649 31.9402C35.1249 34.0002 36.2999 36.7151 36.3999 39.615C36.4049 39.83 36.5849 40 36.7999 40H39.5999C39.6533 40 39.7061 39.9893 39.7553 39.9686C39.8045 39.9479 39.849 39.9175 39.8863 39.8793C39.9236 39.8411 39.9528 39.7958 39.9723 39.7462C39.9918 39.6965 40.0012 39.6434 39.9999 39.59C39.8999 35.7401 38.3499 32.1302 35.6099 29.3953ZM25 25.0004C23.29 25.0004 21.68 24.3355 20.475 23.1255C19.8703 22.5255 19.3926 21.8099 19.0704 21.0214C18.7483 20.2328 18.5883 19.3874 18.6 18.5356C18.615 16.8957 19.27 15.3107 20.415 14.1358C21.615 12.9058 23.22 12.2208 24.935 12.2008C26.63 12.1858 28.275 12.8458 29.4849 14.0308C30.7249 15.2457 31.4049 16.8707 31.4049 18.6006C31.4049 20.3106 30.7399 21.9155 29.5299 23.1255C28.9363 23.722 28.2303 24.1948 27.4527 24.5166C26.6752 24.8384 25.8415 25.0029 25 25.0004ZM12.475 19.9206C12.43 19.4856 12.405 19.0456 12.405 18.6006C12.405 17.8057 12.48 17.0307 12.62 16.2757C12.655 16.0957 12.56 15.9107 12.395 15.8357C11.7151 15.5307 11.0901 15.1107 10.5501 14.5807C9.91376 13.9638 9.41306 13.221 9.07989 12.3997C8.74673 11.5785 8.58842 10.6968 8.61507 9.81089C8.66007 8.20593 9.30507 6.68098 10.4301 5.53101C11.6651 4.26605 13.325 3.57607 15.09 3.59607C16.685 3.61107 18.225 4.22605 19.39 5.31602C19.785 5.68601 20.125 6.09599 20.41 6.53598C20.51 6.69098 20.705 6.75598 20.875 6.69598C21.755 6.39099 22.685 6.17599 23.64 6.07599C23.92 6.046 24.08 5.746 23.955 5.49601C22.33 2.28111 19.01 0.0611714 15.17 0.00117315C9.62506 -0.0838244 5.00509 4.46104 5.00509 9.99588C5.00509 13.1358 6.45008 15.9357 8.71507 17.7707C7.12508 18.5056 5.66009 19.5206 4.3901 20.7906C1.65012 23.5255 0.100124 27.1354 0.000125029 30.9903C-0.00120949 31.0436 0.00815059 31.0967 0.027654 31.1464C0.0471574 31.1961 0.0764094 31.2414 0.113686 31.2796C0.150963 31.3178 0.195511 31.3482 0.244705 31.3689C0.293898 31.3896 0.346742 31.4003 0.400123 31.4003H3.20511C3.4201 31.4003 3.6001 31.2303 3.6051 31.0153C3.7001 28.1153 4.87509 25.4004 6.94008 23.3405C8.41007 21.8705 10.2101 20.8506 12.175 20.3556C12.37 20.3056 12.5 20.1206 12.475 19.9206Z" fill="#00796B"/>
</svg>
