<svg width="36" height="36" viewBox="0 0 36 36" fill="none" xmlns="http://www.w3.org/2000/svg">
<path d="M0 0H31C33.7614 0 36 2.23858 36 5V31C36 33.7614 33.7614 36 31 36H0V0Z" fill="#00796B"/>
<path d="M30.3749 7.7418H24.9116V5.66055C24.9116 5.51746 24.7945 5.40039 24.6515 5.40039H22.8304C22.6873 5.40039 22.5702 5.51746 22.5702 5.66055V7.7418H14.2452V5.66055C14.2452 5.51746 14.1281 5.40039 13.9851 5.40039H12.164C12.0209 5.40039 11.9038 5.51746 11.9038 5.66055V7.7418H6.44053C5.86493 7.7418 5.3999 8.20683 5.3999 8.78242V30.3754C5.3999 30.951 5.86493 31.416 6.44053 31.416H30.3749C30.9505 31.416 31.4155 30.951 31.4155 30.3754V8.78242C31.4155 8.20683 30.9505 7.7418 30.3749 7.7418ZM29.0741 29.0746H7.74131V16.7172H29.0741V29.0746ZM29.0741 14.5059H7.74131V10.0832H11.9038V11.6441C11.9038 11.7872 12.0209 11.9043 12.164 11.9043H13.9851C14.1281 11.9043 14.2452 11.7872 14.2452 11.6441V10.0832H22.5702V11.6441C22.5702 11.7872 22.6873 11.9043 22.8304 11.9043H24.6515C24.7945 11.9043 24.9116 11.7872 24.9116 11.6441V10.0832H29.0741V14.5059Z" fill="white"/>
</svg>
