<svg width="310" height="36" viewBox="0 0 310 36" fill="none" xmlns="http://www.w3.org/2000/svg">
<g filter="url(#filter0_i_188_196)">
<rect width="310" height="36" rx="5" fill="white"/>
</g>
<path d="M14.05 22V11.2H15.16L21.1075 20.05V11.2H22.2175V22H21.1075L15.16 13.1425V22H14.05ZM27.7461 22.225C26.9561 22.225 26.2711 22.05 25.6911 21.7C25.1161 21.35 24.6686 20.8575 24.3486 20.2225C24.0286 19.5875 23.8686 18.8425 23.8686 17.9875C23.8686 17.1025 24.0261 16.3375 24.3411 15.6925C24.6561 15.0475 25.0986 14.55 25.6686 14.2C26.2436 13.85 26.9211 13.675 27.7011 13.675C28.5011 13.675 29.1836 13.86 29.7486 14.23C30.3136 14.595 30.7411 15.12 31.0311 15.805C31.3211 16.49 31.4536 17.3075 31.4286 18.2575H30.3036V17.8675C30.2836 16.8175 30.0561 16.025 29.6211 15.49C29.1911 14.955 28.5611 14.6875 27.7311 14.6875C26.8611 14.6875 26.1936 14.97 25.7286 15.535C25.2686 16.1 25.0386 16.905 25.0386 17.95C25.0386 18.97 25.2686 19.7625 25.7286 20.3275C26.1936 20.8875 26.8511 21.1675 27.7011 21.1675C28.2811 21.1675 28.7861 21.035 29.2161 20.77C29.6511 20.5 29.9936 20.1125 30.2436 19.6075L31.2711 20.005C30.9511 20.71 30.4786 21.2575 29.8536 21.6475C29.2336 22.0325 28.5311 22.225 27.7461 22.225ZM24.6486 18.2575V17.335H30.8361V18.2575H24.6486ZM38.7232 22V17.8675C38.7232 17.4175 38.6807 17.005 38.5957 16.63C38.5107 16.25 38.3732 15.92 38.1832 15.64C37.9982 15.355 37.7557 15.135 37.4557 14.98C37.1607 14.825 36.8007 14.7475 36.3757 14.7475C35.9857 14.7475 35.6407 14.815 35.3407 14.95C35.0457 15.085 34.7957 15.28 34.5907 15.535C34.3907 15.785 34.2382 16.09 34.1332 16.45C34.0282 16.81 33.9757 17.22 33.9757 17.68L33.1957 17.5075C33.1957 16.6775 33.3407 15.98 33.6307 15.415C33.9207 14.85 34.3207 14.4225 34.8307 14.1325C35.3407 13.8425 35.9257 13.6975 36.5857 13.6975C37.0707 13.6975 37.4932 13.7725 37.8532 13.9225C38.2182 14.0725 38.5257 14.275 38.7757 14.53C39.0307 14.785 39.2357 15.0775 39.3907 15.4075C39.5457 15.7325 39.6582 16.08 39.7282 16.45C39.7982 16.815 39.8332 17.18 39.8332 17.545V22H38.7232ZM32.8657 22V13.9H33.8632V15.895H33.9757V22H32.8657ZM47.6295 22V17.8675C47.6295 17.4175 47.587 17.005 47.502 16.63C47.417 16.25 47.2795 15.92 47.0895 15.64C46.9045 15.355 46.662 15.135 46.362 14.98C46.067 14.825 45.707 14.7475 45.282 14.7475C44.892 14.7475 44.547 14.815 44.247 14.95C43.952 15.085 43.702 15.28 43.497 15.535C43.297 15.785 43.1445 16.09 43.0395 16.45C42.9345 16.81 42.882 17.22 42.882 17.68L42.102 17.5075C42.102 16.6775 42.247 15.98 42.537 15.415C42.827 14.85 43.227 14.4225 43.737 14.1325C44.247 13.8425 44.832 13.6975 45.492 13.6975C45.977 13.6975 46.3995 13.7725 46.7595 13.9225C47.1245 14.0725 47.432 14.275 47.682 14.53C47.937 14.785 48.142 15.0775 48.297 15.4075C48.452 15.7325 48.5645 16.08 48.6345 16.45C48.7045 16.815 48.7395 17.18 48.7395 17.545V22H47.6295ZM41.772 22V11.2H42.7695V17.2975H42.882V22H41.772ZM53.7832 22.2025C53.2982 22.2025 52.8732 22.1275 52.5082 21.9775C52.1482 21.8275 51.8407 21.625 51.5857 21.37C51.3357 21.115 51.1332 20.825 50.9782 20.5C50.8232 20.17 50.7107 19.8225 50.6407 19.4575C50.5707 19.0875 50.5357 18.72 50.5357 18.355V13.9H51.6457V18.0325C51.6457 18.4775 51.6882 18.89 51.7732 19.27C51.8582 19.65 51.9932 19.9825 52.1782 20.2675C52.3682 20.5475 52.6107 20.765 52.9057 20.92C53.2057 21.075 53.5682 21.1525 53.9932 21.1525C54.3832 21.1525 54.7257 21.085 55.0207 20.95C55.3207 20.815 55.5707 20.6225 55.7707 20.3725C55.9757 20.1175 56.1307 19.81 56.2357 19.45C56.3407 19.085 56.3932 18.675 56.3932 18.22L57.1732 18.3925C57.1732 19.2225 57.0282 19.92 56.7382 20.485C56.4482 21.05 56.0482 21.4775 55.5382 21.7675C55.0282 22.0575 54.4432 22.2025 53.7832 22.2025ZM56.5057 22V20.005H56.3932V13.9H57.4957V22H56.5057ZM69.252 22L69.2595 16.6825C69.2595 16.0575 69.0845 15.5675 68.7345 15.2125C68.3895 14.8525 67.9495 14.6725 67.4145 14.6725C67.1095 14.6725 66.812 14.7425 66.522 14.8825C66.232 15.0225 65.992 15.2475 65.802 15.5575C65.617 15.8675 65.5245 16.2725 65.5245 16.7725L64.872 16.585C64.857 16.005 64.9695 15.4975 65.2095 15.0625C65.4545 14.6275 65.7895 14.29 66.2145 14.05C66.6445 13.805 67.1295 13.6825 67.6695 13.6825C68.4845 13.6825 69.137 13.935 69.627 14.44C70.117 14.94 70.362 15.6175 70.362 16.4725L70.3545 22H69.252ZM59.5845 22V13.9H60.5745V15.895H60.6945V22H59.5845ZM64.4295 22L64.437 16.7575C64.437 16.1125 64.2645 15.605 63.9195 15.235C63.5795 14.86 63.1295 14.6725 62.5695 14.6725C62.0095 14.6725 61.557 14.865 61.212 15.25C60.867 15.63 60.6945 16.1375 60.6945 16.7725L60.0345 16.4125C60.0345 15.8925 60.157 15.4275 60.402 15.0175C60.647 14.6025 60.982 14.2775 61.407 14.0425C61.832 13.8025 62.3145 13.6825 62.8545 13.6825C63.3695 13.6825 63.827 13.7925 64.227 14.0125C64.632 14.2325 64.9495 14.5525 65.1795 14.9725C65.4095 15.3925 65.5245 15.9025 65.5245 16.5025L65.517 22H64.4295ZM76.1123 22V13.3C76.1123 13.09 76.1223 12.8825 76.1423 12.6775C76.1673 12.4725 76.2148 12.2775 76.2848 12.0925C76.3548 11.9025 76.4648 11.7275 76.6148 11.5675C76.7798 11.3875 76.9598 11.2575 77.1548 11.1775C77.3498 11.0925 77.5523 11.0375 77.7623 11.0125C77.9773 10.9875 78.1873 10.975 78.3923 10.975H79.4273V11.905H78.4673C78.0473 11.905 77.7323 12.0075 77.5223 12.2125C77.3173 12.4175 77.2148 12.74 77.2148 13.18V22H76.1123ZM74.7098 14.845V13.9H79.4273V14.845H74.7098ZM81.0023 12.3625V11.125H82.1048V12.3625H81.0023ZM81.0023 22V13.9H82.1048V22H81.0023ZM87.7079 22.225C86.8929 22.225 86.2029 22.0425 85.6379 21.6775C85.0729 21.3125 84.6429 20.81 84.3479 20.17C84.0579 19.525 83.9079 18.785 83.8979 17.95C83.9079 17.1 84.0629 16.355 84.3629 15.715C84.6629 15.07 85.0954 14.57 85.6604 14.215C86.2254 13.855 86.9104 13.675 87.7154 13.675C88.5354 13.675 89.2479 13.875 89.8529 14.275C90.4629 14.675 90.8804 15.2225 91.1054 15.9175L90.0254 16.2625C89.8354 15.7775 89.5329 15.4025 89.1179 15.1375C88.7079 14.8675 88.2379 14.7325 87.7079 14.7325C87.1129 14.7325 86.6204 14.87 86.2304 15.145C85.8404 15.415 85.5504 15.7925 85.3604 16.2775C85.1704 16.7625 85.0729 17.32 85.0679 17.95C85.0779 18.92 85.3029 19.7 85.7429 20.29C86.1829 20.875 86.8379 21.1675 87.7079 21.1675C88.2579 21.1675 88.7254 21.0425 89.1104 20.7925C89.5004 20.5375 89.7954 20.1675 89.9954 19.6825L91.1054 20.0125C90.8054 20.7325 90.3654 21.2825 89.7854 21.6625C89.2054 22.0375 88.5129 22.225 87.7079 22.225ZM98.5035 22V17.8675C98.5035 17.4175 98.461 17.005 98.376 16.63C98.291 16.25 98.1535 15.92 97.9635 15.64C97.7785 15.355 97.536 15.135 97.236 14.98C96.941 14.825 96.581 14.7475 96.156 14.7475C95.766 14.7475 95.421 14.815 95.121 14.95C94.826 15.085 94.576 15.28 94.371 15.535C94.171 15.785 94.0185 16.09 93.9135 16.45C93.8085 16.81 93.756 17.22 93.756 17.68L92.976 17.5075C92.976 16.6775 93.121 15.98 93.411 15.415C93.701 14.85 94.101 14.4225 94.611 14.1325C95.121 13.8425 95.706 13.6975 96.366 13.6975C96.851 13.6975 97.2735 13.7725 97.6335 13.9225C97.9985 14.0725 98.306 14.275 98.556 14.53C98.811 14.785 99.016 15.0775 99.171 15.4075C99.326 15.7325 99.4385 16.08 99.5085 16.45C99.5785 16.815 99.6135 17.18 99.6135 17.545V22H98.5035ZM92.646 22V11.2H93.6435V17.2975H93.756V22H92.646ZM104.987 22.225C104.197 22.225 103.512 22.05 102.932 21.7C102.357 21.35 101.91 20.8575 101.59 20.2225C101.27 19.5875 101.11 18.8425 101.11 17.9875C101.11 17.1025 101.267 16.3375 101.582 15.6925C101.897 15.0475 102.34 14.55 102.91 14.2C103.485 13.85 104.162 13.675 104.942 13.675C105.742 13.675 106.425 13.86 106.99 14.23C107.555 14.595 107.982 15.12 108.272 15.805C108.562 16.49 108.695 17.3075 108.67 18.2575H107.545V17.8675C107.525 16.8175 107.297 16.025 106.862 15.49C106.432 14.955 105.802 14.6875 104.972 14.6875C104.102 14.6875 103.435 14.97 102.97 15.535C102.51 16.1 102.28 16.905 102.28 17.95C102.28 18.97 102.51 19.7625 102.97 20.3275C103.435 20.8875 104.092 21.1675 104.942 21.1675C105.522 21.1675 106.027 21.035 106.457 20.77C106.892 20.5 107.235 20.1125 107.485 19.6075L108.512 20.005C108.192 20.71 107.72 21.2575 107.095 21.6475C106.475 22.0325 105.772 22.225 104.987 22.225ZM101.89 18.2575V17.335H108.077V18.2575H101.89ZM110.484 12.3625V11.125H111.587V12.3625H110.484ZM110.484 22V13.9H111.587V22H110.484ZM113.835 22V13.9H114.825V15.85L114.63 15.595C114.72 15.355 114.838 15.135 114.983 14.935C115.128 14.73 115.285 14.5625 115.455 14.4325C115.665 14.2475 115.91 14.1075 116.19 14.0125C116.47 13.9125 116.753 13.855 117.038 13.84C117.323 13.82 117.583 13.84 117.818 13.9V14.935C117.523 14.86 117.2 14.8425 116.85 14.8825C116.5 14.9225 116.178 15.0625 115.883 15.3025C115.613 15.5125 115.41 15.765 115.275 16.06C115.14 16.35 115.05 16.66 115.005 16.99C114.96 17.315 114.938 17.6375 114.938 17.9575V22H113.835ZM122.476 22.225C121.671 22.225 120.984 22.0425 120.414 21.6775C119.844 21.3125 119.406 20.8075 119.101 20.1625C118.796 19.5175 118.644 18.7775 118.644 17.9425C118.644 17.0925 118.799 16.3475 119.109 15.7075C119.419 15.0675 119.859 14.57 120.429 14.215C121.004 13.855 121.686 13.675 122.476 13.675C123.286 13.675 123.976 13.8575 124.546 14.2225C125.121 14.5825 125.559 15.085 125.859 15.73C126.164 16.37 126.316 17.1075 126.316 17.9425C126.316 18.7925 126.164 19.54 125.859 20.185C125.554 20.825 125.114 21.325 124.539 21.685C123.964 22.045 123.276 22.225 122.476 22.225ZM122.476 21.1675C123.376 21.1675 124.046 20.87 124.486 20.275C124.926 19.675 125.146 18.8975 125.146 17.9425C125.146 16.9625 124.924 16.1825 124.479 15.6025C124.039 15.0225 123.371 14.7325 122.476 14.7325C121.871 14.7325 121.371 14.87 120.976 15.145C120.586 15.415 120.294 15.7925 120.099 16.2775C119.909 16.7575 119.814 17.3125 119.814 17.9425C119.814 18.9175 120.039 19.7 120.489 20.29C120.939 20.875 121.601 21.1675 122.476 21.1675ZM133.996 22.2175C133.046 22.2175 132.264 22.0125 131.649 21.6025C131.039 21.1925 130.664 20.6225 130.524 19.8925L131.649 19.705C131.769 20.165 132.041 20.5325 132.466 20.8075C132.896 21.0775 133.426 21.2125 134.056 21.2125C134.671 21.2125 135.156 21.085 135.511 20.83C135.866 20.57 136.044 20.2175 136.044 19.7725C136.044 19.5225 135.986 19.32 135.871 19.165C135.761 19.005 135.534 18.8575 135.189 18.7225C134.844 18.5875 134.329 18.4275 133.644 18.2425C132.909 18.0425 132.334 17.8425 131.919 17.6425C131.504 17.4425 131.209 17.2125 131.034 16.9525C130.859 16.6875 130.771 16.365 130.771 15.985C130.771 15.525 130.901 15.1225 131.161 14.7775C131.421 14.4275 131.781 14.1575 132.241 13.9675C132.701 13.7725 133.236 13.675 133.846 13.675C134.456 13.675 135.001 13.775 135.481 13.975C135.966 14.17 136.356 14.445 136.651 14.8C136.946 15.155 137.121 15.5675 137.176 16.0375L136.051 16.24C135.976 15.765 135.739 15.39 135.339 15.115C134.944 14.835 134.441 14.69 133.831 14.68C133.256 14.665 132.789 14.775 132.429 15.01C132.069 15.24 131.889 15.5475 131.889 15.9325C131.889 16.1475 131.954 16.3325 132.084 16.4875C132.214 16.6375 132.449 16.78 132.789 16.915C133.134 17.05 133.624 17.1975 134.259 17.3575C135.004 17.5475 135.589 17.7475 136.014 17.9575C136.439 18.1675 136.741 18.415 136.921 18.7C137.101 18.985 137.191 19.3375 137.191 19.7575C137.191 20.5225 136.906 21.125 136.336 21.565C135.771 22 134.991 22.2175 133.996 22.2175ZM142.282 22.225C141.492 22.225 140.807 22.05 140.227 21.7C139.652 21.35 139.205 20.8575 138.885 20.2225C138.565 19.5875 138.405 18.8425 138.405 17.9875C138.405 17.1025 138.562 16.3375 138.877 15.6925C139.192 15.0475 139.635 14.55 140.205 14.2C140.78 13.85 141.457 13.675 142.237 13.675C143.037 13.675 143.72 13.86 144.285 14.23C144.85 14.595 145.277 15.12 145.567 15.805C145.857 16.49 145.99 17.3075 145.965 18.2575H144.84V17.8675C144.82 16.8175 144.592 16.025 144.157 15.49C143.727 14.955 143.097 14.6875 142.267 14.6875C141.397 14.6875 140.73 14.97 140.265 15.535C139.805 16.1 139.575 16.905 139.575 17.95C139.575 18.97 139.805 19.7625 140.265 20.3275C140.73 20.8875 141.387 21.1675 142.237 21.1675C142.817 21.1675 143.322 21.035 143.752 20.77C144.187 20.5 144.53 20.1125 144.78 19.6075L145.807 20.005C145.487 20.71 145.015 21.2575 144.39 21.6475C143.77 22.0325 143.067 22.225 142.282 22.225ZM139.185 18.2575V17.335H145.372V18.2575H139.185ZM147.779 22V10.975H148.882V22H147.779ZM154.558 22.225C153.768 22.225 153.083 22.05 152.503 21.7C151.928 21.35 151.48 20.8575 151.16 20.2225C150.84 19.5875 150.68 18.8425 150.68 17.9875C150.68 17.1025 150.838 16.3375 151.153 15.6925C151.468 15.0475 151.91 14.55 152.48 14.2C153.055 13.85 153.733 13.675 154.513 13.675C155.313 13.675 155.995 13.86 156.56 14.23C157.125 14.595 157.553 15.12 157.843 15.805C158.133 16.49 158.265 17.3075 158.24 18.2575H157.115V17.8675C157.095 16.8175 156.868 16.025 156.433 15.49C156.003 14.955 155.373 14.6875 154.543 14.6875C153.673 14.6875 153.005 14.97 152.54 15.535C152.08 16.1 151.85 16.905 151.85 17.95C151.85 18.97 152.08 19.7625 152.54 20.3275C153.005 20.8875 153.663 21.1675 154.513 21.1675C155.093 21.1675 155.598 21.035 156.028 20.77C156.463 20.5 156.805 20.1125 157.055 19.6075L158.083 20.005C157.763 20.71 157.29 21.2575 156.665 21.6475C156.045 22.0325 155.343 22.225 154.558 22.225ZM151.46 18.2575V17.335H157.648V18.2575H151.46ZM163.264 22.225C162.449 22.225 161.759 22.0425 161.194 21.6775C160.629 21.3125 160.199 20.81 159.904 20.17C159.614 19.525 159.464 18.785 159.454 17.95C159.464 17.1 159.619 16.355 159.919 15.715C160.219 15.07 160.652 14.57 161.217 14.215C161.782 13.855 162.467 13.675 163.272 13.675C164.092 13.675 164.804 13.875 165.409 14.275C166.019 14.675 166.437 15.2225 166.662 15.9175L165.582 16.2625C165.392 15.7775 165.089 15.4025 164.674 15.1375C164.264 14.8675 163.794 14.7325 163.264 14.7325C162.669 14.7325 162.177 14.87 161.787 15.145C161.397 15.415 161.107 15.7925 160.917 16.2775C160.727 16.7625 160.629 17.32 160.624 17.95C160.634 18.92 160.859 19.7 161.299 20.29C161.739 20.875 162.394 21.1675 163.264 21.1675C163.814 21.1675 164.282 21.0425 164.667 20.7925C165.057 20.5375 165.352 20.1675 165.552 19.6825L166.662 20.0125C166.362 20.7325 165.922 21.2825 165.342 21.6625C164.762 22.0375 164.069 22.225 163.264 22.225ZM168.14 12.3625V11.125H169.243V12.3625H168.14ZM168.14 22V13.9H169.243V22H168.14ZM174.874 22.225C174.069 22.225 173.381 22.0425 172.811 21.6775C172.241 21.3125 171.804 20.8075 171.499 20.1625C171.194 19.5175 171.041 18.7775 171.041 17.9425C171.041 17.0925 171.196 16.3475 171.506 15.7075C171.816 15.0675 172.256 14.57 172.826 14.215C173.401 13.855 174.084 13.675 174.874 13.675C175.684 13.675 176.374 13.8575 176.944 14.2225C177.519 14.5825 177.956 15.085 178.256 15.73C178.561 16.37 178.714 17.1075 178.714 17.9425C178.714 18.7925 178.561 19.54 178.256 20.185C177.951 20.825 177.511 21.325 176.936 21.685C176.361 22.045 175.674 22.225 174.874 22.225ZM174.874 21.1675C175.774 21.1675 176.444 20.87 176.884 20.275C177.324 19.675 177.544 18.8975 177.544 17.9425C177.544 16.9625 177.321 16.1825 176.876 15.6025C176.436 15.0225 175.769 14.7325 174.874 14.7325C174.269 14.7325 173.769 14.87 173.374 15.145C172.984 15.415 172.691 15.7925 172.496 16.2775C172.306 16.7575 172.211 17.3125 172.211 17.9425C172.211 18.9175 172.436 19.7 172.886 20.29C173.336 20.875 173.999 21.1675 174.874 21.1675ZM186.218 22V17.8675C186.218 17.4175 186.176 17.005 186.091 16.63C186.006 16.25 185.868 15.92 185.678 15.64C185.493 15.355 185.251 15.135 184.951 14.98C184.656 14.825 184.296 14.7475 183.871 14.7475C183.481 14.7475 183.136 14.815 182.836 14.95C182.541 15.085 182.291 15.28 182.086 15.535C181.886 15.785 181.733 16.09 181.628 16.45C181.523 16.81 181.471 17.22 181.471 17.68L180.691 17.5075C180.691 16.6775 180.836 15.98 181.126 15.415C181.416 14.85 181.816 14.4225 182.326 14.1325C182.836 13.8425 183.421 13.6975 184.081 13.6975C184.566 13.6975 184.988 13.7725 185.348 13.9225C185.713 14.0725 186.021 14.275 186.271 14.53C186.526 14.785 186.731 15.0775 186.886 15.4075C187.041 15.7325 187.153 16.08 187.223 16.45C187.293 16.815 187.328 17.18 187.328 17.545V22H186.218ZM180.361 22V13.9H181.358V15.895H181.471V22H180.361ZM191.592 22.225C190.982 22.225 190.47 22.115 190.055 21.895C189.645 21.675 189.337 21.3825 189.132 21.0175C188.927 20.6525 188.825 20.255 188.825 19.825C188.825 19.385 188.912 19.01 189.087 18.7C189.267 18.385 189.51 18.1275 189.815 17.9275C190.125 17.7275 190.482 17.575 190.887 17.47C191.297 17.37 191.75 17.2825 192.245 17.2075C192.745 17.1275 193.232 17.06 193.707 17.005C194.187 16.945 194.607 16.8875 194.967 16.8325L194.577 17.0725C194.592 16.2725 194.437 15.68 194.112 15.295C193.787 14.91 193.222 14.7175 192.417 14.7175C191.862 14.7175 191.392 14.8425 191.007 15.0925C190.627 15.3425 190.36 15.7375 190.205 16.2775L189.132 15.9625C189.317 15.2375 189.69 14.675 190.25 14.275C190.81 13.875 191.537 13.675 192.432 13.675C193.172 13.675 193.8 13.815 194.315 14.095C194.835 14.37 195.202 14.77 195.417 15.295C195.517 15.53 195.582 15.7925 195.612 16.0825C195.642 16.3725 195.657 16.6675 195.657 16.9675V22H194.675V19.9675L194.96 20.0875C194.685 20.7825 194.257 21.3125 193.677 21.6775C193.097 22.0425 192.402 22.225 191.592 22.225ZM191.72 21.2725C192.235 21.2725 192.685 21.18 193.07 20.995C193.455 20.81 193.765 20.5575 194 20.2375C194.235 19.9125 194.387 19.5475 194.457 19.1425C194.517 18.8825 194.55 18.5975 194.555 18.2875C194.56 17.9725 194.562 17.7375 194.562 17.5825L194.982 17.8C194.607 17.85 194.2 17.9 193.76 17.95C193.325 18 192.895 18.0575 192.47 18.1225C192.05 18.1875 191.67 18.265 191.33 18.355C191.1 18.42 190.877 18.5125 190.662 18.6325C190.447 18.7475 190.27 18.9025 190.13 19.0975C189.995 19.2925 189.927 19.535 189.927 19.825C189.927 20.06 189.985 20.2875 190.1 20.5075C190.22 20.7275 190.41 20.91 190.67 21.055C190.935 21.2 191.285 21.2725 191.72 21.2725ZM200.752 22.225C199.997 22.225 199.352 22.0375 198.817 21.6625C198.282 21.2825 197.872 20.77 197.587 20.125C197.302 19.48 197.16 18.7525 197.16 17.9425C197.16 17.1375 197.3 16.4125 197.58 15.7675C197.865 15.1225 198.272 14.6125 198.802 14.2375C199.332 13.8625 199.967 13.675 200.707 13.675C201.467 13.675 202.107 13.86 202.627 14.23C203.147 14.6 203.54 15.1075 203.805 15.7525C204.075 16.3925 204.21 17.1225 204.21 17.9425C204.21 18.7475 204.077 19.475 203.812 20.125C203.547 20.77 203.157 21.2825 202.642 21.6625C202.127 22.0375 201.497 22.225 200.752 22.225ZM200.865 21.1975C201.44 21.1975 201.915 21.0575 202.29 20.7775C202.665 20.4975 202.945 20.1125 203.13 19.6225C203.315 19.1275 203.407 18.5675 203.407 17.9425C203.407 17.3075 203.315 16.7475 203.13 16.2625C202.945 15.7725 202.665 15.39 202.29 15.115C201.92 14.84 201.452 14.7025 200.887 14.7025C200.307 14.7025 199.827 14.845 199.447 15.13C199.067 15.415 198.785 15.8025 198.6 16.2925C198.42 16.7825 198.33 17.3325 198.33 17.9425C198.33 18.5575 198.422 19.1125 198.607 19.6075C198.797 20.0975 199.08 20.485 199.455 20.77C199.83 21.055 200.3 21.1975 200.865 21.1975ZM203.407 22V15.9025H203.287V11.2H204.397V22H203.407ZM209.884 22.225C209.079 22.225 208.391 22.0425 207.821 21.6775C207.251 21.3125 206.814 20.8075 206.509 20.1625C206.204 19.5175 206.051 18.7775 206.051 17.9425C206.051 17.0925 206.206 16.3475 206.516 15.7075C206.826 15.0675 207.266 14.57 207.836 14.215C208.411 13.855 209.094 13.675 209.884 13.675C210.694 13.675 211.384 13.8575 211.954 14.2225C212.529 14.5825 212.966 15.085 213.266 15.73C213.571 16.37 213.724 17.1075 213.724 17.9425C213.724 18.7925 213.571 19.54 213.266 20.185C212.961 20.825 212.521 21.325 211.946 21.685C211.371 22.045 210.684 22.225 209.884 22.225ZM209.884 21.1675C210.784 21.1675 211.454 20.87 211.894 20.275C212.334 19.675 212.554 18.8975 212.554 17.9425C212.554 16.9625 212.331 16.1825 211.886 15.6025C211.446 15.0225 210.779 14.7325 209.884 14.7325C209.279 14.7325 208.779 14.87 208.384 15.145C207.994 15.415 207.701 15.7925 207.506 16.2775C207.316 16.7575 207.221 17.3125 207.221 17.9425C207.221 18.9175 207.446 19.7 207.896 20.29C208.346 20.875 209.009 21.1675 209.884 21.1675Z" fill="black"/>
<path d="M273 0H304C306.761 0 309 2.23858 309 5V31C309 33.7614 306.761 36 304 36H273V0Z" fill="#FF5722"/>
<path d="M288.429 23.6964H293.571C294.279 23.6964 294.857 23.0997 294.857 22.3705V15.741H296.901C298.046 15.741 298.624 14.309 297.814 13.4737L291.913 7.38775C291.794 7.26484 291.653 7.16732 291.497 7.10078C291.342 7.03425 291.175 7 291.006 7C290.838 7 290.671 7.03425 290.516 7.10078C290.36 7.16732 290.219 7.26484 290.1 7.38775L284.199 13.4737C283.389 14.309 283.954 15.741 285.099 15.741H287.143V22.3705C287.143 23.0997 287.721 23.6964 288.429 23.6964ZM283.286 26.3482H298.714C299.421 26.3482 300 26.9448 300 27.6741C300 28.4033 299.421 29 298.714 29H283.286C282.579 29 282 28.4033 282 27.6741C282 26.9448 282.579 26.3482 283.286 26.3482Z" fill="white"/>
<defs>
<filter id="filter0_i_188_196" x="0" y="0" width="310" height="37" filterUnits="userSpaceOnUse" color-interpolation-filters="sRGB">
<feFlood flood-opacity="0" result="BackgroundImageFix"/>
<feBlend mode="normal" in="SourceGraphic" in2="BackgroundImageFix" result="shape"/>
<feColorMatrix in="SourceAlpha" type="matrix" values="0 0 0 0 0 0 0 0 0 0 0 0 0 0 0 0 0 0 127 0" result="hardAlpha"/>
<feOffset dy="1"/>
<feGaussianBlur stdDeviation="0.5"/>
<feComposite in2="hardAlpha" operator="arithmetic" k2="-1" k3="1"/>
<feColorMatrix type="matrix" values="0 0 0 0 0 0 0 0 0 0 0 0 0 0 0 0 0 0 0.25 0"/>
<feBlend mode="normal" in2="shape" result="effect1_innerShadow_188_196"/>
</filter>
</defs>
</svg>
