<svg width="210" height="216" viewBox="0 0 210 216" fill="none" xmlns="http://www.w3.org/2000/svg">
<path fill-rule="evenodd" clip-rule="evenodd" d="M57.883 29.0065C48.1238 30.1529 42.8514 29.7806 34.2881 33.3231C-17.3697 54.7009 -11.2726 135.395 56.7604 139.381C57.1115 152.221 55.1432 192.153 57.6471 201.321C94.6695 201.653 77.0297 207.149 93.4661 213.874C106.607 219.251 125.168 210.983 128.121 202.29C132.69 188.838 113.46 181.466 100.781 181.737C82.4268 182.127 91.486 196.734 65.2232 194.936L65.1899 137.974C76.9688 130.869 94.5848 122.866 99.4623 106.29L93.0579 102.886C88.9994 106.804 88.2809 112.081 78.9156 119.533C74.1787 123.303 66.4425 129.59 58.8543 130.666C40.3732 133.285 23.1124 120.527 16.7159 111.004C-5.21023 78.3551 17.9167 39.4532 53.7859 37.7834C52.3917 49.5226 54.2803 56.8851 61.5094 61.6378C64.1071 59.3701 64.6623 59.4007 66.3151 56.0899C64.1071 50.5377 59.6907 48.3335 62.3231 38.9561C63.7015 34.0405 67.8488 28.1289 70.612 24.8022C95.1468 -4.73707 146.892 8.18852 153.145 45.9902C148.149 50.3665 137.939 52.6399 139.55 62.241L146.686 62.526C159.412 34.8928 224.449 67.5332 193.971 111.171C191.168 115.185 184.46 119.929 178.163 122.214C168.654 125.664 154.549 124.324 144.642 121.078C140.501 119.721 138.779 117.993 135.542 116.859L130.254 123.328C141.791 128.936 146.205 131.419 161.75 132.471L161.85 162.049C137.418 161.699 153.432 153.999 132.216 154.058C123.513 154.084 104.819 153.192 98.3647 156.973C106.223 157.459 126.034 155.218 130.662 158.58C123.508 163.846 106.443 156.952 98.6973 162.55C106.525 162.929 125.778 161.495 130.702 164.182C128.245 169.174 113.097 165.69 98.6482 167.249C106.239 172.577 123.734 165.45 130.525 170.944C125.872 174.654 106.634 171.811 98.5503 172.899C104.223 175.978 128.697 176.068 136.77 175.568C147.523 174.902 140.952 169.1 170.276 167.147L170.241 132.466C225.936 125.85 221.765 42.3426 161.515 44.7562C153.897 5.9087 110.497 -10.118 80.4067 6.54214C72.4689 10.9374 61.6682 20.8632 57.883 29.0065V29.0065Z" fill="white"/>
</svg>
