<svg width="39" height="39" viewBox="0 0 39 39" fill="none" xmlns="http://www.w3.org/2000/svg">
<path d="M37.44 35.295H1.56C0.697125 35.295 0 35.9921 0 36.855V38.61C0 38.8245 0.1755 39 0.39 39H38.61C38.8245 39 39 38.8245 39 38.61V36.855C39 35.9921 38.3029 35.295 37.44 35.295ZM7.10288 31.2C7.20038 31.2 7.29788 31.1902 7.39538 31.1756L15.5951 29.7375C15.6926 29.718 15.7853 29.6741 15.8535 29.601L36.5186 8.93587C36.5638 8.89077 36.5997 8.8372 36.6241 8.77823C36.6486 8.71926 36.6612 8.65603 36.6612 8.59219C36.6612 8.52834 36.6486 8.46512 36.6241 8.40614C36.5997 8.34717 36.5638 8.2936 36.5186 8.2485L28.4164 0.141375C28.3238 0.0487501 28.2019 0 28.0702 0C27.9386 0 27.8167 0.0487501 27.7241 0.141375L7.059 20.8065C6.98587 20.8796 6.942 20.9674 6.9225 21.0649L5.48437 29.2646C5.43695 29.5258 5.4539 29.7946 5.53374 30.0477C5.61359 30.3008 5.75394 30.5307 5.94262 30.7174C6.26437 31.0294 6.669 31.2 7.10288 31.2V31.2Z" fill="white"/>
</svg>
