<svg width="44" height="32" viewBox="0 0 44 32" fill="none" xmlns="http://www.w3.org/2000/svg">
<path d="M16.1464 16C16.1464 17.4579 16.7419 18.856 17.8018 19.8869C18.8617 20.9178 20.2992 21.4969 21.7981 21.4969C23.2971 21.4969 24.7346 20.9178 25.7945 19.8869C26.8544 18.856 27.4498 17.4579 27.4498 16C27.4498 14.5421 26.8544 13.144 25.7945 12.1131C24.7346 11.0822 23.2971 10.5031 21.7981 10.5031C20.2992 10.5031 18.8617 11.0822 17.8018 12.1131C16.7419 13.144 16.1464 14.5421 16.1464 16V16ZM43.7086 14.7337C38.9248 4.93252 31.6937 0 22 0C12.3013 0 5.07516 4.93251 0.291392 14.7386C0.0995136 15.1338 0 15.5654 0 16.0025C0 16.4395 0.0995136 16.8711 0.291392 17.2663C5.07516 27.0675 12.3063 32 22 32C31.6987 32 38.9248 27.0675 43.7086 17.2613C44.0971 16.4663 44.0971 15.5436 43.7086 14.7337V14.7337ZM21.7981 24.638C16.8933 24.638 12.9169 20.7706 12.9169 16C12.9169 11.2294 16.8933 7.36196 21.7981 7.36196C26.703 7.36196 30.6794 11.2294 30.6794 16C30.6794 20.7706 26.703 24.638 21.7981 24.638Z" fill="white"/>
</svg>
