<svg width="56" height="56" viewBox="0 0 56 56" fill="none" xmlns="http://www.w3.org/2000/svg">
<path d="M28 0C22.4621 0 17.0486 1.64217 12.444 4.71885C7.83947 7.79553 4.25064 12.1685 2.13139 17.2849C0.0121319 22.4012 -0.542361 28.0311 0.538025 33.4625C1.61841 38.894 4.28515 43.8831 8.20102 47.799C12.1169 51.7148 17.106 54.3816 22.5375 55.462C27.9689 56.5424 33.5988 55.9879 38.7151 53.8686C43.8315 51.7494 48.2045 48.1605 51.2812 43.556C54.3578 38.9514 56 33.5379 56 28C55.9915 20.5765 53.0388 13.4595 47.7896 8.21036C42.5405 2.96118 35.4235 0.00846944 28 0ZM28 52C21.6348 52 15.5303 49.4714 11.0294 44.9706C6.52858 40.4697 4.00001 34.3652 4.00001 28C4.00001 21.6348 6.52858 15.5303 11.0294 11.0294C15.5303 6.52856 21.6348 4 28 4V28L44.962 44.962C42.7376 47.1944 40.094 48.9654 37.1831 50.1732C34.2723 51.3809 31.1515 52.0018 28 52Z" fill="#00796B"/>
</svg>
