<svg width="58" height="58" viewBox="0 0 58 58" fill="none" xmlns="http://www.w3.org/2000/svg">
<rect width="58" height="58" rx="5" fill="#FF5722"/>
<path d="M42.5236 41.1413L37.0476 35.4931C38.8144 33.1646 39.773 30.2892 39.7695 27.329C39.7695 24.6928 39.0138 22.1158 37.598 19.9238C36.1822 17.7319 34.1699 16.0235 31.8155 15.0146C29.4611 14.0058 26.8704 13.7418 24.3711 14.2561C21.8717 14.7704 19.5758 16.0399 17.7739 17.904C15.9719 19.7681 14.7447 22.1431 14.2476 24.7287C13.7504 27.3143 14.0056 29.9943 14.9808 32.4298C15.956 34.8654 17.6075 36.9471 19.7264 38.4117C21.8452 39.8763 24.3364 40.6581 26.8847 40.6581C29.7462 40.6618 32.5258 39.67 34.7766 37.8423L40.2366 43.5072C40.3863 43.6633 40.5644 43.7873 40.7607 43.8719C40.9569 43.9565 41.1675 44 41.3801 44C41.5927 44 41.8032 43.9565 41.9995 43.8719C42.1957 43.7873 42.3739 43.6633 42.5236 43.5072C42.6745 43.3523 42.7944 43.168 42.8761 42.965C42.9579 42.7619 43 42.5442 43 42.3242C43 42.1043 42.9579 41.8865 42.8761 41.6835C42.7944 41.4804 42.6745 41.2961 42.5236 41.1413ZM17.2212 27.329C17.2212 25.3519 17.7879 23.4191 18.8498 21.7751C19.9116 20.1312 21.4209 18.8499 23.1867 18.0932C24.9524 17.3366 26.8955 17.1386 28.77 17.5244C30.6446 17.9101 32.3664 18.8622 33.7179 20.2603C35.0694 21.6583 35.9897 23.4396 36.3626 25.3788C36.7355 27.318 36.5441 29.328 35.8127 31.1546C35.0813 32.9813 33.8427 34.5426 32.2535 35.6411C30.6644 36.7395 28.796 37.3258 26.8847 37.3258C24.3218 37.3258 21.8638 36.2726 20.0516 34.3978C18.2393 32.5231 17.2212 29.9804 17.2212 27.329Z" fill="white"/>
</svg>
