<svg width="88" height="88" viewBox="0 0 88 88" fill="none" xmlns="http://www.w3.org/2000/svg">
<path d="M45.0269 39.8688C42.2776 39.8399 39.5983 38.9982 37.3263 37.4497C35.0544 35.9012 33.2914 33.7151 32.2592 31.1667C31.2271 28.6183 30.972 25.8215 31.5261 23.1284C32.0802 20.4354 33.4186 17.9664 35.3729 16.0325C37.3273 14.0985 39.8101 12.786 42.5088 12.2601C45.2075 11.7343 48.0015 12.0186 50.539 13.0774C53.0764 14.1362 55.2439 15.922 56.7685 18.21C58.2931 20.4981 59.1068 23.186 59.1069 25.9355C59.0811 29.6483 57.5847 33.1995 54.9456 35.8111C52.3064 38.4227 48.7398 39.8819 45.0269 39.8688ZM45.0269 16.8911C43.2446 16.92 41.5106 17.4749 40.0427 18.4861C38.5747 19.4973 37.4383 20.9198 36.7762 22.5748C36.1141 24.2298 35.9558 26.0435 36.3212 27.7882C36.6865 29.5329 37.5593 31.1307 38.8298 32.3809C40.1004 33.6312 41.712 34.4781 43.4623 34.8154C45.2127 35.1527 47.0236 34.9652 48.6678 34.2765C50.3119 33.5879 51.7159 32.4288 52.7033 30.9447C53.6908 29.4607 54.2178 27.718 54.218 25.9355C54.1922 23.5193 53.2109 21.2116 51.4886 19.5168C49.7664 17.822 47.4432 16.878 45.0269 16.8911Z" fill="#00796B"/>
<path d="M45.0267 39.8688C42.2774 39.8399 39.5981 38.9982 37.3262 37.4497C35.0542 35.9012 33.2912 33.7151 32.2591 31.1667C31.2269 28.6183 30.9718 25.8215 31.5259 23.1284C32.08 20.4354 33.4184 17.9664 35.3728 16.0325C37.3271 14.0985 39.8099 12.786 42.5086 12.2601C45.2074 11.7343 48.0013 12.0186 50.5388 13.0774C53.0762 14.1362 55.2437 15.922 56.7683 18.21C58.293 20.4981 59.1066 23.186 59.1067 25.9355C59.0809 29.6483 57.5845 33.1995 54.9454 35.8111C52.3063 38.4227 48.7396 39.8819 45.0267 39.8688ZM45.0267 16.8911C43.2444 16.92 41.5104 17.4749 40.0425 18.4861C38.5746 19.4973 37.4382 20.9198 36.7761 22.5748C36.1139 24.2298 35.9556 26.0435 36.321 27.7882C36.6864 29.5329 37.5591 31.1307 38.8297 32.3809C40.1002 33.6312 41.7118 34.4781 43.4622 34.8154C45.2125 35.1527 47.0235 34.9652 48.6676 34.2765C50.3117 33.5879 51.7157 32.4288 52.7032 30.9447C53.6907 29.4607 54.2176 27.718 54.2178 25.9355C54.192 23.5193 53.2107 21.2116 51.4885 19.5168C49.7662 17.822 47.443 16.878 45.0267 16.8911ZM53.5578 43.1444C42.7156 41.2577 31.5538 42.9749 21.7801 48.0333C21.0863 48.4185 20.5118 48.9871 20.1194 49.6769C19.7271 50.3667 19.5321 51.1512 19.5556 51.9444V60.6466C19.5556 61.2949 19.8132 61.9167 20.2716 62.3751C20.73 62.8335 21.3518 63.0911 22.0001 63.0911C22.6484 63.0911 23.2701 62.8335 23.7285 62.3751C24.187 61.9167 24.4445 61.2949 24.4445 60.6466V52.2622C33.5077 47.7146 43.8143 46.2717 53.7778 48.1555L53.5578 43.1444Z" fill="#00796B"/>
<path d="M80.6669 53.778H64.2891V50.1603C64.2891 49.512 64.0316 48.8902 63.5731 48.4318C63.1147 47.9734 62.493 47.7158 61.8447 47.7158C61.1964 47.7158 60.5746 47.9734 60.1162 48.4318C59.6578 48.8902 59.4002 49.512 59.4002 50.1603V53.778H41.5558C40.9075 53.778 40.2857 54.0356 39.8273 54.494C39.3689 54.9524 39.1113 55.5742 39.1113 56.2225V80.6669C39.1113 81.3152 39.3689 81.937 39.8273 82.3954C40.2857 82.8538 40.9075 83.1114 41.5558 83.1114H80.6669C81.3152 83.1114 81.9369 82.8538 82.3954 82.3954C82.8538 81.937 83.1113 81.3152 83.1113 80.6669V56.2225C83.1113 55.5742 82.8538 54.9524 82.3954 54.494C81.9369 54.0356 81.3152 53.778 80.6669 53.778ZM78.2224 78.2225H44.0002V58.6669H59.4002V59.6692C59.4002 60.3175 59.6578 60.9392 60.1162 61.3976C60.5746 61.8561 61.1964 62.1136 61.8447 62.1136C62.493 62.1136 63.1147 61.8561 63.5731 61.3976C64.0316 60.9392 64.2891 60.3175 64.2891 59.6692V58.6669H78.2224V78.2225Z" fill="#00796B"/>
<path d="M53.3131 67.0271H67.882V70.4493H53.3131V67.0271ZM26.4976 29.9204C19.73 30.0336 13.0798 31.7066 7.06423 34.8093C6.41 35.1549 5.86199 35.6717 5.4788 36.3047C5.0956 36.9376 4.89162 37.6627 4.88867 38.4026V45.9804C4.88867 46.6287 5.14621 47.2505 5.60463 47.7089C6.06306 48.1673 6.68481 48.4248 7.33312 48.4248C7.98142 48.4248 8.60318 48.1673 9.0616 47.7089C9.52002 47.2505 9.77756 46.6287 9.77756 45.9804V38.8915C15.5252 36.0306 21.8887 34.6286 28.3065 34.8093C27.4668 33.2773 26.8573 31.63 26.4976 29.9204ZM80.9353 34.7848C75.5401 31.9547 69.6107 30.2891 63.5309 29.896C63.1729 31.6025 62.572 33.2489 61.7465 34.7848C67.474 34.9219 73.1002 36.3243 78.222 38.8915V45.9804C78.222 46.6287 78.4795 47.2505 78.938 47.7089C79.3964 48.1673 80.0182 48.4248 80.6665 48.4248C81.3148 48.4248 81.9365 48.1673 82.3949 47.7089C82.8534 47.2505 83.1109 46.6287 83.1109 45.9804V38.4026C83.1124 37.6586 82.9105 36.9283 82.5271 36.2907C82.1436 35.6531 81.5932 35.1324 80.9353 34.7848ZM26.0576 25.936V24.2982C24.1426 24.0419 22.4003 23.057 21.1933 21.5484C19.9863 20.0398 19.4076 18.1239 19.5777 16.1994C19.7478 14.2749 20.6535 12.4901 22.1064 11.2166C23.5593 9.94314 25.4474 9.27906 27.3776 9.36262C29.3852 9.35898 31.3149 10.1396 32.7553 11.5382C34.0262 10.4899 35.422 9.6032 36.9109 8.89818C35.2477 6.98578 33.0441 5.62222 30.5905 4.98723C28.1369 4.35224 25.5485 4.47563 23.1664 5.34112C20.7843 6.20661 18.7204 7.77358 17.2466 9.83551C15.7729 11.8974 14.9585 14.3575 14.9109 16.8915C14.9622 19.9929 16.1678 22.9638 18.2923 25.2239C20.4168 27.484 23.3075 28.8709 26.3998 29.1137C26.1924 28.0666 26.0779 27.0032 26.0576 25.936ZM60.5487 4.47373C58.8688 4.4741 57.2059 4.80937 55.6572 5.45993C54.1084 6.11049 52.7049 7.06329 51.5287 8.26262C53.1812 8.86143 54.7439 9.6839 56.1731 10.7071C57.3143 9.91489 58.6491 9.44728 60.0351 9.35408C61.4212 9.26089 62.8066 9.54562 64.0435 10.1779C65.2805 10.8102 66.3227 11.7663 67.0589 12.9443C67.7952 14.1224 68.1979 15.4781 68.2242 16.8671C68.2089 18.2937 67.7897 19.6869 67.0154 20.8852C66.241 22.0835 65.1431 23.038 63.8487 23.6382C63.947 24.392 63.996 25.1513 63.9953 25.9115C63.9888 26.8941 63.9071 27.8747 63.7509 28.8448C66.4139 28.1602 68.7758 26.6145 70.469 24.4482C72.1623 22.2819 73.0919 19.6165 73.1131 16.8671C73.0809 13.5605 71.7413 10.401 69.3871 8.07889C67.0329 5.75675 63.8554 4.46066 60.5487 4.47373Z" fill="#00796B"/>
</svg>
