<svg width="88" height="88" viewBox="0 0 88 88" fill="none" xmlns="http://www.w3.org/2000/svg">
<path d="M45.0269 39.8688C42.2776 39.8399 39.5983 38.9982 37.3263 37.4497C35.0544 35.9012 33.2914 33.7151 32.2592 31.1667C31.2271 28.6183 30.972 25.8215 31.5261 23.1284C32.0802 20.4354 33.4186 17.9664 35.3729 16.0325C37.3273 14.0985 39.8101 12.786 42.5088 12.2601C45.2075 11.7343 48.0015 12.0186 50.539 13.0774C53.0764 14.1362 55.2439 15.922 56.7685 18.21C58.2931 20.4981 59.1068 23.186 59.1069 25.9355C59.0811 29.6483 57.5847 33.1995 54.9456 35.8111C52.3064 38.4227 48.7398 39.8819 45.0269 39.8688ZM45.0269 16.8911C43.2446 16.92 41.5106 17.4749 40.0427 18.4861C38.5747 19.4973 37.4383 20.9198 36.7762 22.5748C36.1141 24.2298 35.9558 26.0435 36.3212 27.7882C36.6865 29.5329 37.5593 31.1307 38.8298 32.3809C40.1004 33.6312 41.712 34.4781 43.4623 34.8154C45.2127 35.1527 47.0236 34.9652 48.6678 34.2765C50.3119 33.5879 51.7159 32.4288 52.7033 30.9447C53.6908 29.4607 54.2178 27.718 54.218 25.9355C54.1922 23.5193 53.2109 21.2116 51.4886 19.5168C49.7664 17.822 47.4432 16.878 45.0269 16.8911Z" fill="#00796B"/>
<path d="M45.0267 39.8688C42.2774 39.8399 39.5981 38.9982 37.3262 37.4497C35.0542 35.9012 33.2912 33.7151 32.2591 31.1667C31.2269 28.6183 30.9718 25.8215 31.5259 23.1284C32.08 20.4354 33.4184 17.9664 35.3728 16.0325C37.3271 14.0985 39.8099 12.786 42.5086 12.2601C45.2074 11.7343 48.0013 12.0186 50.5388 13.0774C53.0762 14.1362 55.2437 15.922 56.7683 18.21C58.293 20.4981 59.1066 23.186 59.1067 25.9355C59.0809 29.6483 57.5845 33.1995 54.9454 35.8111C52.3063 38.4227 48.7396 39.8819 45.0267 39.8688ZM45.0267 16.8911C43.2444 16.92 41.5104 17.4749 40.0425 18.4861C38.5746 19.4973 37.4382 20.9198 36.7761 22.5748C36.1139 24.2298 35.9556 26.0435 36.321 27.7882C36.6864 29.5329 37.5591 31.1307 38.8297 32.3809C40.1002 33.6312 41.7118 34.4781 43.4622 34.8154C45.2125 35.1527 47.0235 34.9652 48.6676 34.2765C50.3117 33.5879 51.7157 32.4288 52.7032 30.9447C53.6907 29.4607 54.2176 27.718 54.2178 25.9355C54.192 23.5193 53.2107 21.2116 51.4885 19.5168C49.7662 17.822 47.443 16.878 45.0267 16.8911ZM53.5578 43.1444C42.7156 41.2577 31.5538 42.9749 21.7801 48.0333C21.0863 48.4185 20.5118 48.9871 20.1194 49.6769C19.7271 50.3667 19.5321 51.1512 19.5556 51.9444V60.6466C19.5556 61.2949 19.8132 61.9167 20.2716 62.3751C20.73 62.8335 21.3518 63.0911 22.0001 63.0911C22.6484 63.0911 23.2701 62.8335 23.7285 62.3751C24.187 61.9167 24.4445 61.2949 24.4445 60.6466V52.2622C33.5077 47.7146 43.8143 46.2717 53.7778 48.1555L53.5578 43.1444Z" fill="#00796B"/>
<path d="M80.6669 51.0622H64.2891V47.4444C64.2891 46.7961 64.0316 46.1744 63.5731 45.716C63.1147 45.2575 62.493 45 61.8447 45C61.1964 45 60.5746 45.2575 60.1162 45.716C59.6578 46.1744 59.4002 46.7961 59.4002 47.4444V51.0622H41.5558C40.9075 51.0622 40.2857 51.3198 39.8273 51.7782C39.3689 52.2366 39.1113 52.8584 39.1113 53.5067V77.9511C39.1113 78.5994 39.3689 79.2212 39.8273 79.6796C40.2857 80.138 40.9075 80.3956 41.5558 80.3956H80.6669C81.3152 80.3956 81.9369 80.138 82.3954 79.6796C82.8538 79.2212 83.1113 78.5994 83.1113 77.9511V53.5067C83.1113 52.8584 82.8538 52.2366 82.3954 51.7782C81.9369 51.3198 81.3152 51.0622 80.6669 51.0622ZM78.2224 75.5067H44.0002V55.9511H59.4002V56.9533C59.4002 57.6016 59.6578 58.2234 60.1162 58.6818C60.5746 59.1402 61.1964 59.3978 61.8447 59.3978C62.493 59.3978 63.1147 59.1402 63.5731 58.6818C64.0316 58.2234 64.2891 57.6016 64.2891 56.9533V55.9511H78.2224V75.5067Z" fill="#00796B"/>
<path d="M53.3131 67.0266H67.882V70.4488H53.3131V67.0266ZM26.4976 29.9199C19.73 30.0331 13.0798 31.7061 7.06423 34.8088C6.41 35.1544 5.86199 35.6712 5.4788 36.3042C5.0956 36.9371 4.89162 37.6623 4.88867 38.4021V45.9799C4.88867 46.6282 5.14621 47.25 5.60463 47.7084C6.06306 48.1668 6.68481 48.4244 7.33312 48.4244C7.98142 48.4244 8.60318 48.1668 9.0616 47.7084C9.52002 47.25 9.77756 46.6282 9.77756 45.9799V38.891C15.5252 36.0301 21.8887 34.6281 28.3065 34.8088C27.4668 33.2768 26.8573 31.6295 26.4976 29.9199ZM80.9353 34.7844C75.5401 31.9542 69.6107 30.2886 63.5309 29.8955C63.1729 31.602 62.572 33.2484 61.7465 34.7844C67.474 34.9214 73.1002 36.3238 78.222 38.891V45.9799C78.222 46.6282 78.4795 47.25 78.938 47.7084C79.3964 48.1668 80.0182 48.4244 80.6665 48.4244C81.3148 48.4244 81.9365 48.1668 82.3949 47.7084C82.8534 47.25 83.1109 46.6282 83.1109 45.9799V38.4021C83.1124 37.6581 82.9105 36.9278 82.5271 36.2902C82.1436 35.6526 81.5932 35.1319 80.9353 34.7844ZM26.0576 25.9355V24.2977C24.1426 24.0414 22.4003 23.0565 21.1933 21.5479C19.9863 20.0394 19.4076 18.1234 19.5777 16.1989C19.7478 14.2744 20.6535 12.4896 22.1064 11.2161C23.5593 9.94265 25.4474 9.27857 27.3776 9.36213C29.3852 9.35849 31.3149 10.1391 32.7553 11.5377C34.0262 10.4895 35.422 9.60271 36.9109 8.89769C35.2477 6.98529 33.0441 5.62174 30.5905 4.98675C28.1369 4.35176 25.5485 4.47514 23.1664 5.34063C20.7843 6.20612 18.7204 7.77309 17.2466 9.83502C15.7729 11.8969 14.9585 14.357 14.9109 16.891C14.9622 19.9924 16.1678 22.9633 18.2923 25.2234C20.4168 27.4835 23.3075 28.8704 26.3998 29.1132C26.1924 28.0661 26.0779 27.0027 26.0576 25.9355ZM60.5487 4.47324C58.8688 4.47361 57.2059 4.80888 55.6572 5.45944C54.1084 6.11 52.7049 7.0628 51.5287 8.26213C53.1812 8.86095 54.7439 9.68341 56.1731 10.7066C57.3143 9.9144 58.6491 9.44679 60.0351 9.3536C61.4212 9.2604 62.8066 9.54513 64.0435 10.1774C65.2805 10.8097 66.3227 11.7658 67.0589 12.9438C67.7952 14.1219 68.1979 15.4776 68.2242 16.8666C68.2089 18.2932 67.7897 19.6864 67.0154 20.8847C66.241 22.083 65.1431 23.0375 63.8487 23.6377C63.947 24.3915 63.996 25.1509 63.9953 25.911C63.9888 26.8936 63.9071 27.8742 63.7509 28.8444C66.4139 28.1597 68.7758 26.614 70.469 24.4477C72.1623 22.2814 73.0919 19.616 73.1131 16.8666C73.0809 13.56 71.7413 10.4005 69.3871 8.0784C67.0329 5.75626 63.8554 4.46017 60.5487 4.47324Z" fill="#00796B"/>
</svg>
