<svg width="50" height="50" viewBox="0 0 50 50" fill="none" xmlns="http://www.w3.org/2000/svg">
<path d="M50 0H0V15.7895H2.5V44.7368C2.5 46.1327 3.02678 47.4714 3.96447 48.4585C4.90215 49.4455 6.17392 50 7.5 50H42.5C43.8261 50 45.0979 49.4455 46.0355 48.4585C46.9732 47.4714 47.5 46.1327 47.5 44.7368V15.7895H50V0ZM5 5.26316H45V10.5263H5V5.26316ZM42.5 44.7368H7.5V15.7895H42.5V44.7368ZM27.5 18.4211V32.0263L33.975 25.2368L37.5 28.9474L25 42.1053L12.5 28.9474L16.025 25.2105L22.5 32.0263V18.4211H27.5Z" fill="#00796B"/>
</svg>
