<svg width="354" height="291" viewBox="0 0 354 291" fill="none" xmlns="http://www.w3.org/2000/svg">
<path d="M26.0248 81.9548C24.8681 81.9548 23.8662 81.3774 23.8032 80.1096H21.4294C21.4452 82.7055 23.5855 83.863 25.9304 83.863C28.1022 83.863 30.3369 82.9417 30.3369 80.4377C30.3369 76.3877 24.194 77.7499 24.194 75.8575C24.194 75.0595 25.1173 74.7472 25.773 74.7472C26.9455 74.7472 27.5855 75.1068 27.7114 76.2171H29.9776C29.8989 73.7918 27.9291 72.8232 25.7415 72.8232C23.8032 72.8232 21.773 73.8548 21.773 76.0438C21.773 79.9705 27.9133 78.6397 27.9133 80.7054C27.9133 81.6582 26.7592 81.9548 26.0248 81.9548Z" fill="#00796B"/>
<path d="M86.6148 83.6136L84.5532 72.978H81.7702L79.567 80.4376L77.348 72.978H74.565L72.5034 83.6136H75.0818L76.3329 76.28L78.4103 83.6136H80.708L82.7853 76.28L84.0365 83.6136H86.6148Z" fill="#00796B"/>
<path d="M133.551 75.1067H136.583V72.978H128.177V75.1067H131.209V83.6136H133.551V75.1067Z" fill="#00796B"/>
<path d="M193.015 72.978H190.437L189.185 80.3142L187.108 72.978H184.81L182.733 80.3142L181.482 72.978H178.904L180.965 83.6136H183.748L185.967 76.154L188.17 83.6136H190.953L193.015 72.978Z" fill="#00796B"/>
<path d="M240.708 75.1067H243.74V72.978H235.333V75.1067H238.366V83.6136H240.708V75.1067Z" fill="#00796B"/>
<path d="M295.817 79.3431V77.217H292.158V75.1067H295.971V72.978H289.815V83.6136H292.158V79.3431H295.817Z" fill="#00796B"/>
<path d="M345.385 81.9548C344.228 81.9548 343.226 81.3774 343.163 80.1096H340.789C340.805 82.7055 342.945 83.863 345.29 83.863C347.462 83.863 349.697 82.9417 349.697 80.4377C349.697 76.3877 343.554 77.7499 343.554 75.8575C343.554 75.0595 344.477 74.7472 345.133 74.7472C346.305 74.7472 346.945 75.1068 347.071 76.2171H349.337C349.259 73.7918 347.289 72.8232 345.101 72.8232C343.163 72.8232 341.133 73.8548 341.133 76.0438C341.133 79.9705 347.273 78.6397 347.273 80.7054C347.273 81.6582 346.119 81.9548 345.385 81.9548Z" fill="#00796B"/>
<path d="M186.028 122.039H187.122V111.281L184.496 111.561V112.514H186.028V122.039Z" fill="#00796B"/>
<path d="M235.713 122.04H243.199V120.945H238.355L242.058 117.27C242.748 116.583 243.092 115.753 243.092 114.782C243.092 113.798 242.732 112.968 242.029 112.281C241.308 111.593 240.466 111.233 239.496 111.233C238.465 111.233 237.605 111.609 236.886 112.328C236.183 113.047 235.855 113.924 235.902 114.94H237.012C236.949 114.283 237.169 113.688 237.667 113.142C238.153 112.625 238.745 112.359 239.448 112.359C240.123 112.359 240.7 112.593 241.185 113.063C241.67 113.548 241.919 114.11 241.919 114.766C241.919 115.457 241.683 116.018 241.216 116.488L235.713 122.04Z" fill="#00796B"/>
<path d="M294.32 121.929C294.758 121.743 295.133 121.491 295.461 121.179C296.164 120.491 296.523 119.662 296.523 118.662C296.523 117.677 296.164 116.832 295.445 116.144C294.773 115.501 293.929 115.142 292.914 115.066L292.444 115.346L295.773 111.404H290.055V112.499H293.554L290.335 116.252L291.164 116.927C291.663 116.425 292.258 116.176 292.945 116.176C293.632 116.176 294.209 116.425 294.695 116.911C295.18 117.394 295.429 117.974 295.429 118.646C295.429 119.318 295.18 119.898 294.679 120.365C294.461 120.585 294.196 120.772 293.897 120.898C293.585 121.024 293.226 121.087 292.804 121.087C292.365 121.087 291.946 120.945 291.524 120.664C291.086 120.381 290.789 119.99 290.616 119.491L289.554 119.851C289.787 120.554 290.225 121.116 290.865 121.554C291.164 121.759 291.492 121.914 291.851 122.024C292.195 122.15 292.586 122.197 293.024 122.197C293.459 122.197 293.882 122.118 294.32 121.929Z" fill="#00796B"/>
<path d="M346.75 112.593V118.74H342.687L346.75 112.593ZM347.891 119.866H349.236V118.74H347.891L347.875 111.404H346.343L340.748 119.866H346.75V122.04H347.891V119.866Z" fill="#00796B"/>
<path d="M24.5115 153.772L25.2302 150.924H29.0728V149.83H24.4014L23.1817 154.602L24.3699 155.132C24.8079 154.804 25.3535 154.633 25.9804 154.633C26.6046 154.633 27.1659 154.883 27.6355 155.368C28.105 155.883 28.3541 156.463 28.3541 157.103C28.3541 157.791 28.105 158.371 27.6197 158.822C27.3863 159.043 27.1214 159.229 26.8223 159.355C26.5259 159.481 26.1666 159.541 25.7286 159.541C25.2905 159.541 24.8709 159.402 24.4486 159.106C24.0106 158.822 23.7142 158.431 23.541 157.964L22.4788 158.308C22.7279 159.011 23.166 159.589 23.7902 160.011C24.4171 160.45 25.1201 160.654 25.8702 160.654C26.8696 160.654 27.7299 160.308 28.4328 159.589C29.12 158.885 29.4794 158.024 29.4794 157.024C29.4794 156.04 29.1358 155.211 28.4486 154.539C28.1207 154.226 27.7456 153.99 27.3233 153.804C26.8853 153.615 26.4473 153.52 25.9961 153.52C25.5266 153.52 25.0414 153.615 24.5115 153.772Z" fill="#00796B"/>
<path d="M79.5754 154.662C80.2495 154.662 80.8265 154.914 81.3117 155.397C81.7786 155.898 82.0304 156.478 82.0304 157.135C82.0304 157.791 81.7786 158.371 81.3117 158.838C80.8422 159.308 80.2626 159.541 79.5754 159.541C78.9039 159.541 78.3111 159.308 77.8259 158.822C77.3249 158.339 77.0914 157.775 77.0914 157.087C77.0914 156.431 77.3249 155.851 77.8259 155.384C78.0436 155.163 78.3111 154.993 78.6232 154.867C78.9196 154.741 79.2318 154.662 79.5754 154.662ZM83.1399 157.056C83.1399 156.04 82.7648 155.195 82.0462 154.523C81.359 153.911 80.4986 153.583 79.4363 153.536L79.1242 153.741L82.374 149.83H80.9367L76.7793 154.851C76.2469 155.491 75.9819 156.242 75.9819 157.087C75.9819 158.087 76.3255 158.917 77.0285 159.604C77.7314 160.292 78.576 160.639 79.5596 160.639C80.5616 160.639 81.4035 160.292 82.0934 159.604C82.4055 159.292 82.6704 158.917 82.8593 158.478C83.0455 158.056 83.1399 157.589 83.1399 157.056Z" fill="#00796B"/>
<path d="M131.001 160.465L135.675 149.877H129.003V150.971H133.973L129.784 160.465H131.001Z" fill="#00796B"/>
<path d="M185.965 155.053C186.589 155.053 187.122 155.274 187.56 155.696C187.998 156.119 188.215 156.649 188.215 157.26C188.215 157.885 187.998 158.415 187.575 158.854C187.137 159.308 186.605 159.526 185.965 159.526C185.309 159.526 184.777 159.308 184.354 158.854C183.919 158.415 183.714 157.885 183.714 157.26C183.714 156.649 183.919 156.119 184.354 155.696C184.792 155.274 185.325 155.053 185.965 155.053ZM185.965 150.738C186.466 150.738 186.904 150.909 187.263 151.239C187.623 151.583 187.809 152.006 187.809 152.504C187.809 153.006 187.623 153.428 187.263 153.788C186.904 154.148 186.466 154.318 185.965 154.318C185.448 154.318 185.013 154.148 184.669 153.788C184.294 153.428 184.121 153.006 184.121 152.504C184.121 152.006 184.294 151.583 184.669 151.239C185.013 150.909 185.448 150.738 185.965 150.738ZM185.965 160.623C186.933 160.623 187.746 160.339 188.42 159.762C188.732 159.481 188.981 159.15 189.17 158.762C189.356 158.371 189.451 157.917 189.451 157.415C189.451 156.914 189.293 156.415 188.981 155.914C188.669 155.413 188.231 155.008 187.67 154.693C188.512 154.006 188.934 153.239 188.934 152.426C188.934 151.615 188.638 150.94 188.058 150.41C187.512 149.909 186.809 149.659 185.965 149.659C185.105 149.659 184.402 149.909 183.856 150.41C183.276 150.94 182.996 151.615 182.996 152.41C182.996 153.239 183.418 154.006 184.263 154.693C183.683 155.008 183.245 155.413 182.933 155.914C182.621 156.415 182.479 156.914 182.479 157.431C182.479 158.4 182.807 159.166 183.497 159.762C184.168 160.339 184.981 160.623 185.965 160.623Z" fill="#00796B"/>
<path d="M239.508 155.633C238.837 155.633 238.26 155.397 237.775 154.898C237.305 154.413 237.072 153.835 237.072 153.161C237.072 152.504 237.305 151.943 237.79 151.457C238.26 150.987 238.837 150.754 239.524 150.754C240.182 150.754 240.775 151.003 241.276 151.489C241.759 151.974 242.011 152.536 242.011 153.208C242.011 153.867 241.759 154.444 241.26 154.914C241.04 155.132 240.775 155.321 240.479 155.444C240.167 155.57 239.855 155.633 239.508 155.633ZM235.962 153.239C235.962 154.271 236.322 155.116 237.056 155.772C237.727 156.4 238.588 156.728 239.666 156.759L239.978 156.554L236.728 160.465H238.165L242.323 155.444C242.855 154.819 243.12 154.069 243.12 153.208C243.12 152.224 242.761 151.394 242.074 150.706C241.355 150.019 240.51 149.659 239.54 149.659C238.541 149.659 237.696 150.003 237.009 150.691C236.681 151.019 236.432 151.394 236.243 151.817C236.057 152.255 235.962 152.725 235.962 153.239Z" fill="#00796B"/>
<rect x="270" y="134" width="46" height="41" fill="#00796B"/>
<path d="M288.52 160.465H289.614V149.707L286.988 149.987V150.94H288.52V160.465Z" fill="white"/>
<path d="M295.907 151.066C296.408 151.378 296.768 151.864 297.017 152.52C297.313 153.365 297.471 154.242 297.471 155.179C297.471 155.397 297.455 155.665 297.424 155.961C297.298 157.119 297.001 158.024 296.516 158.667C296.112 159.229 295.627 159.497 295.047 159.497C294.391 159.497 293.862 159.229 293.455 158.683C293.266 158.431 293.127 158.166 293.001 157.854C292.875 157.541 292.797 157.229 292.736 156.898C292.673 156.586 292.626 156.274 292.595 155.961C292.563 155.665 292.563 155.321 292.563 154.93C292.563 154.539 292.61 154.037 292.736 153.46C292.797 153.145 292.875 152.817 293.001 152.504C293.111 152.192 293.25 151.911 293.439 151.659C293.626 151.41 293.846 151.224 294.095 151.066C294.344 150.909 294.656 150.832 295.003 150.832C295.346 150.832 295.658 150.909 295.907 151.066ZM295.063 160.607C296.314 160.607 297.253 159.996 297.893 158.762C298.391 157.775 298.659 156.57 298.659 155.132C298.659 153.709 298.391 152.504 297.893 151.52C297.253 150.284 296.314 149.659 295.063 149.659C293.799 149.659 292.86 150.284 292.22 151.52C291.719 152.504 291.469 153.709 291.469 155.132C291.469 156.57 291.719 157.775 292.22 158.762C292.86 159.996 293.799 160.607 295.063 160.607Z" fill="white"/>
<path d="M343.068 160.465H344.162V149.707L341.536 149.987V150.94H343.068V160.465Z" fill="#00796B"/>
<path d="M347.55 160.465H348.643V149.707L346.018 149.987V150.94H347.55V160.465Z" fill="#00796B"/>
<path d="M21.1583 198.891H22.252V188.132L19.6265 188.413V189.366H21.1583V198.891Z" fill="#00796B"/>
<path d="M24.3098 198.891H31.7957V197.797H26.9511L30.6547 194.122C31.3445 193.434 31.6881 192.605 31.6881 191.634C31.6881 190.649 31.3288 189.82 30.6258 189.132C29.9045 188.445 29.0626 188.085 28.0921 188.085C27.0613 188.085 26.201 188.46 25.4823 189.179C24.7793 189.899 24.4515 190.775 24.4987 191.791H25.6082C25.5452 191.135 25.7655 190.539 26.2639 189.993C26.7491 189.476 27.3419 189.211 28.0449 189.211C28.719 189.211 29.296 189.445 29.7813 189.914C30.2665 190.4 30.5157 190.962 30.5157 191.618C30.5157 192.308 30.2796 192.87 29.8127 193.34L24.3098 198.891Z" fill="#00796B"/>
<path d="M75.5633 198.891H76.6571V188.132L74.0315 188.413V189.366H75.5633V198.891Z" fill="#00796B"/>
<path d="M83.2944 198.781C83.7325 198.595 84.1075 198.343 84.4354 198.03C85.1384 197.343 85.4977 196.513 85.4977 195.513C85.4977 194.529 85.1384 193.684 84.4197 192.996C83.7482 192.353 82.9036 191.993 81.8885 191.917L81.419 192.198L84.7475 188.256H79.0295V189.35H82.5285L79.3102 193.104L80.139 193.778C80.6374 193.277 81.2328 193.027 81.92 193.027C82.6072 193.027 83.1843 193.277 83.6695 193.762C84.1548 194.245 84.4039 194.825 84.4039 195.497C84.4039 196.169 84.1548 196.749 83.6538 197.217C83.4361 197.437 83.1712 197.623 82.8721 197.749C82.56 197.875 82.2007 197.938 81.7784 197.938C81.3404 197.938 80.9207 197.797 80.4984 197.516C80.0604 197.232 79.764 196.841 79.5909 196.343L78.5286 196.702C78.762 197.406 79.2 197.967 79.84 198.406C80.139 198.61 80.4669 198.765 80.8263 198.875C81.1699 199.001 81.5607 199.049 81.9987 199.049C82.4341 199.049 82.8564 198.97 83.2944 198.781Z" fill="#00796B"/>
<path d="M127.727 198.891H128.82V188.132L126.195 188.413V189.366H127.727V198.891Z" fill="#00796B"/>
<path d="M136.129 189.445V195.592H132.066L136.129 189.445ZM137.27 196.718H138.616V195.592H137.27L137.254 188.256H135.723L130.128 196.718H136.129V198.891H137.27V196.718Z" fill="#00796B"/>
<path d="M181.738 198.891H182.832V188.132L180.207 188.413V189.366H181.738V198.891Z" fill="#00796B"/>
<path d="M186.705 192.198L187.424 189.35H191.266V188.256H186.595L185.375 193.027L186.563 193.558C187.001 193.23 187.547 193.059 188.174 193.059C188.798 193.059 189.359 193.308 189.829 193.794C190.298 194.308 190.547 194.888 190.547 195.529C190.547 196.217 190.298 196.797 189.813 197.248C189.58 197.469 189.315 197.655 189.016 197.781C188.719 197.907 188.36 197.967 187.922 197.967C187.484 197.967 187.064 197.828 186.642 197.532C186.204 197.248 185.908 196.857 185.734 196.39L184.672 196.734C184.921 197.437 185.359 198.014 185.984 198.437C186.61 198.875 187.313 199.08 188.064 199.08C189.063 199.08 189.923 198.734 190.626 198.014C191.313 197.311 191.673 196.45 191.673 195.45C191.673 194.466 191.329 193.636 190.642 192.964C190.314 192.652 189.939 192.416 189.517 192.23C189.079 192.041 188.641 191.946 188.189 191.946C187.72 191.946 187.235 192.041 186.705 192.198Z" fill="#00796B"/>
<path d="M235.618 198.891H236.712V188.132L234.086 188.413V189.366H235.618V198.891Z" fill="#00796B"/>
<path d="M241.802 193.088C242.476 193.088 243.053 193.34 243.538 193.823C244.005 194.324 244.257 194.904 244.257 195.56C244.257 196.217 244.005 196.797 243.538 197.264C243.069 197.734 242.489 197.967 241.802 197.967C241.13 197.967 240.538 197.734 240.052 197.248C239.551 196.765 239.318 196.201 239.318 195.513C239.318 194.857 239.551 194.277 240.052 193.81C240.27 193.589 240.538 193.419 240.85 193.293C241.146 193.167 241.458 193.088 241.802 193.088ZM245.366 195.482C245.366 194.466 244.991 193.621 244.273 192.949C243.586 192.337 242.725 192.009 241.663 191.962L241.351 192.167L244.601 188.256H243.163L239.006 193.277C238.473 193.917 238.208 194.668 238.208 195.513C238.208 196.513 238.552 197.343 239.255 198.03C239.958 198.718 240.803 199.064 241.786 199.064C242.788 199.064 243.63 198.718 244.32 198.03C244.632 197.718 244.897 197.343 245.086 196.904C245.272 196.482 245.366 196.014 245.366 195.482Z" fill="#00796B"/>
<path d="M289.045 198.891H290.139V188.132L287.513 188.413V189.366H289.045V198.891Z" fill="#00796B"/>
<path d="M293.681 198.891L298.355 188.303H291.682V189.398H296.653L292.464 198.891H293.681Z" fill="#00796B"/>
<path d="M341.193 198.891H342.287V188.132L339.662 188.413V189.366H341.193V198.891Z" fill="#00796B"/>
<path d="M347.471 193.479C348.095 193.479 348.628 193.699 349.066 194.122C349.504 194.545 349.722 195.075 349.722 195.686C349.722 196.311 349.504 196.841 349.082 197.28C348.644 197.734 348.111 197.951 347.471 197.951C346.815 197.951 346.283 197.734 345.861 197.28C345.425 196.841 345.221 196.311 345.221 195.686C345.221 195.075 345.425 194.545 345.861 194.122C346.299 193.699 346.831 193.479 347.471 193.479ZM347.471 189.164C347.972 189.164 348.41 189.334 348.77 189.665C349.129 190.009 349.315 190.432 349.315 190.93C349.315 191.432 349.129 191.854 348.77 192.214C348.41 192.573 347.972 192.744 347.471 192.744C346.955 192.744 346.519 192.573 346.176 192.214C345.8 191.854 345.627 191.432 345.627 190.93C345.627 190.432 345.8 190.009 346.176 189.665C346.519 189.334 346.955 189.164 347.471 189.164ZM347.471 199.049C348.439 199.049 349.252 198.765 349.926 198.188C350.238 197.907 350.488 197.576 350.676 197.188C350.863 196.797 350.957 196.342 350.957 195.841C350.957 195.34 350.8 194.841 350.488 194.34C350.175 193.838 349.737 193.434 349.176 193.119C350.018 192.432 350.44 191.665 350.44 190.851C350.44 190.04 350.144 189.366 349.564 188.836C349.019 188.334 348.316 188.085 347.471 188.085C346.611 188.085 345.908 188.334 345.362 188.836C344.783 189.366 344.502 190.04 344.502 190.836C344.502 191.665 344.924 192.432 345.769 193.119C345.189 193.434 344.751 193.838 344.439 194.34C344.127 194.841 343.985 195.34 343.985 195.857C343.985 196.825 344.313 197.592 345.003 198.188C345.675 198.765 346.488 199.049 347.471 199.049Z" fill="#00796B"/>
<path d="M21.9532 237.317H23.0469V226.558L20.4214 226.839V227.792H21.9532V237.317Z" fill="#00796B"/>
<path d="M28.0897 232.485C27.4182 232.485 26.8411 232.249 26.3559 231.75C25.8864 231.264 25.653 230.687 25.653 230.012C25.653 229.356 25.8864 228.795 26.3716 228.309C26.8411 227.839 27.4182 227.606 28.1054 227.606C28.7638 227.606 29.3565 227.855 29.8575 228.34C30.3401 228.826 30.5919 229.388 30.5919 230.06C30.5919 230.718 30.3401 231.296 29.8418 231.766C29.6215 231.984 29.3565 232.173 29.0602 232.296C28.748 232.422 28.4359 232.485 28.0897 232.485ZM24.5435 230.091C24.5435 231.123 24.9028 231.968 25.6372 232.624C26.3087 233.251 27.169 233.579 28.247 233.611L28.5592 233.406L25.3094 237.317H26.7467L30.9041 232.296C31.4365 231.671 31.7014 230.921 31.7014 230.06C31.7014 229.075 31.3421 228.246 30.6549 227.558C29.9362 226.871 29.0916 226.511 28.1211 226.511C27.1218 226.511 26.2772 226.855 25.59 227.543C25.2621 227.871 25.013 228.246 24.8241 228.669C24.6379 229.107 24.5435 229.577 24.5435 230.091Z" fill="#00796B"/>
<path d="M71.3684 237.317H78.8543V236.223H74.0097L77.7133 232.548C78.4031 231.86 78.7467 231.031 78.7467 230.06C78.7467 229.075 78.3874 228.246 77.6844 227.558C76.9631 226.871 76.1212 226.511 75.1507 226.511C74.1199 226.511 73.2595 226.886 72.5409 227.606C71.8379 228.325 71.51 229.201 71.5573 230.217H72.6668C72.6038 229.561 72.8241 228.965 73.3225 228.419C73.8077 227.902 74.4005 227.637 75.1035 227.637C75.7776 227.637 76.3546 227.871 76.8399 228.34C77.3251 228.826 77.5743 229.388 77.5743 230.044C77.5743 230.734 77.3382 231.296 76.8713 231.766L71.3684 237.317Z" fill="#00796B"/>
<path d="M85.2075 227.918C85.7085 228.23 86.0679 228.716 86.317 229.372C86.6134 230.217 86.7708 231.094 86.7708 232.031C86.7708 232.249 86.7551 232.516 86.7236 232.813C86.5977 233.971 86.3013 234.876 85.8161 235.519C85.4121 236.081 84.9269 236.349 84.3472 236.349C83.6915 236.349 83.1616 236.081 82.7551 235.535C82.5662 235.283 82.4272 235.018 82.3013 234.706C82.1754 234.393 82.0967 234.081 82.0364 233.75C81.9735 233.438 81.9262 233.125 81.8948 232.813C81.8633 232.516 81.8633 232.173 81.8633 231.782C81.8633 231.39 81.9105 230.889 82.0364 230.312C82.0967 229.997 82.1754 229.669 82.3013 229.356C82.4115 229.044 82.5505 228.763 82.7394 228.511C82.9256 228.262 83.1459 228.075 83.3951 227.918C83.6443 227.76 83.9564 227.684 84.3026 227.684C84.6462 227.684 84.9584 227.76 85.2075 227.918ZM84.363 237.459C85.6141 237.459 86.5531 236.847 87.1931 235.614C87.6915 234.627 87.959 233.422 87.959 231.984C87.959 230.561 87.6915 229.356 87.1931 228.372C86.5531 227.136 85.6141 226.511 84.363 226.511C83.0987 226.511 82.1597 227.136 81.5197 228.372C81.0187 229.356 80.7695 230.561 80.7695 231.984C80.7695 233.422 81.0187 234.627 81.5197 235.614C82.1597 236.847 83.0987 237.459 84.363 237.459Z" fill="#00796B"/>
<path d="M126.322 237.317H133.808V236.223H128.963L132.667 232.548C133.356 231.86 133.7 231.031 133.7 230.06C133.7 229.075 133.341 228.246 132.638 227.558C131.916 226.871 131.075 226.511 130.104 226.511C129.073 226.511 128.213 226.886 127.494 227.606C126.791 228.325 126.463 229.201 126.511 230.217H127.62C127.557 229.561 127.778 228.965 128.276 228.419C128.761 227.902 129.354 227.637 130.057 227.637C130.731 227.637 131.308 227.871 131.793 228.34C132.278 228.826 132.528 229.388 132.528 230.044C132.528 230.734 132.292 231.296 131.825 231.766L126.322 237.317Z" fill="#00796B"/>
<path d="M137.255 237.317H138.348V226.558L135.723 226.839V227.792H137.255V237.317Z" fill="#00796B"/>
<path d="M177.333 237.317H184.819V236.223H179.975L183.678 232.548C184.368 231.86 184.712 231.031 184.712 230.06C184.712 229.075 184.352 228.246 183.65 227.558C182.928 226.871 182.086 226.511 181.116 226.511C180.085 226.511 179.225 226.886 178.506 227.606C177.803 228.325 177.475 229.201 177.522 230.217H178.632C178.569 229.561 178.789 228.965 179.288 228.419C179.773 227.902 180.366 227.637 181.069 227.637C181.743 227.637 182.32 227.871 182.805 228.34C183.29 228.826 183.539 229.388 183.539 230.044C183.539 230.734 183.303 231.296 182.836 231.766L177.333 237.317Z" fill="#00796B"/>
<path d="M186.937 237.317H194.422V236.223H189.578L193.281 232.548C193.971 231.86 194.315 231.031 194.315 230.06C194.315 229.075 193.955 228.246 193.253 227.558C192.531 226.871 191.689 226.511 190.719 226.511C189.688 226.511 188.828 226.886 188.109 227.606C187.406 228.325 187.078 229.201 187.125 230.217H188.235C188.172 229.561 188.392 228.965 188.891 228.419C189.376 227.902 189.969 227.637 190.672 227.637C191.346 227.637 191.923 227.871 192.408 228.34C192.893 228.826 193.142 229.388 193.142 230.044C193.142 230.734 192.906 231.296 192.439 231.766L186.937 237.317Z" fill="#00796B"/>
<path d="M231.664 237.317H239.149V236.223H234.305L238.008 232.548C238.698 231.86 239.042 231.031 239.042 230.06C239.042 229.075 238.683 228.246 237.98 227.558C237.258 226.871 236.416 226.511 235.446 226.511C234.415 226.511 233.555 226.886 232.836 227.606C232.133 228.325 231.805 229.201 231.852 230.217H232.962C232.899 229.561 233.119 228.965 233.618 228.419C234.103 227.902 234.696 227.637 235.399 227.637C236.073 227.637 236.65 227.871 237.135 228.34C237.62 228.826 237.869 229.388 237.869 230.044C237.869 230.734 237.633 231.296 237.166 231.766L231.664 237.317Z" fill="#00796B"/>
<path d="M245.846 237.207C246.284 237.021 246.659 236.769 246.987 236.456C247.69 235.769 248.049 234.939 248.049 233.939C248.049 232.955 247.69 232.11 246.971 231.422C246.3 230.779 245.455 230.419 244.44 230.343L243.971 230.624L247.299 226.682H241.581V227.776H245.08L241.862 231.53L242.691 232.204C243.189 231.703 243.785 231.453 244.472 231.453C245.159 231.453 245.736 231.703 246.221 232.188C246.707 232.671 246.956 233.251 246.956 233.923C246.956 234.595 246.707 235.175 246.206 235.643C245.988 235.863 245.723 236.049 245.424 236.175C245.112 236.301 244.752 236.364 244.33 236.364C243.892 236.364 243.472 236.223 243.05 235.942C242.612 235.658 242.316 235.267 242.143 234.769L241.08 235.128C241.314 235.832 241.752 236.393 242.392 236.832C242.691 237.036 243.019 237.191 243.378 237.301C243.722 237.427 244.112 237.475 244.55 237.475C244.986 237.475 245.408 237.396 245.846 237.207Z" fill="#00796B"/>
<path d="M284.265 237.317H291.751V236.223H286.906L290.61 232.548C291.3 231.86 291.643 231.031 291.643 230.06C291.643 229.075 291.284 228.246 290.581 227.558C289.86 226.871 289.018 226.511 288.047 226.511C287.017 226.511 286.156 226.886 285.438 227.606C284.735 228.325 284.407 229.201 284.454 230.217H285.563C285.501 229.561 285.721 228.965 286.219 228.419C286.704 227.902 287.297 227.637 288 227.637C288.674 227.637 289.251 227.871 289.737 228.34C290.222 228.826 290.471 229.388 290.471 230.044C290.471 230.734 290.235 231.296 289.768 231.766L284.265 237.317Z" fill="#00796B"/>
<path d="M299.119 227.871V234.018H295.056L299.119 227.871ZM300.26 235.144H301.606V234.018H300.26L300.244 226.682H298.713L293.118 235.144H299.119V237.317H300.26V235.144Z" fill="#00796B"/>
<path d="M337.119 237.317H344.605V236.223H339.76L343.464 232.548C344.153 231.86 344.497 231.031 344.497 230.06C344.497 229.075 344.138 228.246 343.435 227.558C342.713 226.871 341.871 226.511 340.901 226.511C339.87 226.511 339.01 226.886 338.291 227.606C337.588 228.325 337.26 229.201 337.308 230.217H338.417C338.354 229.561 338.574 228.965 339.073 228.419C339.558 227.902 340.151 227.637 340.854 227.637C341.528 227.637 342.105 227.871 342.59 228.34C343.075 228.826 343.325 229.388 343.325 230.044C343.325 230.734 343.088 231.296 342.622 231.766L337.119 237.317Z" fill="#00796B"/>
<path d="M348.537 230.624L349.255 227.776H353.098V226.682H348.427L347.207 231.453L348.395 231.984C348.833 231.656 349.379 231.485 350.006 231.485C350.63 231.485 351.191 231.734 351.661 232.22C352.13 232.734 352.379 233.314 352.379 233.955C352.379 234.643 352.13 235.223 351.645 235.674C351.411 235.895 351.147 236.081 350.847 236.207C350.551 236.333 350.192 236.393 349.754 236.393C349.316 236.393 348.896 236.254 348.474 235.958C348.036 235.674 347.739 235.283 347.566 234.816L346.504 235.16C346.753 235.863 347.191 236.441 347.815 236.863C348.442 237.301 349.145 237.506 349.895 237.506C350.895 237.506 351.755 237.16 352.458 236.441C353.145 235.737 353.505 234.876 353.505 233.876C353.505 232.892 353.161 232.062 352.474 231.39C352.146 231.078 351.771 230.842 351.348 230.656C350.91 230.467 350.472 230.372 350.021 230.372C349.552 230.372 349.067 230.467 348.537 230.624Z" fill="#00796B"/>
<path d="M18.0586 275.743H25.5445V274.648H20.6999L24.4035 270.974C25.0933 270.286 25.4369 269.457 25.4369 268.485C25.4369 267.501 25.0776 266.672 24.3746 265.984C23.6533 265.296 22.8114 264.937 21.8409 264.937C20.8101 264.937 19.9497 265.312 19.231 266.031C18.5281 266.75 18.2002 267.627 18.2474 268.643H19.3569C19.294 267.987 19.5143 267.391 20.0127 266.845C20.4979 266.328 21.0907 266.063 21.7937 266.063C22.4677 266.063 23.0448 266.296 23.53 266.766C24.0153 267.252 24.2645 267.814 24.2645 268.47C24.2645 269.16 24.0284 269.722 23.5615 270.192L18.0586 275.743Z" fill="#00796B"/>
<path d="M30.6938 269.94C31.3679 269.94 31.9449 270.192 32.4301 270.675C32.897 271.176 33.1488 271.756 33.1488 272.412C33.1488 273.068 32.897 273.648 32.4301 274.116C31.9606 274.585 31.381 274.819 30.6938 274.819C30.0223 274.819 29.4295 274.585 28.9443 274.1C28.4433 273.617 28.2098 273.053 28.2098 272.365C28.2098 271.709 28.4433 271.129 28.9443 270.661C29.162 270.441 29.4295 270.27 29.7416 270.144C30.038 270.018 30.3502 269.94 30.6938 269.94ZM34.2583 272.333C34.2583 271.318 33.8833 270.472 33.1646 269.801C32.4774 269.189 31.617 268.861 30.5547 268.814L30.2426 269.018L33.4924 265.107H32.0551L27.8977 270.129C27.3653 270.769 27.1003 271.52 27.1003 272.365C27.1003 273.365 27.4439 274.194 28.1469 274.882C28.8498 275.57 29.6944 275.916 30.678 275.916C31.68 275.916 32.5219 275.57 33.2118 274.882C33.5239 274.57 33.7888 274.194 33.9777 273.756C34.1639 273.333 34.2583 272.866 34.2583 272.333Z" fill="#00796B"/>
<rect x="56" y="250" width="46" height="41" fill="#F69110"/>
<path d="M71.8936 275.743H79.3794V274.648H74.5349L78.2384 270.974C78.9283 270.286 79.2719 269.457 79.2719 268.485C79.2719 267.501 78.9125 266.672 78.2096 265.984C77.4883 265.296 76.6463 264.937 75.6758 264.937C74.645 264.937 73.7847 265.312 73.066 266.031C72.3631 266.75 72.0352 267.627 72.0824 268.643H73.1919C73.129 267.987 73.3493 267.391 73.8476 266.845C74.3329 266.328 74.9257 266.063 75.6286 266.063C76.3027 266.063 76.8798 266.296 77.365 266.766C77.8502 267.252 78.0994 267.814 78.0994 268.47C78.0994 269.16 77.8634 269.722 77.3965 270.192L71.8936 275.743Z" fill="white"/>
<path d="M82.9811 275.743L87.6552 265.155H80.9824V266.249H85.9529L81.7641 275.743H82.9811Z" fill="white"/>
<path d="M124.462 275.743H131.948V274.648H127.103L130.807 270.974C131.497 270.286 131.84 269.457 131.84 268.485C131.84 267.501 131.481 266.672 130.778 265.984C130.057 265.296 129.215 264.937 128.244 264.937C127.213 264.937 126.353 265.312 125.634 266.031C124.931 266.75 124.604 267.627 124.651 268.643H125.76C125.697 267.987 125.918 267.391 126.416 266.845C126.901 266.328 127.494 266.063 128.197 266.063C128.871 266.063 129.448 266.296 129.933 266.766C130.419 267.252 130.668 267.814 130.668 268.47C130.668 269.16 130.432 269.722 129.965 270.192L124.462 275.743Z" fill="#00796B"/>
<path d="M137.191 270.331C137.816 270.331 138.348 270.551 138.786 270.974C139.224 271.396 139.442 271.927 139.442 272.538C139.442 273.163 139.224 273.693 138.802 274.131C138.364 274.585 137.831 274.803 137.191 274.803C136.536 274.803 136.003 274.585 135.581 274.131C135.146 273.693 134.941 273.163 134.941 272.538C134.941 271.927 135.146 271.396 135.581 270.974C136.019 270.551 136.551 270.331 137.191 270.331ZM137.191 266.016C137.692 266.016 138.13 266.186 138.49 266.517C138.849 266.861 139.035 267.283 139.035 267.782C139.035 268.283 138.849 268.706 138.49 269.066C138.13 269.425 137.692 269.596 137.191 269.596C136.675 269.596 136.239 269.425 135.896 269.066C135.521 268.706 135.348 268.283 135.348 267.782C135.348 267.283 135.521 266.861 135.896 266.517C136.239 266.186 136.675 266.016 137.191 266.016ZM137.191 275.9C138.159 275.9 138.972 275.617 139.647 275.039C139.959 274.759 140.208 274.428 140.397 274.039C140.583 273.648 140.677 273.194 140.677 272.693C140.677 272.192 140.52 271.693 140.208 271.192C139.896 270.69 139.458 270.286 138.896 269.971C139.738 269.283 140.161 268.517 140.161 267.703C140.161 266.892 139.864 266.218 139.285 265.687C138.739 265.186 138.036 264.937 137.191 264.937C136.331 264.937 135.628 265.186 135.083 265.687C134.503 266.218 134.222 266.892 134.222 267.688C134.222 268.517 134.645 269.283 135.489 269.971C134.909 270.286 134.471 270.69 134.159 271.192C133.847 271.693 133.706 272.192 133.706 272.709C133.706 273.677 134.033 274.444 134.723 275.039C135.395 275.617 136.208 275.9 137.191 275.9Z" fill="#00796B"/>
<path d="M178.144 275.743H185.629V274.648H180.785L184.488 270.974C185.178 270.286 185.522 269.457 185.522 268.485C185.522 267.501 185.163 266.672 184.46 265.984C183.738 265.296 182.896 264.937 181.926 264.937C180.895 264.937 180.035 265.312 179.316 266.031C178.613 266.75 178.285 267.627 178.332 268.643H179.442C179.379 267.987 179.599 267.391 180.098 266.845C180.583 266.328 181.176 266.063 181.879 266.063C182.553 266.063 183.13 266.296 183.615 266.766C184.1 267.252 184.349 267.814 184.349 268.47C184.349 269.16 184.113 269.722 183.646 270.192L178.144 275.743Z" fill="#00796B"/>
<path d="M190.731 270.911C190.06 270.911 189.483 270.675 188.998 270.176C188.528 269.69 188.295 269.113 188.295 268.438C188.295 267.782 188.528 267.22 189.013 266.735C189.483 266.265 190.06 266.031 190.747 266.031C191.405 266.031 191.998 266.281 192.499 266.766C192.982 267.252 193.234 267.814 193.234 268.485C193.234 269.144 192.982 269.722 192.483 270.192C192.263 270.409 191.998 270.598 191.702 270.722C191.39 270.848 191.077 270.911 190.731 270.911ZM187.185 268.517C187.185 269.548 187.544 270.394 188.279 271.05C188.95 271.677 189.811 272.005 190.889 272.037L191.201 271.832L187.951 275.743H189.388L193.546 270.722C194.078 270.097 194.343 269.346 194.343 268.485C194.343 267.501 193.984 266.672 193.296 265.984C192.578 265.296 191.733 264.937 190.763 264.937C189.763 264.937 188.919 265.281 188.232 265.968C187.904 266.296 187.655 266.672 187.466 267.094C187.279 267.533 187.185 268.002 187.185 268.517Z" fill="#00796B"/>
<path d="M236.663 275.633C237.101 275.446 237.476 275.194 237.804 274.882C238.507 274.194 238.866 273.365 238.866 272.365C238.866 271.381 238.507 270.535 237.788 269.848C237.117 269.205 236.272 268.845 235.257 268.769L234.788 269.05L238.116 265.107H232.398V266.202H235.897L232.679 269.955L233.508 270.63C234.006 270.129 234.601 269.879 235.289 269.879C235.976 269.879 236.553 270.129 237.038 270.614C237.523 271.097 237.773 271.677 237.773 272.349C237.773 273.021 237.523 273.601 237.022 274.068C236.805 274.289 236.54 274.475 236.241 274.601C235.929 274.727 235.569 274.79 235.147 274.79C234.709 274.79 234.289 274.648 233.867 274.368C233.429 274.084 233.133 273.693 232.96 273.194L231.897 273.554C232.131 274.257 232.569 274.819 233.209 275.257C233.508 275.462 233.836 275.617 234.195 275.727C234.539 275.853 234.929 275.9 235.367 275.9C235.803 275.9 236.225 275.822 236.663 275.633Z" fill="#00796B"/>
<path d="M244.439 266.344C244.94 266.656 245.3 267.142 245.549 267.798C245.845 268.643 246.002 269.52 246.002 270.457C246.002 270.675 245.987 270.942 245.955 271.239C245.829 272.396 245.533 273.302 245.048 273.945C244.644 274.507 244.159 274.774 243.579 274.774C242.923 274.774 242.393 274.507 241.987 273.961C241.798 273.709 241.659 273.444 241.533 273.131C241.407 272.819 241.328 272.507 241.268 272.176C241.205 271.864 241.158 271.551 241.126 271.239C241.095 270.942 241.095 270.598 241.095 270.207C241.095 269.816 241.142 269.315 241.268 268.737C241.328 268.422 241.407 268.094 241.533 267.782C241.643 267.47 241.782 267.189 241.971 266.937C242.157 266.687 242.378 266.501 242.627 266.344C242.876 266.186 243.188 266.11 243.534 266.11C243.878 266.11 244.19 266.186 244.439 266.344ZM243.595 275.885C244.846 275.885 245.785 275.273 246.425 274.039C246.923 273.053 247.191 271.848 247.191 270.409C247.191 268.987 246.923 267.782 246.425 266.798C245.785 265.561 244.846 264.937 243.595 264.937C242.33 264.937 241.391 265.561 240.751 266.798C240.25 267.782 240.001 268.987 240.001 270.409C240.001 271.848 240.25 273.053 240.751 274.039C241.391 275.273 242.33 275.885 243.595 275.885Z" fill="#00796B"/>
<path d="M292.07 275.633C292.508 275.446 292.883 275.194 293.211 274.882C293.914 274.194 294.273 273.365 294.273 272.365C294.273 271.381 293.914 270.535 293.195 269.848C292.523 269.205 291.679 268.845 290.664 268.769L290.194 269.05L293.523 265.107H287.805V266.202H291.304L288.085 269.955L288.914 270.63C289.413 270.129 290.008 269.879 290.695 269.879C291.382 269.879 291.959 270.129 292.445 270.614C292.93 271.097 293.179 271.677 293.179 272.349C293.179 273.021 292.93 273.601 292.429 274.068C292.211 274.289 291.946 274.475 291.647 274.601C291.335 274.727 290.976 274.79 290.554 274.79C290.115 274.79 289.696 274.648 289.274 274.368C288.836 274.084 288.539 273.693 288.366 273.194L287.304 273.554C287.537 274.257 287.975 274.819 288.615 275.257C288.914 275.462 289.242 275.617 289.601 275.727C289.945 275.853 290.336 275.9 290.774 275.9C291.209 275.9 291.632 275.822 292.07 275.633Z" fill="#00796B"/>
<path d="M296.94 275.743H298.033V264.984L295.408 265.265V266.218H296.94V275.743Z" fill="#00796B"/>
<rect width="110" height="26" fill="#F69110"/>
<path d="M13.4741 18V7.92H17.5481C17.6461 7.92 17.7675 7.92467 17.9121 7.934C18.0568 7.93867 18.1945 7.95267 18.3251 7.976C18.8851 8.06467 19.3518 8.256 19.7251 8.55C20.1031 8.844 20.3855 9.215 20.5721 9.663C20.7588 10.111 20.8521 10.6057 20.8521 11.147C20.8521 11.9497 20.6468 12.6427 20.2361 13.226C19.8255 13.8047 19.2095 14.1663 18.3881 14.311L17.7931 14.381H14.9371V18H13.4741ZM19.3681 18L17.3801 13.898L18.8571 13.52L21.0411 18H19.3681ZM14.9371 12.995H17.4921C17.5855 12.995 17.6881 12.9903 17.8001 12.981C17.9168 12.9717 18.0265 12.9553 18.1291 12.932C18.4278 12.862 18.6681 12.7337 18.8501 12.547C19.0321 12.3557 19.1628 12.1363 19.2421 11.889C19.3215 11.6417 19.3611 11.3943 19.3611 11.147C19.3611 10.8997 19.3215 10.6547 19.2421 10.412C19.1628 10.1647 19.0321 9.94767 18.8501 9.761C18.6681 9.56967 18.4278 9.439 18.1291 9.369C18.0265 9.341 17.9168 9.32233 17.8001 9.313C17.6881 9.30367 17.5855 9.299 17.4921 9.299H14.9371V12.995ZM25.9326 18.21C25.1813 18.21 24.5209 18.0467 23.9516 17.72C23.3869 17.3887 22.9459 16.929 22.6286 16.341C22.3159 15.7483 22.1596 15.0623 22.1596 14.283C22.1596 13.457 22.3136 12.7407 22.6216 12.134C22.9343 11.5273 23.3683 11.0583 23.9236 10.727C24.4789 10.3957 25.1253 10.23 25.8626 10.23C26.6326 10.23 27.2883 10.4097 27.8296 10.769C28.3709 11.1237 28.7746 11.63 29.0406 12.288C29.3113 12.946 29.4186 13.7277 29.3626 14.633H27.8996V14.101C27.8903 13.2237 27.7223 12.575 27.3956 12.155C27.0736 11.735 26.5813 11.525 25.9186 11.525C25.1859 11.525 24.6353 11.756 24.2666 12.218C23.8979 12.68 23.7136 13.3473 23.7136 14.22C23.7136 15.0507 23.8979 15.6947 24.2666 16.152C24.6353 16.6047 25.1673 16.831 25.8626 16.831C26.3199 16.831 26.7143 16.7283 27.0456 16.523C27.3816 16.313 27.6429 16.0143 27.8296 15.627L29.2646 16.082C28.9706 16.7587 28.5249 17.2837 27.9276 17.657C27.3303 18.0257 26.6653 18.21 25.9326 18.21ZM23.2376 14.633V13.492H28.6346V14.633H23.2376ZM34.277 18.21C33.5537 18.21 32.947 18.035 32.457 17.685C31.967 17.3303 31.596 16.852 31.344 16.25C31.092 15.648 30.966 14.969 30.966 14.213C30.966 13.457 31.0897 12.778 31.337 12.176C31.589 11.574 31.9577 11.1003 32.443 10.755C32.933 10.405 33.535 10.23 34.249 10.23C34.9584 10.23 35.5697 10.405 36.083 10.755C36.601 11.1003 37 11.574 37.28 12.176C37.56 12.7733 37.7 13.4523 37.7 14.213C37.7 14.969 37.56 15.6503 37.28 16.257C37.0047 16.859 36.6104 17.335 36.097 17.685C35.5884 18.035 34.9817 18.21 34.277 18.21ZM30.721 21.36V10.44H32.023V15.879H32.191V21.36H30.721ZM34.074 16.887C34.5407 16.887 34.9257 16.768 35.229 16.53C35.537 16.292 35.7657 15.9723 35.915 15.571C36.069 15.165 36.146 14.7123 36.146 14.213C36.146 13.7183 36.069 13.2703 35.915 12.869C35.7657 12.4677 35.5347 12.148 35.222 11.91C34.9094 11.672 34.5104 11.553 34.025 11.553C33.5677 11.553 33.1897 11.665 32.891 11.889C32.597 12.113 32.3777 12.4257 32.233 12.827C32.093 13.2283 32.023 13.6903 32.023 14.213C32.023 14.7357 32.093 15.1977 32.233 15.599C32.373 16.0003 32.5947 16.3153 32.898 16.544C33.2014 16.7727 33.5934 16.887 34.074 16.887ZM42.5286 18.21C41.7726 18.21 41.117 18.0397 40.5616 17.699C40.0063 17.3583 39.577 16.8893 39.2736 16.292C38.975 15.69 38.8256 14.997 38.8256 14.213C38.8256 13.4243 38.9796 12.7313 39.2876 12.134C39.5956 11.532 40.0273 11.0653 40.5826 10.734C41.138 10.398 41.7866 10.23 42.5286 10.23C43.2846 10.23 43.9403 10.4003 44.4956 10.741C45.051 11.0817 45.4803 11.5507 45.7836 12.148C46.087 12.7453 46.2386 13.4337 46.2386 14.213C46.2386 15.0017 46.0846 15.697 45.7766 16.299C45.4733 16.8963 45.044 17.3653 44.4886 17.706C43.9333 18.042 43.28 18.21 42.5286 18.21ZM42.5286 16.831C43.252 16.831 43.791 16.5883 44.1456 16.103C44.505 15.613 44.6846 14.983 44.6846 14.213C44.6846 13.4243 44.5026 12.7943 44.1386 12.323C43.7793 11.847 43.2426 11.609 42.5286 11.609C42.0386 11.609 41.635 11.721 41.3176 11.945C41.0003 12.1643 40.7646 12.47 40.6106 12.862C40.4566 13.2493 40.3796 13.6997 40.3796 14.213C40.3796 15.0063 40.5616 15.641 40.9256 16.117C41.2896 16.593 41.824 16.831 42.5286 16.831ZM47.7769 18V10.44H49.0789V12.274L48.8969 12.036C48.9902 11.7933 49.1115 11.5717 49.2609 11.371C49.4102 11.1657 49.5829 10.9977 49.7789 10.867C49.9702 10.727 50.1825 10.6197 50.4159 10.545C50.6539 10.4657 50.8965 10.419 51.1439 10.405C51.3912 10.3863 51.6292 10.398 51.8579 10.44V11.812C51.6105 11.7467 51.3352 11.728 51.0319 11.756C50.7332 11.784 50.4579 11.8797 50.2059 12.043C49.9679 12.197 49.7789 12.3837 49.6389 12.603C49.5035 12.8223 49.4055 13.0673 49.3449 13.338C49.2842 13.604 49.2539 13.8863 49.2539 14.185V18H47.7769ZM59.3467 18.21C58.5953 18.21 57.935 18.0467 57.3657 17.72C56.801 17.3887 56.36 16.929 56.0427 16.341C55.73 15.7483 55.5737 15.0623 55.5737 14.283C55.5737 13.457 55.7277 12.7407 56.0357 12.134C56.3483 11.5273 56.7823 11.0583 57.3377 10.727C57.893 10.3957 58.5393 10.23 59.2767 10.23C60.0467 10.23 60.7023 10.4097 61.2437 10.769C61.785 11.1237 62.1887 11.63 62.4547 12.288C62.7253 12.946 62.8327 13.7277 62.7767 14.633H61.3137V14.101C61.3043 13.2237 61.1363 12.575 60.8097 12.155C60.4877 11.735 59.9953 11.525 59.3327 11.525C58.6 11.525 58.0493 11.756 57.6807 12.218C57.312 12.68 57.1277 13.3473 57.1277 14.22C57.1277 15.0507 57.312 15.6947 57.6807 16.152C58.0493 16.6047 58.5813 16.831 59.2767 16.831C59.734 16.831 60.1283 16.7283 60.4597 16.523C60.7957 16.313 61.057 16.0143 61.2437 15.627L62.6787 16.082C62.3847 16.7587 61.939 17.2837 61.3417 17.657C60.7443 18.0257 60.0793 18.21 59.3467 18.21ZM56.6517 14.633V13.492H62.0487V14.633H56.6517ZM67.2382 18.203C66.3189 18.203 65.5699 18 64.9912 17.594C64.4125 17.188 64.0579 16.6163 63.9272 15.879L65.4252 15.648C65.5185 16.04 65.7332 16.3503 66.0692 16.579C66.4099 16.803 66.8322 16.915 67.3362 16.915C67.7935 16.915 68.1505 16.8217 68.4072 16.635C68.6685 16.4483 68.7992 16.1917 68.7992 15.865C68.7992 15.6737 68.7525 15.5197 68.6592 15.403C68.5705 15.2817 68.3815 15.1673 68.0922 15.06C67.8029 14.9527 67.3619 14.8197 66.7692 14.661C66.1205 14.493 65.6049 14.3133 65.2222 14.122C64.8442 13.926 64.5735 13.6997 64.4102 13.443C64.2515 13.1817 64.1722 12.8667 64.1722 12.498C64.1722 12.0407 64.2935 11.6417 64.5362 11.301C64.7789 10.9603 65.1195 10.6967 65.5582 10.51C66.0015 10.3233 66.5195 10.23 67.1122 10.23C67.6909 10.23 68.2065 10.321 68.6592 10.503C69.1119 10.685 69.4782 10.944 69.7582 11.28C70.0382 11.6113 70.2062 12.001 70.2622 12.449L68.7642 12.722C68.7129 12.358 68.5425 12.071 68.2532 11.861C67.9639 11.651 67.5882 11.5367 67.1262 11.518C66.6829 11.4993 66.3235 11.574 66.0482 11.742C65.7729 11.9053 65.6352 12.1317 65.6352 12.421C65.6352 12.589 65.6865 12.7313 65.7892 12.848C65.8965 12.9647 66.1019 13.0767 66.4052 13.184C66.7085 13.2913 67.1565 13.4197 67.7492 13.569C68.3839 13.7323 68.8879 13.9143 69.2612 14.115C69.6345 14.311 69.9005 14.5467 70.0592 14.822C70.2225 15.0927 70.3042 15.4217 70.3042 15.809C70.3042 16.5557 70.0312 17.1413 69.4852 17.566C68.9439 17.9907 68.1949 18.203 67.2382 18.203ZM76.179 18C75.703 18.0933 75.2364 18.133 74.779 18.119C74.3217 18.105 73.9134 18.0163 73.554 17.853C73.1947 17.6897 72.924 17.433 72.742 17.083C72.5787 16.7703 72.49 16.453 72.476 16.131C72.4667 15.8043 72.462 15.4357 72.462 15.025V8.34H73.932V14.955C73.932 15.2583 73.9344 15.522 73.939 15.746C73.9484 15.97 73.9974 16.159 74.086 16.313C74.254 16.6023 74.52 16.768 74.884 16.81C75.2527 16.8473 75.6844 16.831 76.179 16.761V18ZM71.013 11.616V10.44H76.179V11.616H71.013ZM80.7142 18.21C79.9582 18.21 79.3025 18.0397 78.7472 17.699C78.1918 17.3583 77.7625 16.8893 77.4592 16.292C77.1605 15.69 77.0112 14.997 77.0112 14.213C77.0112 13.4243 77.1652 12.7313 77.4732 12.134C77.7812 11.532 78.2128 11.0653 78.7682 10.734C79.3235 10.398 79.9722 10.23 80.7142 10.23C81.4702 10.23 82.1258 10.4003 82.6812 10.741C83.2365 11.0817 83.6658 11.5507 83.9692 12.148C84.2725 12.7453 84.4242 13.4337 84.4242 14.213C84.4242 15.0017 84.2702 15.697 83.9622 16.299C83.6588 16.8963 83.2295 17.3653 82.6742 17.706C82.1188 18.042 81.4655 18.21 80.7142 18.21ZM80.7142 16.831C81.4375 16.831 81.9765 16.5883 82.3312 16.103C82.6905 15.613 82.8702 14.983 82.8702 14.213C82.8702 13.4243 82.6882 12.7943 82.3242 12.323C81.9648 11.847 81.4282 11.609 80.7142 11.609C80.2242 11.609 79.8205 11.721 79.5032 11.945C79.1858 12.1643 78.9502 12.47 78.7962 12.862C78.6422 13.2493 78.5652 13.6997 78.5652 14.213C78.5652 15.0063 78.7472 15.641 79.1112 16.117C79.4752 16.593 80.0095 16.831 80.7142 16.831ZM88.9654 18.21C88.2608 18.21 87.6518 18.035 87.1384 17.685C86.6298 17.335 86.2354 16.859 85.9554 16.257C85.6801 15.6503 85.5424 14.969 85.5424 14.213C85.5424 13.4523 85.6824 12.7733 85.9624 12.176C86.2424 11.574 86.6391 11.1003 87.1524 10.755C87.6704 10.405 88.2841 10.23 88.9934 10.23C89.7074 10.23 90.3071 10.405 90.7924 10.755C91.2824 11.1003 91.6511 11.574 91.8984 12.176C92.1504 12.778 92.2764 13.457 92.2764 14.213C92.2764 14.969 92.1504 15.648 91.8984 16.25C91.6464 16.852 91.2754 17.3303 90.7854 17.685C90.2954 18.035 89.6888 18.21 88.9654 18.21ZM89.1684 16.887C89.6491 16.887 90.0411 16.7727 90.3444 16.544C90.6478 16.3153 90.8694 16.0003 91.0094 15.599C91.1494 15.1977 91.2194 14.7357 91.2194 14.213C91.2194 13.6903 91.1471 13.2283 91.0024 12.827C90.8624 12.4257 90.6431 12.113 90.3444 11.889C90.0504 11.665 89.6748 11.553 89.2174 11.553C88.7321 11.553 88.3331 11.672 88.0204 11.91C87.7078 12.148 87.4744 12.4677 87.3204 12.869C87.1711 13.2703 87.0964 13.7183 87.0964 14.213C87.0964 14.7123 87.1711 15.165 87.3204 15.571C87.4744 15.9723 87.7031 16.292 88.0064 16.53C88.3144 16.768 88.7018 16.887 89.1684 16.887ZM91.0514 21.36V15.879H91.2194V10.44H92.5214V21.36H91.0514ZM94.732 18V16.453H96.279V18H94.732Z" fill="black"/>
<rect x="122" width="110" height="26" fill="#00796B"/>
<path d="M140.299 18V7.92H146.739V9.299H141.762V12.127H145.899V13.506H141.762V16.621H146.739V18H140.299ZM153.726 18V14.283C153.726 13.989 153.701 13.688 153.649 13.38C153.603 13.0673 153.509 12.778 153.369 12.512C153.234 12.246 153.04 12.0313 152.788 11.868C152.541 11.7047 152.217 11.623 151.815 11.623C151.554 11.623 151.307 11.6673 151.073 11.756C150.84 11.84 150.635 11.9777 150.457 12.169C150.285 12.3603 150.147 12.6123 150.044 12.925C149.946 13.2377 149.897 13.618 149.897 14.066L148.987 13.723C148.987 13.037 149.116 12.4327 149.372 11.91C149.629 11.3827 149.998 10.972 150.478 10.678C150.959 10.384 151.54 10.237 152.221 10.237C152.744 10.237 153.183 10.321 153.537 10.489C153.892 10.657 154.179 10.8787 154.398 11.154C154.622 11.4247 154.793 11.721 154.909 12.043C155.026 12.365 155.105 12.68 155.147 12.988C155.189 13.296 155.21 13.5667 155.21 13.8V18H153.726ZM148.413 18V10.44H149.722V12.624H149.897V18H148.413ZM160.172 18.21C159.397 18.21 158.739 18.0373 158.198 17.692C157.657 17.3467 157.241 16.873 156.952 16.271C156.667 15.669 156.523 14.9853 156.518 14.22C156.523 13.4407 156.672 12.7523 156.966 12.155C157.26 11.553 157.68 11.0817 158.226 10.741C158.772 10.4003 159.428 10.23 160.193 10.23C161.019 10.23 161.724 10.4353 162.307 10.846C162.895 11.2567 163.282 11.819 163.469 12.533L162.013 12.953C161.868 12.5283 161.63 12.1993 161.299 11.966C160.972 11.728 160.597 11.609 160.172 11.609C159.691 11.609 159.297 11.7233 158.989 11.952C158.681 12.176 158.452 12.484 158.303 12.876C158.154 13.268 158.077 13.716 158.072 14.22C158.077 14.9993 158.254 15.6293 158.604 16.11C158.959 16.5907 159.481 16.831 160.172 16.831C160.643 16.831 161.024 16.7237 161.313 16.509C161.607 16.2897 161.831 15.977 161.985 15.571L163.469 15.921C163.222 16.6583 162.813 17.2253 162.244 17.622C161.675 18.014 160.984 18.21 160.172 18.21ZM167.973 18.21C167.217 18.21 166.561 18.0397 166.006 17.699C165.451 17.3583 165.021 16.8893 164.718 16.292C164.419 15.69 164.27 14.997 164.27 14.213C164.27 13.4243 164.424 12.7313 164.732 12.134C165.04 11.532 165.472 11.0653 166.027 10.734C166.582 10.398 167.231 10.23 167.973 10.23C168.729 10.23 169.385 10.4003 169.94 10.741C170.495 11.0817 170.925 11.5507 171.228 12.148C171.531 12.7453 171.683 13.4337 171.683 14.213C171.683 15.0017 171.529 15.697 171.221 16.299C170.918 16.8963 170.488 17.3653 169.933 17.706C169.378 18.042 168.724 18.21 167.973 18.21ZM167.973 16.831C168.696 16.831 169.235 16.5883 169.59 16.103C169.949 15.613 170.129 14.983 170.129 14.213C170.129 13.4243 169.947 12.7943 169.583 12.323C169.224 11.847 168.687 11.609 167.973 11.609C167.483 11.609 167.079 11.721 166.762 11.945C166.445 12.1643 166.209 12.47 166.055 12.862C165.901 13.2493 165.824 13.6997 165.824 14.213C165.824 15.0063 166.006 15.641 166.37 16.117C166.734 16.593 167.268 16.831 167.973 16.831ZM182.279 18L182.286 13.289C182.286 12.743 182.146 12.3183 181.866 12.015C181.586 11.707 181.218 11.553 180.76 11.553C180.48 11.553 180.224 11.6183 179.99 11.749C179.762 11.875 179.575 12.0663 179.43 12.323C179.29 12.575 179.22 12.8923 179.22 13.275L178.513 12.918C178.504 12.386 178.616 11.9193 178.849 11.518C179.087 11.1167 179.409 10.8063 179.815 10.587C180.221 10.363 180.676 10.251 181.18 10.251C181.997 10.251 182.629 10.496 183.077 10.986C183.525 11.476 183.749 12.127 183.749 12.939L183.742 18H182.279ZM173.214 18V10.44H174.516V12.624H174.684V18H173.214ZM177.75 18L177.757 13.317C177.757 12.7663 177.617 12.3347 177.337 12.022C177.062 11.7093 176.691 11.553 176.224 11.553C175.762 11.553 175.389 11.7117 175.104 12.029C174.824 12.3463 174.684 12.7617 174.684 13.275L173.984 12.827C173.984 12.3323 174.103 11.8913 174.341 11.504C174.579 11.1167 174.901 10.811 175.307 10.587C175.713 10.363 176.173 10.251 176.686 10.251C177.223 10.251 177.68 10.3653 178.058 10.594C178.436 10.818 178.723 11.133 178.919 11.539C179.12 11.945 179.22 12.4163 179.22 12.953L179.213 18H177.75ZM188.824 18.21C188.073 18.21 187.413 18.0467 186.843 17.72C186.279 17.3887 185.838 16.929 185.52 16.341C185.208 15.7483 185.051 15.0623 185.051 14.283C185.051 13.457 185.205 12.7407 185.513 12.134C185.826 11.5273 186.26 11.0583 186.815 10.727C187.371 10.3957 188.017 10.23 188.754 10.23C189.524 10.23 190.18 10.4097 190.721 10.769C191.263 11.1237 191.666 11.63 191.932 12.288C192.203 12.946 192.31 13.7277 192.254 14.633H190.791V14.101C190.782 13.2237 190.614 12.575 190.287 12.155C189.965 11.735 189.473 11.525 188.81 11.525C188.078 11.525 187.527 11.756 187.158 12.218C186.79 12.68 186.605 13.3473 186.605 14.22C186.605 15.0507 186.79 15.6947 187.158 16.152C187.527 16.6047 188.059 16.831 188.754 16.831C189.212 16.831 189.606 16.7283 189.937 16.523C190.273 16.313 190.535 16.0143 190.721 15.627L192.156 16.082C191.862 16.7587 191.417 17.2837 190.819 17.657C190.222 18.0257 189.557 18.21 188.824 18.21ZM186.129 14.633V13.492H191.526V14.633H186.129ZM198.926 18V14.283C198.926 13.989 198.9 13.688 198.849 13.38C198.802 13.0673 198.709 12.778 198.569 12.512C198.433 12.246 198.24 12.0313 197.988 11.868C197.74 11.7047 197.416 11.623 197.015 11.623C196.753 11.623 196.506 11.6673 196.273 11.756C196.039 11.84 195.834 11.9777 195.657 12.169C195.484 12.3603 195.346 12.6123 195.244 12.925C195.146 13.2377 195.097 13.618 195.097 14.066L194.187 13.723C194.187 13.037 194.315 12.4327 194.572 11.91C194.828 11.3827 195.197 10.972 195.678 10.678C196.158 10.384 196.739 10.237 197.421 10.237C197.943 10.237 198.382 10.321 198.737 10.489C199.091 10.657 199.378 10.8787 199.598 11.154C199.822 11.4247 199.992 11.721 200.109 12.043C200.225 12.365 200.305 12.68 200.347 12.988C200.389 13.296 200.41 13.5667 200.41 13.8V18H198.926ZM193.613 18V10.44H194.922V12.624H195.097V18H193.613ZM205.14 18.21C204.436 18.21 203.827 18.035 203.313 17.685C202.805 17.335 202.41 16.859 202.13 16.257C201.855 15.6503 201.717 14.969 201.717 14.213C201.717 13.4523 201.857 12.7733 202.137 12.176C202.417 11.574 202.814 11.1003 203.327 10.755C203.845 10.405 204.459 10.23 205.168 10.23C205.882 10.23 206.482 10.405 206.967 10.755C207.457 11.1003 207.826 11.574 208.073 12.176C208.325 12.778 208.451 13.457 208.451 14.213C208.451 14.969 208.325 15.648 208.073 16.25C207.821 16.852 207.45 17.3303 206.96 17.685C206.47 18.035 205.864 18.21 205.14 18.21ZM205.343 16.887C205.824 16.887 206.216 16.7727 206.519 16.544C206.823 16.3153 207.044 16.0003 207.184 15.599C207.324 15.1977 207.394 14.7357 207.394 14.213C207.394 13.6903 207.322 13.2283 207.177 12.827C207.037 12.4257 206.818 12.113 206.519 11.889C206.225 11.665 205.85 11.553 205.392 11.553C204.907 11.553 204.508 11.672 204.195 11.91C203.883 12.148 203.649 12.4677 203.495 12.869C203.346 13.2703 203.271 13.7183 203.271 14.213C203.271 14.7123 203.346 15.165 203.495 15.571C203.649 15.9723 203.878 16.292 204.181 16.53C204.489 16.768 204.877 16.887 205.343 16.887ZM207.394 18V12.561H207.226V7.92H208.696V18H207.394ZM210.907 18V16.453H212.454V18H210.907Z" fill="white"/>
</svg>
