<svg width="57" height="47" viewBox="0 0 57 47" fill="none" xmlns="http://www.w3.org/2000/svg">
<path d="M2.30303 9.91026e-05C1.69223 9.91026e-05 1.10644 0.247688 0.674542 0.688397C0.24264 1.12911 0 1.72684 0 2.35009C0 2.97335 0.24264 3.57108 0.674542 4.01179C1.10644 4.4525 1.69223 4.70009 2.30303 4.70009H7.41576L13.4589 29.375C13.9725 31.4665 15.808 32.9 17.9199 32.9H46.6387C48.7183 32.9 50.4847 31.49 51.0305 29.4455L57 7.05008H52.1775L46.6364 28.2H17.9176L11.8767 3.52509C11.6272 2.51278 11.052 1.6152 10.2431 0.976084C9.43432 0.336969 8.43872 -0.00670438 7.41576 9.91026e-05H2.30303ZM43.7576 32.9C39.9691 32.9 36.8485 36.0843 36.8485 39.95C36.8485 43.8158 39.9691 47 43.7576 47C47.5461 47 50.6667 43.8158 50.6667 39.95C50.6667 36.0843 47.5461 32.9 43.7576 32.9ZM23.0303 32.9C19.2418 32.9 16.1212 36.0843 16.1212 39.95C16.1212 43.8158 19.2418 47 23.0303 47C26.8188 47 29.9394 43.8158 29.9394 39.95C29.9394 36.0843 26.8188 32.9 23.0303 32.9ZM29.9394 9.91026e-05V11.7501H23.0303L32.2424 21.1501L41.4545 11.7501H34.5455V9.91026e-05H29.9394ZM23.0303 37.6C24.3292 37.6 25.3333 38.6246 25.3333 39.95C25.3333 41.2754 24.3292 42.3 23.0303 42.3C21.7314 42.3 20.7273 41.2754 20.7273 39.95C20.7273 38.6246 21.7314 37.6 23.0303 37.6ZM43.7576 37.6C45.0565 37.6 46.0606 38.6246 46.0606 39.95C46.0606 41.2754 45.0565 42.3 43.7576 42.3C42.4587 42.3 41.4545 41.2754 41.4545 39.95C41.4545 38.6246 42.4587 37.6 43.7576 37.6Z" fill="#00796B"/>
</svg>
