<svg width="80" height="65" viewBox="0 0 80 65" fill="none" xmlns="http://www.w3.org/2000/svg">
<g clip-path="url(#clip0_560_98)">
<path d="M66.043 0.892465C67.2033 -0.297467 69.0795 -0.297467 70.1287 0.892338L78.0287 9.0162C78.6953 9.58748 79.0039 10.3632 79.0039 11.1706C79.0039 11.9793 78.6953 12.7588 78.0287 13.2158L70.1287 21.3408C69.0795 22.6357 67.2033 22.6357 66.043 21.3408C64.895 20.2617 64.895 18.332 66.043 17.1387L68.8944 14.1045H47.4039C45.7622 14.1045 44.4414 12.8476 44.4414 11.1706C44.4414 9.48846 45.7622 8.12371 47.4039 8.12371L68.8944 8.01073L66.043 5.20125C64.895 4.0117 64.895 2.08202 66.043 0.892465ZM12.8538 47.7471L10.1184 50.7812L31.4928 50.667C33.2456 50.667 34.4553 52.1396 34.4553 53.7139C34.4553 55.5039 33.2456 56.7607 31.4928 56.7607L10.1196 56.875L12.8538 59.7949C14.1128 60.9883 14.1128 62.918 12.8538 63.9971C11.8045 65.292 9.92828 65.292 8.77167 63.9971L0.871548 55.8721C0.315956 55.415 0.00378285 54.6406 0.00390629 53.7139C0.00390629 53.0156 0.31608 52.2412 0.871672 51.6699L8.77167 43.5449C9.92828 42.3642 11.8045 42.3642 12.8538 43.5449C14.1128 44.7383 14.1128 46.668 12.8538 47.7471ZM11.7428 8.12498H41.7134C41.2444 9.03651 40.9852 10.0724 40.9852 11.0576C40.9852 14.8154 43.8613 17.6592 47.4039 17.6592H59.3897C59.797 19.9951 61.0931 21.8994 62.883 23.0928C63.0928 23.3974 63.3397 23.6894 63.5989 23.9687C66.1047 26.5459 70.1781 26.5459 72.6839 23.9687L75.0539 21.5185V48.75C75.0539 53.2314 71.5113 56.875 67.1539 56.875H37.2944C37.7634 55.9609 37.9116 54.9326 37.9116 53.7139C37.9116 50.1846 35.1466 47.1123 31.4928 47.1123L19.6181 47.2265C19.1984 45.0049 17.9147 43.1006 16.1248 41.9072C15.915 41.6025 15.6681 41.3105 15.4089 41.0312C12.9031 38.4541 8.83463 38.4541 6.32761 41.0312L3.84281 43.4814V16.25C3.84281 11.7622 7.49039 8.12498 11.7428 8.12498ZM11.7428 24.375C16.2113 24.375 19.6428 20.7314 19.6428 16.25H11.7428V24.375ZM67.1539 48.75V40.625C62.7966 40.625 59.2539 44.2685 59.2539 48.75H67.1539ZM39.3928 44.6875C46.0461 44.6875 51.3539 39.2285 51.3539 32.5C51.3539 25.6572 46.0461 20.3125 39.3928 20.3125C32.8506 20.3125 27.5428 25.6572 27.5428 32.5C27.5428 39.2285 32.8506 44.6875 39.3928 44.6875Z" fill="#00796B"/>
</g>
<defs>
<clipPath id="clip0_560_98">
<rect width="79" height="65" fill="white" transform="translate(0.00390625)"/>
</clipPath>
</defs>
</svg>
