<svg width="34" height="34" viewBox="0 0 34 34" fill="none" xmlns="http://www.w3.org/2000/svg">
<path d="M3.33333 10H30V31.6667C30 32.1087 29.8244 32.5326 29.5118 32.8452C29.1993 33.1577 28.7754 33.3333 28.3333 33.3333H5C4.55797 33.3333 4.13405 33.1577 3.82149 32.8452C3.50893 32.5326 3.33333 32.1087 3.33333 31.6667V10ZM6.66667 13.3333V30H26.6667V13.3333H6.66667ZM11.6667 16.6667H15V26.6667H11.6667V16.6667ZM18.3333 16.6667H21.6667V26.6667H18.3333V16.6667ZM8.33333 5V1.66667C8.33333 1.22464 8.50893 0.800716 8.82149 0.488155C9.13405 0.175595 9.55797 0 10 0H23.3333C23.7754 0 24.1993 0.175595 24.5118 0.488155C24.8244 0.800716 25 1.22464 25 1.66667V5H33.3333V8.33333H0V5H8.33333ZM11.6667 3.33333V5H21.6667V3.33333H11.6667Z" fill="white"/>
</svg>
