<svg width="65" height="65" viewBox="0 0 65 65" fill="none" xmlns="http://www.w3.org/2000/svg">
<path d="M55.9723 14.4445H41.5278V18.0556H55.9723V55.9722H41.5278V59.5833H59.5834V18.0556C59.5834 17.0978 59.2029 16.1793 58.5257 15.5021C57.8485 14.8249 56.93 14.4445 55.9723 14.4445Z" fill="#00796B"/>
<path d="M35.8944 5.41663H11.0499C10.0348 5.41663 9.06115 5.81991 8.3433 6.53776C7.62545 7.2556 7.22217 8.22921 7.22217 9.2444V59.5833H39.7222V9.2444C39.7222 8.22921 39.3189 7.2556 38.601 6.53776C37.8832 5.81991 36.9096 5.41663 35.8944 5.41663ZM36.1111 55.9722H30.6944V50.5555H16.2499V55.9722H10.8333V9.2444C10.8333 9.21595 10.8389 9.18778 10.8498 9.16149C10.8607 9.1352 10.8766 9.11132 10.8967 9.0912C10.9169 9.07108 10.9407 9.05512 10.967 9.04423C10.9933 9.03334 11.0215 9.02774 11.0499 9.02774H35.8944C35.9228 9.02774 35.951 9.03334 35.9773 9.04423C36.0036 9.05512 36.0275 9.07108 36.0476 9.0912C36.0677 9.11132 36.0837 9.1352 36.0946 9.16149C36.1055 9.18778 36.1111 9.21595 36.1111 9.2444V55.9722Z" fill="#00796B"/>
<path d="M14.4443 14.4445H18.0554V18.0556H14.4443V14.4445Z" fill="#00796B"/>
<path d="M21.6665 14.4445H25.2776V18.0556H21.6665V14.4445Z" fill="#00796B"/>
<path d="M28.8887 14.4445H32.4998V18.0556H28.8887V14.4445Z" fill="#00796B"/>
<path d="M14.4443 23.4722H18.0554V27.0833H14.4443V23.4722Z" fill="#00796B"/>
<path d="M21.6665 23.4722H25.2776V27.0833H21.6665V23.4722Z" fill="#00796B"/>
<path d="M28.8887 23.4722H32.4998V27.0833H28.8887V23.4722Z" fill="#00796B"/>
<path d="M14.4443 32.5H18.0554V36.1111H14.4443V32.5Z" fill="#00796B"/>
<path d="M21.6665 32.5H25.2776V36.1111H21.6665V32.5Z" fill="#00796B"/>
<path d="M28.8887 32.5H32.4998V36.1111H28.8887V32.5Z" fill="#00796B"/>
<path d="M14.4443 41.5278H18.0554V45.1389H14.4443V41.5278Z" fill="#00796B"/>
<path d="M21.6665 41.5278H25.2776V45.1389H21.6665V41.5278Z" fill="#00796B"/>
<path d="M28.8887 41.5278H32.4998V45.1389H28.8887V41.5278Z" fill="#00796B"/>
<path d="M41.5278 23.4722H45.1389V27.0833H41.5278V23.4722Z" fill="#00796B"/>
<path d="M48.75 23.4722H52.3611V27.0833H48.75V23.4722Z" fill="#00796B"/>
<path d="M41.5278 32.5H45.1389V36.1111H41.5278V32.5Z" fill="#00796B"/>
<path d="M48.75 32.5H52.3611V36.1111H48.75V32.5Z" fill="#00796B"/>
<path d="M41.5278 41.5278H45.1389V45.1389H41.5278V41.5278Z" fill="#00796B"/>
<path d="M48.75 41.5278H52.3611V45.1389H48.75V41.5278Z" fill="#00796B"/>
</svg>
