<svg width="91" height="83" viewBox="0 0 91 83" fill="none" xmlns="http://www.w3.org/2000/svg">
<path d="M17.5649 10.375C17.5649 7.62338 18.6056 4.98446 20.4581 3.03877C22.3106 1.09308 24.8231 0 27.4429 0H64.76C67.3798 0 69.8923 1.09308 71.7448 3.03877C73.5973 4.98446 74.6381 7.62338 74.6381 10.375V46.1111H90.0039V61.0972C90.0039 65.0718 88.5006 68.8836 85.8248 71.694C83.149 74.5044 79.5198 76.0833 75.7356 76.0833H52.6868V57.6389H58.1746C59.0479 57.6389 59.8854 57.2745 60.5029 56.626C61.1204 55.9774 61.4673 55.0978 61.4673 54.1806C61.4673 53.2633 61.1204 52.3837 60.5029 51.7351C59.8854 51.0866 59.0479 50.7222 58.1746 50.7222H50.4917C49.4703 49.2895 48.1448 48.1266 46.6206 47.3262C45.0964 46.5257 43.4154 46.1097 41.7112 46.1111H17.5649V10.375ZM74.6381 69.1667H75.7356C77.7733 69.1667 79.7274 68.3165 81.1683 66.8032C82.6091 65.2899 83.4185 63.2374 83.4185 61.0972V53.0278H74.6381V69.1667ZM34.0283 18.4444C33.155 18.4444 32.3175 18.8088 31.7 19.4574C31.0825 20.1059 30.7356 20.9856 30.7356 21.9028C30.7356 22.82 31.0825 23.6996 31.7 24.3482C32.3175 24.9967 33.155 25.3611 34.0283 25.3611H58.1746C59.0479 25.3611 59.8854 24.9967 60.5029 24.3482C61.1204 23.6996 61.4673 22.82 61.4673 21.9028C61.4673 20.9856 61.1204 20.1059 60.5029 19.4574C59.8854 18.8088 59.0479 18.4444 58.1746 18.4444H34.0283ZM34.0283 34.5833C33.155 34.5833 32.3175 34.9477 31.7 35.5963C31.0825 36.2448 30.7356 37.1245 30.7356 38.0417C30.7356 38.9589 31.0825 39.8385 31.7 40.4871C32.3175 41.1356 33.155 41.5 34.0283 41.5H58.1746C59.0479 41.5 59.8854 41.1356 60.5029 40.4871C61.1204 39.8385 61.4673 38.9589 61.4673 38.0417C61.4673 37.1245 61.1204 36.2448 60.5029 35.5963C59.8854 34.9477 59.0479 34.5833 58.1746 34.5833H34.0283ZM0.00390625 57.6389C0.00390625 55.8045 0.69772 54.0452 1.93272 52.7481C3.16771 51.4509 4.84272 50.7222 6.58927 50.7222H41.7112C43.4578 50.7222 45.1328 51.4509 46.3678 52.7481C47.6028 54.0452 48.2966 55.8045 48.2966 57.6389V76.0833C48.2966 77.9177 47.6028 79.677 46.3678 80.9742C45.1328 82.2713 43.4578 83 41.7112 83H6.58927C4.84272 83 3.16771 82.2713 1.93272 80.9742C0.69772 79.677 0.00390625 77.9177 0.00390625 76.0833V57.6389ZM43.9063 59.9444C42.742 59.9444 41.6253 59.4586 40.802 58.5939C39.9786 57.7291 39.5161 56.5563 39.5161 55.3333H35.1259C35.1259 57.7792 36.0509 60.1249 37.6976 61.8544C39.3443 63.5839 41.5776 64.5556 43.9063 64.5556V59.9444ZM43.9063 69.1667C41.5776 69.1667 39.3443 70.1383 37.6976 71.8678C36.0509 73.5973 35.1259 75.943 35.1259 78.3889H39.5161C39.5161 77.1659 39.9786 75.9931 40.802 75.1283C41.6253 74.2636 42.742 73.7778 43.9063 73.7778V69.1667ZM8.78439 55.3333C8.78439 56.5563 8.32185 57.7291 7.49852 58.5939C6.67519 59.4586 5.55852 59.9444 4.39415 59.9444V64.5556C6.72288 64.5556 8.95623 63.5839 10.6029 61.8544C12.2496 60.1249 13.1746 57.7792 13.1746 55.3333H8.78439ZM13.1746 78.3889C13.1746 75.943 12.2496 73.5973 10.6029 71.8678C8.95623 70.1383 6.72288 69.1667 4.39415 69.1667V73.7778C5.55852 73.7778 6.67519 74.2636 7.49852 75.1283C8.32185 75.9931 8.78439 77.1659 8.78439 78.3889H13.1746ZM31.8332 66.8611C31.8332 64.721 31.0237 62.6685 29.5829 61.1552C28.1421 59.6418 26.1879 58.7917 24.1502 58.7917C22.1126 58.7917 20.1584 59.6418 18.7176 61.1552C17.2768 62.6685 16.4673 64.721 16.4673 66.8611C16.4673 69.0013 17.2768 71.0538 18.7176 72.5671C20.1584 74.0804 22.1126 74.9306 24.1502 74.9306C26.1879 74.9306 28.1421 74.0804 29.5829 72.5671C31.0237 71.0538 31.8332 69.0013 31.8332 66.8611Z" fill="#00796B"/>
</svg>
