<svg width="56" height="40" viewBox="0 0 56 40" fill="none" xmlns="http://www.w3.org/2000/svg">
<path d="M15.2926 35.3918L39.9058 0.851023C40.0465 0.640118 40.2289 0.459121 40.4422 0.318761C40.6555 0.1784 40.8953 0.0815343 41.1474 0.033905C41.3995 -0.0137243 41.6588 -0.0111478 41.9098 0.0414826C42.1609 0.094113 42.3987 0.195726 42.609 0.340297C42.8194 0.484868 42.998 0.669454 43.1344 0.883114C43.2708 1.09677 43.3621 1.33516 43.403 1.58413C43.4438 1.83311 43.4334 2.08761 43.3723 2.33255C43.3111 2.57749 43.2006 2.80787 43.0471 3.01006L17.2986 39.1447C17.1514 39.352 16.9632 39.5282 16.7452 39.6626C16.5272 39.797 16.2839 39.8869 16.0297 39.927C15.7756 39.967 15.5159 39.9565 15.266 39.8959C15.0162 39.8353 14.7813 39.7259 14.5753 39.5742L0.767131 29.4008C0.565651 29.2523 0.395907 29.0663 0.267591 28.8535C0.139275 28.6406 0.0548998 28.4049 0.0192828 28.16C-0.052649 27.6654 0.0783889 27.1629 0.383569 26.7632C0.68875 26.3635 1.14307 26.0992 1.6466 26.0285C2.15012 25.9579 2.66159 26.0866 3.0685 26.3864L15.2926 35.3918ZM42.5753 17.3923C42.0667 17.3923 41.5789 17.1938 41.2192 16.8405C40.8596 16.4872 40.6575 16.008 40.6575 15.5083C40.6575 15.0087 40.8596 14.5295 41.2192 14.1762C41.5789 13.8229 42.0667 13.6244 42.5753 13.6244H54.0822C54.5908 13.6244 55.0786 13.8229 55.4383 14.1762C55.7979 14.5295 56 15.0087 56 15.5083C56 16.008 55.7979 16.4872 55.4383 16.8405C55.0786 17.1938 54.5908 17.3923 54.0822 17.3923H42.5753ZM34.9041 28.6962C34.3955 28.6962 33.9077 28.4977 33.548 28.1444C33.1884 27.791 32.9863 27.3118 32.9863 26.8122C32.9863 26.3125 33.1884 25.8333 33.548 25.48C33.9077 25.1267 34.3955 24.9282 34.9041 24.9282H54.0784C54.587 24.9282 55.0748 25.1267 55.4345 25.48C55.7941 25.8333 55.9962 26.3125 55.9962 26.8122C55.9962 27.3118 55.7941 27.791 55.4345 28.1444C55.0748 28.4977 54.587 28.6962 54.0784 28.6962H34.9041ZM27.2329 40C26.7242 40 26.2364 39.8015 25.8768 39.4482C25.5171 39.0949 25.3151 38.6157 25.3151 38.116C25.3151 37.6164 25.5171 37.1372 25.8768 36.7839C26.2364 36.4305 26.7242 36.2321 27.2329 36.2321H54.0784C54.587 36.2321 55.0748 36.4305 55.4345 36.7839C55.7941 37.1372 55.9962 37.6164 55.9962 38.116C55.9962 38.6157 55.7941 39.0949 55.4345 39.4482C55.0748 39.8015 54.587 40 54.0784 40H27.2329Z" fill="#00796B"/>
</svg>
