<svg width="323" height="125" viewBox="0 0 323 125" fill="none" xmlns="http://www.w3.org/2000/svg">
<path d="M61.9185 0.916504C63.7414 0.916504 65.5539 0.999837 67.3664 1.15609C69.1789 1.31754 70.981 1.55713 72.7726 1.87484C74.5643 2.19775 76.3351 2.59359 78.0955 3.06755C79.8507 3.5415 81.5799 4.09359 83.2882 4.7238C84.9966 5.3488 86.6737 6.05192 88.3195 6.82796C89.9653 7.604 91.5747 8.44775 93.1424 9.36963C94.7153 10.2863 96.2414 11.2707 97.7257 12.3228C99.2101 13.3748 100.648 14.4894 102.033 15.6665C103.418 16.8488 104.752 18.0832 106.028 19.38C107.304 20.6769 108.523 22.0259 109.679 23.4269C110.835 24.8332 111.929 26.2811 112.96 27.7811C113.991 29.2811 114.955 30.8228 115.846 32.4113C116.741 33.9946 117.564 35.6144 118.314 37.2707C119.064 38.9269 119.741 40.6144 120.346 42.3332C120.95 44.0467 121.476 45.7863 121.924 47.5519C122.372 49.3123 122.741 51.0936 123.033 52.8905C123.33 54.6873 123.538 56.4894 123.674 58.3071C123.809 60.1196 123.861 61.9373 123.835 63.755C123.804 65.5728 123.7 67.3905 123.512 69.1978C123.325 71.0103 123.059 72.8071 122.715 74.5936C122.366 76.38 121.945 78.1457 121.445 79.8957C120.945 81.6457 120.366 83.3696 119.71 85.0675C119.059 86.7655 118.335 88.4321 117.533 90.0623C116.731 91.6978 115.861 93.2915 114.924 94.8488C113.981 96.4061 112.976 97.9217 111.898 99.3905C110.825 100.859 109.689 102.276 108.491 103.646C107.293 105.015 106.033 106.328 104.721 107.583C103.403 108.844 102.038 110.036 100.616 111.177C99.1997 112.312 97.731 113.385 96.2153 114.39C94.6997 115.401 93.1424 116.338 91.5487 117.208C89.9497 118.078 88.3143 118.88 86.6476 119.604C84.981 120.333 83.283 120.984 81.5591 121.562L71.7414 92.1978C73.4653 91.6196 75.132 90.8957 76.731 90.0259C78.3351 89.1509 79.8455 88.1457 81.2674 87.005C82.6893 85.8696 84.0018 84.6144 85.2049 83.2394C86.408 81.8696 87.481 80.4061 88.4185 78.8436C89.3612 77.2863 90.1632 75.6509 90.8143 73.953C91.4705 72.2498 91.9705 70.505 92.3143 68.7134C92.6632 66.9269 92.8507 65.1196 92.8768 63.2967C92.9028 61.4738 92.7726 59.6613 92.4757 57.8644C92.1841 56.0623 91.7362 54.3071 91.132 52.5832C90.5278 50.8644 89.7778 49.2134 88.882 47.6248C87.9862 46.0363 86.9601 44.5415 85.7987 43.1353C84.6372 41.729 83.3664 40.4321 81.9757 39.255C80.5851 38.0728 79.106 37.0207 77.533 36.104C75.9601 35.1821 74.3143 34.4113 72.606 33.7811C70.8924 33.1509 69.1424 32.6769 67.3455 32.3592C65.5539 32.0363 63.7414 31.88 61.9185 31.88V0.916504Z" fill="#00796B"/>
<path d="M84.4706 120.505C81.7831 121.557 79.0435 122.411 76.2415 123.078C73.4342 123.745 70.6008 124.214 67.731 124.484C64.8613 124.755 61.9915 124.823 59.1113 124.693C56.231 124.563 53.3769 124.234 50.5435 123.703C47.7154 123.177 44.9342 122.453 42.1998 121.536C39.4706 120.615 36.8144 119.516 34.2362 118.224C31.6581 116.938 29.1842 115.474 26.8144 113.844C24.4394 112.208 22.1894 110.417 20.0696 108.469L40.9915 85.6562C42.054 86.6302 43.179 87.526 44.3665 88.3385C45.554 89.1563 46.7883 89.8854 48.08 90.5313C49.3665 91.1771 50.6946 91.7292 52.0592 92.1875C53.4238 92.6458 54.8144 93.0052 56.231 93.2708C57.6477 93.5365 59.0748 93.7031 60.5175 93.7656C61.955 93.8333 63.3925 93.7969 64.8248 93.6615C66.2623 93.526 67.679 93.2917 69.08 92.9583C70.481 92.625 71.8508 92.1979 73.1946 91.6719L84.4706 120.505Z" fill="#2BCA6A"/>
<path d="M22.3978 110.505C19.9655 108.484 17.6947 106.292 15.5957 103.922C13.4915 101.552 11.5853 99.0415 9.87174 96.38C8.1582 93.7186 6.65299 90.9425 5.36653 88.0467C4.07486 85.1561 3.01757 82.1873 2.18424 79.13C1.3509 76.078 0.751945 72.979 0.397779 69.8332C0.0384035 66.6873 -0.0761789 63.5311 0.0488211 60.3696C0.173821 57.203 0.543611 54.0675 1.14778 50.9634C1.75715 47.854 2.5957 44.8123 3.66861 41.8332C4.74674 38.8592 6.0384 35.979 7.55403 33.1978C9.06966 30.4165 10.7884 27.7707 12.7103 25.255C14.6322 22.7394 16.7363 20.3853 19.0176 18.1873C21.2988 15.9946 23.7363 13.9894 26.3301 12.1717C28.9186 10.3488 31.6322 8.73942 34.4707 7.33317C37.3092 5.93213 40.2363 4.74984 43.2519 3.79671C46.2728 2.84359 49.3457 2.12484 52.4759 1.64046C55.6009 1.1613 58.7467 0.916504 61.9134 0.916504L61.9186 31.88C60.3353 31.88 58.7624 31.9998 57.1947 32.2394C55.6322 32.4842 54.0957 32.8436 52.5853 33.3175C51.0749 33.7967 49.6113 34.3853 48.1947 35.0884C46.7728 35.7915 45.4186 36.5936 44.1217 37.505C42.8301 38.4165 41.6113 39.4165 40.4655 40.5155C39.3249 41.6092 38.278 42.7915 37.3144 44.0467C36.3561 45.3071 35.4967 46.63 34.7363 48.0207C33.9811 49.4061 33.3301 50.8488 32.7936 52.3384C32.2572 53.828 31.8405 55.3488 31.5332 56.9009C31.2311 58.453 31.0488 60.0207 30.9863 61.604C30.9238 63.1821 30.9811 64.7603 31.1582 66.3332C31.3353 67.9061 31.6322 69.4582 32.0488 70.9842C32.4655 72.5103 32.9967 73.9998 33.6426 75.4425C34.2884 76.8905 35.0384 78.2759 35.8978 79.6092C36.7519 80.9373 37.7051 82.1978 38.7572 83.38C39.8092 84.5623 40.9394 85.6613 42.1582 86.6717L22.3978 110.505Z" fill="#388E3C"/>
<path d="M61.9185 0.916504C61.9185 0.916504 61.9185 0.916504 61.9237 0.916504V31.88C61.9237 31.88 61.9237 31.88 61.9185 31.88V0.916504Z" fill="#B5E7A3"/>
<path d="M199.61 32.995L199.615 32.0744L202.719 29.2925C202.97 29.0713 203.14 28.8601 203.229 28.6588C203.321 28.4576 203.367 28.2562 203.367 28.0549C203.367 27.8008 203.311 27.5731 203.199 27.3718C203.087 27.1673 202.932 27.0056 202.734 26.8868C202.536 26.768 202.308 26.7086 202.051 26.7086C201.787 26.7086 201.551 26.7713 201.343 26.8967C201.138 27.0187 200.978 27.1821 200.863 27.3867C200.747 27.5913 200.691 27.8124 200.694 28.05H199.635C199.635 27.588 199.739 27.1837 199.947 26.8373C200.158 26.4875 200.447 26.2152 200.813 26.0205C201.18 25.8225 201.599 25.7235 202.071 25.7235C202.519 25.7235 202.922 25.8258 203.278 26.0304C203.635 26.2317 203.915 26.5089 204.12 26.862C204.328 27.2151 204.432 27.6177 204.432 28.0698C204.432 28.3965 204.389 28.6737 204.303 28.9014C204.217 29.1291 204.089 29.3403 203.917 29.535C203.745 29.7297 203.531 29.9409 203.273 30.1686L200.878 32.307L200.764 32.01H204.432V32.995H199.61ZM207.733 33.1485C207.366 33.1485 207.025 33.0743 206.708 32.9257C206.394 32.7739 206.125 32.566 205.901 32.3021C205.677 32.0347 205.517 31.7278 205.421 31.3813L206.416 31.1141C206.472 31.3253 206.568 31.5084 206.703 31.6635C206.842 31.8186 207.003 31.9391 207.188 32.0248C207.373 32.1073 207.564 32.1486 207.762 32.1486C208.023 32.1486 208.259 32.0859 208.47 31.9605C208.685 31.8351 208.853 31.6668 208.975 31.4556C209.1 31.2444 209.163 31.0118 209.163 30.7577C209.163 30.497 209.099 30.261 208.97 30.0498C208.845 29.8386 208.675 29.6719 208.46 29.5499C208.249 29.4245 208.016 29.3618 207.762 29.3618C207.472 29.3618 207.226 29.4195 207.025 29.535C206.823 29.6505 206.667 29.7842 206.554 29.936L205.654 29.6191L205.871 25.872H209.717V26.8472H206.401L206.822 26.4561L206.648 29.2627L206.446 29.0004C206.634 28.8123 206.858 28.6687 207.119 28.5697C207.379 28.4707 207.638 28.4212 207.896 28.4212C208.338 28.4212 208.732 28.5235 209.079 28.7281C209.429 28.9327 209.704 29.2116 209.906 29.5647C210.107 29.9145 210.208 30.3122 210.208 30.7577C210.208 31.1999 210.094 31.6025 209.866 31.9655C209.638 32.3252 209.336 32.6123 208.96 32.8268C208.584 33.0413 208.175 33.1485 207.733 33.1485ZM212.282 33L211.589 32.307L218.029 25.872L218.722 26.57L212.282 33ZM217.237 33.1485C216.91 33.1485 216.611 33.0693 216.341 32.9109C216.073 32.7492 215.859 32.5347 215.697 32.2674C215.535 31.9968 215.455 31.6965 215.455 31.3665C215.455 31.0431 215.537 30.7461 215.702 30.4755C215.867 30.2049 216.085 29.9888 216.356 29.827C216.626 29.6653 216.92 29.5845 217.237 29.5845C217.563 29.5845 217.862 29.6653 218.133 29.827C218.403 29.9854 218.618 30.1999 218.776 30.4705C218.938 30.7379 219.019 31.0365 219.019 31.3665C219.019 31.6965 218.938 31.9968 218.776 32.2674C218.618 32.5347 218.403 32.7492 218.133 32.9109C217.862 33.0693 217.563 33.1485 217.237 33.1485ZM217.237 32.2525C217.398 32.2525 217.545 32.2129 217.677 32.1337C217.812 32.0513 217.92 31.9424 217.999 31.807C218.081 31.6718 218.123 31.5249 218.123 31.3665C218.123 31.2081 218.081 31.0612 217.999 30.9259C217.92 30.7907 217.812 30.6834 217.677 30.6042C217.545 30.5217 217.398 30.4805 217.237 30.4805C217.078 30.4805 216.931 30.5217 216.796 30.6042C216.664 30.6834 216.557 30.7907 216.474 30.9259C216.395 31.0612 216.356 31.2081 216.356 31.3665C216.356 31.5249 216.395 31.6718 216.474 31.807C216.557 31.9424 216.664 32.0513 216.796 32.1337C216.931 32.2129 217.078 32.2525 217.237 32.2525ZM213.074 29.2875C212.747 29.2875 212.448 29.2083 212.178 29.0499C211.907 28.8882 211.691 28.6737 211.529 28.4064C211.371 28.1358 211.292 27.8355 211.292 27.5055C211.292 27.1821 211.374 26.8851 211.539 26.6145C211.704 26.3439 211.922 26.1277 212.193 25.966C212.463 25.8043 212.757 25.7235 213.074 25.7235C213.4 25.7235 213.697 25.8043 213.965 25.966C214.235 26.1244 214.451 26.339 214.613 26.6096C214.775 26.8769 214.856 27.1755 214.856 27.5055C214.856 27.8355 214.775 28.1358 214.613 28.4064C214.451 28.6737 214.235 28.8882 213.965 29.0499C213.697 29.2083 213.4 29.2875 213.074 29.2875ZM213.074 28.3915C213.232 28.3915 213.379 28.3519 213.514 28.2727C213.65 28.1903 213.757 28.0814 213.836 27.9461C213.918 27.8108 213.96 27.6639 213.96 27.5055C213.96 27.3471 213.918 27.2002 213.836 27.065C213.757 26.9297 213.65 26.8224 213.514 26.7432C213.379 26.6607 213.232 26.6195 213.074 26.6195C212.915 26.6195 212.768 26.6607 212.633 26.7432C212.501 26.8224 212.394 26.9297 212.311 27.065C212.229 27.2002 212.188 27.3471 212.188 27.5055C212.188 27.6639 212.229 27.8108 212.311 27.9461C212.394 28.0814 212.501 28.1903 212.633 28.2727C212.765 28.3519 212.912 28.3915 213.074 28.3915ZM222.286 33V25.872H223.222L225.806 31.2328L228.375 25.872H229.32V32.995H228.34V28.1193L226.039 33H225.568L223.262 28.1193V33H222.286ZM232.217 33.1485C231.821 33.1485 231.489 33.0759 231.222 32.9307C230.955 32.7822 230.752 32.5875 230.613 32.3466C230.478 32.1024 230.41 31.8351 230.41 31.5447C230.41 31.2741 230.458 31.0365 230.554 30.8319C230.65 30.6273 230.791 30.4541 230.98 30.3121C231.168 30.1669 231.399 30.0498 231.673 29.9607C231.91 29.8914 232.179 29.8303 232.479 29.7776C232.78 29.7247 233.095 29.6752 233.425 29.629C233.758 29.5828 234.088 29.5366 234.415 29.4904L234.039 29.6983C234.045 29.2792 233.956 28.9691 233.771 28.7678C233.59 28.5631 233.276 28.4608 232.831 28.4608C232.55 28.4608 232.293 28.5268 232.059 28.6588C231.824 28.7875 231.661 29.002 231.569 29.3023L230.603 29.0053C230.735 28.5466 230.986 28.182 231.356 27.9114C231.729 27.6408 232.224 27.5055 232.841 27.5055C233.319 27.5055 233.735 27.588 234.088 27.753C234.445 27.9147 234.705 28.1721 234.87 28.5252C234.956 28.7001 235.009 28.8849 235.029 29.0796C235.048 29.2743 235.058 29.4838 235.058 29.7083V33H234.143V31.7774L234.321 31.9358C234.1 32.345 233.818 32.6502 233.474 32.8515C233.134 33.0495 232.715 33.1485 232.217 33.1485ZM232.4 32.3021C232.694 32.3021 232.946 32.2509 233.158 32.1486C233.369 32.043 233.539 31.9093 233.667 31.7476C233.796 31.5859 233.88 31.4176 233.92 31.2427C233.976 31.0843 234.007 30.9061 234.014 30.7081C234.024 30.5102 234.029 30.3518 234.029 30.233L234.365 30.3567C234.039 30.4062 233.742 30.4507 233.474 30.4903C233.207 30.5299 232.964 30.5695 232.747 30.6092C232.532 30.6454 232.341 30.69 232.172 30.7428C232.031 30.7923 231.904 30.8517 231.791 30.921C231.682 30.9903 231.595 31.0744 231.529 31.1734C231.466 31.2724 231.435 31.3929 231.435 31.5348C231.435 31.6734 231.47 31.8021 231.539 31.9209C231.608 32.0364 231.714 32.1288 231.856 32.1981C231.998 32.2674 232.179 32.3021 232.4 32.3021ZM240.096 33V30.3716C240.096 30.1636 240.078 29.9508 240.041 29.733C240.008 29.5119 239.942 29.3073 239.843 29.1192C239.748 28.9311 239.611 28.7793 239.432 28.6638C239.258 28.5483 239.028 28.4905 238.744 28.4905C238.56 28.4905 238.385 28.5219 238.22 28.5846C238.055 28.644 237.91 28.7414 237.784 28.8766C237.662 29.0119 237.565 29.1901 237.492 29.4113C237.423 29.6323 237.388 29.9013 237.388 30.2181L236.745 29.9756C236.745 29.4905 236.835 29.0631 237.017 28.6935C237.198 28.3206 237.459 28.0302 237.799 27.8223C238.139 27.6144 238.55 27.5104 239.032 27.5104C239.401 27.5104 239.711 27.5698 239.962 27.6886C240.213 27.8074 240.416 27.9642 240.571 28.1589C240.729 28.3503 240.85 28.5599 240.932 28.7876C241.015 29.0152 241.071 29.238 241.101 29.4558C241.13 29.6736 241.145 29.865 241.145 30.03V33H240.096ZM236.339 33V27.654H237.264V29.1984H237.388V33H236.339ZM244.688 33.1485C244.154 33.1485 243.69 33.0281 243.297 32.7872C242.905 32.5463 242.601 32.2146 242.387 31.7922C242.175 31.3665 242.07 30.8764 242.07 30.3221C242.07 29.7643 242.179 29.2743 242.397 28.8519C242.614 28.4262 242.92 28.0962 243.312 27.8619C243.705 27.6243 244.164 27.5055 244.688 27.5055C245.223 27.5055 245.687 27.626 246.079 27.8668C246.472 28.1077 246.776 28.4394 246.99 28.8618C247.205 29.2842 247.312 29.771 247.312 30.3221C247.312 30.8798 247.203 31.3715 246.985 31.7971C246.771 32.2195 246.467 32.5512 246.074 32.7921C245.682 33.0297 245.22 33.1485 244.688 33.1485ZM244.688 32.1733C245.2 32.1733 245.581 32.0017 245.832 31.6585C246.086 31.312 246.213 30.8666 246.213 30.3221C246.213 29.7643 246.084 29.3188 245.827 28.9855C245.573 28.6489 245.193 28.4806 244.688 28.4806C244.342 28.4806 244.056 28.5598 243.832 28.7182C243.608 28.8733 243.441 29.0895 243.332 29.3667C243.223 29.6406 243.169 29.9591 243.169 30.3221C243.169 30.883 243.297 31.3318 243.555 31.6684C243.812 32.005 244.19 32.1733 244.688 32.1733ZM250.771 33.1485C250.239 33.1485 249.772 33.033 249.37 32.802C248.971 32.5677 248.659 32.2426 248.434 31.8268C248.213 31.4077 248.103 30.9226 248.103 30.3716C248.103 29.7875 248.212 29.2809 248.429 28.8519C248.65 28.4229 248.957 28.0912 249.35 27.857C249.743 27.6227 250.2 27.5055 250.721 27.5055C251.266 27.5055 251.729 27.6326 252.112 27.8867C252.495 28.1375 252.78 28.4955 252.968 28.9608C253.16 29.4261 253.236 29.9789 253.196 30.619H252.162V30.2428C252.155 29.6224 252.036 29.1637 251.805 28.8667C251.578 28.5697 251.229 28.4212 250.761 28.4212C250.243 28.4212 249.853 28.5846 249.593 28.9113C249.332 29.238 249.202 29.7099 249.202 30.327C249.202 30.9144 249.332 31.3698 249.593 31.6932C249.853 32.0133 250.229 32.1733 250.721 32.1733C251.045 32.1733 251.323 32.1007 251.558 31.9555C251.795 31.807 251.98 31.5958 252.112 31.3219L253.127 31.6437C252.919 32.1222 252.604 32.4934 252.181 32.7574C251.759 33.0181 251.289 33.1485 250.771 33.1485ZM248.865 30.619V29.8122H252.681V30.619H248.865ZM254.406 33V25.7235H255.44V33H254.406ZM258.437 33.1485C258.041 33.1485 257.709 33.0759 257.442 32.9307C257.174 32.7822 256.971 32.5875 256.833 32.3466C256.697 32.1024 256.63 31.8351 256.63 31.5447C256.63 31.2741 256.678 31.0365 256.773 30.8319C256.869 30.6273 257.011 30.4541 257.199 30.3121C257.387 30.1669 257.618 30.0498 257.892 29.9607C258.13 29.8914 258.399 29.8303 258.699 29.7776C258.999 29.7247 259.314 29.6752 259.644 29.629C259.978 29.5828 260.308 29.5366 260.634 29.4904L260.258 29.6983C260.265 29.2792 260.176 28.9691 259.991 28.7678C259.809 28.5631 259.496 28.4608 259.05 28.4608C258.77 28.4608 258.512 28.5268 258.278 28.6588C258.044 28.7875 257.88 29.002 257.788 29.3023L256.823 29.0053C256.955 28.5466 257.206 28.182 257.575 27.9114C257.948 27.6408 258.443 27.5055 259.06 27.5055C259.539 27.5055 259.955 27.588 260.308 27.753C260.664 27.9147 260.925 28.1721 261.09 28.5252C261.176 28.7001 261.228 28.8849 261.248 29.0796C261.268 29.2743 261.278 29.4838 261.278 29.7083V33H260.362V31.7774L260.54 31.9358C260.319 32.345 260.037 32.6502 259.694 32.8515C259.354 33.0495 258.935 33.1485 258.437 33.1485ZM258.62 32.3021C258.913 32.3021 259.166 32.2509 259.377 32.1486C259.588 32.043 259.758 31.9093 259.887 31.7476C260.016 31.5859 260.1 31.4176 260.139 31.2427C260.195 31.0843 260.227 30.9061 260.233 30.7081C260.243 30.5102 260.248 30.3518 260.248 30.233L260.585 30.3567C260.258 30.4062 259.961 30.4507 259.694 30.4903C259.427 30.5299 259.184 30.5695 258.966 30.6092C258.752 30.6454 258.56 30.69 258.392 30.7428C258.25 30.7923 258.123 30.8517 258.011 30.921C257.902 30.9903 257.814 31.0744 257.748 31.1734C257.686 31.2724 257.654 31.3929 257.654 31.5348C257.654 31.6734 257.689 31.8021 257.758 31.9209C257.828 32.0364 257.933 32.1288 258.075 32.1981C258.217 32.2674 258.399 32.3021 258.62 32.3021ZM267.52 33.1485C266.807 33.1485 266.2 32.9934 265.699 32.6832C265.197 32.3697 264.812 31.9341 264.545 31.3764C264.281 30.8187 264.149 30.1719 264.149 29.436C264.149 28.7001 264.281 28.0533 264.545 27.4956C264.812 26.9379 265.197 26.5039 265.699 26.1937C266.2 25.8802 266.807 25.7235 267.52 25.7235C268.342 25.7235 269.022 25.9314 269.559 26.3472C270.101 26.763 270.477 27.3224 270.688 28.0253L269.639 28.3074C269.5 27.8091 269.253 27.418 268.896 27.1342C268.543 26.8505 268.084 26.7086 267.52 26.7086C267.015 26.7086 266.594 26.8224 266.258 27.0501C265.921 27.2778 265.667 27.5963 265.496 28.0054C265.327 28.4146 265.243 28.8915 265.243 29.436C265.24 29.9805 265.322 30.4574 265.491 30.8665C265.662 31.2757 265.916 31.5942 266.253 31.8219C266.593 32.0496 267.015 32.1634 267.52 32.1634C268.084 32.1634 268.543 32.0215 268.896 31.7377C269.253 31.4506 269.5 31.0596 269.639 30.5646L270.688 30.8467C270.477 31.5496 270.101 32.109 269.559 32.5248C269.022 32.9406 268.342 33.1485 267.52 33.1485ZM273.287 33.1485C272.891 33.1485 272.559 33.0759 272.292 32.9307C272.024 32.7822 271.821 32.5875 271.683 32.3466C271.547 32.1024 271.48 31.8351 271.48 31.5447C271.48 31.2741 271.528 31.0365 271.623 30.8319C271.719 30.6273 271.861 30.4541 272.049 30.3121C272.237 30.1669 272.468 30.0498 272.742 29.9607C272.98 29.8914 273.249 29.8303 273.549 29.7776C273.849 29.7247 274.164 29.6752 274.494 29.629C274.828 29.5828 275.158 29.5366 275.484 29.4904L275.108 29.6983C275.115 29.2792 275.026 28.9691 274.841 28.7678C274.659 28.5631 274.346 28.4608 273.9 28.4608C273.62 28.4608 273.362 28.5268 273.128 28.6588C272.894 28.7875 272.73 29.002 272.638 29.3023L271.673 29.0053C271.805 28.5466 272.056 28.182 272.425 27.9114C272.798 27.6408 273.293 27.5055 273.91 27.5055C274.389 27.5055 274.805 27.588 275.158 27.753C275.514 27.9147 275.775 28.1721 275.94 28.5252C276.026 28.7001 276.078 28.8849 276.098 29.0796C276.118 29.2743 276.128 29.4838 276.128 29.7083V33H275.212V31.7774L275.39 31.9358C275.169 32.345 274.887 32.6502 274.544 32.8515C274.204 33.0495 273.785 33.1485 273.287 33.1485ZM273.47 32.3021C273.763 32.3021 274.016 32.2509 274.227 32.1486C274.438 32.043 274.608 31.9093 274.737 31.7476C274.866 31.5859 274.95 31.4176 274.989 31.2427C275.045 31.0843 275.077 30.9061 275.083 30.7081C275.093 30.5102 275.098 30.3518 275.098 30.233L275.435 30.3567C275.108 30.4062 274.811 30.4507 274.544 30.4903C274.277 30.5299 274.034 30.5695 273.816 30.6092C273.602 30.6454 273.41 30.69 273.242 30.7428C273.1 30.7923 272.973 30.8517 272.861 30.921C272.752 30.9903 272.664 31.0744 272.598 31.1734C272.536 31.2724 272.504 31.3929 272.504 31.5348C272.504 31.6734 272.539 31.8021 272.608 31.9209C272.678 32.0364 272.783 32.1288 272.925 32.1981C273.067 32.2674 273.249 32.3021 273.47 32.3021ZM283.819 33L283.823 29.6686C283.823 29.2826 283.724 28.9823 283.526 28.7678C283.328 28.5499 283.068 28.441 282.744 28.441C282.546 28.441 282.365 28.4872 282.2 28.5796C282.038 28.6687 281.906 28.804 281.804 28.9855C281.705 29.1637 281.655 29.3882 281.655 29.6588L281.155 29.4063C281.149 29.0301 281.228 28.7001 281.393 28.4163C281.561 28.1325 281.789 27.913 282.076 27.758C282.363 27.5996 282.685 27.5204 283.041 27.5204C283.619 27.5204 284.066 27.6936 284.383 28.0401C284.7 28.3866 284.858 28.847 284.858 29.4211L284.853 33H283.819ZM277.408 33V27.654H278.329V29.1984H278.448V33H277.408ZM280.616 33L280.621 29.6884C280.621 29.299 280.522 28.9938 280.324 28.7727C280.129 28.5516 279.867 28.441 279.537 28.441C279.21 28.441 278.946 28.5532 278.745 28.7776C278.547 29.002 278.448 29.2958 278.448 29.6588L277.953 29.342C277.953 28.9922 278.037 28.6803 278.205 28.4064C278.374 28.1325 278.601 27.9164 278.888 27.758C279.175 27.5996 279.5 27.5204 279.863 27.5204C280.243 27.5204 280.566 27.6012 280.834 27.7629C281.101 27.9213 281.304 28.1441 281.443 28.4311C281.584 28.7183 281.655 29.0516 281.655 29.4311L281.65 33H280.616ZM288.653 33.1485C288.142 33.1485 287.713 33.0248 287.366 32.7772C287.02 32.5264 286.757 32.1882 286.579 31.7625C286.401 31.3368 286.312 30.8567 286.312 30.3221C286.312 29.7875 286.399 29.3073 286.574 28.8816C286.752 28.4559 287.013 28.1209 287.356 27.8767C287.703 27.6293 288.128 27.5055 288.633 27.5055C289.135 27.5055 289.567 27.6293 289.93 27.8767C290.296 28.1209 290.579 28.4559 290.777 28.8816C290.975 29.304 291.074 29.7841 291.074 30.3221C291.074 30.8567 290.975 31.3385 290.777 31.7674C290.582 32.1931 290.303 32.5297 289.94 32.7772C289.58 33.0248 289.151 33.1485 288.653 33.1485ZM286.138 35.376V27.654H287.059V31.5002H287.178V35.376H286.138ZM288.509 32.2129C288.839 32.2129 289.112 32.1288 289.326 31.9605C289.544 31.7922 289.706 31.5662 289.811 31.2824C289.92 30.9953 289.975 30.6752 289.975 30.3221C289.975 29.9723 289.92 29.6555 289.811 29.3716C289.706 29.0878 289.542 28.8618 289.321 28.6935C289.1 28.5252 288.818 28.441 288.475 28.441C288.151 28.441 287.884 28.5202 287.673 28.6787C287.465 28.837 287.31 29.0581 287.208 29.342C287.109 29.6257 287.059 29.9524 287.059 30.3221C287.059 30.6917 287.109 31.0183 287.208 31.3021C287.307 31.586 287.463 31.8087 287.678 31.9704C287.892 32.1321 288.17 32.2129 288.509 32.2129ZM294.538 33.1485C294.006 33.1485 293.539 33.033 293.137 32.802C292.737 32.5677 292.426 32.2426 292.201 31.8268C291.98 31.4077 291.87 30.9226 291.87 30.3716C291.87 29.7875 291.978 29.2809 292.196 28.8519C292.417 28.4229 292.724 28.0912 293.117 27.857C293.51 27.6227 293.967 27.5055 294.488 27.5055C295.033 27.5055 295.496 27.6326 295.879 27.8867C296.262 28.1375 296.547 28.4955 296.735 28.9608C296.927 29.4261 297.003 29.9789 296.963 30.619H295.929V30.2428C295.922 29.6224 295.803 29.1637 295.572 28.8667C295.344 28.5697 294.996 28.4212 294.528 28.4212C294.01 28.4212 293.62 28.5846 293.359 28.9113C293.099 29.238 292.968 29.7099 292.968 30.327C292.968 30.9144 293.099 31.3698 293.359 31.6932C293.62 32.0133 293.996 32.1733 294.488 32.1733C294.811 32.1733 295.09 32.1007 295.325 31.9555C295.562 31.807 295.747 31.5958 295.879 31.3219L296.894 31.6437C296.686 32.1222 296.371 32.4934 295.948 32.7574C295.526 33.0181 295.056 33.1485 294.538 33.1485ZM292.632 30.619V29.8122H296.448V30.619H292.632ZM300.118 33.1435C299.468 33.1435 298.938 33 298.529 32.7129C298.12 32.4258 297.869 32.0215 297.777 31.5002L298.836 31.3368C298.902 31.614 299.054 31.8335 299.291 31.9951C299.532 32.1536 299.831 32.2328 300.187 32.2328C300.511 32.2328 300.763 32.1668 300.945 32.0347C301.129 31.9027 301.222 31.7212 301.222 31.4903C301.222 31.3549 301.189 31.246 301.123 31.1635C301.06 31.0777 300.927 30.9969 300.722 30.921C300.517 30.8451 300.205 30.751 299.786 30.6388C299.328 30.5201 298.963 30.393 298.692 30.2577C298.425 30.1191 298.234 29.9591 298.118 29.7776C298.006 29.5928 297.95 29.37 297.95 29.1093C297.95 28.7859 298.036 28.5037 298.207 28.2629C298.379 28.0219 298.62 27.8355 298.93 27.7035C299.244 27.5715 299.61 27.5055 300.029 27.5055C300.438 27.5055 300.803 27.5698 301.123 27.6985C301.443 27.8272 301.702 28.0104 301.9 28.248C302.098 28.4823 302.217 28.7578 302.256 29.0746L301.197 29.2677C301.161 29.0103 301.04 28.8074 300.836 28.6588C300.631 28.5103 300.366 28.4295 300.039 28.4163C299.725 28.4031 299.471 28.4559 299.277 28.5747C299.082 28.6902 298.984 28.8502 298.984 29.0548C298.984 29.1736 299.021 29.2743 299.093 29.3568C299.169 29.4393 299.314 29.5185 299.529 29.5944C299.743 29.6703 300.06 29.7611 300.479 29.8667C300.928 29.9821 301.285 30.1108 301.549 30.2528C301.813 30.3914 302.001 30.558 302.113 30.7527C302.228 30.9441 302.286 31.1767 302.286 31.4506C302.286 31.9786 302.093 32.3928 301.707 32.6931C301.324 32.9934 300.795 33.1435 300.118 33.1435ZM306.44 33C306.104 33.066 305.774 33.0941 305.45 33.0842C305.127 33.0743 304.838 33.0115 304.584 32.896C304.33 32.7806 304.139 32.599 304.01 32.3515C303.895 32.1304 303.832 31.906 303.822 31.6783C303.815 31.4473 303.812 31.1867 303.812 30.8963V26.169H304.852V30.8467C304.852 31.0613 304.853 31.2477 304.856 31.4061C304.863 31.5645 304.898 31.6981 304.96 31.807C305.079 32.0117 305.267 32.1288 305.525 32.1585C305.785 32.1849 306.091 32.1734 306.44 32.1239V33ZM302.787 28.4856V27.654H306.44V28.4856H302.787ZM307.568 33V27.654H308.488V28.9509L308.36 28.7826C308.426 28.611 308.511 28.4542 308.617 28.3124C308.723 28.1671 308.845 28.0483 308.983 27.9559C309.119 27.857 309.269 27.7811 309.434 27.7282C309.602 27.6722 309.774 27.6392 309.949 27.6293C310.123 27.616 310.292 27.6243 310.453 27.654V28.6242C310.279 28.578 310.084 28.5648 309.869 28.5846C309.658 28.6044 309.463 28.6721 309.285 28.7876C309.117 28.8965 308.983 29.0285 308.884 29.1836C308.789 29.3386 308.719 29.5119 308.676 29.7033C308.634 29.8914 308.612 30.091 308.612 30.3023V33H307.568ZM311.495 26.7778V25.773H312.53V26.7778H311.495ZM311.495 33V27.654H312.53V33H311.495ZM317.768 33V30.3716C317.768 30.1636 317.75 29.9508 317.714 29.733C317.681 29.5119 317.615 29.3073 317.516 29.1192C317.42 28.9311 317.283 28.7793 317.105 28.6638C316.93 28.5483 316.701 28.4905 316.417 28.4905C316.232 28.4905 316.057 28.5219 315.892 28.5846C315.727 28.644 315.582 28.7414 315.457 28.8766C315.334 29.0119 315.237 29.1901 315.165 29.4113C315.095 29.6323 315.061 29.9013 315.061 30.2181L314.417 29.9756C314.417 29.4905 314.508 29.0631 314.689 28.6935C314.871 28.3206 315.132 28.0302 315.471 27.8223C315.811 27.6144 316.222 27.5104 316.704 27.5104C317.074 27.5104 317.384 27.5698 317.635 27.6886C317.885 27.8074 318.088 27.9642 318.243 28.1589C318.402 28.3503 318.522 28.5599 318.605 28.7876C318.687 29.0152 318.743 29.238 318.773 29.4558C318.803 29.6736 318.818 29.865 318.818 30.03V33H317.768ZM314.011 33V27.654H314.937V29.1984H315.061V33H314.011ZM320.206 26.7778V25.773H321.241V26.7778H320.206ZM320.206 33V27.654H321.241V33H320.206Z" fill="black"/>
<path d="M202.409 55.1485C201.944 55.1485 201.531 55.0561 201.172 54.8713C200.815 54.6832 200.535 54.4225 200.33 54.0892C200.129 53.7559 200.028 53.3698 200.028 52.9309C200.028 52.5217 200.124 52.1471 200.315 51.8072C200.507 51.4673 200.792 51.2 201.172 51.0053L201.152 51.3618C200.848 51.1736 200.614 50.9393 200.449 50.6588C200.287 50.375 200.206 50.0582 200.206 49.7085C200.206 49.3026 200.301 48.9511 200.489 48.6541C200.677 48.3571 200.936 48.1277 201.266 47.966C201.599 47.8043 201.98 47.7235 202.409 47.7235C202.838 47.7235 203.218 47.8043 203.548 47.966C203.878 48.1277 204.137 48.3571 204.325 48.6541C204.513 48.9511 204.607 49.3026 204.607 49.7085C204.607 50.0582 204.529 50.3734 204.374 50.6539C204.219 50.9344 203.982 51.1703 203.662 51.3618L203.647 51.0152C204.023 51.2 204.308 51.4641 204.503 51.8072C204.698 52.1471 204.795 52.5217 204.795 52.9309C204.795 53.3698 204.693 53.7559 204.488 54.0892C204.284 54.4225 204.001 54.6832 203.642 54.8713C203.282 55.0561 202.871 55.1485 202.409 55.1485ZM202.409 54.1634C202.792 54.1634 203.102 54.0595 203.34 53.8516C203.577 53.6404 203.696 53.3335 203.696 52.9309C203.696 52.5283 203.577 52.2214 203.34 52.0102C203.106 51.7957 202.795 51.6884 202.409 51.6884C202.023 51.6884 201.711 51.7957 201.474 52.0102C201.239 52.2214 201.122 52.5283 201.122 52.9309C201.122 53.3335 201.241 53.6404 201.479 53.8516C201.716 54.0595 202.026 54.1634 202.409 54.1634ZM202.409 50.6985C202.736 50.6985 203 50.6176 203.201 50.4559C203.406 50.2909 203.508 50.0418 203.508 49.7085C203.508 49.3751 203.406 49.126 203.201 48.961C203 48.7927 202.736 48.7086 202.409 48.7086C202.083 48.7086 201.817 48.7927 201.612 48.961C201.408 49.126 201.305 49.3751 201.305 49.7085C201.305 50.0418 201.408 50.2909 201.612 50.4559C201.817 50.6176 202.083 50.6985 202.409 50.6985ZM206.974 55L206.281 54.307L212.721 47.872L213.414 48.57L206.974 55ZM211.929 55.1485C211.602 55.1485 211.303 55.0693 211.033 54.9109C210.765 54.7492 210.551 54.5347 210.389 54.2674C210.228 53.9968 210.147 53.6965 210.147 53.3665C210.147 53.0431 210.229 52.7461 210.394 52.4755C210.559 52.2049 210.777 51.9888 211.048 51.827C211.318 51.6653 211.612 51.5845 211.929 51.5845C212.255 51.5845 212.554 51.6653 212.825 51.827C213.095 51.9854 213.31 52.1999 213.468 52.4705C213.63 52.7379 213.711 53.0365 213.711 53.3665C213.711 53.6965 213.63 53.9968 213.468 54.2674C213.31 54.5347 213.095 54.7492 212.825 54.9109C212.554 55.0693 212.255 55.1485 211.929 55.1485ZM211.929 54.2525C212.09 54.2525 212.237 54.2129 212.369 54.1337C212.505 54.0513 212.612 53.9424 212.691 53.807C212.773 53.6718 212.815 53.5249 212.815 53.3665C212.815 53.2081 212.773 53.0612 212.691 52.9259C212.612 52.7907 212.505 52.6834 212.369 52.6042C212.237 52.5217 212.09 52.4805 211.929 52.4805C211.77 52.4805 211.623 52.5217 211.488 52.6042C211.356 52.6834 211.249 52.7907 211.166 52.9259C211.087 53.0612 211.048 53.2081 211.048 53.3665C211.048 53.5249 211.087 53.6718 211.166 53.807C211.249 53.9424 211.356 54.0513 211.488 54.1337C211.623 54.2129 211.77 54.2525 211.929 54.2525ZM207.766 51.2875C207.439 51.2875 207.14 51.2083 206.87 51.0499C206.599 50.8882 206.383 50.6737 206.221 50.4064C206.063 50.1358 205.984 49.8355 205.984 49.5055C205.984 49.1821 206.066 48.8851 206.231 48.6145C206.396 48.3439 206.614 48.1277 206.885 47.966C207.155 47.8043 207.449 47.7235 207.766 47.7235C208.092 47.7235 208.389 47.8043 208.657 47.966C208.927 48.1244 209.143 48.339 209.305 48.6096C209.467 48.8769 209.548 49.1755 209.548 49.5055C209.548 49.8355 209.467 50.1358 209.305 50.4064C209.143 50.6737 208.927 50.8882 208.657 51.0499C208.389 51.2083 208.092 51.2875 207.766 51.2875ZM207.766 50.3915C207.924 50.3915 208.071 50.3519 208.206 50.2727C208.342 50.1903 208.449 50.0814 208.528 49.9461C208.611 49.8108 208.652 49.6639 208.652 49.5055C208.652 49.3471 208.611 49.2002 208.528 49.065C208.449 48.9297 208.342 48.8224 208.206 48.7432C208.071 48.6607 207.924 48.6195 207.766 48.6195C207.607 48.6195 207.46 48.6607 207.325 48.7432C207.193 48.8224 207.086 48.9297 207.003 49.065C206.921 49.2002 206.88 49.3471 206.88 49.5055C206.88 49.6639 206.921 49.8108 207.003 49.9461C207.086 50.0814 207.193 50.1903 207.325 50.2727C207.457 50.3519 207.604 50.3915 207.766 50.3915ZM216.484 55L218.8 47.872H220.29L222.607 55H221.533L219.399 48.4957H219.666L217.558 55H216.484ZM217.686 53.3912V52.421H221.409V53.3912H217.686ZM227.247 55V52.3716C227.247 52.1636 227.229 51.9508 227.192 51.733C227.159 51.5119 227.093 51.3073 226.994 51.1192C226.899 50.9311 226.762 50.7793 226.584 50.6638C226.409 50.5483 226.179 50.4905 225.896 50.4905C225.711 50.4905 225.536 50.5219 225.371 50.5846C225.206 50.644 225.061 50.7414 224.935 50.8766C224.813 51.0119 224.716 51.1901 224.643 51.4113C224.574 51.6323 224.539 51.9013 224.539 52.2181L223.896 51.9756C223.896 51.4905 223.986 51.0631 224.168 50.6935C224.349 50.3206 224.61 50.0302 224.95 49.8223C225.29 49.6144 225.701 49.5104 226.183 49.5104C226.552 49.5104 226.862 49.5698 227.113 49.6886C227.364 49.8074 227.567 49.9642 227.722 50.1589C227.88 50.3503 228.001 50.5599 228.083 50.7876C228.166 51.0152 228.222 51.238 228.252 51.4558C228.281 51.6736 228.296 51.865 228.296 52.03V55H227.247ZM223.49 55V49.654H224.415V51.1984H224.539V55H223.49ZM232.645 55C232.308 55.066 231.978 55.0941 231.655 55.0842C231.331 55.0743 231.043 55.0115 230.788 54.896C230.534 54.7806 230.343 54.599 230.214 54.3515C230.099 54.1304 230.036 53.906 230.026 53.6783C230.02 53.4473 230.016 53.1867 230.016 52.8963V48.169H231.056V52.8467C231.056 53.0613 231.057 53.2477 231.061 53.4061C231.067 53.5645 231.102 53.6981 231.165 53.807C231.283 54.0117 231.472 54.1288 231.729 54.1585C231.99 54.1849 232.295 54.1734 232.645 54.1239V55ZM228.992 50.4856V49.654H232.645V50.4856H228.992ZM234.119 48.862L235.396 47.377H236.287L237.569 48.862H236.579L235.842 47.9858L235.109 48.862H234.119ZM235.852 55.1485C235.317 55.1485 234.853 55.0281 234.461 54.7872C234.068 54.5463 233.764 54.2146 233.55 53.7922C233.339 53.3665 233.233 52.8764 233.233 52.3221C233.233 51.7643 233.342 51.2743 233.56 50.8519C233.778 50.4262 234.083 50.0962 234.476 49.8619C234.868 49.6243 235.327 49.5055 235.852 49.5055C236.386 49.5055 236.85 49.626 237.243 49.8668C237.635 50.1077 237.939 50.4394 238.153 50.8618C238.368 51.2842 238.475 51.771 238.475 52.3221C238.475 52.8798 238.366 53.3715 238.148 53.7971C237.934 54.2195 237.63 54.5512 237.238 54.7921C236.845 55.0297 236.383 55.1485 235.852 55.1485ZM235.852 54.1733C236.363 54.1733 236.744 54.0017 236.995 53.6585C237.249 53.312 237.376 52.8666 237.376 52.3221C237.376 51.7643 237.248 51.3188 236.99 50.9855C236.736 50.6489 236.357 50.4806 235.852 50.4806C235.505 50.4806 235.22 50.5598 234.995 50.7182C234.771 50.8733 234.604 51.0895 234.495 51.3667C234.386 51.6406 234.332 51.9591 234.332 52.3221C234.332 52.883 234.461 53.3318 234.718 53.6684C234.976 54.005 235.353 54.1733 235.852 54.1733ZM243.315 55V52.3716C243.315 52.1636 243.297 51.9508 243.261 51.733C243.228 51.5119 243.162 51.3073 243.063 51.1192C242.967 50.9311 242.83 50.7793 242.652 50.6638C242.477 50.5483 242.247 50.4905 241.964 50.4905C241.779 50.4905 241.604 50.5219 241.439 50.5846C241.274 50.644 241.129 50.7414 241.003 50.8766C240.881 51.0119 240.784 51.1901 240.711 51.4113C240.642 51.6323 240.607 51.9013 240.607 52.2181L239.964 51.9756C239.964 51.4905 240.055 51.0631 240.236 50.6935C240.418 50.3206 240.678 50.0302 241.018 49.8223C241.358 49.6144 241.769 49.5104 242.251 49.5104C242.62 49.5104 242.931 49.5698 243.181 49.6886C243.432 49.8074 243.635 49.9642 243.79 50.1589C243.949 50.3503 244.069 50.5599 244.152 50.7876C244.234 51.0152 244.29 51.238 244.32 51.4558C244.35 51.6736 244.364 51.865 244.364 52.03V55H243.315ZM239.558 55V49.654H240.484V51.1984H240.607V55H239.558ZM245.753 48.7778V47.773H246.787V48.7778H245.753ZM245.753 55V49.654H246.787V55H245.753ZM249.784 55.1485C249.388 55.1485 249.056 55.0759 248.789 54.9307C248.521 54.7822 248.318 54.5875 248.18 54.3466C248.044 54.1024 247.977 53.8351 247.977 53.5447C247.977 53.2741 248.025 53.0365 248.12 52.8319C248.216 52.6273 248.358 52.4541 248.546 52.3121C248.734 52.1669 248.965 52.0498 249.239 51.9607C249.477 51.8914 249.746 51.8303 250.046 51.7776C250.346 51.7247 250.661 51.6752 250.991 51.629C251.325 51.5828 251.655 51.5366 251.981 51.4904L251.605 51.6983C251.612 51.2792 251.523 50.9691 251.338 50.7678C251.156 50.5631 250.843 50.4608 250.397 50.4608C250.117 50.4608 249.859 50.5268 249.625 50.6588C249.391 50.7875 249.227 51.002 249.135 51.3023L248.17 51.0053C248.302 50.5466 248.553 50.182 248.922 49.9114C249.295 49.6408 249.79 49.5055 250.407 49.5055C250.886 49.5055 251.302 49.588 251.655 49.753C252.011 49.9147 252.272 50.1721 252.437 50.5252C252.523 50.7001 252.575 50.8849 252.595 51.0796C252.615 51.2743 252.625 51.4838 252.625 51.7083V55H251.709V53.7774L251.887 53.9358C251.666 54.345 251.384 54.6502 251.041 54.8515C250.701 55.0495 250.282 55.1485 249.784 55.1485ZM249.967 54.3021C250.26 54.3021 250.513 54.2509 250.724 54.1486C250.935 54.043 251.105 53.9093 251.234 53.7476C251.363 53.5859 251.447 53.4176 251.486 53.2427C251.542 53.0843 251.574 52.9061 251.58 52.7081C251.59 52.5102 251.595 52.3518 251.595 52.233L251.932 52.3567C251.605 52.4062 251.308 52.4507 251.041 52.4903C250.774 52.5299 250.531 52.5695 250.313 52.6092C250.099 52.6454 249.907 52.69 249.739 52.7428C249.597 52.7923 249.47 52.8517 249.358 52.921C249.249 52.9903 249.161 53.0744 249.095 53.1734C249.033 53.2724 249.001 53.3929 249.001 53.5348C249.001 53.6734 249.036 53.8021 249.105 53.9209C249.175 54.0364 249.28 54.1288 249.422 54.1981C249.564 54.2674 249.746 54.3021 249.967 54.3021ZM257.565 55L255.249 47.872H256.323L258.298 53.9555L260.298 47.872H261.372L259.055 55H257.565ZM263.183 55.1485C262.787 55.1485 262.456 55.0759 262.188 54.9307C261.921 54.7822 261.718 54.5875 261.58 54.3466C261.444 54.1024 261.377 53.8351 261.377 53.5447C261.377 53.2741 261.424 53.0365 261.52 52.8319C261.616 52.6273 261.758 52.4541 261.946 52.3121C262.134 52.1669 262.365 52.0498 262.639 51.9607C262.876 51.8914 263.145 51.8303 263.446 51.7776C263.746 51.7247 264.061 51.6752 264.391 51.629C264.724 51.5828 265.054 51.5366 265.381 51.4904L265.005 51.6983C265.012 51.2792 264.922 50.9691 264.738 50.7678C264.556 50.5631 264.243 50.4608 263.797 50.4608C263.517 50.4608 263.259 50.5268 263.025 50.6588C262.791 50.7875 262.627 51.002 262.535 51.3023L261.57 51.0053C261.702 50.5466 261.952 50.182 262.322 49.9114C262.695 49.6408 263.19 49.5055 263.807 49.5055C264.286 49.5055 264.701 49.588 265.054 49.753C265.411 49.9147 265.672 50.1721 265.837 50.5252C265.922 50.7001 265.975 50.8849 265.995 51.0796C266.015 51.2743 266.025 51.4838 266.025 51.7083V55H265.109V53.7774L265.287 53.9358C265.066 54.345 264.784 54.6502 264.441 54.8515C264.101 55.0495 263.682 55.1485 263.183 55.1485ZM263.366 54.3021C263.66 54.3021 263.913 54.2509 264.124 54.1486C264.335 54.043 264.505 53.9093 264.634 53.7476C264.762 53.5859 264.847 53.4176 264.886 53.2427C264.942 53.0843 264.974 52.9061 264.98 52.7081C264.99 52.5102 264.995 52.3518 264.995 52.233L265.332 52.3567C265.005 52.4062 264.708 52.4507 264.441 52.4903C264.173 52.5299 263.931 52.5695 263.713 52.6092C263.498 52.6454 263.307 52.69 263.139 52.7428C262.997 52.7923 262.87 52.8517 262.758 52.921C262.649 52.9903 262.561 53.0744 262.495 53.1734C262.433 53.2724 262.401 53.3929 262.401 53.5348C262.401 53.6734 262.436 53.8021 262.505 53.9209C262.574 54.0364 262.68 54.1288 262.822 54.1981C262.964 54.2674 263.145 54.3021 263.366 54.3021ZM269.354 55.1435C268.704 55.1435 268.175 55 267.765 54.7129C267.356 54.4258 267.105 54.0215 267.013 53.5002L268.072 53.3368C268.138 53.614 268.29 53.8335 268.528 53.9951C268.769 54.1536 269.067 54.2328 269.424 54.2328C269.747 54.2328 269.999 54.1668 270.181 54.0347C270.366 53.9027 270.458 53.7212 270.458 53.4903C270.458 53.3549 270.425 53.246 270.359 53.1635C270.296 53.0777 270.163 52.9969 269.958 52.921C269.754 52.8451 269.442 52.751 269.023 52.6388C268.564 52.5201 268.199 52.393 267.929 52.2577C267.661 52.1191 267.47 51.9591 267.355 51.7776C267.242 51.5928 267.186 51.37 267.186 51.1093C267.186 50.7859 267.272 50.5037 267.444 50.2629C267.615 50.0219 267.856 49.8355 268.166 49.7035C268.48 49.5715 268.846 49.5055 269.265 49.5055C269.674 49.5055 270.039 49.5698 270.359 49.6985C270.679 49.8272 270.938 50.0104 271.136 50.248C271.334 50.4823 271.453 50.7578 271.493 51.0746L270.433 51.2677C270.397 51.0103 270.277 50.8074 270.072 50.6588C269.867 50.5103 269.602 50.4295 269.275 50.4163C268.962 50.4031 268.708 50.4559 268.513 50.5747C268.318 50.6902 268.221 50.8502 268.221 51.0548C268.221 51.1736 268.257 51.2743 268.33 51.3568C268.406 51.4393 268.551 51.5185 268.765 51.5944C268.98 51.6703 269.297 51.7611 269.716 51.8667C270.164 51.9821 270.521 52.1108 270.785 52.2528C271.049 52.3914 271.237 52.558 271.349 52.7527C271.465 52.9441 271.522 53.1767 271.522 53.4506C271.522 53.9786 271.329 54.3928 270.943 54.6931C270.56 54.9934 270.031 55.1435 269.354 55.1435ZM274.905 55.1485C274.357 55.1485 273.892 55.0264 273.509 54.7822C273.126 54.538 272.832 54.203 272.628 53.7774C272.426 53.3516 272.324 52.8682 272.321 52.327C272.324 51.7759 272.43 51.2892 272.638 50.8667C272.845 50.441 273.142 50.1077 273.529 49.8668C273.915 49.626 274.378 49.5055 274.919 49.5055C275.504 49.5055 276.002 49.6507 276.414 49.9411C276.83 50.2315 277.104 50.6292 277.236 51.1341L276.206 51.4311C276.104 51.1308 275.936 50.8981 275.702 50.7331C275.471 50.5648 275.205 50.4806 274.905 50.4806C274.565 50.4806 274.286 50.5615 274.068 50.7232C273.85 50.8816 273.689 51.0994 273.583 51.3766C273.477 51.6538 273.423 51.9706 273.42 52.327C273.423 52.8781 273.548 53.3236 273.796 53.6635C274.047 54.0034 274.416 54.1733 274.905 54.1733C275.238 54.1733 275.507 54.0974 275.711 53.9456C275.919 53.7905 276.078 53.5694 276.187 53.2824L277.236 53.5298C277.061 54.0512 276.772 54.4522 276.37 54.7327C275.967 55.0099 275.479 55.1485 274.905 55.1485ZM280.421 55.1485C279.886 55.1485 279.423 55.0281 279.03 54.7872C278.637 54.5463 278.334 54.2146 278.119 53.7922C277.908 53.3665 277.802 52.8764 277.802 52.3221C277.802 51.7643 277.911 51.2743 278.129 50.8519C278.347 50.4262 278.652 50.0962 279.045 49.8619C279.438 49.6243 279.896 49.5055 280.421 49.5055C280.956 49.5055 281.419 49.626 281.812 49.8668C282.205 50.1077 282.508 50.4394 282.723 50.8618C282.937 51.2842 283.044 51.771 283.044 52.3221C283.044 52.8798 282.936 53.3715 282.718 53.7971C282.503 54.2195 282.2 54.5512 281.807 54.7921C281.414 55.0297 280.952 55.1485 280.421 55.1485ZM280.421 54.1733C280.932 54.1733 281.314 54.0017 281.564 53.6585C281.819 53.312 281.946 52.8666 281.946 52.3221C281.946 51.7643 281.817 51.3188 281.559 50.9855C281.305 50.6489 280.926 50.4806 280.421 50.4806C280.074 50.4806 279.789 50.5598 279.565 50.7182C279.34 50.8733 279.174 51.0895 279.065 51.3667C278.956 51.6406 278.901 51.9591 278.901 52.3221C278.901 52.883 279.03 53.3318 279.287 53.6684C279.545 54.005 279.923 54.1733 280.421 54.1733ZM287.884 55V52.3716C287.884 52.1636 287.866 51.9508 287.83 51.733C287.797 51.5119 287.731 51.3073 287.632 51.1192C287.536 50.9311 287.399 50.7793 287.221 50.6638C287.046 50.5483 286.817 50.4905 286.533 50.4905C286.348 50.4905 286.173 50.5219 286.008 50.5846C285.843 50.644 285.698 50.7414 285.573 50.8766C285.451 51.0119 285.353 51.1901 285.281 51.4113C285.211 51.6323 285.177 51.9013 285.177 52.2181L284.533 51.9756C284.533 51.4905 284.624 51.0631 284.805 50.6935C284.987 50.3206 285.248 50.0302 285.588 49.8223C285.927 49.6144 286.338 49.5104 286.82 49.5104C287.19 49.5104 287.5 49.5698 287.751 49.6886C288.002 49.8074 288.204 49.9642 288.36 50.1589C288.518 50.3503 288.638 50.5599 288.721 50.7876C288.803 51.0152 288.86 51.238 288.889 51.4558C288.919 51.6736 288.934 51.865 288.934 52.03V55H287.884ZM284.127 55V49.654H285.053V51.1984H285.177V55H284.127ZM292.442 55.1485C291.895 55.1485 291.429 55.0264 291.046 54.7822C290.664 54.538 290.37 54.203 290.165 53.7774C289.964 53.3516 289.862 52.8682 289.858 52.327C289.862 51.7759 289.967 51.2892 290.175 50.8667C290.383 50.441 290.68 50.1077 291.066 49.8668C291.452 49.626 291.916 49.5055 292.457 49.5055C293.041 49.5055 293.54 49.6507 293.952 49.9411C294.368 50.2315 294.642 50.6292 294.774 51.1341L293.744 51.4311C293.642 51.1308 293.474 50.8981 293.239 50.7331C293.008 50.5648 292.743 50.4806 292.442 50.4806C292.102 50.4806 291.824 50.5615 291.606 50.7232C291.388 50.8816 291.226 51.0994 291.121 51.3766C291.015 51.6538 290.961 51.9706 290.957 52.327C290.961 52.8781 291.086 53.3236 291.334 53.6635C291.584 54.0034 291.954 54.1733 292.442 54.1733C292.776 54.1733 293.045 54.0974 293.249 53.9456C293.457 53.7905 293.615 53.5694 293.724 53.2824L294.774 53.5298C294.599 54.0512 294.31 54.4522 293.908 54.7327C293.505 55.0099 293.017 55.1485 292.442 55.1485ZM298.008 55.1485C297.477 55.1485 297.01 55.033 296.607 54.802C296.208 54.5677 295.896 54.2426 295.672 53.8268C295.451 53.4077 295.34 52.9226 295.34 52.3716C295.34 51.7875 295.449 51.2809 295.667 50.8519C295.888 50.4229 296.195 50.0912 296.588 49.857C296.98 49.6227 297.437 49.5055 297.959 49.5055C298.503 49.5055 298.967 49.6326 299.35 49.8867C299.732 50.1375 300.018 50.4955 300.206 50.9608C300.397 51.4261 300.473 51.9789 300.434 52.619H299.399V52.2428C299.393 51.6224 299.274 51.1637 299.043 50.8667C298.815 50.5697 298.467 50.4212 297.998 50.4212C297.48 50.4212 297.091 50.5846 296.83 50.9113C296.569 51.238 296.439 51.7099 296.439 52.327C296.439 52.9144 296.569 53.3698 296.83 53.6932C297.091 54.0133 297.467 54.1733 297.959 54.1733C298.282 54.1733 298.561 54.1007 298.795 53.9555C299.033 53.807 299.218 53.5958 299.35 53.3219L300.364 53.6437C300.156 54.1222 299.841 54.4934 299.419 54.7574C298.997 55.0181 298.526 55.1485 298.008 55.1485ZM296.102 52.619V51.8122H299.919V52.619H296.102ZM301.643 55V47.7235H302.678V55H301.643ZM306.486 55.1485C305.951 55.1485 305.488 55.0281 305.095 54.7872C304.702 54.5463 304.399 54.2146 304.184 53.7922C303.973 53.3665 303.867 52.8764 303.867 52.3221C303.867 51.7643 303.976 51.2743 304.194 50.8519C304.412 50.4262 304.717 50.0962 305.11 49.8619C305.502 49.6243 305.961 49.5055 306.486 49.5055C307.02 49.5055 307.484 49.626 307.877 49.8668C308.269 50.1077 308.573 50.4394 308.788 50.8618C309.002 51.2842 309.109 51.771 309.109 52.3221C309.109 52.8798 309 53.3715 308.783 53.7971C308.568 54.2195 308.265 54.5512 307.872 54.7921C307.479 55.0297 307.017 55.1485 306.486 55.1485ZM306.486 54.1733C306.997 54.1733 307.378 54.0017 307.629 53.6585C307.883 53.312 308.01 52.8666 308.01 52.3221C308.01 51.7643 307.882 51.3188 307.624 50.9855C307.37 50.6489 306.991 50.4806 306.486 50.4806C306.139 50.4806 305.854 50.5598 305.629 50.7182C305.405 50.8733 305.238 51.0895 305.13 51.3667C305.021 51.6406 304.966 51.9591 304.966 52.3221C304.966 52.883 305.095 53.3318 305.352 53.6684C305.61 54.005 305.988 54.1733 306.486 54.1733ZM312.145 55.1435C311.495 55.1435 310.965 55 310.556 54.7129C310.147 54.4258 309.896 54.0215 309.803 53.5002L310.863 53.3368C310.929 53.614 311.081 53.8335 311.318 53.9951C311.559 54.1536 311.858 54.2328 312.214 54.2328C312.537 54.2328 312.79 54.1668 312.971 54.0347C313.156 53.9027 313.249 53.7212 313.249 53.4903C313.249 53.3549 313.216 53.246 313.15 53.1635C313.087 53.0777 312.953 52.9969 312.749 52.921C312.544 52.8451 312.232 52.751 311.813 52.6388C311.354 52.5201 310.99 52.393 310.719 52.2577C310.452 52.1191 310.26 51.9591 310.145 51.7776C310.033 51.5928 309.977 51.37 309.977 51.1093C309.977 50.7859 310.062 50.5037 310.234 50.2629C310.406 50.0219 310.647 49.8355 310.957 49.7035C311.27 49.5715 311.637 49.5055 312.056 49.5055C312.465 49.5055 312.83 49.5698 313.15 49.6985C313.47 49.8272 313.729 50.0104 313.927 50.248C314.125 50.4823 314.244 50.7578 314.283 51.0746L313.224 51.2677C313.188 51.0103 313.067 50.8074 312.863 50.6588C312.658 50.5103 312.392 50.4295 312.066 50.4163C311.752 50.4031 311.498 50.4559 311.303 50.5747C311.109 50.6902 311.011 50.8502 311.011 51.0548C311.011 51.1736 311.048 51.2743 311.12 51.3568C311.196 51.4393 311.341 51.5185 311.556 51.5944C311.77 51.6703 312.087 51.7611 312.506 51.8667C312.955 51.9821 313.311 52.1108 313.575 52.2528C313.839 52.3914 314.027 52.558 314.14 52.7527C314.255 52.9441 314.313 53.1767 314.313 53.4506C314.313 53.9786 314.12 54.3928 313.734 54.6931C313.351 54.9934 312.821 55.1435 312.145 55.1435Z" fill="black"/>
<path d="M201.278 77V71.0105L199.937 71.8272V70.6739L201.278 69.872H202.332V77H201.278ZM204.014 76.995L204.019 76.0744L207.123 73.2925C207.373 73.0713 207.543 72.8601 207.633 72.6588C207.725 72.4576 207.771 72.2562 207.771 72.0549C207.771 71.8008 207.715 71.5731 207.603 71.3718C207.491 71.1673 207.336 71.0056 207.138 70.8868C206.94 70.768 206.712 70.7086 206.454 70.7086C206.19 70.7086 205.954 70.7713 205.747 70.8967C205.542 71.0187 205.382 71.1821 205.266 71.3867C205.151 71.5913 205.095 71.8124 205.098 72.05H204.039C204.039 71.588 204.143 71.1837 204.351 70.8373C204.562 70.4875 204.851 70.2152 205.217 70.0205C205.583 69.8225 206.002 69.7235 206.474 69.7235C206.923 69.7235 207.326 69.8258 207.682 70.0304C208.038 70.2317 208.319 70.5089 208.524 70.862C208.731 71.2151 208.835 71.6177 208.835 72.0698C208.835 72.3965 208.792 72.6737 208.707 72.9014C208.621 73.1291 208.492 73.3403 208.321 73.535C208.149 73.7297 207.934 73.9409 207.677 74.1686L205.281 76.307L205.167 76.01H208.835V76.995H204.014ZM210.914 77L210.221 76.307L216.66 69.872L217.353 70.57L210.914 77ZM215.868 77.1485C215.542 77.1485 215.243 77.0693 214.973 76.9109C214.705 76.7492 214.491 76.5347 214.329 76.2674C214.167 75.9968 214.086 75.6965 214.086 75.3665C214.086 75.0431 214.169 74.7461 214.334 74.4755C214.499 74.2049 214.717 73.9888 214.987 73.827C215.258 73.6653 215.552 73.5845 215.868 73.5845C216.195 73.5845 216.494 73.6653 216.764 73.827C217.035 73.9854 217.25 74.1999 217.408 74.4705C217.57 74.7379 217.65 75.0365 217.65 75.3665C217.65 75.6965 217.57 75.9968 217.408 76.2674C217.25 76.5347 217.035 76.7492 216.764 76.9109C216.494 77.0693 216.195 77.1485 215.868 77.1485ZM215.868 76.2525C216.03 76.2525 216.177 76.2129 216.309 76.1337C216.444 76.0513 216.552 75.9424 216.631 75.807C216.713 75.6718 216.755 75.5249 216.755 75.3665C216.755 75.2081 216.713 75.0612 216.631 74.9259C216.552 74.7907 216.444 74.6834 216.309 74.6042C216.177 74.5217 216.03 74.4805 215.868 74.4805C215.71 74.4805 215.563 74.5217 215.428 74.6042C215.296 74.6834 215.189 74.7907 215.106 74.9259C215.027 75.0612 214.987 75.2081 214.987 75.3665C214.987 75.5249 215.027 75.6718 215.106 75.807C215.189 75.9424 215.296 76.0513 215.428 76.1337C215.563 76.2129 215.71 76.2525 215.868 76.2525ZM211.706 73.2875C211.379 73.2875 211.08 73.2083 210.81 73.0499C210.539 72.8882 210.323 72.6737 210.161 72.4064C210.003 72.1358 209.924 71.8355 209.924 71.5055C209.924 71.1821 210.006 70.8851 210.171 70.6145C210.336 70.3439 210.554 70.1277 210.824 69.966C211.095 69.8043 211.389 69.7235 211.706 69.7235C212.032 69.7235 212.329 69.8043 212.597 69.966C212.867 70.1244 213.083 70.339 213.245 70.6096C213.407 70.8769 213.488 71.1755 213.488 71.5055C213.488 71.8355 213.407 72.1358 213.245 72.4064C213.083 72.6737 212.867 72.8882 212.597 73.0499C212.329 73.2083 212.032 73.2875 211.706 73.2875ZM211.706 72.3915C211.864 72.3915 212.011 72.3519 212.146 72.2727C212.281 72.1903 212.389 72.0814 212.468 71.9461C212.55 71.8108 212.592 71.6639 212.592 71.5055C212.592 71.3471 212.55 71.2002 212.468 71.065C212.389 70.9297 212.281 70.8224 212.146 70.7432C212.011 70.6607 211.864 70.6195 211.706 70.6195C211.547 70.6195 211.4 70.6607 211.265 70.7432C211.133 70.8224 211.026 70.9297 210.943 71.065C210.861 71.2002 210.819 71.3471 210.819 71.5055C210.819 71.6639 210.861 71.8108 210.943 71.9461C211.026 72.0814 211.133 72.1903 211.265 72.2727C211.397 72.3519 211.544 72.3915 211.706 72.3915ZM220.918 77V69.872H223.72C224.172 69.872 224.552 69.9644 224.859 70.1492C225.165 70.334 225.396 70.5732 225.552 70.8669C225.707 71.1574 225.784 71.4642 225.784 71.7876C225.784 72.1803 225.687 72.517 225.492 72.7974C225.301 73.0779 225.042 73.2693 224.715 73.3716L224.705 73.1291C225.16 73.2413 225.51 73.4607 225.754 73.7874C225.999 74.1109 226.121 74.4887 226.121 74.921C226.121 75.3401 226.037 75.7047 225.868 76.0149C225.703 76.3251 225.461 76.5677 225.141 76.7426C224.824 76.9142 224.439 77 223.987 77H220.918ZM221.968 76.0149H223.829C224.063 76.0149 224.273 75.9704 224.458 75.8813C224.646 75.7922 224.793 75.6651 224.898 75.5002C225.007 75.3319 225.061 75.1322 225.061 74.9012C225.061 74.6867 225.014 74.4937 224.918 74.3221C224.826 74.1471 224.69 74.0102 224.512 73.9112C224.337 73.8089 224.131 73.7577 223.893 73.7577H221.968V76.0149ZM221.968 72.7826H223.705C223.897 72.7826 224.068 72.7446 224.22 72.6687C224.375 72.5895 224.497 72.4773 224.586 72.3322C224.679 72.1837 224.725 72.0055 224.725 71.7976C224.725 71.5203 224.632 71.2926 224.448 71.1145C224.263 70.9363 224.015 70.8472 223.705 70.8472H221.968V72.7826ZM227.106 77V71.654H228.027V72.9509L227.898 72.7826C227.964 72.611 228.05 72.4542 228.155 72.3124C228.261 72.1671 228.383 72.0483 228.522 71.9559C228.657 71.857 228.807 71.7811 228.972 71.7282C229.14 71.6722 229.312 71.6392 229.487 71.6293C229.662 71.616 229.83 71.6243 229.992 71.654V72.6242C229.817 72.578 229.622 72.5648 229.408 72.5846C229.196 72.6044 229.002 72.6721 228.823 72.7876C228.655 72.8965 228.522 73.0285 228.423 73.1836C228.327 73.3386 228.258 73.5119 228.215 73.7033C228.172 73.8914 228.15 74.091 228.15 74.3023V77H227.106ZM232.949 77.1435C232.579 77.1435 232.269 77.0841 232.018 76.9654C231.768 76.8466 231.563 76.6915 231.405 76.5001C231.25 76.3053 231.131 76.0941 231.048 75.8664C230.966 75.6387 230.91 75.416 230.88 75.1982C230.85 74.9804 230.835 74.789 230.835 74.624V71.654H231.885V74.2824C231.885 74.4903 231.901 74.7048 231.934 74.9259C231.971 75.1437 232.037 75.3467 232.132 75.5348C232.231 75.7229 232.368 75.8747 232.543 75.9902C232.721 76.1057 232.952 76.1634 233.236 76.1634C233.421 76.1634 233.596 76.1337 233.761 76.0744C233.926 76.0116 234.069 75.9126 234.191 75.7774C234.317 75.642 234.414 75.4638 234.484 75.2427C234.556 75.0216 234.592 74.7527 234.592 74.4359L235.236 74.6785C235.236 75.1635 235.145 75.5925 234.964 75.9655C234.782 76.3351 234.521 76.6238 234.182 76.8317C233.842 77.0396 233.431 77.1435 232.949 77.1435ZM234.716 77V75.4556H234.592V71.654H235.637V77H234.716ZM240.777 77V74.3716C240.777 74.1636 240.759 73.9508 240.723 73.733C240.69 73.5119 240.624 73.3073 240.525 73.1192C240.429 72.9311 240.292 72.7793 240.114 72.6638C239.939 72.5483 239.71 72.4905 239.426 72.4905C239.241 72.4905 239.066 72.5219 238.901 72.5846C238.736 72.644 238.591 72.7414 238.466 72.8766C238.344 73.0119 238.246 73.1901 238.174 73.4113C238.104 73.6323 238.07 73.9013 238.07 74.2181L237.426 73.9756C237.426 73.4905 237.517 73.0631 237.698 72.6935C237.88 72.3206 238.141 72.0302 238.48 71.8223C238.82 71.6144 239.231 71.5104 239.713 71.5104C240.083 71.5104 240.393 71.5698 240.644 71.6886C240.894 71.8074 241.097 71.9642 241.252 72.1589C241.411 72.3503 241.531 72.5599 241.614 72.7876C241.696 73.0152 241.752 73.238 241.782 73.4558C241.812 73.6736 241.827 73.865 241.827 74.03V77H240.777ZM237.02 77V71.654H237.946V73.1984H238.07V77H237.02ZM244.626 77.1485C244.23 77.1485 243.898 77.0759 243.631 76.9307C243.363 76.7822 243.161 76.5875 243.022 76.3466C242.887 76.1024 242.819 75.8351 242.819 75.5447C242.819 75.2741 242.867 75.0365 242.963 74.8319C243.058 74.6273 243.2 74.4541 243.388 74.3121C243.576 74.1669 243.807 74.0498 244.081 73.9607C244.319 73.8914 244.588 73.8303 244.888 73.7776C245.188 73.7247 245.504 73.6752 245.834 73.629C246.167 73.5828 246.497 73.5366 246.824 73.4904L246.447 73.6983C246.454 73.2792 246.365 72.9691 246.18 72.7678C245.999 72.5631 245.685 72.4608 245.24 72.4608C244.959 72.4608 244.702 72.5268 244.467 72.6588C244.233 72.7875 244.07 73.002 243.977 73.3023L243.012 73.0053C243.144 72.5466 243.395 72.182 243.764 71.9114C244.137 71.6408 244.632 71.5055 245.249 71.5055C245.728 71.5055 246.144 71.588 246.497 71.753C246.853 71.9147 247.114 72.1721 247.279 72.5252C247.365 72.7001 247.418 72.8849 247.437 73.0796C247.457 73.2743 247.467 73.4838 247.467 73.7083V77H246.551V75.7774L246.729 75.9358C246.508 76.345 246.226 76.6502 245.883 76.8515C245.543 77.0495 245.124 77.1485 244.626 77.1485ZM244.809 76.3021C245.103 76.3021 245.355 76.2509 245.566 76.1486C245.777 76.043 245.947 75.9093 246.076 75.7476C246.205 75.5859 246.289 75.4176 246.329 75.2427C246.385 75.0843 246.416 74.9061 246.423 74.7081C246.432 74.5102 246.437 74.3518 246.437 74.233L246.774 74.3567C246.447 74.4062 246.15 74.4507 245.883 74.4903C245.616 74.5299 245.373 74.5695 245.155 74.6092C244.941 74.6454 244.749 74.69 244.581 74.7428C244.439 74.7923 244.312 74.8517 244.2 74.921C244.091 74.9903 244.004 75.0744 243.938 75.1734C243.875 75.2724 243.844 75.3929 243.844 75.5348C243.844 75.6734 243.878 75.8021 243.948 75.9209C244.017 76.0364 244.122 76.1288 244.264 76.1981C244.406 76.2674 244.588 76.3021 244.809 76.3021ZM250.833 77V69.872H251.868V76.0248H255.095V77H250.833ZM257.445 77.1485C257.049 77.1485 256.718 77.0759 256.451 76.9307C256.183 76.7822 255.98 76.5875 255.842 76.3466C255.706 76.1024 255.639 75.8351 255.639 75.5447C255.639 75.2741 255.687 75.0365 255.782 74.8319C255.878 74.6273 256.02 74.4541 256.208 74.3121C256.396 74.1669 256.627 74.0498 256.901 73.9607C257.139 73.8914 257.408 73.8303 257.708 73.7776C258.008 73.7247 258.323 73.6752 258.653 73.629C258.987 73.5828 259.317 73.5366 259.643 73.4904L259.267 73.6983C259.274 73.2792 259.185 72.9691 259 72.7678C258.818 72.5631 258.505 72.4608 258.059 72.4608C257.779 72.4608 257.521 72.5268 257.287 72.6588C257.053 72.7875 256.889 73.002 256.797 73.3023L255.832 73.0053C255.964 72.5466 256.215 72.182 256.584 71.9114C256.957 71.6408 257.452 71.5055 258.069 71.5055C258.548 71.5055 258.963 71.588 259.317 71.753C259.673 71.9147 259.934 72.1721 260.099 72.5252C260.184 72.7001 260.237 72.8849 260.257 73.0796C260.277 73.2743 260.287 73.4838 260.287 73.7083V77H259.371V75.7774L259.549 75.9358C259.328 76.345 259.046 76.6502 258.703 76.8515C258.363 77.0495 257.944 77.1485 257.445 77.1485ZM257.629 76.3021C257.922 76.3021 258.175 76.2509 258.386 76.1486C258.597 76.043 258.767 75.9093 258.896 75.7476C259.025 75.5859 259.109 75.4176 259.148 75.2427C259.204 75.0843 259.236 74.9061 259.242 74.7081C259.252 74.5102 259.257 74.3518 259.257 74.233L259.594 74.3567C259.267 74.4062 258.97 74.4507 258.703 74.4903C258.435 74.5299 258.193 74.5695 257.975 74.6092C257.761 74.6454 257.569 74.69 257.401 74.7428C257.259 74.7923 257.132 74.8517 257.02 74.921C256.911 74.9903 256.823 75.0744 256.757 75.1734C256.695 75.2724 256.663 75.3929 256.663 75.5348C256.663 75.6734 256.698 75.8021 256.767 75.9209C256.837 76.0364 256.942 76.1288 257.084 76.1981C257.226 76.2674 257.408 76.3021 257.629 76.3021ZM262.612 70.862H261.8L262.508 69.1295H263.32L262.612 70.862ZM261.671 77V71.654H262.706V77H261.671ZM266.237 77.1435C265.586 77.1435 265.057 77 264.648 76.7129C264.238 76.4258 263.988 76.0215 263.895 75.5002L264.954 75.3368C265.02 75.614 265.172 75.8335 265.41 75.9951C265.651 76.1536 265.949 76.2328 266.306 76.2328C266.629 76.2328 266.882 76.1668 267.063 76.0347C267.248 75.9027 267.34 75.7212 267.34 75.4903C267.34 75.3549 267.307 75.246 267.241 75.1635C267.179 75.0777 267.045 74.9969 266.84 74.921C266.636 74.8451 266.324 74.751 265.905 74.6388C265.446 74.5201 265.082 74.393 264.811 74.2577C264.544 74.1191 264.352 73.9591 264.237 73.7776C264.125 73.5928 264.068 73.37 264.068 73.1093C264.068 72.7859 264.154 72.5037 264.326 72.2629C264.497 72.0219 264.738 71.8355 265.049 71.7035C265.362 71.5715 265.728 71.5055 266.147 71.5055C266.557 71.5055 266.921 71.5698 267.241 71.6985C267.561 71.8272 267.821 72.0104 268.019 72.248C268.217 72.4823 268.335 72.7578 268.375 73.0746L267.316 73.2677C267.279 73.0103 267.159 72.8074 266.954 72.6588C266.75 72.5103 266.484 72.4295 266.157 72.4163C265.844 72.4031 265.59 72.4559 265.395 72.5747C265.2 72.6902 265.103 72.8502 265.103 73.0548C265.103 73.1736 265.139 73.2743 265.212 73.3568C265.288 73.4393 265.433 73.5185 265.647 73.5944C265.862 73.6703 266.179 73.7611 266.598 73.8667C267.047 73.9821 267.403 74.1108 267.667 74.2528C267.931 74.3914 268.119 74.558 268.231 74.7527C268.347 74.9441 268.405 75.1767 268.405 75.4506C268.405 75.9786 268.212 76.3928 267.825 76.6931C267.443 76.9934 266.913 77.1435 266.237 77.1435Z" fill="black"/>
<circle cx="189.075" cy="29" r="5" fill="#00796B"/>
<circle cx="189.075" cy="51" r="5" fill="#2BCA6A"/>
<circle cx="189.075" cy="73" r="5" fill="#388E3C"/>
</svg>
