<svg width="617" height="171" viewBox="0 0 617 171" fill="none" xmlns="http://www.w3.org/2000/svg">
<path d="M5.875 7.47843V1.95635L2.10417 7.47843H5.875ZM5.79167 11.4111V9.02706H0V7.6822L5.375 0.142822H7.58333V7.47843H9.08333V9.02706H7.58333V11.4111H5.79167Z" fill="#00796B"/>
<path d="M12.7269 0.427911C13.279 0.142637 13.9561 0 14.7477 0C15.5394 0 16.2061 0.142637 16.7477 0.427911C17.2998 0.713184 17.7321 1.13091 18.0394 1.67089C18.3415 2.20068 18.5602 2.79161 18.6852 3.44366C18.8206 4.09572 18.8936 4.84456 18.8936 5.6851C18.8936 6.53073 18.8206 7.27448 18.6852 7.92653C18.5602 8.57859 18.3415 9.1797 18.0394 9.71968C17.7321 10.2495 17.2998 10.657 16.7477 10.9423C16.2061 11.2276 15.5394 11.3702 14.7477 11.3702C13.9561 11.3702 13.279 11.2276 12.7269 10.9423C12.1696 10.657 11.7373 10.2495 11.4352 9.71968C11.1279 9.1797 10.904 8.57859 10.7686 7.92653C10.6436 7.27448 10.5811 6.53073 10.5811 5.6851C10.5811 4.84456 10.6436 4.09572 10.7686 3.44366C10.904 2.79161 11.1279 2.20068 11.4352 1.67089C11.7373 1.13091 12.1696 0.713184 12.7269 0.427911ZM14.7477 1.63014C14.2321 1.63014 13.8102 1.74221 13.4769 1.95616C13.1436 2.15993 12.904 2.47577 12.7686 2.89349C12.5029 3.61686 12.3727 4.544 12.3727 5.6851C12.3727 6.82619 12.5029 7.75843 12.7686 8.4767C13.0602 9.33252 13.7113 9.76044 14.7269 9.76044C15.7529 9.76044 16.4196 9.33252 16.7269 8.4767C16.9769 7.75843 17.1019 6.82619 17.1019 5.6851C17.1019 4.544 16.9769 3.61686 16.7269 2.89349C16.4196 2.05295 15.7581 1.63014 14.7477 1.63014Z" fill="#00796B"/>
<path d="M1.05216 36.9607C1.10425 35.9979 1.47925 35.2439 2.17716 34.6989C2.8855 34.1589 3.78654 33.8838 4.8855 33.8838C5.99487 33.8838 6.86466 34.164 7.48966 34.7192C8.12508 35.2796 8.448 35.9928 8.448 36.8588C8.448 37.5108 8.26571 38.0712 7.90633 38.5297C7.55737 38.978 7.14071 39.2836 6.65633 39.4466V39.5078C7.28133 39.7013 7.76571 40.0477 8.11466 40.547C8.47404 41.036 8.65633 41.7084 8.65633 42.5643C8.65633 43.4201 8.32821 44.1485 7.67716 44.7446C7.02092 45.3304 6.10425 45.6208 4.92716 45.6208C3.7605 45.6208 2.80737 45.3355 2.073 44.7649C1.33341 44.1842 0.937582 43.3488 0.885498 42.2586H2.6355C2.67716 42.819 2.89071 43.2723 3.28133 43.6238C3.68237 43.9652 4.20841 44.1333 4.86466 44.1333C5.53133 44.1333 6.03654 43.9652 6.3855 43.6238C6.74487 43.2723 6.92716 42.819 6.92716 42.2586C6.92716 41.525 6.68758 41.0105 6.21883 40.71C5.74487 40.3992 5.01571 40.2413 4.03133 40.2413H3.61466V38.7742H4.05216C5.81258 38.7487 6.698 38.1782 6.698 37.0626C6.698 36.5633 6.53133 36.1609 6.198 35.8603C5.87508 35.5649 5.41154 35.412 4.80216 35.412C4.20321 35.412 3.73966 35.5649 3.40633 35.8603C3.073 36.1609 2.87508 36.5277 2.823 36.9607H1.05216Z" fill="#00796B"/>
<path d="M12.7227 34.5763C13.2748 34.2911 13.9519 34.1484 14.7436 34.1484C15.5352 34.1484 16.2019 34.2911 16.7436 34.5763C17.2957 34.8616 17.7279 35.2793 18.0352 35.8193C18.3373 36.3491 18.5561 36.94 18.6811 37.5921C18.8165 38.2442 18.8894 38.993 18.8894 39.8335C18.8894 40.6792 18.8165 41.4229 18.6811 42.075C18.5561 42.727 18.3373 43.3281 18.0352 43.8681C17.7279 44.3979 17.2957 44.8054 16.7436 45.0907C16.2019 45.376 15.5352 45.5186 14.7436 45.5186C13.9519 45.5186 13.2748 45.376 12.7227 45.0907C12.1654 44.8054 11.7332 44.3979 11.4311 43.8681C11.1238 43.3281 10.8998 42.727 10.7644 42.075C10.6394 41.4229 10.5769 40.6792 10.5769 39.8335C10.5769 38.993 10.6394 38.2442 10.7644 37.5921C10.8998 36.94 11.1238 36.3491 11.4311 35.8193C11.7332 35.2793 12.1654 34.8616 12.7227 34.5763ZM14.7436 35.7786C14.2279 35.7786 13.8061 35.8906 13.4727 36.1046C13.1394 36.3084 12.8998 36.6242 12.7644 37.0419C12.4988 37.7653 12.3686 38.6924 12.3686 39.8335C12.3686 40.9746 12.4988 41.9069 12.7644 42.6251C13.0561 43.481 13.7071 43.9089 14.7227 43.9089C15.7488 43.9089 16.4154 43.481 16.7227 42.6251C16.9727 41.9069 17.0977 40.9746 17.0977 39.8335C17.0977 38.6924 16.9727 37.7653 16.7227 37.0419C16.4154 36.2014 15.754 35.7786 14.7436 35.7786Z" fill="#00796B"/>
<path d="M1.19271 79.5449V78.2612C1.45313 78.0319 1.84375 77.7059 2.35938 77.2831C2.86979 76.8501 3.26042 76.519 3.52604 76.2846C3.80208 76.0401 4.14062 75.7345 4.54688 75.3677C4.96354 75.0009 5.28125 74.6851 5.50521 74.41C5.72396 74.14 5.95313 73.8394 6.19271 73.5134C6.61979 72.9021 6.83854 72.301 6.83854 71.6999C6.83854 70.4111 6.21354 69.7641 4.96354 69.7641C4.32292 69.7641 3.82813 69.9628 3.48438 70.355C3.13542 70.7371 2.95313 71.2618 2.94271 71.924H1.17188C1.21354 70.732 1.57813 69.8201 2.27604 69.1935C2.96875 68.5568 3.88021 68.2358 5.00521 68.2358C6.13021 68.2358 7.01562 68.5517 7.67188 69.1732C8.32292 69.7845 8.65104 70.5944 8.65104 71.598C8.65104 72.3621 8.44271 73.0855 8.02604 73.7783C7.80208 74.1349 7.58854 74.4507 7.38021 74.736C7.18229 75.0111 6.90625 75.3218 6.54688 75.6733C6.18229 76.0299 5.89062 76.305 5.67188 76.5088C5.46354 76.7024 5.15104 76.9723 4.73438 77.3238C4.32813 77.6804 4.05208 77.925 3.90104 78.0574H8.96354V79.5449H1.19271Z" fill="#00796B"/>
<path d="M12.7164 68.725C13.2685 68.4398 13.9456 68.2971 14.7372 68.2971C15.5289 68.2971 16.1956 68.4398 16.7372 68.725C17.2893 69.0103 17.7216 69.428 18.0289 69.968C18.331 70.4978 18.5497 71.0887 18.6747 71.7408C18.8101 72.3928 18.8831 73.1417 18.8831 73.9822C18.8831 74.8278 18.8101 75.5716 18.6747 76.2237C18.5497 76.8757 18.331 77.4768 18.0289 78.0168C17.7216 78.5466 17.2893 78.9541 16.7372 79.2394C16.1956 79.5247 15.5289 79.6673 14.7372 79.6673C13.9456 79.6673 13.2685 79.5247 12.7164 79.2394C12.1591 78.9541 11.7268 78.5466 11.4247 78.0168C11.1174 77.4768 10.8935 76.8757 10.7581 76.2237C10.6331 75.5716 10.5706 74.8278 10.5706 73.9822C10.5706 73.1417 10.6331 72.3928 10.7581 71.7408C10.8935 71.0887 11.1174 70.4978 11.4247 69.968C11.7268 69.428 12.1591 69.0103 12.7164 68.725ZM14.7372 69.9273C14.2216 69.9273 13.7997 70.0393 13.4664 70.2533C13.1331 70.457 12.8935 70.7729 12.7581 71.1906C12.4924 71.914 12.3622 72.8411 12.3622 73.9822C12.3622 75.1233 12.4924 76.0555 12.7581 76.7738C13.0497 77.6296 13.7008 78.0576 14.7164 78.0576C15.7424 78.0576 16.4091 77.6296 16.7164 76.7738C16.9664 76.0555 17.0914 75.1233 17.0914 73.9822C17.0914 72.8411 16.9664 71.914 16.7164 71.1906C16.4091 70.3501 15.7476 69.9273 14.7372 69.9273Z" fill="#00796B"/>
<path d="M6.22917 113.856V104.381H4.75V102.751H8.0625V113.856H6.22917Z" fill="#00796B"/>
<path d="M12.7249 102.873C13.277 102.588 13.9541 102.445 14.7458 102.445C15.5374 102.445 16.2041 102.588 16.7458 102.873C17.2979 103.158 17.7301 103.576 18.0374 104.116C18.3395 104.646 18.5583 105.237 18.6833 105.889C18.8187 106.541 18.8916 107.29 18.8916 108.13C18.8916 108.976 18.8187 109.72 18.6833 110.372C18.5583 111.024 18.3395 111.625 18.0374 112.165C17.7301 112.695 17.2979 113.102 16.7458 113.388C16.2041 113.673 15.5374 113.816 14.7458 113.816C13.9541 113.816 13.277 113.673 12.7249 113.388C12.1676 113.102 11.7354 112.695 11.4333 112.165C11.126 111.625 10.902 111.024 10.7666 110.372C10.6416 109.72 10.5791 108.976 10.5791 108.13C10.5791 107.29 10.6416 106.541 10.7666 105.889C10.902 105.237 11.126 104.646 11.4333 104.116C11.7354 103.576 12.1676 103.158 12.7249 102.873ZM14.7458 104.075C14.2301 104.075 13.8083 104.188 13.4749 104.401C13.1416 104.605 12.902 104.921 12.7666 105.339C12.501 106.062 12.3708 106.989 12.3708 108.13C12.3708 109.272 12.501 110.204 12.7666 110.922C13.0583 111.778 13.7093 112.206 14.7249 112.206C15.751 112.206 16.4176 111.778 16.7249 110.922C16.9749 110.204 17.0999 109.272 17.0999 108.13C17.0999 106.989 16.9749 106.062 16.7249 105.339C16.4176 104.498 15.7562 104.075 14.7458 104.075Z" fill="#00796B"/>
<path d="M12.7188 137.022C13.2709 136.736 13.948 136.594 14.7397 136.594C15.5313 136.594 16.198 136.736 16.7397 137.022C17.2917 137.307 17.724 137.725 18.0313 138.265C18.3334 138.794 18.5522 139.385 18.6772 140.037C18.8126 140.689 18.8855 141.438 18.8855 142.279C18.8855 143.124 18.8126 143.868 18.6772 144.52C18.5522 145.172 18.3334 145.773 18.0313 146.313C17.724 146.843 17.2917 147.251 16.7397 147.536C16.198 147.821 15.5313 147.964 14.7397 147.964C13.948 147.964 13.2709 147.821 12.7188 147.536C12.1615 147.251 11.7292 146.843 11.4272 146.313C11.1199 145.773 10.8959 145.172 10.7605 144.52C10.6355 143.868 10.573 143.124 10.573 142.279C10.573 141.438 10.6355 140.689 10.7605 140.037C10.8959 139.385 11.1199 138.794 11.4272 138.265C11.7292 137.725 12.1615 137.307 12.7188 137.022ZM14.7397 138.224C14.224 138.224 13.8022 138.336 13.4688 138.55C13.1355 138.754 12.8959 139.07 12.7605 139.487C12.4949 140.211 12.3647 141.138 12.3647 142.279C12.3647 143.42 12.4949 144.352 12.7605 145.07C13.0522 145.926 13.7032 146.354 14.7188 146.354C15.7449 146.354 16.4115 145.926 16.7188 145.07C16.9688 144.352 17.0938 143.42 17.0938 142.279C17.0938 141.138 16.9688 140.211 16.7188 139.487C16.4115 138.647 15.7501 138.224 14.7397 138.224Z" fill="#00796B"/>
<path d="M118.692 81.784C118.692 79.079 116.458 76.8834 113.697 76.8834C110.932 76.8834 108.697 79.079 108.697 81.784C108.697 84.489 110.932 86.6846 113.697 86.6846C116.458 86.6846 118.692 84.489 118.692 81.784ZM113.312 79.6088C112.088 79.8176 111.265 80.9587 111.479 82.161C111.687 83.3581 112.854 84.163 114.077 83.9592L276.057 56.578C277.281 56.3743 278.104 55.2332 277.89 54.0309C277.682 52.8287 276.515 52.0238 275.291 52.2327L113.312 79.6088Z" fill="#00796B"/>
<path d="M280.671 54.4082C280.671 51.6981 278.437 49.5076 275.677 49.5076C272.911 49.5076 270.677 51.6981 270.677 54.4082C270.677 57.1132 272.911 59.3088 275.677 59.3088C278.437 59.3088 280.671 57.1132 280.671 54.4082ZM276.15 52.2482C274.932 51.9935 273.739 52.7526 273.473 53.9395C273.213 55.1315 273.984 56.3083 275.203 56.563L437.177 90.7857C438.395 91.0404 439.588 90.2864 439.854 89.0944C440.114 87.9024 439.343 86.7307 438.124 86.476L276.15 52.2482Z" fill="#00796B"/>
<path d="M442.651 88.6306C442.651 85.9205 440.416 83.73 437.651 83.73C434.89 83.73 432.656 85.9205 432.656 88.6306C432.656 91.3356 434.89 93.5312 437.651 93.5312C440.416 93.5312 442.651 91.3356 442.651 88.6306ZM436.802 86.5878C435.651 87.0514 435.098 88.3402 435.572 89.466C436.041 90.5918 437.354 91.1318 438.505 90.6683L600.484 25.6462C601.635 25.1827 602.182 23.8989 601.713 22.768C601.244 21.6422 599.927 21.1022 598.781 21.5658L436.802 86.5878ZM604.63 23.6035C604.63 20.8985 602.39 18.7029 599.63 18.7029C596.869 18.7029 594.635 20.8985 594.635 23.6035C594.635 26.3136 596.869 28.5041 599.63 28.5041C602.39 28.5041 604.63 26.3136 604.63 23.6035Z" fill="#00796B"/>
<path d="M118.692 98.8953C118.692 96.1903 116.458 93.9947 113.697 93.9947C110.932 93.9947 108.697 96.1903 108.697 98.8953C108.697 101.605 110.932 103.796 113.697 103.796C116.458 103.796 118.692 101.605 118.692 98.8953ZM113.223 96.7404C112.005 96.9951 111.234 98.1719 111.494 99.3588C111.76 100.551 112.952 101.31 114.171 101.05L276.15 66.8274C277.364 66.5727 278.135 65.4011 277.874 64.209C277.609 63.017 276.416 62.258 275.202 62.5178L113.223 96.7404Z" fill="#FF5722"/>
<path d="M280.671 64.6728C280.671 61.9678 278.437 59.7722 275.677 59.7722C272.911 59.7722 270.677 61.9678 270.677 64.6728C270.677 67.3778 272.911 69.5734 275.677 69.5734C278.437 69.5734 280.671 67.3778 280.671 64.6728ZM275.869 62.4772C274.63 62.3702 273.541 63.2719 273.432 64.4843C273.328 65.6967 274.244 66.7665 275.479 66.8684L437.458 80.5615C438.697 80.6634 439.786 79.7668 439.895 78.5544C439.999 77.3369 439.083 76.2722 437.848 76.1653L275.869 62.4772Z" fill="#FF5722"/>
<path d="M442.651 78.3609C442.651 75.6558 440.416 73.4603 437.651 73.4603C434.89 73.4603 432.656 75.6558 432.656 78.3609C432.656 81.071 434.89 83.2614 437.651 83.2614C440.416 83.2614 442.651 81.071 442.651 78.3609ZM437.223 76.1958C436.005 76.4302 435.208 77.5865 435.442 78.7837C435.682 79.9757 436.859 80.7602 438.083 80.5259L600.062 49.7265C601.281 49.4973 602.078 48.3358 601.838 47.1438C601.604 45.9466 600.421 45.1621 599.203 45.3965L437.223 76.1958ZM604.63 47.5615C604.63 44.8565 602.39 42.6609 599.63 42.6609C596.869 42.6609 594.635 44.8565 594.635 47.5615C594.635 50.2665 596.869 52.4621 599.63 52.4621C602.39 52.4621 604.63 50.2665 604.63 47.5615Z" fill="#FF5722"/>
<path d="M118.692 71.5195C118.692 68.8094 116.458 66.6189 113.697 66.6189C110.932 66.6189 108.697 68.8094 108.697 71.5195C108.697 74.2245 110.932 76.4201 113.697 76.4201C116.458 76.4201 118.692 74.2245 118.692 71.5195ZM114.031 69.3392C112.801 69.1558 111.656 69.9861 111.468 71.1884C111.286 72.3957 112.13 73.5164 113.359 73.6998L275.338 97.6526C276.567 97.836 277.713 97.0056 277.9 95.8034C278.083 94.6012 277.239 93.4754 276.01 93.292L114.031 69.3392Z" fill="#717171"/>
<path d="M280.671 95.472C280.671 92.767 278.437 90.5714 275.677 90.5714C272.911 90.5714 270.677 92.767 270.677 95.472C270.677 98.1821 272.911 100.373 275.677 100.373C278.437 100.373 280.671 98.1821 280.671 95.472ZM274.942 93.3885C273.765 93.7859 273.14 95.039 273.546 96.1954C273.953 97.3467 275.234 97.958 276.406 97.5607L438.385 42.8034C439.562 42.406 440.187 41.1478 439.781 39.9965C439.374 38.8452 438.093 38.2339 436.921 38.6313L274.942 93.3885Z" fill="#717171"/>
<path d="M442.651 40.715C442.651 38.01 440.416 35.8145 437.651 35.8145C434.89 35.8145 432.656 38.01 432.656 40.715C432.656 43.4251 434.89 45.6207 437.651 45.6207C440.416 45.6207 442.651 43.4251 442.651 40.715ZM437.848 38.5195C436.609 38.4176 435.52 39.3141 435.411 40.5266C435.307 41.739 436.223 42.8088 437.458 42.9157L599.437 56.6038C600.677 56.7108 601.765 55.8091 601.875 54.5967C601.979 53.3843 601.062 52.3145 599.822 52.2075L437.848 38.5195ZM604.63 54.4082C604.63 51.6981 602.39 49.5076 599.63 49.5076C596.869 49.5076 594.635 51.6981 594.635 54.4082C594.635 57.1132 596.869 59.3088 599.63 59.3088C602.39 59.3088 604.63 57.1132 604.63 54.4082Z" fill="#717171"/>
<path d="M75.0108 159V149.32L72.8428 150.64V148.776L75.0108 147.48H76.7148V159H75.0108ZM81.4248 154.68C80.7741 154.68 80.2515 154.467 79.8568 154.04C79.4675 153.613 79.2728 153.064 79.2728 152.392C79.2728 151.72 79.4701 151.173 79.8648 150.752C80.2648 150.331 80.7848 150.12 81.4248 150.12C82.0755 150.12 82.5955 150.333 82.9848 150.76C83.3795 151.187 83.5768 151.731 83.5768 152.392C83.5768 153.069 83.3795 153.621 82.9848 154.048C82.5901 154.469 82.0701 154.68 81.4248 154.68ZM81.4168 153.776C81.8008 153.776 82.0861 153.648 82.2728 153.392C82.4648 153.136 82.5608 152.803 82.5608 152.392C82.5608 151.976 82.4648 151.645 82.2728 151.4C82.0861 151.149 81.8008 151.024 81.4168 151.024C81.0328 151.024 80.7501 151.152 80.5688 151.408C80.3875 151.659 80.2968 151.989 80.2968 152.4C80.2968 152.821 80.3901 153.157 80.5768 153.408C80.7635 153.653 81.0435 153.776 81.4168 153.776ZM88.5341 159V147.48H93.0621C93.7927 147.48 94.4061 147.629 94.9021 147.928C95.3981 148.227 95.7714 148.613 96.0221 149.088C96.2727 149.557 96.3981 150.053 96.3981 150.576C96.3981 151.211 96.2407 151.755 95.9261 152.208C95.6167 152.661 95.1981 152.971 94.6701 153.136L94.6541 152.744C95.3901 152.925 95.9554 153.28 96.3501 153.808C96.7447 154.331 96.9421 154.941 96.9421 155.64C96.9421 156.317 96.8061 156.907 96.5341 157.408C96.2674 157.909 95.8754 158.301 95.3581 158.584C94.8461 158.861 94.2247 159 93.4941 159H88.5341ZM90.2301 157.408H93.2381C93.6167 157.408 93.9554 157.336 94.2541 157.192C94.5581 157.048 94.7954 156.843 94.9661 156.576C95.1421 156.304 95.2301 155.981 95.2301 155.608C95.2301 155.261 95.1527 154.949 94.9981 154.672C94.8487 154.389 94.6301 154.168 94.3421 154.008C94.0594 153.843 93.7261 153.76 93.3421 153.76H90.2301V157.408ZM90.2301 152.184H93.0381C93.3474 152.184 93.6247 152.123 93.8701 152C94.1207 151.872 94.3181 151.691 94.4621 151.456C94.6114 151.216 94.6861 150.928 94.6861 150.592C94.6861 150.144 94.5367 149.776 94.2381 149.488C93.9394 149.2 93.5394 149.056 93.0381 149.056H90.2301V152.184ZM98.6941 148.944V147.32H100.366V148.944H98.6941ZM98.6941 159V150.36H100.366V159H98.6941ZM113.12 159L113.128 153.616C113.128 152.992 112.968 152.507 112.648 152.16C112.328 151.808 111.907 151.632 111.384 151.632C111.064 151.632 110.771 151.707 110.504 151.856C110.243 152 110.03 152.219 109.864 152.512C109.704 152.8 109.624 153.163 109.624 153.6L108.816 153.192C108.806 152.584 108.934 152.051 109.2 151.592C109.472 151.133 109.84 150.779 110.304 150.528C110.768 150.272 111.288 150.144 111.864 150.144C112.798 150.144 113.52 150.424 114.032 150.984C114.544 151.544 114.8 152.288 114.8 153.216L114.792 159H113.12ZM102.76 159V150.36H104.248V152.856H104.44V159H102.76ZM107.944 159L107.952 153.648C107.952 153.019 107.792 152.525 107.472 152.168C107.158 151.811 106.734 151.632 106.2 151.632C105.672 151.632 105.246 151.813 104.92 152.176C104.6 152.539 104.44 153.013 104.44 153.6L103.64 153.088C103.64 152.523 103.776 152.019 104.048 151.576C104.32 151.133 104.688 150.784 105.152 150.528C105.616 150.272 106.142 150.144 106.728 150.144C107.342 150.144 107.864 150.275 108.296 150.536C108.728 150.792 109.056 151.152 109.28 151.616C109.51 152.08 109.624 152.619 109.624 153.232L109.616 159H107.944ZM120.6 159.24C119.742 159.24 118.987 159.053 118.336 158.68C117.691 158.301 117.187 157.776 116.824 157.104C116.467 156.427 116.288 155.643 116.288 154.752C116.288 153.808 116.464 152.989 116.816 152.296C117.174 151.603 117.67 151.067 118.304 150.688C118.939 150.309 119.678 150.12 120.52 150.12C121.4 150.12 122.15 150.325 122.768 150.736C123.387 151.141 123.848 151.72 124.152 152.472C124.462 153.224 124.584 154.117 124.52 155.152H122.848V154.544C122.838 153.541 122.646 152.8 122.272 152.32C121.904 151.84 121.342 151.6 120.584 151.6C119.747 151.6 119.118 151.864 118.696 152.392C118.275 152.92 118.064 153.683 118.064 154.68C118.064 155.629 118.275 156.365 118.696 156.888C119.118 157.405 119.726 157.664 120.52 157.664C121.043 157.664 121.494 157.547 121.872 157.312C122.256 157.072 122.555 156.731 122.768 156.288L124.408 156.808C124.072 157.581 123.563 158.181 122.88 158.608C122.198 159.029 121.438 159.24 120.6 159.24ZM117.52 155.152V153.848H123.688V155.152H117.52ZM129.619 159.232C128.569 159.232 127.713 159 127.051 158.536C126.39 158.072 125.985 157.419 125.835 156.576L127.547 156.312C127.654 156.76 127.899 157.115 128.283 157.376C128.673 157.632 129.155 157.76 129.731 157.76C130.254 157.76 130.662 157.653 130.955 157.44C131.254 157.227 131.403 156.933 131.403 156.56C131.403 156.341 131.35 156.165 131.243 156.032C131.142 155.893 130.926 155.763 130.595 155.64C130.265 155.517 129.761 155.365 129.083 155.184C128.342 154.992 127.753 154.787 127.315 154.568C126.883 154.344 126.574 154.085 126.387 153.792C126.206 153.493 126.115 153.133 126.115 152.712C126.115 152.189 126.254 151.733 126.531 151.344C126.809 150.955 127.198 150.653 127.699 150.44C128.206 150.227 128.798 150.12 129.475 150.12C130.137 150.12 130.726 150.224 131.243 150.432C131.761 150.64 132.179 150.936 132.499 151.32C132.819 151.699 133.011 152.144 133.075 152.656L131.363 152.968C131.305 152.552 131.11 152.224 130.779 151.984C130.449 151.744 130.019 151.613 129.491 151.592C128.985 151.571 128.574 151.656 128.259 151.848C127.945 152.035 127.787 152.293 127.787 152.624C127.787 152.816 127.846 152.979 127.963 153.112C128.086 153.245 128.321 153.373 128.667 153.496C129.014 153.619 129.526 153.765 130.203 153.936C130.929 154.123 131.505 154.331 131.931 154.56C132.358 154.784 132.662 155.053 132.843 155.368C133.03 155.677 133.123 156.053 133.123 156.496C133.123 157.349 132.811 158.019 132.187 158.504C131.569 158.989 130.713 159.232 129.619 159.232ZM139.837 159C139.293 159.107 138.76 159.152 138.237 159.136C137.715 159.12 137.248 159.019 136.837 158.832C136.427 158.645 136.117 158.352 135.909 157.952C135.723 157.595 135.621 157.232 135.605 156.864C135.595 156.491 135.589 156.069 135.589 155.6V147.96H137.269V155.52C137.269 155.867 137.272 156.168 137.277 156.424C137.288 156.68 137.344 156.896 137.445 157.072C137.637 157.403 137.941 157.592 138.357 157.64C138.779 157.683 139.272 157.664 139.837 157.584V159ZM133.933 151.704V150.36H139.837V151.704H133.933ZM141.659 159V150.36H143.147V152.456L142.939 152.184C143.046 151.907 143.184 151.653 143.355 151.424C143.526 151.189 143.723 150.997 143.947 150.848C144.166 150.688 144.408 150.565 144.675 150.48C144.947 150.389 145.224 150.336 145.507 150.32C145.79 150.299 146.062 150.312 146.323 150.36V151.928C146.04 151.853 145.726 151.832 145.379 151.864C145.038 151.896 144.723 152.005 144.435 152.192C144.163 152.368 143.947 152.581 143.787 152.832C143.632 153.083 143.52 153.363 143.451 153.672C143.382 153.976 143.347 154.299 143.347 154.64V159H141.659ZM151.522 159.24C150.664 159.24 149.909 159.053 149.258 158.68C148.613 158.301 148.109 157.776 147.746 157.104C147.389 156.427 147.21 155.643 147.21 154.752C147.21 153.808 147.386 152.989 147.738 152.296C148.096 151.603 148.592 151.067 149.226 150.688C149.861 150.309 150.6 150.12 151.442 150.12C152.322 150.12 153.072 150.325 153.69 150.736C154.309 151.141 154.77 151.72 155.074 152.472C155.384 153.224 155.506 154.117 155.442 155.152H153.77V154.544C153.76 153.541 153.568 152.8 153.194 152.32C152.826 151.84 152.264 151.6 151.506 151.6C150.669 151.6 150.04 151.864 149.618 152.392C149.197 152.92 148.986 153.683 148.986 154.68C148.986 155.629 149.197 156.365 149.618 156.888C150.04 157.405 150.648 157.664 151.442 157.664C151.965 157.664 152.416 157.547 152.794 157.312C153.178 157.072 153.477 156.731 153.69 156.288L155.33 156.808C154.994 157.581 154.485 158.181 153.802 158.608C153.12 159.029 152.36 159.24 151.522 159.24ZM148.442 155.152V153.848H154.61V155.152H148.442Z" fill="#00796B"/>
<path d="M75.0108 159V149.32L72.8428 150.64V148.776L75.0108 147.48H76.7148V159H75.0108ZM81.4248 154.68C80.7741 154.68 80.2515 154.467 79.8568 154.04C79.4675 153.613 79.2728 153.064 79.2728 152.392C79.2728 151.72 79.4701 151.173 79.8648 150.752C80.2648 150.331 80.7848 150.12 81.4248 150.12C82.0755 150.12 82.5955 150.333 82.9848 150.76C83.3795 151.187 83.5768 151.731 83.5768 152.392C83.5768 153.069 83.3795 153.621 82.9848 154.048C82.5901 154.469 82.0701 154.68 81.4248 154.68ZM81.4168 153.776C81.8008 153.776 82.0861 153.648 82.2728 153.392C82.4648 153.136 82.5608 152.803 82.5608 152.392C82.5608 151.976 82.4648 151.645 82.2728 151.4C82.0861 151.149 81.8008 151.024 81.4168 151.024C81.0328 151.024 80.7501 151.152 80.5688 151.408C80.3875 151.659 80.2968 151.989 80.2968 152.4C80.2968 152.821 80.3901 153.157 80.5768 153.408C80.7635 153.653 81.0435 153.776 81.4168 153.776ZM88.5341 159V147.48H93.0621C93.7927 147.48 94.4061 147.629 94.9021 147.928C95.3981 148.227 95.7714 148.613 96.0221 149.088C96.2727 149.557 96.3981 150.053 96.3981 150.576C96.3981 151.211 96.2407 151.755 95.9261 152.208C95.6167 152.661 95.1981 152.971 94.6701 153.136L94.6541 152.744C95.3901 152.925 95.9554 153.28 96.3501 153.808C96.7447 154.331 96.9421 154.941 96.9421 155.64C96.9421 156.317 96.8061 156.907 96.5341 157.408C96.2674 157.909 95.8754 158.301 95.3581 158.584C94.8461 158.861 94.2247 159 93.4941 159H88.5341ZM90.2301 157.408H93.2381C93.6167 157.408 93.9554 157.336 94.2541 157.192C94.5581 157.048 94.7954 156.843 94.9661 156.576C95.1421 156.304 95.2301 155.981 95.2301 155.608C95.2301 155.261 95.1527 154.949 94.9981 154.672C94.8487 154.389 94.6301 154.168 94.3421 154.008C94.0594 153.843 93.7261 153.76 93.3421 153.76H90.2301V157.408ZM90.2301 152.184H93.0381C93.3474 152.184 93.6247 152.123 93.8701 152C94.1207 151.872 94.3181 151.691 94.4621 151.456C94.6114 151.216 94.6861 150.928 94.6861 150.592C94.6861 150.144 94.5367 149.776 94.2381 149.488C93.9394 149.2 93.5394 149.056 93.0381 149.056H90.2301V152.184ZM98.6941 148.944V147.32H100.366V148.944H98.6941ZM98.6941 159V150.36H100.366V159H98.6941ZM113.12 159L113.128 153.616C113.128 152.992 112.968 152.507 112.648 152.16C112.328 151.808 111.907 151.632 111.384 151.632C111.064 151.632 110.771 151.707 110.504 151.856C110.243 152 110.03 152.219 109.864 152.512C109.704 152.8 109.624 153.163 109.624 153.6L108.816 153.192C108.806 152.584 108.934 152.051 109.2 151.592C109.472 151.133 109.84 150.779 110.304 150.528C110.768 150.272 111.288 150.144 111.864 150.144C112.798 150.144 113.52 150.424 114.032 150.984C114.544 151.544 114.8 152.288 114.8 153.216L114.792 159H113.12ZM102.76 159V150.36H104.248V152.856H104.44V159H102.76ZM107.944 159L107.952 153.648C107.952 153.019 107.792 152.525 107.472 152.168C107.158 151.811 106.734 151.632 106.2 151.632C105.672 151.632 105.246 151.813 104.92 152.176C104.6 152.539 104.44 153.013 104.44 153.6L103.64 153.088C103.64 152.523 103.776 152.019 104.048 151.576C104.32 151.133 104.688 150.784 105.152 150.528C105.616 150.272 106.142 150.144 106.728 150.144C107.342 150.144 107.864 150.275 108.296 150.536C108.728 150.792 109.056 151.152 109.28 151.616C109.51 152.08 109.624 152.619 109.624 153.232L109.616 159H107.944ZM120.6 159.24C119.742 159.24 118.987 159.053 118.336 158.68C117.691 158.301 117.187 157.776 116.824 157.104C116.467 156.427 116.288 155.643 116.288 154.752C116.288 153.808 116.464 152.989 116.816 152.296C117.174 151.603 117.67 151.067 118.304 150.688C118.939 150.309 119.678 150.12 120.52 150.12C121.4 150.12 122.15 150.325 122.768 150.736C123.387 151.141 123.848 151.72 124.152 152.472C124.462 153.224 124.584 154.117 124.52 155.152H122.848V154.544C122.838 153.541 122.646 152.8 122.272 152.32C121.904 151.84 121.342 151.6 120.584 151.6C119.747 151.6 119.118 151.864 118.696 152.392C118.275 152.92 118.064 153.683 118.064 154.68C118.064 155.629 118.275 156.365 118.696 156.888C119.118 157.405 119.726 157.664 120.52 157.664C121.043 157.664 121.494 157.547 121.872 157.312C122.256 157.072 122.555 156.731 122.768 156.288L124.408 156.808C124.072 157.581 123.563 158.181 122.88 158.608C122.198 159.029 121.438 159.24 120.6 159.24ZM117.52 155.152V153.848H123.688V155.152H117.52ZM129.619 159.232C128.569 159.232 127.713 159 127.051 158.536C126.39 158.072 125.985 157.419 125.835 156.576L127.547 156.312C127.654 156.76 127.899 157.115 128.283 157.376C128.673 157.632 129.155 157.76 129.731 157.76C130.254 157.76 130.662 157.653 130.955 157.44C131.254 157.227 131.403 156.933 131.403 156.56C131.403 156.341 131.35 156.165 131.243 156.032C131.142 155.893 130.926 155.763 130.595 155.64C130.265 155.517 129.761 155.365 129.083 155.184C128.342 154.992 127.753 154.787 127.315 154.568C126.883 154.344 126.574 154.085 126.387 153.792C126.206 153.493 126.115 153.133 126.115 152.712C126.115 152.189 126.254 151.733 126.531 151.344C126.809 150.955 127.198 150.653 127.699 150.44C128.206 150.227 128.798 150.12 129.475 150.12C130.137 150.12 130.726 150.224 131.243 150.432C131.761 150.64 132.179 150.936 132.499 151.32C132.819 151.699 133.011 152.144 133.075 152.656L131.363 152.968C131.305 152.552 131.11 152.224 130.779 151.984C130.449 151.744 130.019 151.613 129.491 151.592C128.985 151.571 128.574 151.656 128.259 151.848C127.945 152.035 127.787 152.293 127.787 152.624C127.787 152.816 127.846 152.979 127.963 153.112C128.086 153.245 128.321 153.373 128.667 153.496C129.014 153.619 129.526 153.765 130.203 153.936C130.929 154.123 131.505 154.331 131.931 154.56C132.358 154.784 132.662 155.053 132.843 155.368C133.03 155.677 133.123 156.053 133.123 156.496C133.123 157.349 132.811 158.019 132.187 158.504C131.569 158.989 130.713 159.232 129.619 159.232ZM139.837 159C139.293 159.107 138.76 159.152 138.237 159.136C137.715 159.12 137.248 159.019 136.837 158.832C136.427 158.645 136.117 158.352 135.909 157.952C135.723 157.595 135.621 157.232 135.605 156.864C135.595 156.491 135.589 156.069 135.589 155.6V147.96H137.269V155.52C137.269 155.867 137.272 156.168 137.277 156.424C137.288 156.68 137.344 156.896 137.445 157.072C137.637 157.403 137.941 157.592 138.357 157.64C138.779 157.683 139.272 157.664 139.837 157.584V159ZM133.933 151.704V150.36H139.837V151.704H133.933ZM141.659 159V150.36H143.147V152.456L142.939 152.184C143.046 151.907 143.184 151.653 143.355 151.424C143.526 151.189 143.723 150.997 143.947 150.848C144.166 150.688 144.408 150.565 144.675 150.48C144.947 150.389 145.224 150.336 145.507 150.32C145.79 150.299 146.062 150.312 146.323 150.36V151.928C146.04 151.853 145.726 151.832 145.379 151.864C145.038 151.896 144.723 152.005 144.435 152.192C144.163 152.368 143.947 152.581 143.787 152.832C143.632 153.083 143.52 153.363 143.451 153.672C143.382 153.976 143.347 154.299 143.347 154.64V159H141.659ZM151.522 159.24C150.664 159.24 149.909 159.053 149.258 158.68C148.613 158.301 148.109 157.776 147.746 157.104C147.389 156.427 147.21 155.643 147.21 154.752C147.21 153.808 147.386 152.989 147.738 152.296C148.096 151.603 148.592 151.067 149.226 150.688C149.861 150.309 150.6 150.12 151.442 150.12C152.322 150.12 153.072 150.325 153.69 150.736C154.309 151.141 154.77 151.72 155.074 152.472C155.384 153.224 155.506 154.117 155.442 155.152H153.77V154.544C153.76 153.541 153.568 152.8 153.194 152.32C152.826 151.84 152.264 151.6 151.506 151.6C150.669 151.6 150.04 151.864 149.618 152.392C149.197 152.92 148.986 153.683 148.986 154.68C148.986 155.629 149.197 156.365 149.618 156.888C150.04 157.405 150.648 157.664 151.442 157.664C151.965 157.664 152.416 157.547 152.794 157.312C153.178 157.072 153.477 156.731 153.69 156.288L155.33 156.808C154.994 157.581 154.485 158.181 153.802 158.608C153.12 159.029 152.36 159.24 151.522 159.24ZM148.442 155.152V153.848H154.61V155.152H148.442Z" fill="#00796B"/>
<path d="M377.024 159.216C376.453 159.216 375.917 159.109 375.416 158.896C374.914 158.677 374.48 158.368 374.112 157.968C373.749 157.568 373.485 157.096 373.32 156.552L374.936 156.104C375.09 156.6 375.36 156.981 375.744 157.248C376.128 157.509 376.554 157.637 377.024 157.632C377.445 157.627 377.816 157.528 378.136 157.336C378.456 157.144 378.706 156.885 378.888 156.56C379.069 156.229 379.16 155.851 379.16 155.424C379.16 154.784 378.96 154.256 378.56 153.84C378.165 153.424 377.648 153.216 377.008 153.216C376.826 153.216 376.64 153.243 376.448 153.296C376.261 153.349 376.085 153.419 375.92 153.504L375.136 152.184L379.2 148.592L379.376 149.072H373.776V147.48H380.704V149.072L377.328 152.32L377.312 151.776C378.037 151.776 378.666 151.939 379.2 152.264C379.733 152.584 380.144 153.021 380.432 153.576C380.725 154.125 380.872 154.741 380.872 155.424C380.872 156.16 380.698 156.813 380.352 157.384C380.01 157.955 379.549 158.403 378.968 158.728C378.392 159.053 377.744 159.216 377.024 159.216ZM384.628 154.68C383.977 154.68 383.455 154.467 383.06 154.04C382.671 153.613 382.476 153.064 382.476 152.392C382.476 151.72 382.673 151.173 383.068 150.752C383.468 150.331 383.988 150.12 384.628 150.12C385.279 150.12 385.799 150.333 386.188 150.76C386.583 151.187 386.78 151.731 386.78 152.392C386.78 153.069 386.583 153.621 386.188 154.048C385.793 154.469 385.273 154.68 384.628 154.68ZM384.62 153.776C385.004 153.776 385.289 153.648 385.476 153.392C385.668 153.136 385.764 152.803 385.764 152.392C385.764 151.976 385.668 151.645 385.476 151.4C385.289 151.149 385.004 151.024 384.62 151.024C384.236 151.024 383.953 151.152 383.772 151.408C383.591 151.659 383.5 151.989 383.5 152.4C383.5 152.821 383.593 153.157 383.78 153.408C383.967 153.653 384.247 153.776 384.62 153.776ZM391.737 159V147.48H396.265C396.996 147.48 397.609 147.629 398.105 147.928C398.601 148.227 398.975 148.613 399.225 149.088C399.476 149.557 399.601 150.053 399.601 150.576C399.601 151.211 399.444 151.755 399.129 152.208C398.82 152.661 398.401 152.971 397.873 153.136L397.857 152.744C398.593 152.925 399.159 153.28 399.553 153.808C399.948 154.331 400.145 154.941 400.145 155.64C400.145 156.317 400.009 156.907 399.737 157.408C399.471 157.909 399.079 158.301 398.561 158.584C398.049 158.861 397.428 159 396.697 159H391.737ZM393.433 157.408H396.441C396.82 157.408 397.159 157.336 397.457 157.192C397.761 157.048 397.999 156.843 398.169 156.576C398.345 156.304 398.433 155.981 398.433 155.608C398.433 155.261 398.356 154.949 398.201 154.672C398.052 154.389 397.833 154.168 397.545 154.008C397.263 153.843 396.929 153.76 396.545 153.76H393.433V157.408ZM393.433 152.184H396.241C396.551 152.184 396.828 152.123 397.073 152C397.324 151.872 397.521 151.691 397.665 151.456C397.815 151.216 397.889 150.928 397.889 150.592C397.889 150.144 397.74 149.776 397.441 149.488C397.143 149.2 396.743 149.056 396.241 149.056H393.433V152.184ZM401.897 148.944V147.32H403.569V148.944H401.897ZM401.897 159V150.36H403.569V159H401.897ZM416.324 159L416.332 153.616C416.332 152.992 416.172 152.507 415.852 152.16C415.532 151.808 415.11 151.632 414.588 151.632C414.268 151.632 413.974 151.707 413.708 151.856C413.446 152 413.233 152.219 413.068 152.512C412.908 152.8 412.828 153.163 412.828 153.6L412.02 153.192C412.009 152.584 412.137 152.051 412.404 151.592C412.676 151.133 413.044 150.779 413.508 150.528C413.972 150.272 414.492 150.144 415.068 150.144C416.001 150.144 416.724 150.424 417.236 150.984C417.748 151.544 418.004 152.288 418.004 153.216L417.996 159H416.324ZM405.964 159V150.36H407.452V152.856H407.644V159H405.964ZM411.148 159L411.156 153.648C411.156 153.019 410.996 152.525 410.676 152.168C410.361 151.811 409.937 151.632 409.404 151.632C408.876 151.632 408.449 151.813 408.124 152.176C407.804 152.539 407.644 153.013 407.644 153.6L406.844 153.088C406.844 152.523 406.98 152.019 407.252 151.576C407.524 151.133 407.892 150.784 408.356 150.528C408.82 150.272 409.345 150.144 409.932 150.144C410.545 150.144 411.068 150.275 411.5 150.536C411.932 150.792 412.26 151.152 412.484 151.616C412.713 152.08 412.828 152.619 412.828 153.232L412.82 159H411.148ZM423.804 159.24C422.945 159.24 422.19 159.053 421.54 158.68C420.894 158.301 420.39 157.776 420.028 157.104C419.67 156.427 419.492 155.643 419.492 154.752C419.492 153.808 419.668 152.989 420.02 152.296C420.377 151.603 420.873 151.067 421.508 150.688C422.142 150.309 422.881 150.12 423.724 150.12C424.604 150.12 425.353 150.325 425.972 150.736C426.59 151.141 427.052 151.72 427.356 152.472C427.665 153.224 427.788 154.117 427.724 155.152H426.052V154.544C426.041 153.541 425.849 152.8 425.476 152.32C425.108 151.84 424.545 151.6 423.788 151.6C422.95 151.6 422.321 151.864 421.9 152.392C421.478 152.92 421.268 153.683 421.268 154.68C421.268 155.629 421.478 156.365 421.9 156.888C422.321 157.405 422.929 157.664 423.724 157.664C424.246 157.664 424.697 157.547 425.076 157.312C425.46 157.072 425.758 156.731 425.972 156.288L427.612 156.808C427.276 157.581 426.766 158.181 426.084 158.608C425.401 159.029 424.641 159.24 423.804 159.24ZM420.724 155.152V153.848H426.892V155.152H420.724ZM432.822 159.232C431.772 159.232 430.916 159 430.254 158.536C429.593 158.072 429.188 157.419 429.038 156.576L430.75 156.312C430.857 156.76 431.102 157.115 431.486 157.376C431.876 157.632 432.358 157.76 432.934 157.76C433.457 157.76 433.865 157.653 434.158 157.44C434.457 157.227 434.606 156.933 434.606 156.56C434.606 156.341 434.553 156.165 434.446 156.032C434.345 155.893 434.129 155.763 433.798 155.64C433.468 155.517 432.964 155.365 432.286 155.184C431.545 154.992 430.956 154.787 430.518 154.568C430.086 154.344 429.777 154.085 429.59 153.792C429.409 153.493 429.318 153.133 429.318 152.712C429.318 152.189 429.457 151.733 429.734 151.344C430.012 150.955 430.401 150.653 430.902 150.44C431.409 150.227 432.001 150.12 432.678 150.12C433.34 150.12 433.929 150.224 434.446 150.432C434.964 150.64 435.382 150.936 435.702 151.32C436.022 151.699 436.214 152.144 436.278 152.656L434.566 152.968C434.508 152.552 434.313 152.224 433.982 151.984C433.652 151.744 433.222 151.613 432.694 151.592C432.188 151.571 431.777 151.656 431.462 151.848C431.148 152.035 430.99 152.293 430.99 152.624C430.99 152.816 431.049 152.979 431.166 153.112C431.289 153.245 431.524 153.373 431.87 153.496C432.217 153.619 432.729 153.765 433.406 153.936C434.132 154.123 434.708 154.331 435.134 154.56C435.561 154.784 435.865 155.053 436.046 155.368C436.233 155.677 436.326 156.053 436.326 156.496C436.326 157.349 436.014 158.019 435.39 158.504C434.772 158.989 433.916 159.232 432.822 159.232ZM443.041 159C442.497 159.107 441.963 159.152 441.441 159.136C440.918 159.12 440.451 159.019 440.041 158.832C439.63 158.645 439.321 158.352 439.113 157.952C438.926 157.595 438.825 157.232 438.809 156.864C438.798 156.491 438.793 156.069 438.793 155.6V147.96H440.473V155.52C440.473 155.867 440.475 156.168 440.481 156.424C440.491 156.68 440.547 156.896 440.649 157.072C440.841 157.403 441.145 157.592 441.561 157.64C441.982 157.683 442.475 157.664 443.041 157.584V159ZM437.137 151.704V150.36H443.041V151.704H437.137ZM444.862 159V150.36H446.35V152.456L446.142 152.184C446.249 151.907 446.388 151.653 446.558 151.424C446.729 151.189 446.926 150.997 447.15 150.848C447.369 150.688 447.612 150.565 447.878 150.48C448.15 150.389 448.428 150.336 448.71 150.32C448.993 150.299 449.265 150.312 449.526 150.36V151.928C449.244 151.853 448.929 151.832 448.582 151.864C448.241 151.896 447.926 152.005 447.638 152.192C447.366 152.368 447.15 152.581 446.99 152.832C446.836 153.083 446.724 153.363 446.654 153.672C446.585 153.976 446.55 154.299 446.55 154.64V159H444.862ZM454.725 159.24C453.867 159.24 453.112 159.053 452.461 158.68C451.816 158.301 451.312 157.776 450.949 157.104C450.592 156.427 450.413 155.643 450.413 154.752C450.413 153.808 450.589 152.989 450.941 152.296C451.299 151.603 451.795 151.067 452.429 150.688C453.064 150.309 453.803 150.12 454.645 150.12C455.525 150.12 456.275 150.325 456.893 150.736C457.512 151.141 457.973 151.72 458.277 152.472C458.587 153.224 458.709 154.117 458.645 155.152H456.973V154.544C456.963 153.541 456.771 152.8 456.397 152.32C456.029 151.84 455.467 151.6 454.709 151.6C453.872 151.6 453.243 151.864 452.821 152.392C452.4 152.92 452.189 153.683 452.189 154.68C452.189 155.629 452.4 156.365 452.821 156.888C453.243 157.405 453.851 157.664 454.645 157.664C455.168 157.664 455.619 157.547 455.997 157.312C456.381 157.072 456.68 156.731 456.893 156.288L458.533 156.808C458.197 157.581 457.688 158.181 457.005 158.608C456.323 159.029 455.563 159.24 454.725 159.24ZM451.645 155.152V153.848H457.813V155.152H451.645Z" fill="#00796B"/>
<path d="M529.438 159V156.992H524.238V155.408L527.982 147.48H529.894L526.15 155.408H529.438V152.288H531.134V155.408H532.278V156.992H531.134V159H529.438ZM535.87 154.68C535.219 154.68 534.697 154.467 534.302 154.04C533.913 153.613 533.718 153.064 533.718 152.392C533.718 151.72 533.915 151.173 534.31 150.752C534.71 150.331 535.23 150.12 535.87 150.12C536.521 150.12 537.041 150.333 537.43 150.76C537.825 151.187 538.022 151.731 538.022 152.392C538.022 153.069 537.825 153.621 537.43 154.048C537.035 154.469 536.515 154.68 535.87 154.68ZM535.862 153.776C536.246 153.776 536.531 153.648 536.718 153.392C536.91 153.136 537.006 152.803 537.006 152.392C537.006 151.976 536.91 151.645 536.718 151.4C536.531 151.149 536.246 151.024 535.862 151.024C535.478 151.024 535.195 151.152 535.014 151.408C534.833 151.659 534.742 151.989 534.742 152.4C534.742 152.821 534.835 153.157 535.022 153.408C535.209 153.653 535.489 153.776 535.862 153.776ZM542.979 159V147.48H547.507C548.238 147.48 548.851 147.629 549.347 147.928C549.843 148.227 550.217 148.613 550.467 149.088C550.718 149.557 550.843 150.053 550.843 150.576C550.843 151.211 550.686 151.755 550.371 152.208C550.062 152.661 549.643 152.971 549.115 153.136L549.099 152.744C549.835 152.925 550.401 153.28 550.795 153.808C551.19 154.331 551.387 154.941 551.387 155.64C551.387 156.317 551.251 156.907 550.979 157.408C550.713 157.909 550.321 158.301 549.803 158.584C549.291 158.861 548.67 159 547.939 159H542.979ZM544.675 157.408H547.683C548.062 157.408 548.401 157.336 548.699 157.192C549.003 157.048 549.241 156.843 549.411 156.576C549.587 156.304 549.675 155.981 549.675 155.608C549.675 155.261 549.598 154.949 549.443 154.672C549.294 154.389 549.075 154.168 548.787 154.008C548.505 153.843 548.171 153.76 547.787 153.76H544.675V157.408ZM544.675 152.184H547.483C547.793 152.184 548.07 152.123 548.315 152C548.566 151.872 548.763 151.691 548.907 151.456C549.057 151.216 549.131 150.928 549.131 150.592C549.131 150.144 548.982 149.776 548.683 149.488C548.385 149.2 547.985 149.056 547.483 149.056H544.675V152.184ZM553.139 148.944V147.32H554.811V148.944H553.139ZM553.139 159V150.36H554.811V159H553.139ZM567.566 159L567.574 153.616C567.574 152.992 567.414 152.507 567.094 152.16C566.774 151.808 566.352 151.632 565.83 151.632C565.51 151.632 565.216 151.707 564.95 151.856C564.688 152 564.475 152.219 564.31 152.512C564.15 152.8 564.07 153.163 564.07 153.6L563.262 153.192C563.251 152.584 563.379 152.051 563.646 151.592C563.918 151.133 564.286 150.779 564.75 150.528C565.214 150.272 565.734 150.144 566.31 150.144C567.243 150.144 567.966 150.424 568.478 150.984C568.99 151.544 569.246 152.288 569.246 153.216L569.238 159H567.566ZM557.206 159V150.36H558.694V152.856H558.886V159H557.206ZM562.39 159L562.398 153.648C562.398 153.019 562.238 152.525 561.918 152.168C561.603 151.811 561.179 151.632 560.646 151.632C560.118 151.632 559.691 151.813 559.366 152.176C559.046 152.539 558.886 153.013 558.886 153.6L558.086 153.088C558.086 152.523 558.222 152.019 558.494 151.576C558.766 151.133 559.134 150.784 559.598 150.528C560.062 150.272 560.587 150.144 561.174 150.144C561.787 150.144 562.31 150.275 562.742 150.536C563.174 150.792 563.502 151.152 563.726 151.616C563.955 152.08 564.07 152.619 564.07 153.232L564.062 159H562.39ZM575.046 159.24C574.187 159.24 573.432 159.053 572.782 158.68C572.136 158.301 571.632 157.776 571.27 157.104C570.912 156.427 570.734 155.643 570.734 154.752C570.734 153.808 570.91 152.989 571.262 152.296C571.619 151.603 572.115 151.067 572.75 150.688C573.384 150.309 574.123 150.12 574.966 150.12C575.846 150.12 576.595 150.325 577.214 150.736C577.832 151.141 578.294 151.72 578.598 152.472C578.907 153.224 579.03 154.117 578.966 155.152H577.294V154.544C577.283 153.541 577.091 152.8 576.718 152.32C576.35 151.84 575.787 151.6 575.03 151.6C574.192 151.6 573.563 151.864 573.142 152.392C572.72 152.92 572.51 153.683 572.51 154.68C572.51 155.629 572.72 156.365 573.142 156.888C573.563 157.405 574.171 157.664 574.966 157.664C575.488 157.664 575.939 157.547 576.318 157.312C576.702 157.072 577 156.731 577.214 156.288L578.854 156.808C578.518 157.581 578.008 158.181 577.326 158.608C576.643 159.029 575.883 159.24 575.046 159.24ZM571.966 155.152V153.848H578.134V155.152H571.966ZM584.065 159.232C583.014 159.232 582.158 159 581.497 158.536C580.835 158.072 580.43 157.419 580.281 156.576L581.993 156.312C582.099 156.76 582.345 157.115 582.729 157.376C583.118 157.632 583.601 157.76 584.177 157.76C584.699 157.76 585.107 157.653 585.401 157.44C585.699 157.227 585.849 156.933 585.849 156.56C585.849 156.341 585.795 156.165 585.689 156.032C585.587 155.893 585.371 155.763 585.041 155.64C584.71 155.517 584.206 155.365 583.529 155.184C582.787 154.992 582.198 154.787 581.761 154.568C581.329 154.344 581.019 154.085 580.833 153.792C580.651 153.493 580.561 153.133 580.561 152.712C580.561 152.189 580.699 151.733 580.977 151.344C581.254 150.955 581.643 150.653 582.145 150.44C582.651 150.227 583.243 150.12 583.921 150.12C584.582 150.12 585.171 150.224 585.689 150.432C586.206 150.64 586.625 150.936 586.945 151.32C587.265 151.699 587.457 152.144 587.521 152.656L585.809 152.968C585.75 152.552 585.555 152.224 585.225 151.984C584.894 151.744 584.465 151.613 583.937 151.592C583.43 151.571 583.019 151.656 582.705 151.848C582.39 152.035 582.233 152.293 582.233 152.624C582.233 152.816 582.291 152.979 582.409 153.112C582.531 153.245 582.766 153.373 583.113 153.496C583.459 153.619 583.971 153.765 584.649 153.936C585.374 154.123 585.95 154.331 586.377 154.56C586.803 154.784 587.107 155.053 587.289 155.368C587.475 155.677 587.569 156.053 587.569 156.496C587.569 157.349 587.257 158.019 586.633 158.504C586.014 158.989 585.158 159.232 584.065 159.232ZM594.283 159C593.739 159.107 593.205 159.152 592.683 159.136C592.16 159.12 591.693 159.019 591.283 158.832C590.872 158.645 590.563 158.352 590.355 157.952C590.168 157.595 590.067 157.232 590.051 156.864C590.04 156.491 590.035 156.069 590.035 155.6V147.96H591.715V155.52C591.715 155.867 591.717 156.168 591.723 156.424C591.733 156.68 591.789 156.896 591.891 157.072C592.083 157.403 592.387 157.592 592.803 157.64C593.224 157.683 593.717 157.664 594.283 157.584V159ZM588.379 151.704V150.36H594.283V151.704H588.379ZM596.104 159V150.36H597.592V152.456L597.384 152.184C597.491 151.907 597.63 151.653 597.8 151.424C597.971 151.189 598.168 150.997 598.392 150.848C598.611 150.688 598.854 150.565 599.12 150.48C599.392 150.389 599.67 150.336 599.952 150.32C600.235 150.299 600.507 150.312 600.768 150.36V151.928C600.486 151.853 600.171 151.832 599.824 151.864C599.483 151.896 599.168 152.005 598.88 152.192C598.608 152.368 598.392 152.581 598.232 152.832C598.078 153.083 597.966 153.363 597.896 153.672C597.827 153.976 597.792 154.299 597.792 154.64V159H596.104ZM605.968 159.24C605.109 159.24 604.354 159.053 603.704 158.68C603.058 158.301 602.554 157.776 602.192 157.104C601.834 156.427 601.656 155.643 601.656 154.752C601.656 153.808 601.832 152.989 602.184 152.296C602.541 151.603 603.037 151.067 603.672 150.688C604.306 150.309 605.045 150.12 605.888 150.12C606.768 150.12 607.517 150.325 608.136 150.736C608.754 151.141 609.216 151.72 609.52 152.472C609.829 153.224 609.952 154.117 609.888 155.152H608.216V154.544C608.205 153.541 608.013 152.8 607.64 152.32C607.272 151.84 606.709 151.6 605.952 151.6C605.114 151.6 604.485 151.864 604.064 152.392C603.642 152.92 603.432 153.683 603.432 154.68C603.432 155.629 603.642 156.365 604.064 156.888C604.485 157.405 605.093 157.664 605.888 157.664C606.41 157.664 606.861 157.547 607.24 157.312C607.624 157.072 607.922 156.731 608.136 156.288L609.776 156.808C609.44 157.581 608.93 158.181 608.248 158.608C607.565 159.029 606.805 159.24 605.968 159.24ZM602.888 155.152V153.848H609.056V155.152H602.888Z" fill="#00796B"/>
<path d="M222.363 158.992L222.371 157.504L227.387 153.008C227.792 152.651 228.067 152.309 228.211 151.984C228.36 151.659 228.435 151.333 228.435 151.008C228.435 150.597 228.344 150.229 228.163 149.904C227.981 149.573 227.731 149.312 227.411 149.12C227.091 148.928 226.723 148.832 226.307 148.832C225.88 148.832 225.499 148.933 225.163 149.136C224.832 149.333 224.573 149.597 224.387 149.928C224.2 150.259 224.109 150.616 224.115 151H222.403C222.403 150.253 222.571 149.6 222.907 149.04C223.248 148.475 223.715 148.035 224.307 147.72C224.899 147.4 225.576 147.24 226.339 147.24C227.064 147.24 227.715 147.405 228.291 147.736C228.867 148.061 229.32 148.509 229.651 149.08C229.987 149.651 230.155 150.301 230.155 151.032C230.155 151.56 230.085 152.008 229.947 152.376C229.808 152.744 229.6 153.085 229.323 153.4C229.045 153.715 228.699 154.056 228.283 154.424L224.411 157.88L224.227 157.4H230.155V158.992H222.363ZM233.745 154.68C233.094 154.68 232.572 154.467 232.177 154.04C231.788 153.613 231.593 153.064 231.593 152.392C231.593 151.72 231.79 151.173 232.185 150.752C232.585 150.331 233.105 150.12 233.745 150.12C234.396 150.12 234.916 150.333 235.305 150.76C235.7 151.187 235.897 151.731 235.897 152.392C235.897 153.069 235.7 153.621 235.305 154.048C234.91 154.469 234.39 154.68 233.745 154.68ZM233.737 153.776C234.121 153.776 234.406 153.648 234.593 153.392C234.785 153.136 234.881 152.803 234.881 152.392C234.881 151.976 234.785 151.645 234.593 151.4C234.406 151.149 234.121 151.024 233.737 151.024C233.353 151.024 233.07 151.152 232.889 151.408C232.708 151.659 232.617 151.989 232.617 152.4C232.617 152.821 232.71 153.157 232.897 153.408C233.084 153.653 233.364 153.776 233.737 153.776ZM240.854 159V147.48H245.382C246.113 147.48 246.726 147.629 247.222 147.928C247.718 148.227 248.092 148.613 248.342 149.088C248.593 149.557 248.718 150.053 248.718 150.576C248.718 151.211 248.561 151.755 248.246 152.208C247.937 152.661 247.518 152.971 246.99 153.136L246.974 152.744C247.71 152.925 248.276 153.28 248.67 153.808C249.065 154.331 249.262 154.941 249.262 155.64C249.262 156.317 249.126 156.907 248.854 157.408C248.588 157.909 248.196 158.301 247.678 158.584C247.166 158.861 246.545 159 245.814 159H240.854ZM242.55 157.408H245.558C245.937 157.408 246.276 157.336 246.574 157.192C246.878 157.048 247.116 156.843 247.286 156.576C247.462 156.304 247.55 155.981 247.55 155.608C247.55 155.261 247.473 154.949 247.318 154.672C247.169 154.389 246.95 154.168 246.662 154.008C246.38 153.843 246.046 153.76 245.662 153.76H242.55V157.408ZM242.55 152.184H245.358C245.668 152.184 245.945 152.123 246.19 152C246.441 151.872 246.638 151.691 246.782 151.456C246.932 151.216 247.006 150.928 247.006 150.592C247.006 150.144 246.857 149.776 246.558 149.488C246.26 149.2 245.86 149.056 245.358 149.056H242.55V152.184ZM251.014 148.944V147.32H252.686V148.944H251.014ZM251.014 159V150.36H252.686V159H251.014ZM265.441 159L265.449 153.616C265.449 152.992 265.289 152.507 264.969 152.16C264.649 151.808 264.227 151.632 263.705 151.632C263.385 151.632 263.091 151.707 262.825 151.856C262.563 152 262.35 152.219 262.185 152.512C262.025 152.8 261.945 153.163 261.945 153.6L261.137 153.192C261.126 152.584 261.254 152.051 261.521 151.592C261.793 151.133 262.161 150.779 262.625 150.528C263.089 150.272 263.609 150.144 264.185 150.144C265.118 150.144 265.841 150.424 266.353 150.984C266.865 151.544 267.121 152.288 267.121 153.216L267.113 159H265.441ZM255.081 159V150.36H256.569V152.856H256.761V159H255.081ZM260.265 159L260.273 153.648C260.273 153.019 260.113 152.525 259.793 152.168C259.478 151.811 259.054 151.632 258.521 151.632C257.993 151.632 257.566 151.813 257.241 152.176C256.921 152.539 256.761 153.013 256.761 153.6L255.961 153.088C255.961 152.523 256.097 152.019 256.369 151.576C256.641 151.133 257.009 150.784 257.473 150.528C257.937 150.272 258.462 150.144 259.049 150.144C259.662 150.144 260.185 150.275 260.617 150.536C261.049 150.792 261.377 151.152 261.601 151.616C261.83 152.08 261.945 152.619 261.945 153.232L261.937 159H260.265ZM272.921 159.24C272.062 159.24 271.307 159.053 270.657 158.68C270.011 158.301 269.507 157.776 269.145 157.104C268.787 156.427 268.609 155.643 268.609 154.752C268.609 153.808 268.785 152.989 269.137 152.296C269.494 151.603 269.99 151.067 270.625 150.688C271.259 150.309 271.998 150.12 272.841 150.12C273.721 150.12 274.47 150.325 275.089 150.736C275.707 151.141 276.169 151.72 276.473 152.472C276.782 153.224 276.905 154.117 276.841 155.152H275.169V154.544C275.158 153.541 274.966 152.8 274.593 152.32C274.225 151.84 273.662 151.6 272.905 151.6C272.067 151.6 271.438 151.864 271.017 152.392C270.595 152.92 270.385 153.683 270.385 154.68C270.385 155.629 270.595 156.365 271.017 156.888C271.438 157.405 272.046 157.664 272.841 157.664C273.363 157.664 273.814 157.547 274.193 157.312C274.577 157.072 274.875 156.731 275.089 156.288L276.729 156.808C276.393 157.581 275.883 158.181 275.201 158.608C274.518 159.029 273.758 159.24 272.921 159.24ZM269.841 155.152V153.848H276.009V155.152H269.841ZM281.94 159.232C280.889 159.232 280.033 159 279.372 158.536C278.71 158.072 278.305 157.419 278.156 156.576L279.868 156.312C279.974 156.76 280.22 157.115 280.604 157.376C280.993 157.632 281.476 157.76 282.052 157.76C282.574 157.76 282.982 157.653 283.276 157.44C283.574 157.227 283.724 156.933 283.724 156.56C283.724 156.341 283.67 156.165 283.564 156.032C283.462 155.893 283.246 155.763 282.916 155.64C282.585 155.517 282.081 155.365 281.404 155.184C280.662 154.992 280.073 154.787 279.636 154.568C279.204 154.344 278.894 154.085 278.708 153.792C278.526 153.493 278.436 153.133 278.436 152.712C278.436 152.189 278.574 151.733 278.852 151.344C279.129 150.955 279.518 150.653 280.02 150.44C280.526 150.227 281.118 150.12 281.796 150.12C282.457 150.12 283.046 150.224 283.564 150.432C284.081 150.64 284.5 150.936 284.82 151.32C285.14 151.699 285.332 152.144 285.396 152.656L283.684 152.968C283.625 152.552 283.43 152.224 283.1 151.984C282.769 151.744 282.34 151.613 281.812 151.592C281.305 151.571 280.894 151.656 280.58 151.848C280.265 152.035 280.108 152.293 280.108 152.624C280.108 152.816 280.166 152.979 280.284 153.112C280.406 153.245 280.641 153.373 280.988 153.496C281.334 153.619 281.846 153.765 282.524 153.936C283.249 154.123 283.825 154.331 284.252 154.56C284.678 154.784 284.982 155.053 285.164 155.368C285.35 155.677 285.444 156.053 285.444 156.496C285.444 157.349 285.132 158.019 284.508 158.504C283.889 158.989 283.033 159.232 281.94 159.232ZM292.158 159C291.614 159.107 291.08 159.152 290.558 159.136C290.035 159.12 289.568 159.019 289.158 158.832C288.747 158.645 288.438 158.352 288.23 157.952C288.043 157.595 287.942 157.232 287.926 156.864C287.915 156.491 287.91 156.069 287.91 155.6V147.96H289.59V155.52C289.59 155.867 289.592 156.168 289.598 156.424C289.608 156.68 289.664 156.896 289.766 157.072C289.958 157.403 290.262 157.592 290.678 157.64C291.099 157.683 291.592 157.664 292.158 157.584V159ZM286.254 151.704V150.36H292.158V151.704H286.254ZM293.979 159V150.36H295.467V152.456L295.259 152.184C295.366 151.907 295.505 151.653 295.675 151.424C295.846 151.189 296.043 150.997 296.267 150.848C296.486 150.688 296.729 150.565 296.995 150.48C297.267 150.389 297.545 150.336 297.827 150.32C298.11 150.299 298.382 150.312 298.643 150.36V151.928C298.361 151.853 298.046 151.832 297.699 151.864C297.358 151.896 297.043 152.005 296.755 152.192C296.483 152.368 296.267 152.581 296.107 152.832C295.953 153.083 295.841 153.363 295.771 153.672C295.702 153.976 295.667 154.299 295.667 154.64V159H293.979ZM303.843 159.24C302.984 159.24 302.229 159.053 301.579 158.68C300.933 158.301 300.429 157.776 300.067 157.104C299.709 156.427 299.531 155.643 299.531 154.752C299.531 153.808 299.707 152.989 300.059 152.296C300.416 151.603 300.912 151.067 301.547 150.688C302.181 150.309 302.92 150.12 303.763 150.12C304.643 150.12 305.392 150.325 306.011 150.736C306.629 151.141 307.091 151.72 307.395 152.472C307.704 153.224 307.827 154.117 307.763 155.152H306.091V154.544C306.08 153.541 305.888 152.8 305.515 152.32C305.147 151.84 304.584 151.6 303.827 151.6C302.989 151.6 302.36 151.864 301.939 152.392C301.517 152.92 301.307 153.683 301.307 154.68C301.307 155.629 301.517 156.365 301.939 156.888C302.36 157.405 302.968 157.664 303.763 157.664C304.285 157.664 304.736 157.547 305.115 157.312C305.499 157.072 305.797 156.731 306.011 156.288L307.651 156.808C307.315 157.581 306.805 158.181 306.123 158.608C305.44 159.029 304.68 159.24 303.843 159.24ZM300.763 155.152V153.848H306.931V155.152H300.763Z" fill="#00796B"/>
</svg>
