<svg width="805" height="171" viewBox="0 0 805 171" fill="none" xmlns="http://www.w3.org/2000/svg">
<path d="M7.66511 7.47843V1.95635L2.74531 7.47843H7.66511ZM7.55639 11.4111V9.02706H0V7.6822L7.01276 0.142822H9.89398V7.47843H11.851V9.02706H9.89398V11.4111H7.55639Z" fill="#00796B"/>
<path d="M16.6048 0.427911C17.3251 0.142637 18.2085 0 19.2414 0C20.2743 0 21.1441 0.142637 21.8508 0.427911C22.5711 0.713184 23.1351 1.13091 23.5361 1.67089C23.9302 2.20068 24.2156 2.79161 24.3787 3.44366C24.5554 4.09572 24.6505 4.84456 24.6505 5.6851C24.6505 6.53073 24.5554 7.27448 24.3787 7.92653C24.2156 8.57859 23.9302 9.1797 23.5361 9.71968C23.1351 10.2495 22.5711 10.657 21.8508 10.9423C21.1441 11.2276 20.2743 11.3702 19.2414 11.3702C18.2085 11.3702 17.3251 11.2276 16.6048 10.9423C15.8777 10.657 15.3137 10.2495 14.9196 9.71968C14.5187 9.1797 14.2265 8.57859 14.0498 7.92653C13.8867 7.27448 13.8052 6.53073 13.8052 5.6851C13.8052 4.84456 13.8867 4.09572 14.0498 3.44366C14.2265 2.79161 14.5187 2.20068 14.9196 1.67089C15.3137 1.13091 15.8777 0.713184 16.6048 0.427911ZM19.2414 1.63014C18.5687 1.63014 18.0183 1.74221 17.5834 1.95616C17.1485 2.15993 16.8359 2.47577 16.6592 2.89349C16.3126 3.61686 16.1428 4.544 16.1428 5.6851C16.1428 6.82619 16.3126 7.75843 16.6592 8.4767C17.0397 9.33252 17.8892 9.76044 19.2142 9.76044C20.5529 9.76044 21.4227 9.33252 21.8236 8.4767C22.1498 7.75843 22.3129 6.82619 22.3129 5.6851C22.3129 4.544 22.1498 3.61686 21.8236 2.89349C21.4227 2.05295 20.5597 1.63014 19.2414 1.63014Z" fill="#00796B"/>
<path d="M1.37272 36.9607C1.44068 35.9979 1.92994 35.2439 2.84051 34.6989C3.76467 34.1589 4.94026 33.8838 6.37407 33.8838C7.82148 33.8838 8.95629 34.164 9.77173 34.7192C10.6008 35.2796 11.0221 35.9928 11.0221 36.8588C11.0221 37.5108 10.7842 38.0712 10.3154 38.5297C9.86007 38.978 9.31644 39.2836 8.68448 39.4466V39.5078C9.49992 39.7013 10.1319 40.0477 10.5872 40.547C11.056 41.036 11.2939 41.7084 11.2939 42.5643C11.2939 43.4201 10.8658 44.1485 10.0164 44.7446C9.16015 45.3304 7.96418 45.6208 6.42844 45.6208C4.90629 45.6208 3.66274 45.3355 2.7046 44.7649C1.73967 44.1842 1.22323 43.3488 1.15527 42.2586H3.4385C3.49286 42.819 3.77147 43.2723 4.28112 43.6238C4.80436 43.9652 5.49068 44.1333 6.34689 44.1333C7.21669 44.1333 7.87584 43.9652 8.33112 43.6238C8.8 43.2723 9.03784 42.819 9.03784 42.2586C9.03784 41.525 8.72525 41.0105 8.11367 40.71C7.4953 40.3992 6.54396 40.2413 5.25964 40.2413H4.71602V38.7742H5.28682C7.58364 38.7487 8.73884 38.1782 8.73884 37.0626C8.73884 36.5633 8.52139 36.1609 8.08649 35.8603C7.66518 35.5649 7.0604 35.412 6.26535 35.412C5.48389 35.412 4.87911 35.5649 4.44421 35.8603C4.00931 36.1609 3.75108 36.5277 3.68313 36.9607H1.37272Z" fill="#00796B"/>
<path d="M16.5995 34.5763C17.3198 34.2911 18.2032 34.1484 19.2361 34.1484C20.2689 34.1484 21.1387 34.2911 21.8455 34.5763C22.5658 34.8616 23.1298 35.2793 23.5307 35.8193C23.9248 36.3491 24.2102 36.94 24.3733 37.5921C24.55 38.2442 24.6451 38.993 24.6451 39.8335C24.6451 40.6792 24.55 41.4229 24.3733 42.075C24.2102 42.727 23.9248 43.3281 23.5307 43.8681C23.1298 44.3979 22.5658 44.8054 21.8455 45.0907C21.1387 45.376 20.2689 45.5186 19.2361 45.5186C18.2032 45.5186 17.3198 45.376 16.5995 45.0907C15.8724 44.8054 15.3084 44.3979 14.9142 43.8681C14.5133 43.3281 14.2211 42.727 14.0444 42.075C13.8813 41.4229 13.7998 40.6792 13.7998 39.8335C13.7998 38.993 13.8813 38.2442 14.0444 37.5921C14.2211 36.94 14.5133 36.3491 14.9142 35.8193C15.3084 35.2793 15.8724 34.8616 16.5995 34.5763ZM19.2361 35.7786C18.5633 35.7786 18.0129 35.8906 17.578 36.1046C17.1431 36.3084 16.8305 36.6242 16.6538 37.0419C16.3073 37.7653 16.1374 38.6924 16.1374 39.8335C16.1374 40.9746 16.3073 41.9069 16.6538 42.6251C17.0344 43.481 17.8838 43.9089 19.2089 43.9089C20.5476 43.9089 21.4174 43.481 21.8183 42.6251C22.1444 41.9069 22.3075 40.9746 22.3075 39.8335C22.3075 38.6924 22.1444 37.7653 21.8183 37.0419C21.4174 36.2014 20.5543 35.7786 19.2361 35.7786Z" fill="#00796B"/>
<path d="M1.55623 79.5449V78.2612C1.896 78.0319 2.40565 77.7059 3.07838 77.2831C3.74433 76.8501 4.25397 76.519 4.60053 76.2846C4.96069 76.0401 5.40238 75.7345 5.93242 75.3677C6.47604 75.0009 6.89055 74.6851 7.18275 74.41C7.46816 74.14 7.76715 73.8394 8.07974 73.5134C8.63695 72.9021 8.92235 72.301 8.92235 71.6999C8.92235 70.4111 8.10692 69.7641 6.47604 69.7641C5.64022 69.7641 4.99466 69.9628 4.54617 70.355C4.09089 70.7371 3.85305 71.2618 3.83946 71.924H1.52905C1.58342 70.732 2.05909 69.8201 2.96966 69.1935C3.87344 68.5568 5.06262 68.2358 6.5304 68.2358C7.99819 68.2358 9.15339 68.5517 10.0096 69.1732C10.859 69.7845 11.2871 70.5944 11.2871 71.598C11.2871 72.3621 11.0153 73.0855 10.4717 73.7783C10.1795 74.1349 9.90088 74.4507 9.62907 74.736C9.37084 75.0111 9.01069 75.3218 8.54182 75.6733C8.06614 76.0299 7.68561 76.305 7.4002 76.5088C7.12839 76.7024 6.72067 76.9723 6.17705 77.3238C5.64701 77.6804 5.28686 77.925 5.0898 78.0574H11.6948V79.5449H1.55623Z" fill="#00796B"/>
<path d="M16.5912 68.725C17.3115 68.4398 18.1949 68.2971 19.2278 68.2971C20.2606 68.2971 21.1304 68.4398 21.8372 68.725C22.5575 69.0103 23.1215 69.428 23.5224 69.968C23.9165 70.4978 24.2019 71.0887 24.365 71.7408C24.5417 72.3928 24.6368 73.1417 24.6368 73.9822C24.6368 74.8278 24.5417 75.5716 24.365 76.2237C24.2019 76.8757 23.9165 77.4768 23.5224 78.0168C23.1215 78.5466 22.5575 78.9541 21.8372 79.2394C21.1304 79.5247 20.2606 79.6673 19.2278 79.6673C18.1949 79.6673 17.3115 79.5247 16.5912 79.2394C15.8641 78.9541 15.3001 78.5466 14.9059 78.0168C14.505 77.4768 14.2128 76.8757 14.0361 76.2237C13.873 75.5716 13.7915 74.8278 13.7915 73.9822C13.7915 73.1417 13.873 72.3928 14.0361 71.7408C14.2128 71.0887 14.505 70.4978 14.9059 69.968C15.3001 69.428 15.8641 69.0103 16.5912 68.725ZM19.2278 69.9273C18.555 69.9273 18.0046 70.0393 17.5697 70.2533C17.1348 70.457 16.8222 70.7729 16.6455 71.1906C16.299 71.914 16.1291 72.8411 16.1291 73.9822C16.1291 75.1233 16.299 76.0555 16.6455 76.7738C17.0261 77.6296 17.8755 78.0576 19.2006 78.0576C20.5392 78.0576 21.409 77.6296 21.81 76.7738C22.1361 76.0555 22.2992 75.1233 22.2992 73.9822C22.2992 72.8411 22.1361 71.914 21.81 71.1906C21.409 70.3501 20.546 69.9273 19.2278 69.9273Z" fill="#00796B"/>
<path d="M8.12713 113.856V104.381H6.19727V102.751H10.5191V113.856H8.12713Z" fill="#00796B"/>
<path d="M16.6022 102.873C17.3225 102.588 18.2059 102.445 19.2387 102.445C20.2716 102.445 21.1414 102.588 21.8481 102.873C22.5684 103.158 23.1325 103.576 23.5334 104.116C23.9275 104.646 24.2129 105.237 24.376 105.889C24.5527 106.541 24.6478 107.29 24.6478 108.13C24.6478 108.976 24.5527 109.72 24.376 110.372C24.2129 111.024 23.9275 111.625 23.5334 112.165C23.1325 112.695 22.5684 113.102 21.8481 113.388C21.1414 113.673 20.2716 113.816 19.2387 113.816C18.2059 113.816 17.3225 113.673 16.6022 113.388C15.8751 113.102 15.3111 112.695 14.9169 112.165C14.516 111.625 14.2238 111.024 14.0471 110.372C13.884 109.72 13.8025 108.976 13.8025 108.13C13.8025 107.29 13.884 106.541 14.0471 105.889C14.2238 105.237 14.516 104.646 14.9169 104.116C15.3111 103.576 15.8751 103.158 16.6022 102.873ZM19.2387 104.075C18.566 104.075 18.0156 104.188 17.5807 104.401C17.1458 104.605 16.8332 104.921 16.6565 105.339C16.31 106.062 16.1401 106.989 16.1401 108.13C16.1401 109.272 16.31 110.204 16.6565 110.922C17.0371 111.778 17.8865 112.206 19.2116 112.206C20.5502 112.206 21.42 111.778 21.821 110.922C22.1471 110.204 22.3102 109.272 22.3102 108.13C22.3102 106.989 22.1471 106.062 21.821 105.339C21.42 104.498 20.557 104.075 19.2387 104.075Z" fill="#00796B"/>
<path d="M16.5943 137.022C17.3147 136.736 18.198 136.594 19.2309 136.594C20.2638 136.594 21.1336 136.736 21.8403 137.022C22.5606 137.307 23.1246 137.725 23.5256 138.265C23.9197 138.794 24.2051 139.385 24.3682 140.037C24.5449 140.689 24.64 141.438 24.64 142.279C24.64 143.124 24.5449 143.868 24.3682 144.52C24.2051 145.172 23.9197 145.773 23.5256 146.313C23.1246 146.843 22.5606 147.251 21.8403 147.536C21.1336 147.821 20.2638 147.964 19.2309 147.964C18.198 147.964 17.3147 147.821 16.5943 147.536C15.8672 147.251 15.3032 146.843 14.9091 146.313C14.5082 145.773 14.216 145.172 14.0393 144.52C13.8762 143.868 13.7947 143.124 13.7947 142.279C13.7947 141.438 13.8762 140.689 14.0393 140.037C14.216 139.385 14.5082 138.794 14.9091 138.265C15.3032 137.725 15.8672 137.307 16.5943 137.022ZM19.2309 138.224C18.5582 138.224 18.0078 138.336 17.5729 138.55C17.138 138.754 16.8254 139.07 16.6487 139.487C16.3021 140.211 16.1323 141.138 16.1323 142.279C16.1323 143.42 16.3021 144.352 16.6487 145.07C17.0292 145.926 17.8787 146.354 19.2037 146.354C20.5424 146.354 21.4122 145.926 21.8131 145.07C22.1393 144.352 22.3024 143.42 22.3024 142.279C22.3024 141.138 22.1393 140.211 21.8131 139.487C21.4122 138.647 20.5492 138.224 19.2309 138.224Z" fill="#00796B"/>
<path d="M154.858 81.784C154.858 79.079 151.942 76.8834 148.341 76.8834C144.733 76.8834 141.817 79.079 141.817 81.784C141.817 84.489 144.733 86.6846 148.341 86.6846C151.942 86.6846 154.858 84.489 154.858 81.784ZM147.838 79.6088C146.241 79.8176 145.167 80.9587 145.446 82.161C145.718 83.3581 147.24 84.163 148.837 83.9592L360.171 56.578C361.768 56.3743 362.842 55.2332 362.563 54.0309C362.291 52.8287 360.769 52.0238 359.172 52.2327L147.838 79.6088Z" fill="#00796B"/>
<path d="M366.192 54.4082C366.192 51.6981 363.277 49.5076 359.675 49.5076C356.067 49.5076 353.152 51.6981 353.152 54.4082C353.152 57.1132 356.067 59.3088 359.675 59.3088C363.277 59.3088 366.192 57.1132 366.192 54.4082ZM360.293 52.2482C358.703 51.9935 357.147 52.7526 356.801 53.9395C356.461 55.1315 357.467 56.3083 359.057 56.563L570.384 90.7857C571.974 91.0404 573.53 90.2864 573.877 89.0944C574.217 87.9024 573.211 86.7307 571.621 86.476L360.293 52.2482Z" fill="#00796B"/>
<path d="M577.526 88.6306C577.526 85.9205 574.611 83.73 571.003 83.73C567.401 83.73 564.486 85.9205 564.486 88.6306C564.486 91.3356 567.401 93.5312 571.003 93.5312C574.611 93.5312 577.526 91.3356 577.526 88.6306ZM569.895 86.5878C568.393 87.0514 567.673 88.3402 568.291 89.466C568.903 90.5918 570.615 91.1318 572.117 90.6683L783.451 25.6462C784.953 25.1827 785.667 23.8989 785.055 22.768C784.444 21.6422 782.724 21.1022 781.229 21.5658L569.895 86.5878ZM788.861 23.6035C788.861 20.8985 785.939 18.7029 782.337 18.7029C778.736 18.7029 775.82 20.8985 775.82 23.6035C775.82 26.3136 778.736 28.5041 782.337 28.5041C785.939 28.5041 788.861 26.3136 788.861 23.6035Z" fill="#00796B"/>
<path d="M154.858 98.8953C154.858 96.1903 151.942 93.9947 148.341 93.9947C144.733 93.9947 141.817 96.1903 141.817 98.8953C141.817 101.605 144.733 103.796 148.341 103.796C151.942 103.796 154.858 101.605 154.858 98.8953ZM147.723 96.7404C146.132 96.9951 145.127 98.1719 145.466 99.3588C145.813 100.551 147.369 101.31 148.959 101.05L360.293 66.8274C361.877 66.5727 362.883 65.4011 362.543 64.209C362.196 63.017 360.64 62.258 359.057 62.5178L147.723 96.7404Z" fill="#FF5722"/>
<path d="M366.192 64.6728C366.192 61.9678 363.277 59.7722 359.675 59.7722C356.067 59.7722 353.152 61.9678 353.152 64.6728C353.152 67.3778 356.067 69.5734 359.675 69.5734C363.277 69.5734 366.192 67.3778 366.192 64.6728ZM359.927 62.4772C358.309 62.3702 356.889 63.2719 356.746 64.4843C356.61 65.6967 357.806 66.7665 359.417 66.8684L570.751 80.5615C572.368 80.6634 573.789 79.7668 573.931 78.5544C574.067 77.3369 572.871 76.2722 571.261 76.1653L359.927 62.4772Z" fill="#FF5722"/>
<path d="M577.526 78.3609C577.526 75.6558 574.611 73.4603 571.003 73.4603C567.401 73.4603 564.486 75.6558 564.486 78.3609C564.486 81.071 567.401 83.2614 571.003 83.2614C574.611 83.2614 577.526 81.071 577.526 78.3609ZM570.446 76.1958C568.855 76.4302 567.816 77.5865 568.122 78.7837C568.434 79.9757 569.97 80.7602 571.567 80.5259L782.901 49.7265C784.491 49.4973 785.531 48.3358 785.218 47.1438C784.912 45.9466 783.37 45.1621 781.78 45.3965L570.446 76.1958ZM788.861 47.5615C788.861 44.8565 785.939 42.6609 782.337 42.6609C778.736 42.6609 775.82 44.8565 775.82 47.5615C775.82 50.2665 778.736 52.4621 782.337 52.4621C785.939 52.4621 788.861 50.2665 788.861 47.5615Z" fill="#FF5722"/>
<path d="M154.858 71.5195C154.858 68.8094 151.942 66.6189 148.341 66.6189C144.733 66.6189 141.817 68.8094 141.817 71.5195C141.817 74.2245 144.733 76.4201 148.341 76.4201C151.942 76.4201 154.858 74.2245 154.858 71.5195ZM148.776 69.3392C147.172 69.1558 145.677 69.9861 145.432 71.1884C145.195 72.3957 146.295 73.5164 147.899 73.6998L359.233 97.6526C360.837 97.836 362.332 97.0056 362.577 95.8034C362.815 94.6012 361.714 93.4754 360.11 93.292L148.776 69.3392Z" fill="#717171"/>
<path d="M366.192 95.472C366.192 92.767 363.277 90.5714 359.675 90.5714C356.067 90.5714 353.152 92.767 353.152 95.472C353.152 98.1821 356.067 100.373 359.675 100.373C363.277 100.373 366.192 98.1821 366.192 95.472ZM358.717 93.3885C357.181 93.7859 356.366 95.039 356.896 96.1954C357.426 97.3467 359.098 97.958 360.626 97.5607L571.961 42.8034C573.496 42.406 574.312 41.1478 573.782 39.9965C573.252 38.8452 571.58 38.2339 570.051 38.6313L358.717 93.3885Z" fill="#717171"/>
<path d="M577.526 40.715C577.526 38.01 574.611 35.8145 571.003 35.8145C567.401 35.8145 564.486 38.01 564.486 40.715C564.486 43.4251 567.401 45.6207 571.003 45.6207C574.611 45.6207 577.526 43.4251 577.526 40.715ZM571.261 38.5195C569.644 38.4176 568.224 39.3141 568.081 40.5266C567.945 41.739 569.141 42.8088 570.751 42.9157L782.086 56.6038C783.703 56.7108 785.123 55.8091 785.266 54.5967C785.402 53.3843 784.206 52.3145 782.588 52.2075L571.261 38.5195ZM788.861 54.4082C788.861 51.6981 785.939 49.5076 782.337 49.5076C778.736 49.5076 775.82 51.6981 775.82 54.4082C775.82 57.1132 778.736 59.3088 782.337 59.3088C785.939 59.3088 788.861 57.1132 788.861 54.4082Z" fill="#717171"/>
<path d="M109.747 159V149.32L107.579 150.64V148.776L109.747 147.48H111.451V159H109.747ZM116.161 154.68C115.51 154.68 114.987 154.467 114.593 154.04C114.203 153.613 114.009 153.064 114.009 152.392C114.009 151.72 114.206 151.173 114.601 150.752C115.001 150.331 115.521 150.12 116.161 150.12C116.811 150.12 117.331 150.333 117.721 150.76C118.115 151.187 118.313 151.731 118.313 152.392C118.313 153.069 118.115 153.621 117.721 154.048C117.326 154.469 116.806 154.68 116.161 154.68ZM116.153 153.776C116.537 153.776 116.822 153.648 117.009 153.392C117.201 153.136 117.297 152.803 117.297 152.392C117.297 151.976 117.201 151.645 117.009 151.4C116.822 151.149 116.537 151.024 116.153 151.024C115.769 151.024 115.486 151.152 115.305 151.408C115.123 151.659 115.033 151.989 115.033 152.4C115.033 152.821 115.126 153.157 115.313 153.408C115.499 153.653 115.779 153.776 116.153 153.776ZM123.27 159V147.48H127.798C128.528 147.48 129.142 147.629 129.638 147.928C130.134 148.227 130.507 148.613 130.758 149.088C131.008 149.557 131.134 150.053 131.134 150.576C131.134 151.211 130.976 151.755 130.662 152.208C130.352 152.661 129.934 152.971 129.406 153.136L129.39 152.744C130.126 152.925 130.691 153.28 131.086 153.808C131.48 154.331 131.678 154.941 131.678 155.64C131.678 156.317 131.542 156.907 131.27 157.408C131.003 157.909 130.611 158.301 130.094 158.584C129.582 158.861 128.96 159 128.23 159H123.27ZM124.966 157.408H127.974C128.352 157.408 128.691 157.336 128.99 157.192C129.294 157.048 129.531 156.843 129.702 156.576C129.878 156.304 129.966 155.981 129.966 155.608C129.966 155.261 129.888 154.949 129.734 154.672C129.584 154.389 129.366 154.168 129.078 154.008C128.795 153.843 128.462 153.76 128.078 153.76H124.966V157.408ZM124.966 152.184H127.774C128.083 152.184 128.36 152.123 128.606 152C128.856 151.872 129.054 151.691 129.198 151.456C129.347 151.216 129.422 150.928 129.422 150.592C129.422 150.144 129.272 149.776 128.974 149.488C128.675 149.2 128.275 149.056 127.774 149.056H124.966V152.184ZM133.43 148.944V147.32H135.102V148.944H133.43ZM133.43 159V150.36H135.102V159H133.43ZM147.856 159L147.864 153.616C147.864 152.992 147.704 152.507 147.384 152.16C147.064 151.808 146.643 151.632 146.12 151.632C145.8 151.632 145.507 151.707 145.24 151.856C144.979 152 144.766 152.219 144.6 152.512C144.44 152.8 144.36 153.163 144.36 153.6L143.552 153.192C143.542 152.584 143.67 152.051 143.936 151.592C144.208 151.133 144.576 150.779 145.04 150.528C145.504 150.272 146.024 150.144 146.6 150.144C147.534 150.144 148.256 150.424 148.768 150.984C149.28 151.544 149.536 152.288 149.536 153.216L149.528 159H147.856ZM137.496 159V150.36H138.984V152.856H139.176V159H137.496ZM142.68 159L142.688 153.648C142.688 153.019 142.528 152.525 142.208 152.168C141.894 151.811 141.47 151.632 140.936 151.632C140.408 151.632 139.982 151.813 139.656 152.176C139.336 152.539 139.176 153.013 139.176 153.6L138.376 153.088C138.376 152.523 138.512 152.019 138.784 151.576C139.056 151.133 139.424 150.784 139.888 150.528C140.352 150.272 140.878 150.144 141.464 150.144C142.078 150.144 142.6 150.275 143.032 150.536C143.464 150.792 143.792 151.152 144.016 151.616C144.246 152.08 144.36 152.619 144.36 153.232L144.352 159H142.68ZM155.336 159.24C154.478 159.24 153.723 159.053 153.072 158.68C152.427 158.301 151.923 157.776 151.56 157.104C151.203 156.427 151.024 155.643 151.024 154.752C151.024 153.808 151.2 152.989 151.552 152.296C151.91 151.603 152.406 151.067 153.04 150.688C153.675 150.309 154.414 150.12 155.256 150.12C156.136 150.12 156.886 150.325 157.504 150.736C158.123 151.141 158.584 151.72 158.888 152.472C159.198 153.224 159.32 154.117 159.256 155.152H157.584V154.544C157.574 153.541 157.382 152.8 157.008 152.32C156.64 151.84 156.078 151.6 155.32 151.6C154.483 151.6 153.854 151.864 153.432 152.392C153.011 152.92 152.8 153.683 152.8 154.68C152.8 155.629 153.011 156.365 153.432 156.888C153.854 157.405 154.462 157.664 155.256 157.664C155.779 157.664 156.23 157.547 156.608 157.312C156.992 157.072 157.291 156.731 157.504 156.288L159.144 156.808C158.808 157.581 158.299 158.181 157.616 158.608C156.934 159.029 156.174 159.24 155.336 159.24ZM152.256 155.152V153.848H158.424V155.152H152.256ZM164.355 159.232C163.304 159.232 162.448 159 161.787 158.536C161.126 158.072 160.72 157.419 160.571 156.576L162.283 156.312C162.39 156.76 162.635 157.115 163.019 157.376C163.408 157.632 163.891 157.76 164.467 157.76C164.99 157.76 165.398 157.653 165.691 157.44C165.99 157.227 166.139 156.933 166.139 156.56C166.139 156.341 166.086 156.165 165.979 156.032C165.878 155.893 165.662 155.763 165.331 155.64C165 155.517 164.496 155.365 163.819 155.184C163.078 154.992 162.488 154.787 162.051 154.568C161.619 154.344 161.31 154.085 161.123 153.792C160.942 153.493 160.851 153.133 160.851 152.712C160.851 152.189 160.99 151.733 161.267 151.344C161.544 150.955 161.934 150.653 162.435 150.44C162.942 150.227 163.534 150.12 164.211 150.12C164.872 150.12 165.462 150.224 165.979 150.432C166.496 150.64 166.915 150.936 167.235 151.32C167.555 151.699 167.747 152.144 167.811 152.656L166.099 152.968C166.04 152.552 165.846 152.224 165.515 151.984C165.184 151.744 164.755 151.613 164.227 151.592C163.72 151.571 163.31 151.656 162.995 151.848C162.68 152.035 162.523 152.293 162.523 152.624C162.523 152.816 162.582 152.979 162.699 153.112C162.822 153.245 163.056 153.373 163.403 153.496C163.75 153.619 164.262 153.765 164.939 153.936C165.664 154.123 166.24 154.331 166.667 154.56C167.094 154.784 167.398 155.053 167.579 155.368C167.766 155.677 167.859 156.053 167.859 156.496C167.859 157.349 167.547 158.019 166.923 158.504C166.304 158.989 165.448 159.232 164.355 159.232ZM174.573 159C174.029 159.107 173.496 159.152 172.973 159.136C172.451 159.12 171.984 159.019 171.573 158.832C171.163 158.645 170.853 158.352 170.645 157.952C170.459 157.595 170.357 157.232 170.341 156.864C170.331 156.491 170.325 156.069 170.325 155.6V147.96H172.005V155.52C172.005 155.867 172.008 156.168 172.013 156.424C172.024 156.68 172.08 156.896 172.181 157.072C172.373 157.403 172.677 157.592 173.093 157.64C173.515 157.683 174.008 157.664 174.573 157.584V159ZM168.669 151.704V150.36H174.573V151.704H168.669ZM176.395 159V150.36H177.883V152.456L177.675 152.184C177.781 151.907 177.92 151.653 178.091 151.424C178.261 151.189 178.459 150.997 178.683 150.848C178.901 150.688 179.144 150.565 179.411 150.48C179.683 150.389 179.96 150.336 180.243 150.32C180.525 150.299 180.797 150.312 181.059 150.36V151.928C180.776 151.853 180.461 151.832 180.115 151.864C179.773 151.896 179.459 152.005 179.171 152.192C178.899 152.368 178.683 152.581 178.523 152.832C178.368 153.083 178.256 153.363 178.187 153.672C178.117 153.976 178.083 154.299 178.083 154.64V159H176.395ZM186.258 159.24C185.399 159.24 184.645 159.053 183.994 158.68C183.349 158.301 182.845 157.776 182.482 157.104C182.125 156.427 181.946 155.643 181.946 154.752C181.946 153.808 182.122 152.989 182.474 152.296C182.831 151.603 183.327 151.067 183.962 150.688C184.597 150.309 185.335 150.12 186.178 150.12C187.058 150.12 187.807 150.325 188.426 150.736C189.045 151.141 189.506 151.72 189.81 152.472C190.119 153.224 190.242 154.117 190.178 155.152H188.506V154.544C188.495 153.541 188.303 152.8 187.93 152.32C187.562 151.84 186.999 151.6 186.242 151.6C185.405 151.6 184.775 151.864 184.354 152.392C183.933 152.92 183.722 153.683 183.722 154.68C183.722 155.629 183.933 156.365 184.354 156.888C184.775 157.405 185.383 157.664 186.178 157.664C186.701 157.664 187.151 157.547 187.53 157.312C187.914 157.072 188.213 156.731 188.426 156.288L190.066 156.808C189.73 157.581 189.221 158.181 188.538 158.608C187.855 159.029 187.095 159.24 186.258 159.24ZM183.178 155.152V153.848H189.346V155.152H183.178Z" fill="#00796B"/>
<path d="M109.747 159V149.32L107.579 150.64V148.776L109.747 147.48H111.451V159H109.747ZM116.161 154.68C115.51 154.68 114.987 154.467 114.593 154.04C114.203 153.613 114.009 153.064 114.009 152.392C114.009 151.72 114.206 151.173 114.601 150.752C115.001 150.331 115.521 150.12 116.161 150.12C116.811 150.12 117.331 150.333 117.721 150.76C118.115 151.187 118.313 151.731 118.313 152.392C118.313 153.069 118.115 153.621 117.721 154.048C117.326 154.469 116.806 154.68 116.161 154.68ZM116.153 153.776C116.537 153.776 116.822 153.648 117.009 153.392C117.201 153.136 117.297 152.803 117.297 152.392C117.297 151.976 117.201 151.645 117.009 151.4C116.822 151.149 116.537 151.024 116.153 151.024C115.769 151.024 115.486 151.152 115.305 151.408C115.123 151.659 115.033 151.989 115.033 152.4C115.033 152.821 115.126 153.157 115.313 153.408C115.499 153.653 115.779 153.776 116.153 153.776ZM123.27 159V147.48H127.798C128.528 147.48 129.142 147.629 129.638 147.928C130.134 148.227 130.507 148.613 130.758 149.088C131.008 149.557 131.134 150.053 131.134 150.576C131.134 151.211 130.976 151.755 130.662 152.208C130.352 152.661 129.934 152.971 129.406 153.136L129.39 152.744C130.126 152.925 130.691 153.28 131.086 153.808C131.48 154.331 131.678 154.941 131.678 155.64C131.678 156.317 131.542 156.907 131.27 157.408C131.003 157.909 130.611 158.301 130.094 158.584C129.582 158.861 128.96 159 128.23 159H123.27ZM124.966 157.408H127.974C128.352 157.408 128.691 157.336 128.99 157.192C129.294 157.048 129.531 156.843 129.702 156.576C129.878 156.304 129.966 155.981 129.966 155.608C129.966 155.261 129.888 154.949 129.734 154.672C129.584 154.389 129.366 154.168 129.078 154.008C128.795 153.843 128.462 153.76 128.078 153.76H124.966V157.408ZM124.966 152.184H127.774C128.083 152.184 128.36 152.123 128.606 152C128.856 151.872 129.054 151.691 129.198 151.456C129.347 151.216 129.422 150.928 129.422 150.592C129.422 150.144 129.272 149.776 128.974 149.488C128.675 149.2 128.275 149.056 127.774 149.056H124.966V152.184ZM133.43 148.944V147.32H135.102V148.944H133.43ZM133.43 159V150.36H135.102V159H133.43ZM147.856 159L147.864 153.616C147.864 152.992 147.704 152.507 147.384 152.16C147.064 151.808 146.643 151.632 146.12 151.632C145.8 151.632 145.507 151.707 145.24 151.856C144.979 152 144.766 152.219 144.6 152.512C144.44 152.8 144.36 153.163 144.36 153.6L143.552 153.192C143.542 152.584 143.67 152.051 143.936 151.592C144.208 151.133 144.576 150.779 145.04 150.528C145.504 150.272 146.024 150.144 146.6 150.144C147.534 150.144 148.256 150.424 148.768 150.984C149.28 151.544 149.536 152.288 149.536 153.216L149.528 159H147.856ZM137.496 159V150.36H138.984V152.856H139.176V159H137.496ZM142.68 159L142.688 153.648C142.688 153.019 142.528 152.525 142.208 152.168C141.894 151.811 141.47 151.632 140.936 151.632C140.408 151.632 139.982 151.813 139.656 152.176C139.336 152.539 139.176 153.013 139.176 153.6L138.376 153.088C138.376 152.523 138.512 152.019 138.784 151.576C139.056 151.133 139.424 150.784 139.888 150.528C140.352 150.272 140.878 150.144 141.464 150.144C142.078 150.144 142.6 150.275 143.032 150.536C143.464 150.792 143.792 151.152 144.016 151.616C144.246 152.08 144.36 152.619 144.36 153.232L144.352 159H142.68ZM155.336 159.24C154.478 159.24 153.723 159.053 153.072 158.68C152.427 158.301 151.923 157.776 151.56 157.104C151.203 156.427 151.024 155.643 151.024 154.752C151.024 153.808 151.2 152.989 151.552 152.296C151.91 151.603 152.406 151.067 153.04 150.688C153.675 150.309 154.414 150.12 155.256 150.12C156.136 150.12 156.886 150.325 157.504 150.736C158.123 151.141 158.584 151.72 158.888 152.472C159.198 153.224 159.32 154.117 159.256 155.152H157.584V154.544C157.574 153.541 157.382 152.8 157.008 152.32C156.64 151.84 156.078 151.6 155.32 151.6C154.483 151.6 153.854 151.864 153.432 152.392C153.011 152.92 152.8 153.683 152.8 154.68C152.8 155.629 153.011 156.365 153.432 156.888C153.854 157.405 154.462 157.664 155.256 157.664C155.779 157.664 156.23 157.547 156.608 157.312C156.992 157.072 157.291 156.731 157.504 156.288L159.144 156.808C158.808 157.581 158.299 158.181 157.616 158.608C156.934 159.029 156.174 159.24 155.336 159.24ZM152.256 155.152V153.848H158.424V155.152H152.256ZM164.355 159.232C163.304 159.232 162.448 159 161.787 158.536C161.126 158.072 160.72 157.419 160.571 156.576L162.283 156.312C162.39 156.76 162.635 157.115 163.019 157.376C163.408 157.632 163.891 157.76 164.467 157.76C164.99 157.76 165.398 157.653 165.691 157.44C165.99 157.227 166.139 156.933 166.139 156.56C166.139 156.341 166.086 156.165 165.979 156.032C165.878 155.893 165.662 155.763 165.331 155.64C165 155.517 164.496 155.365 163.819 155.184C163.078 154.992 162.488 154.787 162.051 154.568C161.619 154.344 161.31 154.085 161.123 153.792C160.942 153.493 160.851 153.133 160.851 152.712C160.851 152.189 160.99 151.733 161.267 151.344C161.544 150.955 161.934 150.653 162.435 150.44C162.942 150.227 163.534 150.12 164.211 150.12C164.872 150.12 165.462 150.224 165.979 150.432C166.496 150.64 166.915 150.936 167.235 151.32C167.555 151.699 167.747 152.144 167.811 152.656L166.099 152.968C166.04 152.552 165.846 152.224 165.515 151.984C165.184 151.744 164.755 151.613 164.227 151.592C163.72 151.571 163.31 151.656 162.995 151.848C162.68 152.035 162.523 152.293 162.523 152.624C162.523 152.816 162.582 152.979 162.699 153.112C162.822 153.245 163.056 153.373 163.403 153.496C163.75 153.619 164.262 153.765 164.939 153.936C165.664 154.123 166.24 154.331 166.667 154.56C167.094 154.784 167.398 155.053 167.579 155.368C167.766 155.677 167.859 156.053 167.859 156.496C167.859 157.349 167.547 158.019 166.923 158.504C166.304 158.989 165.448 159.232 164.355 159.232ZM174.573 159C174.029 159.107 173.496 159.152 172.973 159.136C172.451 159.12 171.984 159.019 171.573 158.832C171.163 158.645 170.853 158.352 170.645 157.952C170.459 157.595 170.357 157.232 170.341 156.864C170.331 156.491 170.325 156.069 170.325 155.6V147.96H172.005V155.52C172.005 155.867 172.008 156.168 172.013 156.424C172.024 156.68 172.08 156.896 172.181 157.072C172.373 157.403 172.677 157.592 173.093 157.64C173.515 157.683 174.008 157.664 174.573 157.584V159ZM168.669 151.704V150.36H174.573V151.704H168.669ZM176.395 159V150.36H177.883V152.456L177.675 152.184C177.781 151.907 177.92 151.653 178.091 151.424C178.261 151.189 178.459 150.997 178.683 150.848C178.901 150.688 179.144 150.565 179.411 150.48C179.683 150.389 179.96 150.336 180.243 150.32C180.525 150.299 180.797 150.312 181.059 150.36V151.928C180.776 151.853 180.461 151.832 180.115 151.864C179.773 151.896 179.459 152.005 179.171 152.192C178.899 152.368 178.683 152.581 178.523 152.832C178.368 153.083 178.256 153.363 178.187 153.672C178.117 153.976 178.083 154.299 178.083 154.64V159H176.395ZM186.258 159.24C185.399 159.24 184.645 159.053 183.994 158.68C183.349 158.301 182.845 157.776 182.482 157.104C182.125 156.427 181.946 155.643 181.946 154.752C181.946 153.808 182.122 152.989 182.474 152.296C182.831 151.603 183.327 151.067 183.962 150.688C184.597 150.309 185.335 150.12 186.178 150.12C187.058 150.12 187.807 150.325 188.426 150.736C189.045 151.141 189.506 151.72 189.81 152.472C190.119 153.224 190.242 154.117 190.178 155.152H188.506V154.544C188.495 153.541 188.303 152.8 187.93 152.32C187.562 151.84 186.999 151.6 186.242 151.6C185.405 151.6 184.775 151.864 184.354 152.392C183.933 152.92 183.722 153.683 183.722 154.68C183.722 155.629 183.933 156.365 184.354 156.888C184.775 157.405 185.383 157.664 186.178 157.664C186.701 157.664 187.151 157.547 187.53 157.312C187.914 157.072 188.213 156.731 188.426 156.288L190.066 156.808C189.73 157.581 189.221 158.181 188.538 158.608C187.855 159.029 187.095 159.24 186.258 159.24ZM183.178 155.152V153.848H189.346V155.152H183.178Z" fill="#00796B"/>
<path d="M503.779 159.216C503.208 159.216 502.672 159.109 502.171 158.896C501.67 158.677 501.235 158.368 500.867 157.968C500.504 157.568 500.24 157.096 500.075 156.552L501.691 156.104C501.846 156.6 502.115 156.981 502.499 157.248C502.883 157.509 503.31 157.637 503.779 157.632C504.2 157.627 504.571 157.528 504.891 157.336C505.211 157.144 505.462 156.885 505.643 156.56C505.824 156.229 505.915 155.851 505.915 155.424C505.915 154.784 505.715 154.256 505.315 153.84C504.92 153.424 504.403 153.216 503.763 153.216C503.582 153.216 503.395 153.243 503.203 153.296C503.016 153.349 502.84 153.419 502.675 153.504L501.891 152.184L505.955 148.592L506.131 149.072H500.531V147.48H507.459V149.072L504.083 152.32L504.067 151.776C504.792 151.776 505.422 151.939 505.955 152.264C506.488 152.584 506.899 153.021 507.187 153.576C507.48 154.125 507.627 154.741 507.627 155.424C507.627 156.16 507.454 156.813 507.107 157.384C506.766 157.955 506.304 158.403 505.723 158.728C505.147 159.053 504.499 159.216 503.779 159.216ZM511.383 154.68C510.733 154.68 510.21 154.467 509.815 154.04C509.426 153.613 509.231 153.064 509.231 152.392C509.231 151.72 509.429 151.173 509.823 150.752C510.223 150.331 510.743 150.12 511.383 150.12C512.034 150.12 512.554 150.333 512.943 150.76C513.338 151.187 513.535 151.731 513.535 152.392C513.535 153.069 513.338 153.621 512.943 154.048C512.549 154.469 512.029 154.68 511.383 154.68ZM511.375 153.776C511.759 153.776 512.045 153.648 512.231 153.392C512.423 153.136 512.519 152.803 512.519 152.392C512.519 151.976 512.423 151.645 512.231 151.4C512.045 151.149 511.759 151.024 511.375 151.024C510.991 151.024 510.709 151.152 510.527 151.408C510.346 151.659 510.255 151.989 510.255 152.4C510.255 152.821 510.349 153.157 510.535 153.408C510.722 153.653 511.002 153.776 511.375 153.776ZM518.492 159V147.48H523.02C523.751 147.48 524.364 147.629 524.86 147.928C525.356 148.227 525.73 148.613 525.98 149.088C526.231 149.557 526.356 150.053 526.356 150.576C526.356 151.211 526.199 151.755 525.884 152.208C525.575 152.661 525.156 152.971 524.628 153.136L524.612 152.744C525.348 152.925 525.914 153.28 526.308 153.808C526.703 154.331 526.9 154.941 526.9 155.64C526.9 156.317 526.764 156.907 526.492 157.408C526.226 157.909 525.834 158.301 525.316 158.584C524.804 158.861 524.183 159 523.452 159H518.492ZM520.188 157.408H523.196C523.575 157.408 523.914 157.336 524.212 157.192C524.516 157.048 524.754 156.843 524.924 156.576C525.1 156.304 525.188 155.981 525.188 155.608C525.188 155.261 525.111 154.949 524.956 154.672C524.807 154.389 524.588 154.168 524.3 154.008C524.018 153.843 523.684 153.76 523.3 153.76H520.188V157.408ZM520.188 152.184H522.996C523.306 152.184 523.583 152.123 523.828 152C524.079 151.872 524.276 151.691 524.42 151.456C524.57 151.216 524.644 150.928 524.644 150.592C524.644 150.144 524.495 149.776 524.196 149.488C523.898 149.2 523.498 149.056 522.996 149.056H520.188V152.184ZM528.652 148.944V147.32H530.324V148.944H528.652ZM528.652 159V150.36H530.324V159H528.652ZM543.079 159L543.087 153.616C543.087 152.992 542.927 152.507 542.607 152.16C542.287 151.808 541.866 151.632 541.343 151.632C541.023 151.632 540.73 151.707 540.463 151.856C540.202 152 539.988 152.219 539.823 152.512C539.663 152.8 539.583 153.163 539.583 153.6L538.775 153.192C538.764 152.584 538.892 152.051 539.159 151.592C539.431 151.133 539.799 150.779 540.263 150.528C540.727 150.272 541.247 150.144 541.823 150.144C542.756 150.144 543.479 150.424 543.991 150.984C544.503 151.544 544.759 152.288 544.759 153.216L544.751 159H543.079ZM532.719 159V150.36H534.207V152.856H534.399V159H532.719ZM537.903 159L537.911 153.648C537.911 153.019 537.751 152.525 537.431 152.168C537.116 151.811 536.692 151.632 536.159 151.632C535.631 151.632 535.204 151.813 534.879 152.176C534.559 152.539 534.399 153.013 534.399 153.6L533.599 153.088C533.599 152.523 533.735 152.019 534.007 151.576C534.279 151.133 534.647 150.784 535.111 150.528C535.575 150.272 536.1 150.144 536.687 150.144C537.3 150.144 537.823 150.275 538.255 150.536C538.687 150.792 539.015 151.152 539.239 151.616C539.468 152.08 539.583 152.619 539.583 153.232L539.575 159H537.903ZM550.559 159.24C549.7 159.24 548.946 159.053 548.295 158.68C547.65 158.301 547.146 157.776 546.783 157.104C546.426 156.427 546.247 155.643 546.247 154.752C546.247 153.808 546.423 152.989 546.775 152.296C547.132 151.603 547.628 151.067 548.263 150.688C548.898 150.309 549.636 150.12 550.479 150.12C551.359 150.12 552.108 150.325 552.727 150.736C553.346 151.141 553.807 151.72 554.111 152.472C554.42 153.224 554.543 154.117 554.479 155.152H552.807V154.544C552.796 153.541 552.604 152.8 552.231 152.32C551.863 151.84 551.3 151.6 550.543 151.6C549.706 151.6 549.076 151.864 548.655 152.392C548.234 152.92 548.023 153.683 548.023 154.68C548.023 155.629 548.234 156.365 548.655 156.888C549.076 157.405 549.684 157.664 550.479 157.664C551.002 157.664 551.452 157.547 551.831 157.312C552.215 157.072 552.514 156.731 552.727 156.288L554.367 156.808C554.031 157.581 553.522 158.181 552.839 158.608C552.156 159.029 551.396 159.24 550.559 159.24ZM547.479 155.152V153.848H553.647V155.152H547.479ZM559.578 159.232C558.527 159.232 557.671 159 557.01 158.536C556.348 158.072 555.943 157.419 555.794 156.576L557.506 156.312C557.612 156.76 557.858 157.115 558.242 157.376C558.631 157.632 559.114 157.76 559.69 157.76C560.212 157.76 560.62 157.653 560.914 157.44C561.212 157.227 561.362 156.933 561.362 156.56C561.362 156.341 561.308 156.165 561.202 156.032C561.1 155.893 560.884 155.763 560.554 155.64C560.223 155.517 559.719 155.365 559.042 155.184C558.3 154.992 557.711 154.787 557.274 154.568C556.842 154.344 556.532 154.085 556.346 153.792C556.164 153.493 556.074 153.133 556.074 152.712C556.074 152.189 556.212 151.733 556.49 151.344C556.767 150.955 557.156 150.653 557.658 150.44C558.164 150.227 558.756 150.12 559.434 150.12C560.095 150.12 560.684 150.224 561.202 150.432C561.719 150.64 562.138 150.936 562.458 151.32C562.778 151.699 562.97 152.144 563.034 152.656L561.322 152.968C561.263 152.552 561.068 152.224 560.738 151.984C560.407 151.744 559.978 151.613 559.45 151.592C558.943 151.571 558.532 151.656 558.218 151.848C557.903 152.035 557.746 152.293 557.746 152.624C557.746 152.816 557.804 152.979 557.922 153.112C558.044 153.245 558.279 153.373 558.626 153.496C558.972 153.619 559.484 153.765 560.162 153.936C560.887 154.123 561.463 154.331 561.89 154.56C562.316 154.784 562.62 155.053 562.802 155.368C562.988 155.677 563.082 156.053 563.082 156.496C563.082 157.349 562.77 158.019 562.146 158.504C561.527 158.989 560.671 159.232 559.578 159.232ZM569.796 159C569.252 159.107 568.719 159.152 568.196 159.136C567.673 159.12 567.207 159.019 566.796 158.832C566.385 158.645 566.076 158.352 565.868 157.952C565.681 157.595 565.58 157.232 565.564 156.864C565.553 156.491 565.548 156.069 565.548 155.6V147.96H567.228V155.52C567.228 155.867 567.231 156.168 567.236 156.424C567.247 156.68 567.303 156.896 567.404 157.072C567.596 157.403 567.9 157.592 568.316 157.64C568.737 157.683 569.231 157.664 569.796 157.584V159ZM563.892 151.704V150.36H569.796V151.704H563.892ZM571.617 159V150.36H573.105V152.456L572.897 152.184C573.004 151.907 573.143 151.653 573.313 151.424C573.484 151.189 573.681 150.997 573.905 150.848C574.124 150.688 574.367 150.565 574.633 150.48C574.905 150.389 575.183 150.336 575.465 150.32C575.748 150.299 576.02 150.312 576.281 150.36V151.928C575.999 151.853 575.684 151.832 575.337 151.864C574.996 151.896 574.681 152.005 574.393 152.192C574.121 152.368 573.905 152.581 573.745 152.832C573.591 153.083 573.479 153.363 573.409 153.672C573.34 153.976 573.305 154.299 573.305 154.64V159H571.617ZM581.481 159.24C580.622 159.24 579.867 159.053 579.217 158.68C578.571 158.301 578.067 157.776 577.705 157.104C577.347 156.427 577.169 155.643 577.169 154.752C577.169 153.808 577.345 152.989 577.697 152.296C578.054 151.603 578.55 151.067 579.185 150.688C579.819 150.309 580.558 150.12 581.401 150.12C582.281 150.12 583.03 150.325 583.649 150.736C584.267 151.141 584.729 151.72 585.033 152.472C585.342 153.224 585.465 154.117 585.401 155.152H583.729V154.544C583.718 153.541 583.526 152.8 583.153 152.32C582.785 151.84 582.222 151.6 581.465 151.6C580.627 151.6 579.998 151.864 579.577 152.392C579.155 152.92 578.945 153.683 578.945 154.68C578.945 155.629 579.155 156.365 579.577 156.888C579.998 157.405 580.606 157.664 581.401 157.664C581.923 157.664 582.374 157.547 582.753 157.312C583.137 157.072 583.435 156.731 583.649 156.288L585.289 156.808C584.953 157.581 584.443 158.181 583.761 158.608C583.078 159.029 582.318 159.24 581.481 159.24ZM578.401 155.152V153.848H584.569V155.152H578.401Z" fill="#00796B"/>
<path d="M702.203 159V156.992H697.003V155.408L700.747 147.48H702.659L698.915 155.408H702.203V152.288H703.899V155.408H705.043V156.992H703.899V159H702.203ZM708.635 154.68C707.984 154.68 707.462 154.467 707.067 154.04C706.678 153.613 706.483 153.064 706.483 152.392C706.483 151.72 706.68 151.173 707.075 150.752C707.475 150.331 707.995 150.12 708.635 150.12C709.286 150.12 709.806 150.333 710.195 150.76C710.59 151.187 710.787 151.731 710.787 152.392C710.787 153.069 710.59 153.621 710.195 154.048C709.8 154.469 709.28 154.68 708.635 154.68ZM708.627 153.776C709.011 153.776 709.296 153.648 709.483 153.392C709.675 153.136 709.771 152.803 709.771 152.392C709.771 151.976 709.675 151.645 709.483 151.4C709.296 151.149 709.011 151.024 708.627 151.024C708.243 151.024 707.96 151.152 707.779 151.408C707.598 151.659 707.507 151.989 707.507 152.4C707.507 152.821 707.6 153.157 707.787 153.408C707.974 153.653 708.254 153.776 708.627 153.776ZM715.744 159V147.48H720.272C721.003 147.48 721.616 147.629 722.112 147.928C722.608 148.227 722.982 148.613 723.232 149.088C723.483 149.557 723.608 150.053 723.608 150.576C723.608 151.211 723.451 151.755 723.136 152.208C722.827 152.661 722.408 152.971 721.88 153.136L721.864 152.744C722.6 152.925 723.166 153.28 723.56 153.808C723.955 154.331 724.152 154.941 724.152 155.64C724.152 156.317 724.016 156.907 723.744 157.408C723.478 157.909 723.086 158.301 722.568 158.584C722.056 158.861 721.435 159 720.704 159H715.744ZM717.44 157.408H720.448C720.827 157.408 721.166 157.336 721.464 157.192C721.768 157.048 722.006 156.843 722.176 156.576C722.352 156.304 722.44 155.981 722.44 155.608C722.44 155.261 722.363 154.949 722.208 154.672C722.059 154.389 721.84 154.168 721.552 154.008C721.27 153.843 720.936 153.76 720.552 153.76H717.44V157.408ZM717.44 152.184H720.248C720.558 152.184 720.835 152.123 721.08 152C721.331 151.872 721.528 151.691 721.672 151.456C721.822 151.216 721.896 150.928 721.896 150.592C721.896 150.144 721.747 149.776 721.448 149.488C721.15 149.2 720.75 149.056 720.248 149.056H717.44V152.184ZM725.904 148.944V147.32H727.576V148.944H725.904ZM725.904 159V150.36H727.576V159H725.904ZM740.331 159L740.339 153.616C740.339 152.992 740.179 152.507 739.859 152.16C739.539 151.808 739.117 151.632 738.595 151.632C738.275 151.632 737.981 151.707 737.715 151.856C737.453 152 737.24 152.219 737.075 152.512C736.915 152.8 736.835 153.163 736.835 153.6L736.027 153.192C736.016 152.584 736.144 152.051 736.411 151.592C736.683 151.133 737.051 150.779 737.515 150.528C737.979 150.272 738.499 150.144 739.075 150.144C740.008 150.144 740.731 150.424 741.243 150.984C741.755 151.544 742.011 152.288 742.011 153.216L742.003 159H740.331ZM729.971 159V150.36H731.459V152.856H731.651V159H729.971ZM735.155 159L735.163 153.648C735.163 153.019 735.003 152.525 734.683 152.168C734.368 151.811 733.944 151.632 733.411 151.632C732.883 151.632 732.456 151.813 732.131 152.176C731.811 152.539 731.651 153.013 731.651 153.6L730.851 153.088C730.851 152.523 730.987 152.019 731.259 151.576C731.531 151.133 731.899 150.784 732.363 150.528C732.827 150.272 733.352 150.144 733.939 150.144C734.552 150.144 735.075 150.275 735.507 150.536C735.939 150.792 736.267 151.152 736.491 151.616C736.72 152.08 736.835 152.619 736.835 153.232L736.827 159H735.155ZM747.811 159.24C746.952 159.24 746.197 159.053 745.547 158.68C744.901 158.301 744.397 157.776 744.035 157.104C743.677 156.427 743.499 155.643 743.499 154.752C743.499 153.808 743.675 152.989 744.027 152.296C744.384 151.603 744.88 151.067 745.515 150.688C746.149 150.309 746.888 150.12 747.731 150.12C748.611 150.12 749.36 150.325 749.979 150.736C750.597 151.141 751.059 151.72 751.363 152.472C751.672 153.224 751.795 154.117 751.731 155.152H750.059V154.544C750.048 153.541 749.856 152.8 749.483 152.32C749.115 151.84 748.552 151.6 747.795 151.6C746.957 151.6 746.328 151.864 745.907 152.392C745.485 152.92 745.275 153.683 745.275 154.68C745.275 155.629 745.485 156.365 745.907 156.888C746.328 157.405 746.936 157.664 747.731 157.664C748.253 157.664 748.704 157.547 749.083 157.312C749.467 157.072 749.765 156.731 749.979 156.288L751.619 156.808C751.283 157.581 750.773 158.181 750.091 158.608C749.408 159.029 748.648 159.24 747.811 159.24ZM744.731 155.152V153.848H750.899V155.152H744.731ZM756.83 159.232C755.779 159.232 754.923 159 754.262 158.536C753.6 158.072 753.195 157.419 753.046 156.576L754.758 156.312C754.864 156.76 755.11 157.115 755.494 157.376C755.883 157.632 756.366 157.76 756.942 157.76C757.464 157.76 757.872 157.653 758.166 157.44C758.464 157.227 758.614 156.933 758.614 156.56C758.614 156.341 758.56 156.165 758.454 156.032C758.352 155.893 758.136 155.763 757.806 155.64C757.475 155.517 756.971 155.365 756.294 155.184C755.552 154.992 754.963 154.787 754.526 154.568C754.094 154.344 753.784 154.085 753.598 153.792C753.416 153.493 753.326 153.133 753.326 152.712C753.326 152.189 753.464 151.733 753.742 151.344C754.019 150.955 754.408 150.653 754.91 150.44C755.416 150.227 756.008 150.12 756.686 150.12C757.347 150.12 757.936 150.224 758.454 150.432C758.971 150.64 759.39 150.936 759.71 151.32C760.03 151.699 760.222 152.144 760.286 152.656L758.574 152.968C758.515 152.552 758.32 152.224 757.99 151.984C757.659 151.744 757.23 151.613 756.702 151.592C756.195 151.571 755.784 151.656 755.47 151.848C755.155 152.035 754.998 152.293 754.998 152.624C754.998 152.816 755.056 152.979 755.174 153.112C755.296 153.245 755.531 153.373 755.878 153.496C756.224 153.619 756.736 153.765 757.414 153.936C758.139 154.123 758.715 154.331 759.142 154.56C759.568 154.784 759.872 155.053 760.054 155.368C760.24 155.677 760.334 156.053 760.334 156.496C760.334 157.349 760.022 158.019 759.398 158.504C758.779 158.989 757.923 159.232 756.83 159.232ZM767.048 159C766.504 159.107 765.97 159.152 765.448 159.136C764.925 159.12 764.458 159.019 764.048 158.832C763.637 158.645 763.328 158.352 763.12 157.952C762.933 157.595 762.832 157.232 762.816 156.864C762.805 156.491 762.8 156.069 762.8 155.6V147.96H764.48V155.52C764.48 155.867 764.482 156.168 764.488 156.424C764.498 156.68 764.554 156.896 764.656 157.072C764.848 157.403 765.152 157.592 765.568 157.64C765.989 157.683 766.482 157.664 767.048 157.584V159ZM761.144 151.704V150.36H767.048V151.704H761.144ZM768.869 159V150.36H770.357V152.456L770.149 152.184C770.256 151.907 770.395 151.653 770.565 151.424C770.736 151.189 770.933 150.997 771.157 150.848C771.376 150.688 771.619 150.565 771.885 150.48C772.157 150.389 772.435 150.336 772.717 150.32C773 150.299 773.272 150.312 773.533 150.36V151.928C773.251 151.853 772.936 151.832 772.589 151.864C772.248 151.896 771.933 152.005 771.645 152.192C771.373 152.368 771.157 152.581 770.997 152.832C770.843 153.083 770.731 153.363 770.661 153.672C770.592 153.976 770.557 154.299 770.557 154.64V159H768.869ZM778.733 159.24C777.874 159.24 777.119 159.053 776.469 158.68C775.823 158.301 775.319 157.776 774.957 157.104C774.599 156.427 774.421 155.643 774.421 154.752C774.421 153.808 774.597 152.989 774.949 152.296C775.306 151.603 775.802 151.067 776.437 150.688C777.071 150.309 777.81 150.12 778.653 150.12C779.533 150.12 780.282 150.325 780.901 150.736C781.519 151.141 781.981 151.72 782.285 152.472C782.594 153.224 782.717 154.117 782.653 155.152H780.981V154.544C780.97 153.541 780.778 152.8 780.405 152.32C780.037 151.84 779.474 151.6 778.717 151.6C777.879 151.6 777.25 151.864 776.829 152.392C776.407 152.92 776.197 153.683 776.197 154.68C776.197 155.629 776.407 156.365 776.829 156.888C777.25 157.405 777.858 157.664 778.653 157.664C779.175 157.664 779.626 157.547 780.005 157.312C780.389 157.072 780.687 156.731 780.901 156.288L782.541 156.808C782.205 157.581 781.695 158.181 781.013 158.608C780.33 159.029 779.57 159.24 778.733 159.24ZM775.653 155.152V153.848H781.821V155.152H775.653Z" fill="#00796B"/>
<path d="M303.108 158.992L303.116 157.504L308.132 153.008C308.537 152.651 308.812 152.309 308.956 151.984C309.105 151.659 309.18 151.333 309.18 151.008C309.18 150.597 309.089 150.229 308.908 149.904C308.727 149.573 308.476 149.312 308.156 149.12C307.836 148.928 307.468 148.832 307.052 148.832C306.625 148.832 306.244 148.933 305.908 149.136C305.577 149.333 305.319 149.597 305.132 149.928C304.945 150.259 304.855 150.616 304.86 151H303.148C303.148 150.253 303.316 149.6 303.652 149.04C303.993 148.475 304.46 148.035 305.052 147.72C305.644 147.4 306.321 147.24 307.084 147.24C307.809 147.24 308.46 147.405 309.036 147.736C309.612 148.061 310.065 148.509 310.396 149.08C310.732 149.651 310.9 150.301 310.9 151.032C310.9 151.56 310.831 152.008 310.692 152.376C310.553 152.744 310.345 153.085 310.068 153.4C309.791 153.715 309.444 154.056 309.028 154.424L305.156 157.88L304.972 157.4H310.9V158.992H303.108ZM314.491 154.68C313.84 154.68 313.317 154.467 312.923 154.04C312.533 153.613 312.339 153.064 312.339 152.392C312.339 151.72 312.536 151.173 312.931 150.752C313.331 150.331 313.851 150.12 314.491 150.12C315.141 150.12 315.661 150.333 316.051 150.76C316.445 151.187 316.643 151.731 316.643 152.392C316.643 153.069 316.445 153.621 316.051 154.048C315.656 154.469 315.136 154.68 314.491 154.68ZM314.483 153.776C314.867 153.776 315.152 153.648 315.339 153.392C315.531 153.136 315.627 152.803 315.627 152.392C315.627 151.976 315.531 151.645 315.339 151.4C315.152 151.149 314.867 151.024 314.483 151.024C314.099 151.024 313.816 151.152 313.635 151.408C313.453 151.659 313.363 151.989 313.363 152.4C313.363 152.821 313.456 153.157 313.643 153.408C313.829 153.653 314.109 153.776 314.483 153.776ZM321.6 159V147.48H326.128C326.859 147.48 327.472 147.629 327.968 147.928C328.464 148.227 328.837 148.613 329.088 149.088C329.339 149.557 329.464 150.053 329.464 150.576C329.464 151.211 329.307 151.755 328.992 152.208C328.683 152.661 328.264 152.971 327.736 153.136L327.72 152.744C328.456 152.925 329.021 153.28 329.416 153.808C329.811 154.331 330.008 154.941 330.008 155.64C330.008 156.317 329.872 156.907 329.6 157.408C329.333 157.909 328.941 158.301 328.424 158.584C327.912 158.861 327.291 159 326.56 159H321.6ZM323.296 157.408H326.304C326.683 157.408 327.021 157.336 327.32 157.192C327.624 157.048 327.861 156.843 328.032 156.576C328.208 156.304 328.296 155.981 328.296 155.608C328.296 155.261 328.219 154.949 328.064 154.672C327.915 154.389 327.696 154.168 327.408 154.008C327.125 153.843 326.792 153.76 326.408 153.76H323.296V157.408ZM323.296 152.184H326.104C326.413 152.184 326.691 152.123 326.936 152C327.187 151.872 327.384 151.691 327.528 151.456C327.677 151.216 327.752 150.928 327.752 150.592C327.752 150.144 327.603 149.776 327.304 149.488C327.005 149.2 326.605 149.056 326.104 149.056H323.296V152.184ZM331.76 148.944V147.32H333.432V148.944H331.76ZM331.76 159V150.36H333.432V159H331.76ZM346.186 159L346.194 153.616C346.194 152.992 346.034 152.507 345.714 152.16C345.394 151.808 344.973 151.632 344.45 151.632C344.13 151.632 343.837 151.707 343.57 151.856C343.309 152 343.096 152.219 342.93 152.512C342.77 152.8 342.69 153.163 342.69 153.6L341.882 153.192C341.872 152.584 342 152.051 342.266 151.592C342.538 151.133 342.906 150.779 343.37 150.528C343.834 150.272 344.354 150.144 344.93 150.144C345.864 150.144 346.586 150.424 347.098 150.984C347.61 151.544 347.866 152.288 347.866 153.216L347.858 159H346.186ZM335.826 159V150.36H337.314V152.856H337.506V159H335.826ZM341.01 159L341.018 153.648C341.018 153.019 340.858 152.525 340.538 152.168C340.224 151.811 339.8 151.632 339.266 151.632C338.738 151.632 338.312 151.813 337.986 152.176C337.666 152.539 337.506 153.013 337.506 153.6L336.706 153.088C336.706 152.523 336.842 152.019 337.114 151.576C337.386 151.133 337.754 150.784 338.218 150.528C338.682 150.272 339.208 150.144 339.794 150.144C340.408 150.144 340.93 150.275 341.362 150.536C341.794 150.792 342.122 151.152 342.346 151.616C342.576 152.08 342.69 152.619 342.69 153.232L342.682 159H341.01ZM353.666 159.24C352.808 159.24 352.053 159.053 351.402 158.68C350.757 158.301 350.253 157.776 349.89 157.104C349.533 156.427 349.354 155.643 349.354 154.752C349.354 153.808 349.53 152.989 349.882 152.296C350.24 151.603 350.736 151.067 351.37 150.688C352.005 150.309 352.744 150.12 353.586 150.12C354.466 150.12 355.216 150.325 355.834 150.736C356.453 151.141 356.914 151.72 357.218 152.472C357.528 153.224 357.65 154.117 357.586 155.152H355.914V154.544C355.904 153.541 355.712 152.8 355.338 152.32C354.97 151.84 354.408 151.6 353.65 151.6C352.813 151.6 352.184 151.864 351.762 152.392C351.341 152.92 351.13 153.683 351.13 154.68C351.13 155.629 351.341 156.365 351.762 156.888C352.184 157.405 352.792 157.664 353.586 157.664C354.109 157.664 354.56 157.547 354.938 157.312C355.322 157.072 355.621 156.731 355.834 156.288L357.474 156.808C357.138 157.581 356.629 158.181 355.946 158.608C355.264 159.029 354.504 159.24 353.666 159.24ZM350.586 155.152V153.848H356.754V155.152H350.586ZM362.685 159.232C361.634 159.232 360.778 159 360.117 158.536C359.456 158.072 359.05 157.419 358.901 156.576L360.613 156.312C360.72 156.76 360.965 157.115 361.349 157.376C361.738 157.632 362.221 157.76 362.797 157.76C363.32 157.76 363.728 157.653 364.021 157.44C364.32 157.227 364.469 156.933 364.469 156.56C364.469 156.341 364.416 156.165 364.309 156.032C364.208 155.893 363.992 155.763 363.661 155.64C363.33 155.517 362.826 155.365 362.149 155.184C361.408 154.992 360.818 154.787 360.381 154.568C359.949 154.344 359.64 154.085 359.453 153.792C359.272 153.493 359.181 153.133 359.181 152.712C359.181 152.189 359.32 151.733 359.597 151.344C359.874 150.955 360.264 150.653 360.765 150.44C361.272 150.227 361.864 150.12 362.541 150.12C363.202 150.12 363.792 150.224 364.309 150.432C364.826 150.64 365.245 150.936 365.565 151.32C365.885 151.699 366.077 152.144 366.141 152.656L364.429 152.968C364.37 152.552 364.176 152.224 363.845 151.984C363.514 151.744 363.085 151.613 362.557 151.592C362.05 151.571 361.64 151.656 361.325 151.848C361.01 152.035 360.853 152.293 360.853 152.624C360.853 152.816 360.912 152.979 361.029 153.112C361.152 153.245 361.386 153.373 361.733 153.496C362.08 153.619 362.592 153.765 363.269 153.936C363.994 154.123 364.57 154.331 364.997 154.56C365.424 154.784 365.728 155.053 365.909 155.368C366.096 155.677 366.189 156.053 366.189 156.496C366.189 157.349 365.877 158.019 365.253 158.504C364.634 158.989 363.778 159.232 362.685 159.232ZM372.903 159C372.359 159.107 371.826 159.152 371.303 159.136C370.781 159.12 370.314 159.019 369.903 158.832C369.493 158.645 369.183 158.352 368.975 157.952C368.789 157.595 368.687 157.232 368.671 156.864C368.661 156.491 368.655 156.069 368.655 155.6V147.96H370.335V155.52C370.335 155.867 370.338 156.168 370.343 156.424C370.354 156.68 370.41 156.896 370.511 157.072C370.703 157.403 371.007 157.592 371.423 157.64C371.845 157.683 372.338 157.664 372.903 157.584V159ZM366.999 151.704V150.36H372.903V151.704H366.999ZM374.725 159V150.36H376.213V152.456L376.005 152.184C376.112 151.907 376.25 151.653 376.421 151.424C376.592 151.189 376.789 150.997 377.013 150.848C377.232 150.688 377.474 150.565 377.741 150.48C378.013 150.389 378.29 150.336 378.573 150.32C378.856 150.299 379.128 150.312 379.389 150.36V151.928C379.106 151.853 378.792 151.832 378.445 151.864C378.104 151.896 377.789 152.005 377.501 152.192C377.229 152.368 377.013 152.581 376.853 152.832C376.698 153.083 376.586 153.363 376.517 153.672C376.448 153.976 376.413 154.299 376.413 154.64V159H374.725ZM384.588 159.24C383.729 159.24 382.975 159.053 382.324 158.68C381.679 158.301 381.175 157.776 380.812 157.104C380.455 156.427 380.276 155.643 380.276 154.752C380.276 153.808 380.452 152.989 380.804 152.296C381.161 151.603 381.657 151.067 382.292 150.688C382.927 150.309 383.665 150.12 384.508 150.12C385.388 150.12 386.137 150.325 386.756 150.736C387.375 151.141 387.836 151.72 388.14 152.472C388.449 153.224 388.572 154.117 388.508 155.152H386.836V154.544C386.825 153.541 386.633 152.8 386.26 152.32C385.892 151.84 385.329 151.6 384.572 151.6C383.735 151.6 383.105 151.864 382.684 152.392C382.263 152.92 382.052 153.683 382.052 154.68C382.052 155.629 382.263 156.365 382.684 156.888C383.105 157.405 383.713 157.664 384.508 157.664C385.031 157.664 385.481 157.547 385.86 157.312C386.244 157.072 386.543 156.731 386.756 156.288L388.396 156.808C388.06 157.581 387.551 158.181 386.868 158.608C386.185 159.029 385.425 159.24 384.588 159.24ZM381.508 155.152V153.848H387.676V155.152H381.508Z" fill="#00796B"/>
</svg>
