<svg width="524" height="102" viewBox="0 0 524 102" fill="none" xmlns="http://www.w3.org/2000/svg">
<path d="M83.6471 95.807C83.9504 95.6385 84.3084 95.5542 84.7253 95.5542C85.1508 95.5542 85.5088 95.6385 85.8036 95.807C86.1069 95.9672 86.3427 96.1905 86.5112 96.4813C86.6797 96.7763 86.7976 97.1007 86.865 97.4589C86.9324 97.8213 86.9661 98.2301 86.9661 98.6894C86.9661 99.153 86.9324 99.5617 86.865 99.9199C86.7976 100.282 86.6797 100.611 86.5112 100.914C86.3427 101.209 86.1069 101.433 85.8036 101.589C85.5088 101.749 85.1508 101.825 84.7253 101.825C84.3084 101.825 83.9504 101.749 83.6471 101.589C83.3523 101.433 83.1248 101.209 82.9564 100.914C82.7879 100.611 82.6699 100.282 82.6026 99.9199C82.5352 99.5617 82.5015 99.153 82.5015 98.6894C82.5015 98.2301 82.5352 97.8213 82.6026 97.4589C82.6699 97.1007 82.7879 96.7763 82.9564 96.4813C83.1248 96.1905 83.3523 95.9672 83.6471 95.807ZM84.7422 96.4644C84.46 96.4644 84.2283 96.5276 84.0514 96.6498C83.8703 96.7636 83.7398 96.9322 83.664 97.1555C83.5292 97.5516 83.4618 98.0615 83.4618 98.6894C83.4618 99.3215 83.5292 99.8314 83.664 100.223C83.8198 100.695 84.1736 100.931 84.7253 100.931C85.2855 100.931 85.6435 100.695 85.8036 100.223C85.9384 99.8314 86.0058 99.3215 86.0058 98.6894C86.0058 98.0615 85.9384 97.5516 85.8036 97.1555C85.6435 96.6962 85.2897 96.4644 84.7422 96.4644Z" fill="#545454"/>
<path d="M169.596 95.5374H173.387V96.4139H170.506V98.1163C170.615 97.9604 170.792 97.8298 171.028 97.7286C171.272 97.6191 171.554 97.5601 171.87 97.5601C172.195 97.5601 172.494 97.6233 172.763 97.7455C173.033 97.8719 173.239 98.0405 173.387 98.2512C173.665 98.6684 173.808 99.1361 173.808 99.6502C173.808 100.303 173.623 100.83 173.252 101.235C172.881 101.639 172.363 101.842 171.702 101.842C171.036 101.842 170.514 101.69 170.135 101.386C169.752 101.075 169.529 100.657 169.461 100.139H170.421C170.476 100.409 170.611 100.624 170.826 100.78C171.049 100.94 171.34 101.016 171.702 101.016C172.073 101.016 172.359 100.898 172.561 100.662C172.772 100.417 172.881 100.084 172.881 99.6671C172.881 99.2541 172.772 98.9381 172.561 98.7231C172.359 98.4998 172.056 98.386 171.651 98.386C171.369 98.386 171.133 98.4619 170.944 98.6052C170.75 98.74 170.611 98.9339 170.523 99.1783H169.596V95.5374Z" fill="#545454"/>
<path d="M255.337 101.842V96.6163H254.529V95.7229H256.315V101.842H255.337Z" fill="#545454"/>
<path d="M258.821 95.807C259.125 95.6385 259.483 95.5542 259.9 95.5542C260.325 95.5542 260.683 95.6385 260.978 95.807C261.281 95.9672 261.517 96.1905 261.686 96.4813C261.854 96.7763 261.972 97.1007 262.039 97.4589C262.107 97.8213 262.14 98.2301 262.14 98.6894C262.14 99.153 262.107 99.5617 262.039 99.9199C261.972 100.282 261.854 100.611 261.686 100.914C261.517 101.209 261.281 101.433 260.978 101.589C260.683 101.749 260.325 101.825 259.9 101.825C259.483 101.825 259.125 101.749 258.821 101.589C258.527 101.433 258.299 101.209 258.131 100.914C257.962 100.611 257.844 100.282 257.777 99.9199C257.709 99.5617 257.676 99.153 257.676 98.6894C257.676 98.2301 257.709 97.8213 257.777 97.4589C257.844 97.1007 257.962 96.7763 258.131 96.4813C258.299 96.1905 258.527 95.9672 258.821 95.807ZM259.917 96.4644C259.634 96.4644 259.403 96.5276 259.226 96.6498C259.045 96.7636 258.914 96.9322 258.838 97.1555C258.703 97.5516 258.636 98.0615 258.636 98.6894C258.636 99.3215 258.703 99.8314 258.838 100.223C258.994 100.695 259.348 100.931 259.9 100.931C260.46 100.931 260.818 100.695 260.978 100.223C261.113 99.8314 261.18 99.3215 261.18 98.6894C261.18 98.0615 261.113 97.5516 260.978 97.1555C260.818 96.6962 260.464 96.4644 259.917 96.4644Z" fill="#545454"/>
<path d="M342.18 101.842V96.6163H341.371V95.7229H343.157V101.842H342.18Z" fill="#545454"/>
<path d="M344.771 95.5374H348.561V96.4139H345.68V98.1163C345.79 97.9604 345.967 97.8298 346.203 97.7286C346.447 97.6191 346.729 97.5601 347.045 97.5601C347.369 97.5601 347.668 97.6233 347.938 97.7455C348.207 97.8719 348.414 98.0405 348.561 98.2512C348.839 98.6684 348.982 99.1361 348.982 99.6502C348.982 100.303 348.797 100.83 348.426 101.235C348.056 101.639 347.538 101.842 346.876 101.842C346.211 101.842 345.689 101.69 345.31 101.386C344.926 101.075 344.703 100.657 344.636 100.139H345.596C345.651 100.409 345.786 100.624 346 100.78C346.224 100.94 346.514 101.016 346.876 101.016C347.247 101.016 347.534 100.898 347.736 100.662C347.946 100.417 348.056 100.084 348.056 99.6671C348.056 99.2541 347.946 98.9381 347.736 98.7231C347.534 98.4998 347.23 98.386 346.826 98.386C346.544 98.386 346.308 98.4619 346.118 98.6052C345.925 98.74 345.786 98.9339 345.697 99.1783H344.771V95.5374Z" fill="#545454"/>
<path d="M427.27 101.757V101.032C427.413 100.91 427.624 100.729 427.894 100.493C428.172 100.257 428.386 100.08 428.534 99.9537C428.677 99.8188 428.858 99.6502 429.073 99.448C429.296 99.2457 429.465 99.0729 429.578 98.9254C429.701 98.7822 429.823 98.6178 429.949 98.4366C430.185 98.0995 430.303 97.7624 430.303 97.4252C430.303 96.7173 429.966 96.3633 429.292 96.3633C428.955 96.3633 428.69 96.4729 428.5 96.6836C428.319 96.8985 428.222 97.1893 428.214 97.5601H427.27C427.279 96.8985 427.472 96.3928 427.843 96.043C428.222 95.6975 428.711 95.5205 429.309 95.5205C429.915 95.5205 430.391 95.6975 430.741 96.043C431.099 96.3802 431.28 96.8269 431.28 97.3747C431.28 97.8045 431.166 98.2006 430.943 98.5715C430.829 98.7737 430.716 98.9549 430.606 99.1108C430.492 99.2583 430.337 99.4311 430.134 99.6334C429.941 99.8272 429.789 99.9789 429.679 100.089C429.566 100.19 429.397 100.341 429.174 100.544C428.959 100.737 428.808 100.864 428.719 100.931H431.448V101.757H427.27Z" fill="#545454"/>
<path d="M433.466 95.807C433.769 95.6385 434.127 95.5542 434.544 95.5542C434.97 95.5542 435.328 95.6385 435.622 95.807C435.926 95.9672 436.162 96.1905 436.33 96.4813C436.499 96.7763 436.616 97.1007 436.684 97.4589C436.751 97.8213 436.785 98.2301 436.785 98.6894C436.785 99.153 436.751 99.5617 436.684 99.9199C436.616 100.282 436.499 100.611 436.33 100.914C436.162 101.209 435.926 101.433 435.622 101.589C435.328 101.749 434.97 101.825 434.544 101.825C434.127 101.825 433.769 101.749 433.466 101.589C433.171 101.433 432.944 101.209 432.775 100.914C432.607 100.611 432.489 100.282 432.421 99.9199C432.354 99.5617 432.32 99.153 432.32 98.6894C432.32 98.2301 432.354 97.8213 432.421 97.4589C432.489 97.1007 432.607 96.7763 432.775 96.4813C432.944 96.1905 433.171 95.9672 433.466 95.807ZM434.561 96.4644C434.279 96.4644 434.047 96.5276 433.87 96.6498C433.689 96.7636 433.559 96.9322 433.483 97.1555C433.348 97.5516 433.281 98.0615 433.281 98.6894C433.281 99.3215 433.348 99.8314 433.483 100.223C433.639 100.695 433.992 100.931 434.544 100.931C435.104 100.931 435.462 100.695 435.622 100.223C435.757 99.8314 435.825 99.3215 435.825 98.6894C435.825 98.0615 435.757 97.5516 435.622 97.1555C435.462 96.6962 435.109 96.4644 434.561 96.4644Z" fill="#545454"/>
<path d="M514.112 101.757V101.032C514.256 100.91 514.466 100.729 514.736 100.493C515.014 100.257 515.228 100.08 515.376 99.9537C515.519 99.8188 515.7 99.6502 515.915 99.448C516.138 99.2457 516.307 99.0729 516.42 98.9254C516.543 98.7822 516.665 98.6178 516.791 98.4366C517.027 98.0995 517.145 97.7624 517.145 97.4252C517.145 96.7173 516.808 96.3633 516.134 96.3633C515.797 96.3633 515.532 96.4729 515.342 96.6836C515.161 96.8985 515.064 97.1893 515.056 97.5601H514.112C514.121 96.8985 514.314 96.3928 514.685 96.043C515.064 95.6975 515.553 95.5205 516.151 95.5205C516.757 95.5205 517.233 95.6975 517.583 96.043C517.941 96.3802 518.122 96.8269 518.122 97.3747C518.122 97.8045 518.008 98.2006 517.785 98.5715C517.671 98.7737 517.558 98.9549 517.448 99.1108C517.334 99.2583 517.179 99.4311 516.976 99.6334C516.783 99.8272 516.631 99.9789 516.522 100.089C516.408 100.19 516.239 100.341 516.016 100.544C515.801 100.737 515.65 100.864 515.561 100.931H518.291V101.757H514.112Z" fill="#545454"/>
<path d="M519.415 95.5374H523.206V96.4139H520.325V98.1163C520.434 97.9604 520.611 97.8298 520.847 97.7286C521.091 97.6191 521.374 97.5601 521.689 97.5601C522.014 97.5601 522.313 97.6233 522.582 97.7455C522.852 97.8719 523.058 98.0405 523.206 98.2512C523.484 98.6684 523.627 99.1361 523.627 99.6502C523.627 100.303 523.442 100.83 523.071 101.235C522.7 101.639 522.182 101.842 521.521 101.842C520.856 101.842 520.333 101.69 519.954 101.386C519.571 101.075 519.348 100.657 519.28 100.139H520.241C520.295 100.409 520.43 100.624 520.645 100.78C520.868 100.94 521.159 101.016 521.521 101.016C521.892 101.016 522.178 100.898 522.38 100.662C522.591 100.417 522.7 100.084 522.7 99.6671C522.7 99.2541 522.591 98.9381 522.38 98.7231C522.178 98.4998 521.875 98.386 521.47 98.386C521.188 98.386 520.952 98.4619 520.763 98.6052C520.569 98.74 520.43 98.9339 520.342 99.1783H519.415V95.5374Z" fill="#545454"/>
<path d="M10.2893 5.59031V4.83179H14.4675V5.59031H12.867V10.8157H11.8898V5.59031H10.2893Z" fill="#545454"/>
<path d="M18.5294 9.63578C18.8201 9.34502 18.9675 8.94468 18.9675 8.439C18.9675 7.92489 18.8243 7.52456 18.5463 7.24222C18.2641 6.9641 17.9271 6.82082 17.5354 6.82082C17.1395 6.82082 16.811 6.9641 16.5414 7.24222C16.2719 7.52456 16.1371 7.92489 16.1371 8.439C16.1371 8.95733 16.2634 9.36187 16.5246 9.65264C16.7941 9.93498 17.1227 10.074 17.5186 10.074C17.9103 10.074 18.2472 9.93076 18.5294 9.63578ZM17.5017 10.9C16.8152 10.9 16.2466 10.6766 15.8001 10.2257C15.3495 9.76642 15.1262 9.17224 15.1262 8.439C15.1262 7.70998 15.3537 7.12002 15.817 6.66912C16.2887 6.22243 16.8657 5.99487 17.5523 5.99487C18.2346 5.99487 18.8074 6.22243 19.2707 6.66912C19.7425 7.12002 19.9783 7.70998 19.9783 8.439C19.9783 9.17224 19.734 9.76642 19.2539 10.2257C18.7822 10.6766 18.1967 10.9 17.5017 10.9Z" fill="#545454"/>
<path d="M21.931 6.0623V6.88824C22.2343 6.29407 22.706 5.99487 23.3462 5.99487V7.00624H23.0935C22.7102 7.00624 22.4196 7.10737 22.2174 7.30965C22.0237 7.50349 21.931 7.84061 21.931 8.32101V10.8157H20.937V6.0623H21.931Z" fill="#545454"/>
<path d="M26.5499 6.87134H25.3874V9.50089C25.3874 9.68209 25.4253 9.81272 25.5053 9.88857C25.5938 9.956 25.7412 9.98971 25.9434 9.98971H26.5499V10.8157H25.7749C24.8651 10.8157 24.4102 10.3774 24.4102 9.50089V6.87134H23.8374V6.06225H24.4102V4.88232H25.3874V6.06225H26.5499V6.87134Z" fill="#545454"/>
<path d="M30.5768 9.60207C30.8548 9.3113 30.998 8.92361 30.998 8.439C30.998 7.9586 30.8548 7.57092 30.5768 7.27593C30.2946 6.98517 29.9577 6.83768 29.566 6.83768C29.17 6.83768 28.8331 6.98517 28.5551 7.27593C28.2729 7.55827 28.1339 7.94175 28.1339 8.42215C28.1339 8.90676 28.2729 9.29866 28.5551 9.60207C28.8331 9.89705 29.17 10.0403 29.566 10.0403C29.9577 10.0403 30.2946 9.89705 30.5768 9.60207ZM29.3638 10.9C28.732 10.9 28.2013 10.6724 27.7633 10.2089C27.3336 9.73692 27.123 9.14274 27.123 8.42215C27.123 7.70576 27.3336 7.12002 27.7633 6.66912C28.1887 6.22243 28.7236 5.99487 29.3638 5.99487C29.7344 5.99487 30.0587 6.07915 30.3409 6.24771C30.6316 6.41627 30.8506 6.64383 30.998 6.92196V6.0623H31.992V10.8157H30.998V9.92234C30.8379 10.2173 30.6189 10.4533 30.3409 10.6303C30.0587 10.8115 29.7344 10.9 29.3638 10.9Z" fill="#545454"/>
<path d="M38.9938 9.60205C39.2718 9.31128 39.415 8.92359 39.415 8.43898C39.415 7.95858 39.2718 7.57089 38.9938 7.27591C38.7116 6.98514 38.3746 6.83765 37.9829 6.83765C37.587 6.83765 37.2501 6.98514 36.9721 7.27591C36.6899 7.55825 36.5509 7.94173 36.5509 8.42212C36.5509 8.90673 36.6899 9.29864 36.9721 9.60205C37.2501 9.89703 37.587 10.0403 37.9829 10.0403C38.3746 10.0403 38.7116 9.89703 38.9938 9.60205ZM37.7808 10.9C37.149 10.9 36.6183 10.6724 36.1802 10.2089C35.7506 9.7369 35.54 9.14272 35.54 8.42212C35.54 7.70574 35.7506 7.11999 36.1802 6.66909C36.6057 6.22241 37.1406 5.99485 37.7808 5.99485C38.1514 5.99485 38.4757 6.07913 38.7579 6.24769C39.0486 6.41625 39.2676 6.64381 39.415 6.92193V4.44409H40.409V10.8157H39.415V9.92231C39.2549 10.2173 39.0359 10.4533 38.7579 10.6303C38.4757 10.8115 38.1514 10.9 37.7808 10.9Z" fill="#545454"/>
<path d="M43.6997 10.9C43.0132 10.9 42.453 10.6766 42.015 10.2257C41.5854 9.77906 41.3748 9.18067 41.3748 8.439C41.3748 7.69734 41.5938 7.10737 42.0318 6.66912C42.4699 6.22243 43.03 5.99487 43.7166 5.99487C44.4115 5.99487 44.9717 6.20979 45.4013 6.6354C45.8267 7.06523 46.0415 7.62148 46.0415 8.30415C46.0415 8.47271 46.0289 8.63285 46.0078 8.77612H42.3856C42.4067 9.17224 42.5372 9.48408 42.7731 9.72006C43.0174 9.95605 43.3291 10.074 43.6997 10.074C44.2262 10.074 44.6011 9.8507 44.8285 9.3998H45.8899C45.7425 9.83806 45.4771 10.2005 45.0981 10.4786C44.7148 10.7609 44.2473 10.9 43.6997 10.9ZM45.0307 8.10188C45.0181 7.70998 44.8833 7.40235 44.6263 7.1748C44.3778 6.93881 44.0746 6.82082 43.7166 6.82082C43.3543 6.82082 43.0511 6.93881 42.8068 7.1748C42.5583 7.40235 42.4193 7.70998 42.3856 8.10188H45.0307Z" fill="#545454"/>
<path d="M51.5747 6.0622V6.87129H50.6987V10.8156H49.7047V6.87129H49.1487V6.0622H49.7047V5.74193C49.7047 5.19411 49.8479 4.79378 50.1427 4.54515C50.4333 4.30074 50.8882 4.17432 51.5073 4.17432V4.98341C51.2125 4.98341 51.0061 5.0424 50.884 5.15197C50.7576 5.26575 50.6987 5.4638 50.6987 5.74193V6.0622H51.5747Z" fill="#545454"/>
<path d="M53.4381 6.0623V6.88824C53.7414 6.29407 54.2131 5.99487 54.8533 5.99487V7.00624H54.6006C54.2173 7.00624 53.9267 7.10737 53.7245 7.30965C53.5308 7.50349 53.4381 7.84061 53.4381 8.32101V10.8157H52.4441V6.0623H53.4381Z" fill="#545454"/>
<path d="M58.8825 9.60207C59.1605 9.3113 59.3037 8.92361 59.3037 8.439C59.3037 7.9586 59.1605 7.57092 58.8825 7.27593C58.6003 6.98517 58.2633 6.83768 57.8716 6.83768C57.4757 6.83768 57.1387 6.98517 56.8608 7.27593C56.5786 7.55827 56.4396 7.94175 56.4396 8.42215C56.4396 8.90676 56.5786 9.29866 56.8608 9.60207C57.1387 9.89705 57.4757 10.0403 57.8716 10.0403C58.2633 10.0403 58.6003 9.89705 58.8825 9.60207ZM57.6694 10.9C57.0377 10.9 56.507 10.6724 56.0689 10.2089C55.6393 9.73692 55.4287 9.14274 55.4287 8.42215C55.4287 7.70576 55.6393 7.12002 56.0689 6.66912C56.4943 6.22243 57.0292 5.99487 57.6694 5.99487C58.0401 5.99487 58.3644 6.07915 58.6466 6.24771C58.9372 6.41627 59.1562 6.64383 59.3037 6.92196V6.0623H60.2977V10.8157H59.3037V9.92234C59.1436 10.2173 58.9246 10.4533 58.6466 10.6303C58.3644 10.8115 58.0401 10.9 57.6694 10.9Z" fill="#545454"/>
<path d="M62.5777 6.0623V6.82082C62.8894 6.273 63.3949 5.99487 64.094 5.99487C64.6205 5.99487 65.0586 6.17608 65.4081 6.53427C65.7535 6.88403 65.9304 7.37707 65.9304 8.0176V10.8157H64.9533V8.1693C64.9533 7.74369 64.8438 7.41921 64.6332 7.19165C64.4184 6.95567 64.1277 6.83768 63.7571 6.83768C63.3949 6.83768 63.1084 6.95567 62.8979 7.19165C62.683 7.41921 62.5777 7.74369 62.5777 8.1693V10.8157H61.5837V6.0623H62.5777Z" fill="#545454"/>
<path d="M69.0896 10.9C68.4578 10.9 67.9271 10.6724 67.4891 10.2089C67.0595 9.73692 66.8489 9.14274 66.8489 8.42215C66.8489 7.70576 67.0595 7.12002 67.4891 6.66912C67.9145 6.22243 68.4494 5.99487 69.0896 5.99487C69.4603 5.99487 69.7846 6.07915 70.0668 6.24771C70.3574 6.41627 70.5764 6.64383 70.7238 6.92196V6.0623H71.7178V10.9C71.7178 11.5616 71.5072 12.101 71.0945 12.5182C70.6901 12.9438 70.1426 13.1587 69.4603 13.1587C68.7737 13.1587 68.2177 13.007 67.7923 12.7036C67.3754 12.4002 67.1395 11.9872 67.0847 11.4731H68.0451C68.1209 11.7175 68.2851 11.9156 68.5336 12.0631C68.7779 12.219 69.0812 12.299 69.4434 12.299C69.8141 12.299 70.1173 12.1726 70.3532 11.9282C70.5975 11.6922 70.7238 11.3467 70.7238 10.9V9.92234C70.5638 10.2173 70.3448 10.4533 70.0668 10.6303C69.7846 10.8115 69.4603 10.9 69.0896 10.9ZM70.3026 9.60207C70.5806 9.3113 70.7238 8.92361 70.7238 8.439C70.7238 7.9586 70.5806 7.57092 70.3026 7.27593C70.0204 6.98517 69.6835 6.83768 69.2918 6.83768C68.8959 6.83768 68.5589 6.98517 68.2809 7.27593C67.9987 7.55827 67.8597 7.94175 67.8597 8.42215C67.8597 8.90676 67.9987 9.29866 68.2809 9.60207C68.5589 9.89705 68.8959 10.0403 69.2918 10.0403C69.6835 10.0403 70.0204 9.89705 70.3026 9.60207Z" fill="#545454"/>
<path d="M76.0871 9.63578C76.3777 9.34502 76.5251 8.94468 76.5251 8.439C76.5251 7.92489 76.3819 7.52456 76.1039 7.24222C75.8217 6.9641 75.4848 6.82082 75.093 6.82082C74.6971 6.82082 74.3686 6.9641 74.099 7.24222C73.8295 7.52456 73.6947 7.92489 73.6947 8.439C73.6947 8.95733 73.8211 9.36187 74.0822 9.65264C74.3518 9.93498 74.6803 10.074 75.0762 10.074C75.4679 10.074 75.8049 9.93076 76.0871 9.63578ZM75.0594 10.9C74.3728 10.9 73.8042 10.6766 73.3577 10.2257C72.9071 9.76642 72.6838 9.17224 72.6838 8.439C72.6838 7.70998 72.9113 7.12002 73.3746 6.66912C73.8463 6.22243 74.4234 5.99487 75.1099 5.99487C75.7922 5.99487 76.365 6.22243 76.8284 6.66912C77.3001 7.12002 77.536 7.70998 77.536 8.439C77.536 9.17224 77.2917 9.76642 76.8115 10.2257C76.3398 10.6766 75.7543 10.9 75.0594 10.9Z" fill="#545454"/>
<path d="M0 23.1423H2.29128C2.89779 23.1423 3.36952 23.294 3.70648 23.5974C4.05185 23.8924 4.22875 24.2675 4.22875 24.7268C4.22875 25.401 3.84126 25.8477 3.06627 26.0584C3.44534 26.1174 3.75702 26.2902 3.99288 26.581C4.23718 26.8633 4.36353 27.1836 4.36353 27.5418C4.36353 28.0053 4.18242 28.3846 3.82441 28.688C3.47482 28.983 2.99888 29.1262 2.39236 29.1262H0V23.1423ZM0.994009 23.9009V25.6876H2.20704C2.51872 25.6876 2.76722 25.6117 2.94833 25.4516C3.12523 25.2957 3.21789 25.0766 3.21789 24.7942C3.21789 24.5161 3.12523 24.297 2.94833 24.1368C2.76722 23.9809 2.51872 23.9009 2.20704 23.9009H0.994009ZM0.994009 28.3677H2.30812C2.64508 28.3677 2.90621 28.2834 3.09996 28.1149C3.2895 27.9463 3.38637 27.7188 3.38637 27.4238C3.38637 27.1204 3.28528 26.8844 3.08311 26.7158C2.88094 26.5388 2.61138 26.4461 2.27443 26.4461H0.994009V28.3677Z" fill="#545454"/>
<path d="M8.50478 27.9463C8.7954 27.6556 8.94282 27.2552 8.94282 26.7495C8.94282 26.2354 8.79961 25.8351 8.52163 25.5528C8.23943 25.2746 7.90248 25.1314 7.51077 25.1314C7.11485 25.1314 6.78632 25.2746 6.51676 25.5528C6.2472 25.8351 6.11242 26.2354 6.11242 26.7495C6.11242 27.2679 6.23878 27.6724 6.49991 27.9632C6.76948 28.2455 7.09801 28.3846 7.49392 28.3846C7.88563 28.3846 8.22258 28.2413 8.50478 27.9463ZM7.47708 29.2105C6.79054 29.2105 6.22193 28.9872 5.77547 28.5363C5.32479 28.077 5.10156 27.4828 5.10156 26.7495C5.10156 26.0205 5.329 25.4306 5.79231 24.9797C6.26405 24.533 6.84108 24.3054 7.52762 24.3054C8.20995 24.3054 8.78277 24.533 9.24608 24.9797C9.71781 25.4306 9.95368 26.0205 9.95368 26.7495C9.95368 27.4828 9.70938 28.077 9.22923 28.5363C8.75749 28.9872 8.17204 29.2105 7.47708 29.2105Z" fill="#545454"/>
<path d="M10.9124 29.1262V22.7546H11.9064V29.1262H10.9124Z" fill="#545454"/>
<path d="M16.2675 27.9463C16.5581 27.6556 16.7055 27.2552 16.7055 26.7495C16.7055 26.2354 16.5623 25.8351 16.2843 25.5528C16.0021 25.2746 15.6652 25.1314 15.2735 25.1314C14.8775 25.1314 14.549 25.2746 14.2795 25.5528C14.0099 25.8351 13.8751 26.2354 13.8751 26.7495C13.8751 27.2679 14.0015 27.6724 14.2626 27.9632C14.5322 28.2455 14.8607 28.3846 15.2566 28.3846C15.6483 28.3846 15.9853 28.2413 16.2675 27.9463ZM15.2398 29.2105C14.5532 29.2105 13.9846 28.9872 13.5382 28.5363C13.0875 28.077 12.8643 27.4828 12.8643 26.7495C12.8643 26.0205 13.0917 25.4306 13.555 24.9797C14.0267 24.533 14.6038 24.3054 15.2903 24.3054C15.9726 24.3054 16.5455 24.533 17.0088 24.9797C17.4805 25.4306 17.7164 26.0205 17.7164 26.7495C17.7164 27.4828 17.4721 28.077 16.9919 28.5363C16.5202 28.9872 15.9347 29.2105 15.2398 29.2105Z" fill="#545454"/>
<path d="M24.3905 27.9126C24.6685 27.6218 24.8117 27.2341 24.8117 26.7495C24.8117 26.2691 24.6685 25.8814 24.3905 25.5865C24.1083 25.2957 23.7714 25.1482 23.3797 25.1482C22.9838 25.1482 22.6468 25.2957 22.3688 25.5865C22.0866 25.8688 21.9476 26.2523 21.9476 26.7327C21.9476 27.2173 22.0866 27.6092 22.3688 27.9126C22.6468 28.2076 22.9838 28.3509 23.3797 28.3509C23.7714 28.3509 24.1083 28.2076 24.3905 27.9126ZM23.1775 29.2105C22.5457 29.2105 22.015 28.983 21.577 28.5194C21.1474 28.0474 20.9368 27.4533 20.9368 26.7327C20.9368 26.0163 21.1474 25.4305 21.577 24.9796C22.0024 24.533 22.5373 24.3054 23.1775 24.3054C23.5481 24.3054 23.8725 24.3897 24.1547 24.5582C24.4453 24.7268 24.6643 24.9544 24.8117 25.2325V22.7546H25.8057V29.1262H24.8117V28.2329C24.6517 28.5278 24.4326 28.7638 24.1547 28.9408C23.8725 29.122 23.5481 29.2105 23.1775 29.2105Z" fill="#545454"/>
<path d="M29.0967 29.2105C28.4102 29.2105 27.85 28.9872 27.4119 28.5363C26.9823 28.0896 26.7717 27.4912 26.7717 26.7495C26.7717 26.0079 26.9907 25.4179 27.4288 24.9797C27.8668 24.533 28.427 24.3054 29.1135 24.3054C29.8085 24.3054 30.3687 24.5203 30.7983 24.946C31.2237 25.3758 31.4385 25.932 31.4385 26.6147C31.4385 26.7833 31.4259 26.9434 31.4048 27.0867H27.7826C27.8036 27.4828 27.9342 27.7946 28.1701 28.0306C28.4144 28.2666 28.7261 28.3846 29.0967 28.3846C29.6232 28.3846 29.998 28.1612 30.2255 27.7103H31.2869C31.1395 28.1486 30.8741 28.511 30.4951 28.7891C30.1118 29.0715 29.6442 29.2105 29.0967 29.2105ZM30.4277 26.4124C30.415 26.0205 30.2802 25.7129 30.0233 25.4853C29.7748 25.2494 29.4716 25.1314 29.1135 25.1314C28.7513 25.1314 28.4481 25.2494 28.2038 25.4853C27.9553 25.7129 27.8163 26.0205 27.7826 26.4124H30.4277Z" fill="#545454"/>
<path d="M36.9885 29.2105C36.302 29.2105 35.7418 28.9872 35.3038 28.5363C34.8742 28.0896 34.6636 27.4996 34.6636 26.7664C34.6636 26.0247 34.8742 25.4306 35.3038 24.9797C35.7418 24.533 36.302 24.3054 36.9885 24.3054C37.5614 24.3054 38.0331 24.4403 38.4037 24.71C38.7828 24.9797 39.044 25.3674 39.1787 25.873H38.1173C37.9362 25.38 37.5614 25.1314 36.9885 25.1314C36.5842 25.1314 36.2641 25.2746 36.0282 25.5528C35.7924 25.8351 35.6744 26.2354 35.6744 26.7495C35.6744 27.2552 35.7924 27.6556 36.0282 27.9463C36.2641 28.2413 36.5842 28.3846 36.9885 28.3846C37.5487 28.3846 37.9236 28.1317 38.1173 27.6261H39.1787C39.0313 28.1107 38.766 28.4984 38.3869 28.7891C38.0162 29.0715 37.5487 29.2105 36.9885 29.2105Z" fill="#545454"/>
<path d="M41.1415 22.7546V25.1313C41.4532 24.5835 41.9586 24.3054 42.6578 24.3054C43.1842 24.3054 43.6223 24.4866 43.9719 24.8448C44.3172 25.1946 44.4941 25.6876 44.4941 26.3281V29.1262H43.517V26.4798C43.517 26.0542 43.4075 25.7297 43.1969 25.5022C42.9821 25.2662 42.6915 25.1482 42.3208 25.1482C41.9586 25.1482 41.6722 25.2662 41.4616 25.5022C41.2468 25.7297 41.1415 26.0542 41.1415 26.4798V29.1262H40.1475V22.7546H41.1415Z" fill="#545454"/>
<path d="M48.8158 27.9463C49.1064 27.6556 49.2539 27.2552 49.2539 26.7495C49.2539 26.2354 49.1106 25.8351 48.8327 25.5528C48.5505 25.2746 48.2135 25.1314 47.8218 25.1314C47.4259 25.1314 47.0974 25.2746 46.8278 25.5528C46.5582 25.8351 46.4235 26.2354 46.4235 26.7495C46.4235 27.2679 46.5498 27.6724 46.8109 27.9632C47.0805 28.2455 47.409 28.3846 47.805 28.3846C48.1967 28.3846 48.5336 28.2413 48.8158 27.9463ZM47.7881 29.2105C47.1016 29.2105 46.533 28.9872 46.0865 28.5363C45.6358 28.077 45.4126 27.4828 45.4126 26.7495C45.4126 26.0205 45.64 25.4306 46.1033 24.9797C46.5751 24.533 47.1521 24.3054 47.8387 24.3054C48.521 24.3054 49.0938 24.533 49.5571 24.9797C50.0288 25.4306 50.2647 26.0205 50.2647 26.7495C50.2647 27.4828 50.0204 28.077 49.5403 28.5363C49.0685 28.9872 48.4831 29.2105 47.7881 29.2105Z" fill="#545454"/>
<path d="M53.2283 29.2105C52.5418 29.2105 51.9816 28.9872 51.5435 28.5363C51.1139 28.0896 50.9033 27.4996 50.9033 26.7664C50.9033 26.0247 51.1139 25.4306 51.5435 24.9797C51.9816 24.533 52.5418 24.3054 53.2283 24.3054C53.8011 24.3054 54.2728 24.4403 54.6435 24.71C55.0226 24.9797 55.2837 25.3674 55.4185 25.873H54.3571C54.176 25.38 53.8011 25.1314 53.2283 25.1314C52.8239 25.1314 52.5038 25.2746 52.268 25.5528C52.0321 25.8351 51.9142 26.2354 51.9142 26.7495C51.9142 27.2552 52.0321 27.6556 52.268 27.9463C52.5038 28.2413 52.8239 28.3846 53.2283 28.3846C53.7885 28.3846 54.1633 28.1317 54.3571 27.6261H55.4185C55.2711 28.1107 55.0057 28.4984 54.6266 28.7891C54.256 29.0715 53.7885 29.2105 53.2283 29.2105Z" fill="#545454"/>
<path d="M59.4704 27.9463C59.761 27.6556 59.9084 27.2552 59.9084 26.7495C59.9084 26.2354 59.7652 25.8351 59.4872 25.5528C59.205 25.2746 58.8681 25.1314 58.4763 25.1314C58.0804 25.1314 57.7519 25.2746 57.4823 25.5528C57.2128 25.8351 57.078 26.2354 57.078 26.7495C57.078 27.2679 57.2044 27.6724 57.4655 27.9632C57.7351 28.2455 58.0636 28.3846 58.4595 28.3846C58.8512 28.3846 59.1882 28.2413 59.4704 27.9463ZM58.4427 29.2105C57.7561 29.2105 57.1875 28.9872 56.741 28.5363C56.2904 28.077 56.0671 27.4828 56.0671 26.7495C56.0671 26.0205 56.2946 25.4306 56.7579 24.9797C57.2296 24.533 57.8067 24.3054 58.4932 24.3054C59.1755 24.3054 59.7483 24.533 60.2117 24.9797C60.6834 25.4306 60.9193 26.0205 60.9193 26.7495C60.9193 27.4828 60.675 28.077 60.1948 28.5363C59.7231 28.9872 59.1376 29.2105 58.4427 29.2105Z" fill="#545454"/>
<path d="M61.8779 29.1262V22.7546H62.8719V29.1262H61.8779Z" fill="#545454"/>
<path d="M67.2836 27.9126C67.5616 27.6219 67.7048 27.2342 67.7048 26.7495C67.7048 26.2692 67.5616 25.8815 67.2836 25.5865C67.0014 25.2957 66.6644 25.1482 66.2727 25.1482C65.8768 25.1482 65.5399 25.2957 65.2619 25.5865C64.9797 25.8688 64.8407 26.2523 64.8407 26.7327C64.8407 27.2173 64.9797 27.6092 65.2619 27.9126C65.5399 28.2076 65.8768 28.3509 66.2727 28.3509C66.6644 28.3509 67.0014 28.2076 67.2836 27.9126ZM66.0706 29.2105C65.4388 29.2105 64.9081 28.983 64.47 28.5194C64.0404 28.0475 63.8298 27.4533 63.8298 26.7327C63.8298 26.0163 64.0404 25.4306 64.47 24.9797C64.8954 24.533 65.4304 24.3054 66.0706 24.3054C66.4412 24.3054 66.7655 24.3897 67.0477 24.5583C67.3383 24.7268 67.5574 24.9544 67.7048 25.2325V24.3728H68.6988V29.1263H67.7048V28.2329C67.5447 28.5279 67.3257 28.7638 67.0477 28.9408C66.7655 29.122 66.4412 29.2105 66.0706 29.2105Z" fill="#545454"/>
<path d="M72.293 25.1819H71.1305V27.8114C71.1305 27.9926 71.1685 28.1233 71.2485 28.1991C71.3369 28.2665 71.4843 28.3003 71.6865 28.3003H72.293V29.1262H71.518C70.6083 29.1262 70.1534 28.6879 70.1534 27.8114V25.1819H69.5806V24.3728H70.1534V23.1929H71.1305V24.3728H72.293V25.1819Z" fill="#545454"/>
<path d="M75.1912 29.2105C74.5046 29.2105 73.9445 28.9872 73.5064 28.5363C73.0768 28.0896 72.8662 27.4912 72.8662 26.7495C72.8662 26.0079 73.0852 25.4179 73.5233 24.9797C73.9613 24.533 74.5215 24.3054 75.208 24.3054C75.903 24.3054 76.4632 24.5203 76.8928 24.946C77.3182 25.3758 77.533 25.932 77.533 26.6147C77.533 26.7833 77.5204 26.9434 77.4993 27.0867H73.8771C73.8981 27.4828 74.0287 27.7946 74.2646 28.0306C74.5089 28.2666 74.8205 28.3846 75.1912 28.3846C75.7177 28.3846 76.0925 28.1612 76.32 27.7103H77.3814C77.234 28.1486 76.9686 28.511 76.5895 28.7891C76.2063 29.0715 75.7387 29.2105 75.1912 29.2105ZM76.5221 26.4124C76.5095 26.0205 76.3747 25.7129 76.1178 25.4853C75.8693 25.2494 75.566 25.1314 75.208 25.1314C74.8458 25.1314 74.5425 25.2494 74.2983 25.4853C74.0498 25.7129 73.9108 26.0205 73.8771 26.4124H76.5221Z" fill="#545454"/>
<path d="M10.1426 41.4526C10.8165 41.4526 11.3387 41.6212 11.7094 41.9583C12.08 42.2954 12.2654 42.7168 12.2654 43.2225C12.2654 43.7198 12.0885 44.1412 11.7431 44.4867C11.3935 44.8365 10.8586 45.0093 10.1426 45.0093H9.06432V47.4365H8.07031V41.4526H10.1426ZM9.06432 44.2339H10.1426C10.5132 44.2339 10.787 44.1496 10.9681 43.981C11.1576 43.8041 11.2545 43.5554 11.2545 43.2394C11.2545 42.9149 11.1576 42.6621 10.9681 42.4809C10.787 42.3039 10.5132 42.2112 10.1426 42.2112H9.06432V44.2339Z" fill="#545454"/>
<path d="M16.3246 46.2229C16.6026 45.9322 16.7458 45.5445 16.7458 45.0599C16.7458 44.5795 16.6026 44.1918 16.3246 43.8968C16.0424 43.606 15.7055 43.4585 15.3138 43.4585C14.9178 43.4585 14.5809 43.606 14.3029 43.8968C14.0207 44.1791 13.8817 44.5626 13.8817 45.043C13.8817 45.5276 14.0207 45.9195 14.3029 46.2229C14.5809 46.5179 14.9178 46.6612 15.3138 46.6612C15.7055 46.6612 16.0424 46.5179 16.3246 46.2229ZM15.1116 47.5208C14.4798 47.5208 13.9491 47.2933 13.5111 46.8297C13.0814 46.3578 12.8708 45.7636 12.8708 45.043C12.8708 44.3266 13.0814 43.7409 13.5111 43.29C13.9365 42.8433 14.4714 42.6157 15.1116 42.6157C15.4822 42.6157 15.8065 42.7 16.0887 42.8686C16.3794 43.0371 16.5984 43.2647 16.7458 43.5428V42.6831H17.7398V47.4366H16.7458V46.5432C16.5857 46.8382 16.3667 47.0742 16.0887 47.2511C15.8065 47.4323 15.4822 47.5208 15.1116 47.5208Z" fill="#545454"/>
<path d="M18.8237 44.0485C18.8237 43.6439 18.9922 43.3068 19.3292 43.0371C19.6661 42.759 20.1084 42.6157 20.6601 42.6157C21.2077 42.6157 21.6457 42.7506 21.9742 43.0203C22.2986 43.29 22.4712 43.6608 22.4965 44.1328H21.4857C21.4604 43.8968 21.3761 43.7198 21.2329 43.5934C21.0855 43.4585 20.8791 43.3911 20.6096 43.3911C20.3484 43.3911 20.1463 43.4543 20.0031 43.5765C19.8556 43.6903 19.784 43.842 19.784 44.0316C19.784 44.2255 19.8767 44.3772 20.0705 44.4867C20.26 44.5879 20.4916 44.6679 20.7612 44.7227C21.0308 44.7817 21.3003 44.8492 21.5699 44.925C21.8479 44.9924 22.0795 45.1273 22.2606 45.3295C22.4502 45.5234 22.5471 45.7847 22.5471 46.1218C22.5471 46.539 22.3702 46.8761 22.0248 47.1331C21.6752 47.3944 21.2245 47.5208 20.677 47.5208C20.1378 47.5208 19.6998 47.3944 19.3629 47.1331C19.0259 46.8635 18.8406 46.4842 18.8069 45.9869H19.8177C19.8388 46.2229 19.923 46.4083 20.0705 46.5432C20.2263 46.678 20.4411 46.7455 20.7107 46.7455C20.9802 46.7455 21.1908 46.6907 21.3509 46.5769C21.5067 46.4547 21.5867 46.2988 21.5867 46.1049C21.5867 45.9027 21.4899 45.7467 21.3003 45.633C21.1066 45.5234 20.8791 45.4433 20.6096 45.397C20.34 45.3422 20.062 45.279 19.784 45.2116C19.5145 45.1357 19.2828 45.0009 19.0933 44.807C18.9122 44.6174 18.8237 44.3645 18.8237 44.0485Z" fill="#545454"/>
<path d="M25.9298 43.4924H24.7673V46.122C24.7673 46.3032 24.8052 46.4338 24.8852 46.5097C24.9736 46.5771 25.1211 46.6108 25.3232 46.6108H25.9298V47.4368H25.1548C24.245 47.4368 23.7901 46.9985 23.7901 46.122V43.4924H23.2173V42.6833H23.7901V41.5034H24.7673V42.6833H25.9298V43.4924Z" fill="#545454"/>
<path d="M28.8279 47.5208C28.1414 47.5208 27.5812 47.2975 27.1431 46.8466C26.7135 46.3999 26.5029 45.8015 26.5029 45.0599C26.5029 44.3182 26.7219 43.7282 27.16 43.29C27.598 42.8433 28.1582 42.6157 28.8447 42.6157C29.5397 42.6157 30.0999 42.8306 30.5295 43.2563C30.9549 43.6861 31.1697 44.2423 31.1697 44.925C31.1697 45.0936 31.1571 45.2537 31.136 45.397H27.5138C27.5348 45.7931 27.6654 46.1049 27.9013 46.3409C28.1456 46.5769 28.4573 46.6949 28.8279 46.6949C29.3544 46.6949 29.7292 46.4715 29.9567 46.0206H31.0181C30.8707 46.4589 30.6053 46.8213 30.2263 47.0994C29.843 47.3818 29.3754 47.5208 28.8279 47.5208ZM30.1589 44.7227C30.1462 44.3308 30.0114 44.0232 29.7545 43.7956C29.506 43.5597 29.2028 43.4417 28.8447 43.4417C28.4825 43.4417 28.1793 43.5597 27.935 43.7956C27.6865 44.0232 27.5475 44.3308 27.5138 44.7227H30.1589Z" fill="#545454"/>
<path d="M32.1331 47.4365V41.0649H33.1271V47.4365H32.1331Z" fill="#545454"/>
<path d="M40.1205 46.2229C40.3985 45.9321 40.5417 45.5444 40.5417 45.0598C40.5417 44.5794 40.3985 44.1917 40.1205 43.8968C39.8383 43.606 39.5014 43.4585 39.1097 43.4585C38.7137 43.4585 38.3768 43.606 38.0988 43.8968C37.8166 44.1791 37.6776 44.5626 37.6776 45.043C37.6776 45.5276 37.8166 45.9195 38.0988 46.2229C38.3768 46.5179 38.7137 46.6612 39.1097 46.6612C39.5014 46.6612 39.8383 46.5179 40.1205 46.2229ZM38.9075 47.5208C38.2757 47.5208 37.745 47.2933 37.307 46.8297C36.8773 46.3577 36.6667 45.7636 36.6667 45.043C36.6667 44.3266 36.8773 43.7408 37.307 43.2899C37.7324 42.8433 38.2673 42.6157 38.9075 42.6157C39.2781 42.6157 39.6024 42.7 39.8846 42.8685C40.1753 43.0371 40.3943 43.2647 40.5417 43.5428V41.0649H41.5357V47.4365H40.5417V46.5432C40.3816 46.8381 40.1626 47.0741 39.8846 47.2511C39.6024 47.4323 39.2781 47.5208 38.9075 47.5208Z" fill="#545454"/>
<path d="M44.8267 47.5208C44.1401 47.5208 43.58 47.2975 43.1419 46.8466C42.7123 46.3999 42.5017 45.8015 42.5017 45.0599C42.5017 44.3182 42.7207 43.7282 43.1588 43.29C43.5968 42.8433 44.157 42.6157 44.8435 42.6157C45.5385 42.6157 46.0987 42.8306 46.5283 43.2563C46.9537 43.6861 47.1685 44.2423 47.1685 44.925C47.1685 45.0936 47.1559 45.2537 47.1348 45.397H43.5126C43.5336 45.7931 43.6642 46.1049 43.9001 46.3409C44.1444 46.5769 44.456 46.6949 44.8267 46.6949C45.3532 46.6949 45.728 46.4715 45.9555 46.0206H47.0169C46.8695 46.4589 46.6041 46.8213 46.225 47.0994C45.8417 47.3818 45.3742 47.5208 44.8267 47.5208ZM46.1576 44.7227C46.145 44.3308 46.0102 44.0232 45.7533 43.7956C45.5048 43.5597 45.2015 43.4417 44.8435 43.4417C44.4813 43.4417 44.178 43.5597 43.9338 43.7956C43.6853 44.0232 43.5463 44.3308 43.5126 44.7227H46.1576Z" fill="#545454"/>
<path d="M52.7185 47.5208C52.032 47.5208 51.4718 47.2975 51.0338 46.8466C50.6042 46.3999 50.3936 45.8099 50.3936 45.0767C50.3936 44.335 50.6042 43.7409 51.0338 43.29C51.4718 42.8433 52.032 42.6157 52.7185 42.6157C53.2913 42.6157 53.7631 42.7506 54.1337 43.0203C54.5128 43.29 54.7739 43.6777 54.9087 44.1833H53.8473C53.6662 43.6903 53.2913 43.4417 52.7185 43.4417C52.3142 43.4417 51.9941 43.5849 51.7582 43.8631C51.5223 44.1454 51.4044 44.5457 51.4044 45.0599C51.4044 45.5655 51.5223 45.9659 51.7582 46.2566C51.9941 46.5516 52.3142 46.6949 52.7185 46.6949C53.2787 46.6949 53.6536 46.442 53.8473 45.9364H54.9087C54.7613 46.421 54.4959 46.8087 54.1169 47.0994C53.7462 47.3818 53.2787 47.5208 52.7185 47.5208Z" fill="#545454"/>
<path d="M59.0109 46.2229C59.2889 45.9322 59.4321 45.5445 59.4321 45.0599C59.4321 44.5795 59.2889 44.1918 59.0109 43.8968C58.7287 43.606 58.3917 43.4585 58 43.4585C57.6041 43.4585 57.2672 43.606 56.9892 43.8968C56.707 44.1791 56.568 44.5626 56.568 45.043C56.568 45.5276 56.707 45.9195 56.9892 46.2229C57.2672 46.5179 57.6041 46.6612 58 46.6612C58.3917 46.6612 58.7287 46.5179 59.0109 46.2229ZM57.7979 47.5208C57.1661 47.5208 56.6354 47.2933 56.1973 46.8297C55.7677 46.3578 55.5571 45.7636 55.5571 45.043C55.5571 44.3266 55.7677 43.7409 56.1973 43.29C56.6227 42.8433 57.1577 42.6157 57.7979 42.6157C58.1685 42.6157 58.4928 42.7 58.775 42.8686C59.0656 43.0371 59.2847 43.2647 59.4321 43.5428V42.6831H60.4261V47.4366H59.4321V46.5432C59.272 46.8382 59.053 47.0742 58.775 47.2511C58.4928 47.4323 58.1685 47.5208 57.7979 47.5208Z" fill="#545454"/>
<path d="M62.7062 42.6831V43.5091C63.0094 42.9149 63.4812 42.6157 64.1214 42.6157V43.6271H63.8687C63.4854 43.6271 63.1947 43.7282 62.9926 43.9305C62.7988 44.1243 62.7062 44.4615 62.7062 44.9419V47.4366H61.7122V42.6831H62.7062Z" fill="#545454"/>
<path d="M66.0109 42.6831V43.4417C66.3225 42.8938 66.828 42.6157 67.5271 42.6157C68.0536 42.6157 68.4917 42.7969 68.8413 43.1551C69.1866 43.5049 69.3635 43.9979 69.3635 44.6385V47.4366H68.3864V44.7902C68.3864 44.3645 68.2769 44.0401 68.0663 43.8125C67.8515 43.5765 67.5608 43.4585 67.1902 43.4585C66.828 43.4585 66.5416 43.5765 66.331 43.8125C66.1162 44.0401 66.0109 44.3645 66.0109 44.7902V47.4366H65.0168V42.6831H66.0109Z" fill="#545454"/>
<path d="M72.6072 47.5208C71.9207 47.5208 71.3605 47.2975 70.9224 46.8466C70.4928 46.3999 70.2822 45.8015 70.2822 45.0599C70.2822 44.3182 70.5012 43.7282 70.9393 43.29C71.3773 42.8433 71.9375 42.6157 72.624 42.6157C73.319 42.6157 73.8792 42.8306 74.3088 43.2563C74.7342 43.6861 74.949 44.2423 74.949 44.925C74.949 45.0936 74.9364 45.2537 74.9153 45.397H71.2931C71.3141 45.7931 71.4447 46.1049 71.6806 46.3409C71.9249 46.5769 72.2365 46.6949 72.6072 46.6949C73.1337 46.6949 73.5085 46.4715 73.736 46.0206H74.7974C74.65 46.4589 74.3846 46.8213 74.0055 47.0994C73.6223 47.3818 73.1547 47.5208 72.6072 47.5208ZM73.9382 44.7227C73.9255 44.3308 73.7907 44.0232 73.5338 43.7956C73.2853 43.5597 72.9821 43.4417 72.624 43.4417C72.2618 43.4417 71.9586 43.5597 71.7143 43.7956C71.4658 44.0232 71.3268 44.3308 71.2931 44.7227H73.9382Z" fill="#545454"/>
<path d="M14.3867 60.5217V59.7632H18.5649V60.5217H16.9644V65.7471H15.9872V60.5217H14.3867Z" fill="#545454"/>
<path d="M22.6269 64.5672C22.9175 64.2764 23.0649 63.8761 23.0649 63.3704C23.0649 62.8563 22.9217 62.456 22.6437 62.1736C22.3615 61.8955 22.0245 61.7522 21.6328 61.7522C21.2369 61.7522 20.9084 61.8955 20.6388 62.1736C20.3693 62.456 20.2345 62.8563 20.2345 63.3704C20.2345 63.8887 20.3608 64.2933 20.622 64.584C20.8915 64.8664 21.2201 65.0054 21.616 65.0054C22.0077 65.0054 22.3447 64.8622 22.6269 64.5672ZM21.5991 65.8314C20.9126 65.8314 20.344 65.608 19.8975 65.1571C19.4469 64.6978 19.2236 64.1036 19.2236 63.3704C19.2236 62.6414 19.4511 62.0514 19.9144 61.6005C20.3861 61.1538 20.9631 60.9263 21.6497 60.9263C22.332 60.9263 22.9048 61.1538 23.3681 61.6005C23.8399 62.0514 24.0757 62.6414 24.0757 63.3704C24.0757 64.1036 23.8315 64.6978 23.3513 65.1571C22.8796 65.608 22.2941 65.8314 21.5991 65.8314Z" fill="#545454"/>
<path d="M26.0284 60.9937V61.8196C26.3317 61.2255 26.8034 60.9263 27.4436 60.9263V61.9376H27.1909C26.8076 61.9376 26.517 62.0388 26.3148 62.241C26.1211 62.4349 26.0284 62.772 26.0284 63.2524V65.7471H25.0344V60.9937H26.0284Z" fill="#545454"/>
<path d="M30.6473 61.8027H29.4848V64.4323C29.4848 64.6135 29.5227 64.7441 29.6027 64.82C29.6912 64.8874 29.8386 64.9211 30.0408 64.9211H30.6473V65.7471H29.8723C28.9625 65.7471 28.5076 65.3088 28.5076 64.4323V61.8027H27.9348V60.9936H28.5076V59.8137H29.4848V60.9936H30.6473V61.8027Z" fill="#545454"/>
<path d="M34.6745 64.5335C34.9524 64.2427 35.0957 63.855 35.0957 63.3704C35.0957 62.89 34.9524 62.5023 34.6745 62.2073C34.3923 61.9166 34.0553 61.7691 33.6636 61.7691C33.2677 61.7691 32.9307 61.9166 32.6528 62.2073C32.3706 62.4897 32.2316 62.8731 32.2316 63.3535C32.2316 63.8382 32.3706 64.2301 32.6528 64.5335C32.9307 64.8284 33.2677 64.9717 33.6636 64.9717C34.0553 64.9717 34.3923 64.8284 34.6745 64.5335ZM33.4614 65.8314C32.8296 65.8314 32.299 65.6038 31.8609 65.1403C31.4313 64.6683 31.2207 64.0741 31.2207 63.3535C31.2207 62.6372 31.4313 62.0514 31.8609 61.6005C32.2863 61.1538 32.8212 60.9263 33.4614 60.9263C33.8321 60.9263 34.1564 61.0105 34.4386 61.1791C34.7292 61.3477 34.9482 61.5752 35.0957 61.8534V60.9937H36.0897V65.7471H35.0957V64.8537C34.9356 65.1487 34.7166 65.3847 34.4386 65.5617C34.1564 65.7429 33.8321 65.8314 33.4614 65.8314Z" fill="#545454"/>
<path d="M43.0912 64.5334C43.3692 64.2427 43.5124 63.855 43.5124 63.3704C43.5124 62.89 43.3692 62.5023 43.0912 62.2073C42.809 61.9165 42.4721 61.769 42.0804 61.769C41.6844 61.769 41.3475 61.9165 41.0695 62.2073C40.7873 62.4896 40.6483 62.8731 40.6483 63.3535C40.6483 63.8381 40.7873 64.23 41.0695 64.5334C41.3475 64.8284 41.6844 64.9717 42.0804 64.9717C42.4721 64.9717 42.809 64.8284 43.0912 64.5334ZM41.8782 65.8314C41.2464 65.8314 40.7157 65.6038 40.2777 65.1403C39.848 64.6683 39.6375 64.0741 39.6375 63.3535C39.6375 62.6371 39.848 62.0514 40.2777 61.6005C40.7031 61.1538 41.238 60.9262 41.8782 60.9262C42.2488 60.9262 42.5731 61.0105 42.8553 61.1791C43.146 61.3476 43.365 61.5752 43.5124 61.8533V59.3755H44.5064V65.7471H43.5124V64.8537C43.3524 65.1487 43.1333 65.3847 42.8553 65.5617C42.5731 65.7429 42.2488 65.8314 41.8782 65.8314Z" fill="#545454"/>
<path d="M47.7974 65.8314C47.1108 65.8314 46.5507 65.608 46.1126 65.1571C45.683 64.7105 45.4724 64.1121 45.4724 63.3704C45.4724 62.6287 45.6914 62.0388 46.1295 61.6005C46.5675 61.1538 47.1277 60.9263 47.8142 60.9263C48.5092 60.9263 49.0694 61.1412 49.499 61.5668C49.9244 61.9966 50.1392 62.5529 50.1392 63.2355C50.1392 63.4041 50.1266 63.5642 50.1055 63.7075H46.4833C46.5043 64.1036 46.6349 64.4155 46.8708 64.6515C47.1151 64.8874 47.4267 65.0054 47.7974 65.0054C48.3239 65.0054 48.6987 64.7821 48.9262 64.3312H49.9876C49.8402 64.7695 49.5748 65.1319 49.1957 65.41C48.8125 65.6923 48.3449 65.8314 47.7974 65.8314ZM49.1283 63.0333C49.1157 62.6414 48.9809 62.3338 48.724 62.1062C48.4755 61.8702 48.1722 61.7522 47.8142 61.7522C47.452 61.7522 47.1487 61.8702 46.9045 62.1062C46.656 62.3338 46.517 62.6414 46.4833 63.0333H49.1283Z" fill="#545454"/>
<path d="M53.6843 65.7471V59.3755H54.6783V65.7471H53.6843Z" fill="#545454"/>
<path d="M57.0851 59.7462C57.0851 59.9274 57.0219 60.0791 56.8998 60.2013C56.7734 60.3151 56.6218 60.3699 56.4449 60.3699C56.2764 60.3699 56.129 60.3151 56.0069 60.2013C55.8931 60.0791 55.8384 59.9274 55.8384 59.7462C55.8384 59.5692 55.8931 59.4218 56.0069 59.308C56.129 59.1858 56.2764 59.1226 56.4449 59.1226C56.6218 59.1226 56.7734 59.1858 56.8998 59.308C57.0219 59.4218 57.0851 59.5692 57.0851 59.7462ZM55.9563 65.747V60.9936H56.9503V65.747H55.9563Z" fill="#545454"/>
<path d="M59.2223 60.9937V61.7522C59.534 61.2044 60.0394 60.9263 60.7386 60.9263C61.0966 60.9263 61.4167 61.0105 61.6989 61.1791C61.9895 61.3477 62.2127 61.6005 62.3728 61.9376C62.5286 61.6258 62.7519 61.3772 63.0467 61.196C63.3499 61.019 63.6869 60.9263 64.0575 60.9263C64.6051 60.9263 65.0558 61.1075 65.4054 61.4657C65.7507 61.8154 65.9276 62.3085 65.9276 62.949V65.7471H64.9505V63.1007C64.9505 62.6751 64.841 62.3506 64.6304 62.123C64.4156 61.8871 64.1249 61.7691 63.7543 61.7691C63.3921 61.7691 63.1057 61.8871 62.8951 62.123C62.6803 62.3506 62.575 62.6751 62.575 63.1007V65.7471H61.5978V63.1007C61.5978 62.6751 61.4883 62.3506 61.2777 62.123C61.0629 61.8871 60.7723 61.7691 60.4016 61.7691C60.0394 61.7691 59.753 61.8871 59.5424 62.123C59.3276 62.3506 59.2223 62.6751 59.2223 63.1007V65.7471H58.2283V60.9937H59.2223Z" fill="#545454"/>
<path d="M68.046 60.5048C68.0882 60.1803 68.1977 59.9317 68.3661 59.7631C68.543 59.5945 68.7368 59.5103 68.939 59.5103C69.1496 59.5103 69.3601 59.5735 69.5623 59.6957C69.7645 59.8221 69.9161 59.8811 70.0172 59.8811C70.2278 59.8811 70.3542 59.7631 70.3879 59.5271H70.9438C70.8975 59.8558 70.7838 60.1002 70.6069 60.2688C70.4384 60.4373 70.2446 60.5216 70.0341 60.5216C69.8192 60.5216 69.6129 60.4626 69.4107 60.3362C69.2169 60.2014 69.0737 60.1339 68.9727 60.1339C68.7578 60.1339 68.6357 60.2603 68.602 60.5048H68.046ZM70.3036 64.5334C70.5816 64.2426 70.7248 63.8549 70.7248 63.3703C70.7248 62.8899 70.5816 62.5022 70.3036 62.2072C70.0214 61.9165 69.6845 61.769 69.2928 61.769C68.8968 61.769 68.5599 61.9165 68.2819 62.2072C67.9997 62.4896 67.8607 62.873 67.8607 63.3534C67.8607 63.838 67.9997 64.23 68.2819 64.5334C68.5599 64.8283 68.8968 64.9716 69.2928 64.9716C69.6845 64.9716 70.0214 64.8283 70.3036 64.5334ZM69.0906 65.8313C68.4588 65.8313 67.9281 65.6037 67.4901 65.1402C67.0604 64.6682 66.8499 64.074 66.8499 63.3534C66.8499 62.6371 67.0604 62.0513 67.4901 61.6004C67.9155 61.1537 68.4504 60.9262 69.0906 60.9262C69.4612 60.9262 69.7856 61.0104 70.0677 61.179C70.3584 61.3476 70.5774 61.5751 70.7248 61.8532V60.9936H71.7188V65.747H70.7248V64.8536C70.5648 65.1486 70.3457 65.3846 70.0677 65.5616C69.7856 65.7428 69.4612 65.8313 69.0906 65.8313Z" fill="#545454"/>
<path d="M76.088 64.5672C76.3787 64.2764 76.5261 63.8761 76.5261 63.3704C76.5261 62.8563 76.3829 62.456 76.1049 62.1736C75.8227 61.8955 75.4857 61.7522 75.094 61.7522C74.6981 61.7522 74.3696 61.8955 74.1 62.1736C73.8305 62.456 73.6957 62.8563 73.6957 63.3704C73.6957 63.8887 73.822 64.2933 74.0832 64.584C74.3527 64.8664 74.6813 65.0054 75.0772 65.0054C75.4689 65.0054 75.8058 64.8622 76.088 64.5672ZM75.0603 65.8314C74.3738 65.8314 73.8052 65.608 73.3587 65.1571C72.908 64.6978 72.6848 64.1036 72.6848 63.3704C72.6848 62.6414 72.9123 62.0514 73.3756 61.6005C73.8473 61.1538 74.4243 60.9263 75.1109 60.9263C75.7932 60.9263 76.366 61.1538 76.8293 61.6005C77.3011 62.0514 77.5369 62.6414 77.5369 63.3704C77.5369 64.1036 77.2926 64.6978 76.8125 65.1571C76.3407 65.608 75.7553 65.8314 75.0603 65.8314Z" fill="#545454"/>
<path d="M7.23633 78.0737H9.5276C10.1341 78.0737 10.6059 78.2254 10.9428 78.5288C11.2882 78.8238 11.4651 79.1989 11.4651 79.6582C11.4651 80.3324 11.0776 80.7791 10.3026 80.9898C10.6817 81.0488 10.9933 81.2216 11.2292 81.5124C11.4735 81.7947 11.5999 82.115 11.5999 82.4732C11.5999 82.9367 11.4187 83.316 11.0607 83.6194C10.7111 83.9144 10.2352 84.0576 9.62869 84.0576H7.23633V78.0737ZM8.23034 78.8323V80.619H9.44337C9.75505 80.619 10.0035 80.5431 10.1847 80.383C10.3616 80.2271 10.4542 80.008 10.4542 79.7256C10.4542 79.4475 10.3616 79.2284 10.1847 79.0682C10.0035 78.9123 9.75505 78.8323 9.44337 78.8323H8.23034ZM8.23034 83.2991H9.54445C9.8814 83.2991 10.1425 83.2148 10.3363 83.0463C10.5258 82.8777 10.6227 82.6502 10.6227 82.3552C10.6227 82.0518 10.5216 81.8158 10.3194 81.6472C10.1173 81.4702 9.84771 81.3775 9.51076 81.3775H8.23034V83.2991Z" fill="#545454"/>
<path d="M15.7414 82.8777C16.032 82.587 16.1794 82.1866 16.1794 81.6809C16.1794 81.1668 16.0362 80.7665 15.7582 80.4842C15.476 80.206 15.1391 80.0628 14.7473 80.0628C14.3514 80.0628 14.0229 80.206 13.7533 80.4842C13.4838 80.7665 13.349 81.1668 13.349 81.6809C13.349 82.1993 13.4753 82.6038 13.7365 82.8946C14.006 83.1769 14.3346 83.316 14.7305 83.316C15.1222 83.316 15.4592 83.1727 15.7414 82.8777ZM14.7136 84.1419C14.0271 84.1419 13.4585 83.9186 13.012 83.4677C12.5614 83.0084 12.3381 82.4142 12.3381 81.6809C12.3381 80.9519 12.5656 80.362 13.0289 79.9111C13.5006 79.4644 14.0777 79.2368 14.7642 79.2368C15.4465 79.2368 16.0193 79.4644 16.4826 79.9111C16.9544 80.362 17.1902 80.9519 17.1902 81.6809C17.1902 82.4142 16.946 83.0084 16.4658 83.4677C15.9941 83.9186 15.4086 84.1419 14.7136 84.1419Z" fill="#545454"/>
<path d="M18.1489 84.0576V77.686H19.1429V84.0576H18.1489Z" fill="#545454"/>
<path d="M23.504 82.8777C23.7947 82.587 23.9421 82.1866 23.9421 81.6809C23.9421 81.1668 23.7989 80.7665 23.5209 80.4842C23.2387 80.206 22.9017 80.0628 22.51 80.0628C22.1141 80.0628 21.7856 80.206 21.516 80.4842C21.2465 80.7665 21.1117 81.1668 21.1117 81.6809C21.1117 82.1993 21.238 82.6038 21.4992 82.8946C21.7687 83.1769 22.0973 83.316 22.4932 83.316C22.8849 83.316 23.2219 83.1727 23.504 82.8777ZM22.4763 84.1419C21.7898 84.1419 21.2212 83.9186 20.7747 83.4677C20.3241 83.0084 20.1008 82.4142 20.1008 81.6809C20.1008 80.9519 20.3283 80.362 20.7916 79.9111C21.2633 79.4644 21.8403 79.2368 22.5269 79.2368C23.2092 79.2368 23.782 79.4644 24.2453 79.9111C24.7171 80.362 24.9529 80.9519 24.9529 81.6809C24.9529 82.4142 24.7087 83.0084 24.2285 83.4677C23.7568 83.9186 23.1713 84.1419 22.4763 84.1419Z" fill="#545454"/>
<path d="M31.6271 82.844C31.9051 82.5532 32.0483 82.1655 32.0483 81.6809C32.0483 81.2005 31.9051 80.8128 31.6271 80.5179C31.3449 80.2271 31.008 80.0796 30.6162 80.0796C30.2203 80.0796 29.8834 80.2271 29.6054 80.5179C29.3232 80.8002 29.1842 81.1837 29.1842 81.6641C29.1842 82.1487 29.3232 82.5406 29.6054 82.844C29.8834 83.139 30.2203 83.2822 30.6162 83.2822C31.008 83.2822 31.3449 83.139 31.6271 82.844ZM30.4141 84.1419C29.7823 84.1419 29.2516 83.9144 28.8135 83.4508C28.3839 82.9788 28.1733 82.3847 28.1733 81.6641C28.1733 80.9477 28.3839 80.3619 28.8135 79.911C29.239 79.4644 29.7739 79.2368 30.4141 79.2368C30.7847 79.2368 31.109 79.3211 31.3912 79.4896C31.6819 79.6582 31.9009 79.8858 32.0483 80.1639V77.686H33.0423V84.0576H32.0483V83.1643C31.8882 83.4592 31.6692 83.6952 31.3912 83.8722C31.109 84.0534 30.7847 84.1419 30.4141 84.1419Z" fill="#545454"/>
<path d="M36.3333 84.1419C35.6467 84.1419 35.0865 83.9186 34.6485 83.4677C34.2189 83.021 34.0083 82.4226 34.0083 81.6809C34.0083 80.9393 34.2273 80.3493 34.6654 79.9111C35.1034 79.4644 35.6636 79.2368 36.3501 79.2368C37.0451 79.2368 37.6053 79.4517 38.0349 79.8773C38.4603 80.3072 38.6751 80.8634 38.6751 81.5461C38.6751 81.7147 38.6625 81.8748 38.6414 82.0181H35.0192C35.0402 82.4142 35.1708 82.726 35.4067 82.962C35.6509 83.198 35.9626 83.316 36.3333 83.316C36.8598 83.316 37.2346 83.0926 37.4621 82.6417H38.5235C38.376 83.08 38.1107 83.4424 37.7316 83.7205C37.3483 84.0029 36.8808 84.1419 36.3333 84.1419ZM37.6642 81.3438C37.6516 80.9519 37.5168 80.6443 37.2599 80.4167C37.0114 80.1808 36.7081 80.0628 36.3501 80.0628C35.9879 80.0628 35.6846 80.1808 35.4403 80.4167C35.1918 80.6443 35.0529 80.9519 35.0192 81.3438H37.6642Z" fill="#545454"/>
<path d="M44.2251 84.1419C43.5386 84.1419 42.9784 83.9186 42.5404 83.4677C42.1107 83.021 41.9001 82.431 41.9001 81.6978C41.9001 80.9561 42.1107 80.362 42.5404 79.9111C42.9784 79.4644 43.5386 79.2368 44.2251 79.2368C44.7979 79.2368 45.2697 79.3717 45.6403 79.6414C46.0194 79.9111 46.2805 80.2987 46.4153 80.8044H45.3539C45.1728 80.3114 44.7979 80.0628 44.2251 80.0628C43.8208 80.0628 43.5007 80.206 43.2648 80.4842C43.0289 80.7665 42.911 81.1668 42.911 81.6809C42.911 82.1866 43.0289 82.587 43.2648 82.8777C43.5007 83.1727 43.8208 83.316 44.2251 83.316C44.7853 83.316 45.1602 83.0631 45.3539 82.5575H46.4153C46.2679 83.0421 46.0025 83.4298 45.6235 83.7205C45.2528 84.0029 44.7853 84.1419 44.2251 84.1419Z" fill="#545454"/>
<path d="M49.3887 84.1419C48.7022 84.1419 48.142 83.9186 47.7039 83.4677C47.2743 83.021 47.0637 82.4226 47.0637 81.6809C47.0637 80.9393 47.2827 80.3493 47.7208 79.9111C48.1588 79.4644 48.719 79.2368 49.4055 79.2368C50.1005 79.2368 50.6607 79.4517 51.0903 79.8773C51.5157 80.3072 51.7305 80.8634 51.7305 81.5461C51.7305 81.7147 51.7179 81.8748 51.6968 82.0181H48.0746C48.0956 82.4142 48.2262 82.726 48.4621 82.962C48.7064 83.198 49.018 83.316 49.3887 83.316C49.9152 83.316 50.29 83.0926 50.5175 82.6417H51.5789C51.4315 83.08 51.1661 83.4424 50.787 83.7205C50.4038 84.0029 49.9362 84.1419 49.3887 84.1419ZM50.7197 81.3438C50.707 80.9519 50.5722 80.6443 50.3153 80.4167C50.0668 80.1808 49.7636 80.0628 49.4055 80.0628C49.0433 80.0628 48.7401 80.1808 48.4958 80.4167C48.2473 80.6443 48.1083 80.9519 48.0746 81.3438H50.7197Z" fill="#545454"/>
<path d="M53.6879 79.3042V80.0628C53.9995 79.5149 54.505 79.2368 55.2041 79.2368C55.7306 79.2368 56.1687 79.418 56.5183 79.7762C56.8636 80.126 57.0405 80.619 57.0405 81.2595V84.0576H56.0634V81.4112C56.0634 80.9856 55.9539 80.6612 55.7433 80.4336C55.5285 80.1976 55.2378 80.0796 54.8672 80.0796C54.505 80.0796 54.2186 80.1976 54.008 80.4336C53.7932 80.6612 53.6879 80.9856 53.6879 81.4112V84.0576H52.6938V79.3042H53.6879Z" fill="#545454"/>
<path d="M61.3622 82.8777C61.6528 82.587 61.8002 82.1866 61.8002 81.6809C61.8002 81.1668 61.657 80.7665 61.3791 80.4842C61.0969 80.206 60.7599 80.0628 60.3682 80.0628C59.9723 80.0628 59.6437 80.206 59.3742 80.4842C59.1046 80.7665 58.9698 81.1668 58.9698 81.6809C58.9698 82.1993 59.0962 82.6038 59.3573 82.8946C59.6269 83.1769 59.9554 83.316 60.3513 83.316C60.7431 83.316 61.08 83.1727 61.3622 82.8777ZM60.3345 84.1419C59.648 84.1419 59.0794 83.9186 58.6329 83.4677C58.1822 83.0084 57.959 82.4142 57.959 81.6809C57.959 80.9519 58.1864 80.362 58.6497 79.9111C59.1215 79.4644 59.6985 79.2368 60.385 79.2368C61.0674 79.2368 61.6402 79.4644 62.1035 79.9111C62.5752 80.362 62.8111 80.9519 62.8111 81.6809C62.8111 82.4142 62.5668 83.0084 62.0866 83.4677C61.6149 83.9186 61.0295 84.1419 60.3345 84.1419Z" fill="#545454"/>
<path d="M67.089 79.3042H68.0662V84.0576H67.089V83.3159C66.7731 83.8553 66.2677 84.125 65.5727 84.125C65.042 84.125 64.604 83.9523 64.2586 83.6025C63.909 83.2443 63.7363 82.7513 63.7363 82.1192V79.3042H64.7135V81.9675C64.7135 82.3973 64.8146 82.7218 65.0167 82.9451C65.2273 83.1727 65.5222 83.2822 65.8928 83.2822C66.2635 83.2822 66.5541 83.1727 66.7689 82.9451C66.9795 82.7218 67.089 82.3973 67.089 81.9675V79.3042Z" fill="#545454"/>
<path d="M70.3492 79.3042V80.1302C70.6525 79.536 71.1242 79.2368 71.7644 79.2368V80.2482H71.5117C71.1284 80.2482 70.8378 80.3493 70.6356 80.5516C70.4419 80.7454 70.3492 81.0826 70.3492 81.563V84.0576H69.3552V79.3042H70.3492Z" fill="#545454"/>
<path d="M75.7936 82.844C76.0716 82.5532 76.2148 82.1656 76.2148 81.6809C76.2148 81.2005 76.0716 80.8129 75.7936 80.5179C75.5114 80.2271 75.1745 80.0796 74.7827 80.0796C74.3868 80.0796 74.0499 80.2271 73.7719 80.5179C73.4897 80.8002 73.3507 81.1837 73.3507 81.6641C73.3507 82.1487 73.4897 82.5406 73.7719 82.844C74.0499 83.139 74.3868 83.2823 74.7827 83.2823C75.1745 83.2823 75.5114 83.139 75.7936 82.844ZM74.5806 84.1419C73.9488 84.1419 73.4181 83.9144 72.9801 83.4508C72.5504 82.9789 72.3398 82.3847 72.3398 81.6641C72.3398 80.9477 72.5504 80.362 72.9801 79.9111C73.4055 79.4644 73.9404 79.2368 74.5806 79.2368C74.9512 79.2368 75.2755 79.3211 75.5577 79.4897C75.8484 79.6582 76.0674 79.8858 76.2148 80.1639V79.3042H77.2088V84.0576H76.2148V83.1643C76.0547 83.4593 75.8357 83.6952 75.5577 83.8722C75.2755 84.0534 74.9512 84.1419 74.5806 84.1419Z" fill="#545454"/>
<path d="M84.7456 0H170.336C170.513 0 170.681 0.0337121 170.845 0.101136C171.005 0.168561 171.149 0.265483 171.275 0.387689C171.397 0.514109 171.494 0.657386 171.561 0.821733C171.629 0.986079 171.662 1.15464 171.662 1.33163V15.3053C171.662 15.4823 171.629 15.6509 171.561 15.8152C171.494 15.9795 171.397 16.1228 171.275 16.245C171.149 16.3714 171.005 16.4684 170.845 16.5358C170.681 16.6032 170.513 16.6369 170.336 16.6369H84.7456V0Z" fill="#00796B"/>
<path d="M84.7456 18.3225H222.433C222.605 18.3225 222.778 18.3562 222.938 18.4236C223.102 18.4911 223.246 18.588 223.372 18.7144C223.494 18.8366 223.591 18.9799 223.658 19.1442C223.726 19.3086 223.759 19.4772 223.759 19.6541V33.6278C223.759 33.8048 223.726 33.9734 223.658 34.1377C223.591 34.3021 223.494 34.4453 223.372 34.5718C223.246 34.694 223.102 34.7909 222.938 34.8583C222.778 34.9257 222.605 34.9594 222.433 34.9594H84.7456V18.3225Z" fill="#4DB6AC"/>
<path d="M84.7456 36.645H343.988C344.165 36.645 344.334 36.6787 344.498 36.7462C344.662 36.8136 344.805 36.9105 344.932 37.0369C345.054 37.1591 345.151 37.3024 345.218 37.4668C345.286 37.6311 345.319 37.7997 345.319 37.9766V51.9503C345.319 52.1273 345.286 52.2959 345.218 52.4602C345.151 52.6246 345.054 52.7678 344.932 52.8943C344.805 53.0165 344.662 53.1134 344.498 53.1808C344.338 53.2482 344.165 53.282 343.988 53.282H84.7456V36.645Z" fill="#00796B"/>
<path d="M84.7456 54.9675H396.085C396.262 54.9675 396.431 55.0012 396.595 55.0687C396.759 55.1361 396.902 55.233 397.025 55.3594C397.151 55.4816 397.248 55.6291 397.315 55.7893C397.383 55.9536 397.416 56.1222 397.416 56.2992V70.2728C397.416 70.4498 397.383 70.6226 397.315 70.7827C397.248 70.9471 397.151 71.0904 397.025 71.2168C396.902 71.339 396.759 71.4359 396.595 71.5033C396.431 71.5707 396.262 71.6045 396.085 71.6045H84.7456V54.9675Z" fill="#4DB6AC"/>
<path d="M84.7456 73.29H465.548C465.725 73.29 465.893 73.3238 466.058 73.3912C466.222 73.4586 466.365 73.5555 466.487 73.6819C466.614 73.8041 466.711 73.9516 466.778 74.1118C466.845 74.2761 466.879 74.4447 466.879 74.6217V88.5953C466.879 88.7723 466.845 88.9451 466.778 89.1052C466.711 89.2696 466.614 89.4129 466.487 89.5393C466.365 89.6615 466.222 89.7584 466.058 89.8258C465.893 89.8933 465.725 89.927 465.548 89.927H84.7456V73.29Z" fill="#00796B"/>
</svg>
