<svg width="33" height="33" viewBox="0 0 33 33" fill="none" xmlns="http://www.w3.org/2000/svg">
<path d="M6.01013 26.4C6.09263 26.4 6.17513 26.3918 6.25763 26.3794L13.1959 25.1625C13.2784 25.146 13.3568 25.1089 13.4145 25.047L30.9004 7.56112C30.9386 7.52296 30.969 7.47763 30.9897 7.42773C31.0104 7.37783 31.021 7.32434 31.021 7.27031C31.021 7.21629 31.0104 7.16279 30.9897 7.11289C30.969 7.06299 30.9386 7.01766 30.9004 6.9795L24.0446 0.119625C23.9663 0.0412501 23.8631 0 23.7518 0C23.6404 0 23.5373 0.0412501 23.4589 0.119625L5.973 17.6055C5.91112 17.6674 5.874 17.7416 5.8575 17.8241L4.64062 24.7624C4.6005 24.9834 4.61484 25.2108 4.6824 25.425C4.74996 25.6392 4.86871 25.8337 5.02838 25.9916C5.30062 26.2556 5.643 26.4 6.01013 26.4ZM8.79038 19.206L23.7518 4.24875L26.7754 7.27237L11.814 22.2296L8.14688 22.8773L8.79038 19.206ZM31.68 29.865H1.32C0.589875 29.865 0 30.4549 0 31.185V32.67C0 32.8515 0.1485 33 0.33 33H32.67C32.8515 33 33 32.8515 33 32.67V31.185C33 30.4549 32.4101 29.865 31.68 29.865Z" fill="white"/>
</svg>
