<svg width="57" height="58" viewBox="0 0 57 58" fill="none" xmlns="http://www.w3.org/2000/svg">
<path d="M10.3811 46.4C10.5236 46.4 10.6661 46.3855 10.8086 46.3638L22.7929 44.225C22.9354 44.196 23.0708 44.1307 23.1705 44.022L53.3734 13.2892C53.4394 13.2222 53.4918 13.1425 53.5276 13.0548C53.5633 12.9671 53.5817 12.8731 53.5817 12.7781C53.5817 12.6832 53.5633 12.5892 53.5276 12.5014C53.4918 12.4137 53.4394 12.3341 53.3734 12.267L41.5316 0.21025C41.3963 0.0725001 41.2181 0 41.0257 0C40.8334 0 40.6553 0.0725001 40.5199 0.21025L10.317 30.943C10.2101 31.0517 10.146 31.1822 10.1175 31.3272L8.01562 43.5217C7.94631 43.9101 7.97108 44.3099 8.08778 44.6863C8.20448 45.0628 8.4096 45.4046 8.68537 45.6822C9.15562 46.1462 9.747 46.4 10.3811 46.4ZM15.1834 33.756L41.0257 7.4675L46.2484 12.7817L20.406 39.0703L14.0719 40.2085L15.1834 33.756ZM54.72 52.49H2.28C1.01887 52.49 0 53.5267 0 54.81V57.42C0 57.739 0.2565 58 0.57 58H56.43C56.7435 58 57 57.739 57 57.42V54.81C57 53.5267 55.9811 52.49 54.72 52.49Z" fill="#00796B"/>
</svg>
