<svg width="49" height="52" viewBox="0 0 49 52" fill="none" xmlns="http://www.w3.org/2000/svg">
<path d="M14.8021 4.68H14.2917C14.5724 4.68 14.8021 4.446 14.8021 4.16V4.68H34.1979V4.16C34.1979 4.446 34.4276 4.68 34.7083 4.68H34.1979V9.36H38.7917V4.16C38.7917 1.8655 36.9605 0 34.7083 0H14.2917C12.0395 0 10.2083 1.8655 10.2083 4.16V9.36H14.8021V4.68ZM46.9583 9.36H2.04167C0.91237 9.36 0 10.2895 0 11.44V13.52C0 13.806 0.229687 14.04 0.510417 14.04H4.36406L5.93997 48.035C6.04206 50.2515 7.84128 52 10.0169 52H38.9831C41.1651 52 42.9579 50.258 43.06 48.035L44.6359 14.04H48.4896C48.7703 14.04 49 13.806 49 13.52V11.44C49 10.2895 48.0876 9.36 46.9583 9.36ZM38.4918 47.32H10.5082L8.96419 14.04H40.0358L38.4918 47.32Z" fill="#00796B"/>
</svg>
