<svg width="50" height="50" viewBox="0 0 50 50" fill="none" xmlns="http://www.w3.org/2000/svg">
<path d="M5 35V45H15V35H5ZM35 27.5H15C14.337 27.5 13.7011 27.7634 13.2322 28.2322C12.7634 28.7011 12.5 29.337 12.5 30H15C16.3261 30 17.5979 30.5268 18.5355 31.4645C19.4732 32.4021 20 33.6739 20 35V45C20 46.3261 19.4732 47.5979 18.5355 48.5355C17.5979 49.4732 16.3261 50 15 50H5C3.67392 50 2.40215 49.4732 1.46447 48.5355C0.526784 47.5979 0 46.3261 0 45V35C0 33.6739 0.526784 32.4021 1.46447 31.4645C2.40215 30.5268 3.67392 30 5 30H7.5C7.5 28.0109 8.29018 26.1032 9.6967 24.6967C11.1032 23.2902 13.0109 22.5 15 22.5H22.5V20H20C18.6739 20 17.4021 19.4732 16.4645 18.5355C15.5268 17.5979 15 16.3261 15 15V5C15 3.67392 15.5268 2.40215 16.4645 1.46447C17.4021 0.526784 18.6739 0 20 0L30 0C31.3261 0 32.5979 0.526784 33.5355 1.46447C34.4732 2.40215 35 3.67392 35 5V15C35 16.3261 34.4732 17.5979 33.5355 18.5355C32.5979 19.4732 31.3261 20 30 20H27.5V22.5H35C36.9891 22.5 38.8968 23.2902 40.3033 24.6967C41.7098 26.1032 42.5 28.0109 42.5 30H45C46.3261 30 47.5979 30.5268 48.5355 31.4645C49.4732 32.4021 50 33.6739 50 35V45C50 46.3261 49.4732 47.5979 48.5355 48.5355C47.5979 49.4732 46.3261 50 45 50H35C33.6739 50 32.4021 49.4732 31.4645 48.5355C30.5268 47.5979 30 46.3261 30 45V35C30 33.6739 30.5268 32.4021 31.4645 31.4645C32.4021 30.5268 33.6739 30 35 30H37.5C37.5 29.337 37.2366 28.7011 36.7678 28.2322C36.2989 27.7634 35.663 27.5 35 27.5ZM20 5V15H30V5H20ZM35 35V45H45V35H35Z" fill="#00796B"/>
</svg>
