<svg width="56" height="65" viewBox="0 0 56 65" fill="none" xmlns="http://www.w3.org/2000/svg">
<path d="M40.4444 34.0476C31.8578 34.0476 24.8889 40.981 24.8889 49.5238C24.8889 58.0667 31.8578 65 40.4444 65C49.0311 65 56 58.0667 56 49.5238C56 40.981 49.0311 34.0476 40.4444 34.0476ZM45.5778 56.7976L38.8889 50.1429V40.2381H42V48.8738L47.7556 54.6L45.5778 56.7976V56.7976ZM49.7778 6.19048H33.6622C32.3556 2.6 28.9333 0 24.8889 0C20.8444 0 17.4222 2.6 16.1156 6.19048H0V65H25.2311C23.3905 63.2226 21.8931 61.1244 20.8133 58.8095H6.22222V12.381H12.4444V21.6667H37.3333V12.381H43.5556V28.1048C45.7644 28.4143 47.8489 29.0643 49.7778 29.9619V6.19048ZM24.8889 12.381C23.1778 12.381 21.7778 10.9881 21.7778 9.28571C21.7778 7.58333 23.1778 6.19048 24.8889 6.19048C26.6 6.19048 28 7.58333 28 9.28571C28 10.9881 26.6 12.381 24.8889 12.381Z" fill="#00796B"/>
</svg>
