<svg width="88" height="96" viewBox="0 0 88 96" fill="none" xmlns="http://www.w3.org/2000/svg">
<path d="M0 0H13.8947V14.4H0V0ZM13.8947 24H27.7895V38.4H13.8947V24ZM23.1579 0H37.0526V14.4H23.1579V0ZM64.8421 43.2L41.6842 19.2H55.5789V0H74.1053V19.2H88L64.8421 43.2ZM20.8421 96C17.2295 96 14.08 93.84 12.5516 90.72L0.463157 54.912L0 52.8C0 51.527 0.487968 50.3061 1.35656 49.4059C2.22515 48.5057 3.40321 48 4.63158 48H78.7368C79.9652 48 81.1433 48.5057 82.0119 49.4059C82.8805 50.3061 83.3684 51.527 83.3684 52.8L83.1832 54.192L70.8168 90.72C69.2884 93.84 66.1389 96 62.5263 96H20.8421ZM21.3516 86.4H62.0168L72.1137 57.6H11.2084L21.3516 86.4V86.4Z" fill="#FF5722"/>
</svg>
