<svg width="56" height="56" viewBox="0 0 56 56" fill="none" xmlns="http://www.w3.org/2000/svg">
<path d="M15.7394 8.75C14.6901 8.75 13.9905 9.8 13.9905 10.5V19.25H10.4929V10.5C10.4929 9.45 9.79337 8.75 8.74408 8.75C7.69479 8.75 6.99527 9.8 6.99527 10.5V19.25H3.49763V10.5C3.49763 9.45 2.79811 8.75 1.74882 8.75C0.699527 8.75 0 9.8 0 10.5V22.05C0 25.2 2.44834 27.65 5.24645 28V52.5C5.24645 54.6 6.6455 56 8.74408 56C10.8427 56 12.2417 54.6 12.2417 52.5V28C15.0398 27.65 17.4882 25.2 17.4882 22.05V10.5C17.4882 9.8 16.7886 8.75 15.7394 8.75ZM22.7346 10.5V31.5H26.2323V52.5C26.2323 54.6 27.6313 56 29.7299 56C31.8285 56 33.2275 54.6 33.2275 52.5V0C27.2815 0 22.7346 4.55 22.7346 10.5ZM47.2181 7C42.3214 7 38.474 12.25 38.474 18.55C38.1242 22.75 40.2228 26.6 43.7204 29.05V52.5C43.7204 54.6 45.1195 56 47.2181 56C49.3166 56 50.7157 54.6 50.7157 52.5V29.05C54.2133 26.6 56.3119 22.75 55.9621 18.55C55.9621 12.25 52.1147 7 47.2181 7Z" fill="#00796B"/>
</svg>
