<svg width="18" height="22" viewBox="0 0 18 22" fill="none" xmlns="http://www.w3.org/2000/svg">
<path d="M6.42857 16.6964H11.5714C12.2786 16.6964 12.8571 16.0997 12.8571 15.3705V8.74095H14.9014C16.0457 8.74095 16.6243 7.30898 15.8143 6.47366L9.91286 0.387753C9.79391 0.264837 9.65263 0.16732 9.49709 0.100784C9.34155 0.0342481 9.17482 0 9.00643 0C8.83804 0 8.67131 0.0342481 8.51577 0.100784C8.36023 0.16732 8.21895 0.264837 8.1 0.387753L2.19857 6.47366C1.38857 7.30898 1.95429 8.74095 3.09857 8.74095H5.14286V15.3705C5.14286 16.0997 5.72143 16.6964 6.42857 16.6964ZM1.28571 19.3482H16.7143C17.4214 19.3482 18 19.9448 18 20.6741C18 21.4033 17.4214 22 16.7143 22H1.28571C0.578571 22 0 21.4033 0 20.6741C0 19.9448 0.578571 19.3482 1.28571 19.3482Z" fill="white"/>
</svg>
