<svg width="29" height="30" viewBox="0 0 29 30" fill="none" xmlns="http://www.w3.org/2000/svg">
<path d="M28.5236 27.1413L23.0476 21.4931C24.8144 19.1646 25.773 16.2892 25.7695 13.329C25.7695 10.6928 25.0138 8.11578 23.598 5.92383C22.1822 3.73188 20.1699 2.02346 17.8155 1.01462C15.4611 0.00577522 12.8704 -0.258184 10.3711 0.25612C7.87166 0.770423 5.57582 2.03989 3.77386 3.90399C1.9719 5.76809 0.744743 8.1431 0.247582 10.7287C-0.249578 13.3143 0.00558271 15.9943 0.980798 18.4298C1.95601 20.8654 3.60748 22.9471 5.72637 24.4117C7.84525 25.8763 10.3364 26.6581 12.8847 26.6581C15.7462 26.6618 18.5258 25.67 20.7766 23.8423L26.2366 29.5072C26.3863 29.6633 26.5644 29.7873 26.7607 29.8719C26.9569 29.9565 27.1675 30 27.3801 30C27.5927 30 27.8032 29.9565 27.9995 29.8719C28.1957 29.7873 28.3739 29.6633 28.5236 29.5072C28.6745 29.3523 28.7944 29.168 28.8761 28.965C28.9579 28.7619 29 28.5442 29 28.3242C29 28.1043 28.9579 27.8865 28.8761 27.6835C28.7944 27.4804 28.6745 27.2961 28.5236 27.1413ZM3.22119 13.329C3.22119 11.3519 3.78795 9.41909 4.84979 7.77513C5.91164 6.13117 7.42088 4.84986 9.18666 4.09322C10.9524 3.33659 12.8955 3.13862 14.77 3.52435C16.6446 3.91008 18.3664 4.86218 19.7179 6.26025C21.0694 7.65833 21.9897 9.43958 22.3626 11.3788C22.7355 13.318 22.5441 15.328 21.8127 17.1546C21.0813 18.9813 19.8427 20.5426 18.2535 21.6411C16.6644 22.7395 14.796 23.3258 12.8847 23.3258C10.3218 23.3258 7.86385 22.2726 6.05158 20.3978C4.23931 18.5231 3.22119 15.9804 3.22119 13.329Z" fill="#00796B"/>
</svg>
